<svg id="_4289329" data-name="4289329" xmlns="http://www.w3.org/2000/svg" width="16.32" height="16.292" viewBox="0 0 16.32 16.292">
  <path id="Trazado_11095" data-name="Trazado 11095" d="M12.93,9.936a3.406,3.406,0,0,0-.425.027,2.873,2.873,0,0,0,.541-1.685V7.56h.771a.961.961,0,0,0,.96-.96V5.544a.24.24,0,0,0-.481,0V6.6a.48.48,0,0,1-.479.479h-.771V3.311A2.889,2.889,0,0,0,11.752.9h.822A1.724,1.724,0,0,1,14.3,2.626v1.8a.24.24,0,0,0,.481,0v-1.8a2.2,2.2,0,0,0-2.2-2.2H2.2A2.2,2.2,0,0,0,0,2.626V6.6a.961.961,0,0,0,.96.96h.771v.718a2.871,2.871,0,0,0,1.277,2.4,2.209,2.209,0,0,0,.2.5A7.9,7.9,0,0,0,2.13,12.819a.24.24,0,1,0,.431.213,7.482,7.482,0,0,1,.93-1.449,2.226,2.226,0,0,0,1.671.756c4.767,0,4.472,0,4.525,0a3.4,3.4,0,0,0,.3,2.68H2.085a.17.17,0,0,1-.167-.211c.064-.26.14-.519.225-.768a.24.24,0,0,0-.455-.156,5.592,5.592,0,0,0-.256.965.653.653,0,0,0,.653.651h8.244a3.389,3.389,0,1,0,2.6-5.562ZM.96,7.079A.48.48,0,0,1,.481,6.6V2.626A1.724,1.724,0,0,1,2.2.9h.822A2.889,2.889,0,0,0,1.731,3.311V7.079Zm1.252,1.2V3.311A2.409,2.409,0,0,1,4.618.9h5.541a2.409,2.409,0,0,1,2.406,2.406V8.278A2.391,2.391,0,0,1,11.84,10V8.848A2.227,2.227,0,0,0,9.615,6.623H5.161A2.227,2.227,0,0,0,2.936,8.848V10a2.391,2.391,0,0,1-.725-1.722Zm4.547-.234a.309.309,0,0,1-.308-.308V7.1H8.326v.632a.309.309,0,0,1-.308.308Zm-1.6,3.813a1.747,1.747,0,0,1-1.707-1.386,8.812,8.812,0,0,1-.037-1.623A1.746,1.746,0,0,1,5.161,7.1h.808v.632a.79.79,0,0,0,.789.789h.389v.647l-.44.173a1.051,1.051,0,0,1-.92-.072.24.24,0,0,0-.243.415,1.529,1.529,0,0,0,1.338.1l.505-.2.505.2a1.529,1.529,0,0,0,1.338-.1.24.24,0,0,0-.243-.415,1.051,1.051,0,0,1-.92.072l-.44-.173V8.525h.389a.79.79,0,0,0,.789-.789V7.1h.808a1.746,1.746,0,0,1,1.744,1.744v1.265a1.777,1.777,0,0,1-.014.216,3.4,3.4,0,0,0-1.461,1.507c-.235.036-.122.021-4.723.021Zm7.769-1.44a2.909,2.909,0,1,1-2.876,3.352v0A2.913,2.913,0,0,1,12.93,10.417Z" transform="translate(0 -0.424)" fill="#8696a9"/>
  <path id="Trazado_11096" data-name="Trazado 11096" d="M332.3,348.228a.719.719,0,0,0-1.016,0l-1.779,1.779-.579-.938a.718.718,0,1,0-1.223.755l1.056,1.711a.718.718,0,0,0,1.119.131l2.422-2.422A.718.718,0,0,0,332.3,348.228Zm-.34.676-2.422,2.422a.238.238,0,0,1-.37-.043l-1.056-1.711a.238.238,0,0,1,.4-.25l.739,1.2a.24.24,0,0,0,.374.044l1.994-1.994a.238.238,0,0,1,.336.336Z" transform="translate(-317.094 -336.878)" fill="#8696a9"/>
  <path id="Trazado_11097" data-name="Trazado 11097" d="M154.207,124.128a.24.24,0,0,0,.24-.24V122.67a.24.24,0,1,0-.481,0v1.217A.24.24,0,0,0,154.207,124.128Z" transform="translate(-149.033 -118.52)" fill="#8696a9"/>
  <path id="Trazado_11098" data-name="Trazado 11098" d="M292.325,124.128a.24.24,0,0,0,.24-.24V122.67a.24.24,0,0,0-.481,0v1.217A.24.24,0,0,0,292.325,124.128Z" transform="translate(-282.724 -118.52)" fill="#8696a9"/>
</svg>
