<svg xmlns="http://www.w3.org/2000/svg" width="15.405" height="14.184" viewBox="0 0 15.405 14.184">
  <g id="_4415756" data-name="4415756" transform="translate(0.1 0.1)">
    <path id="Trazado_11099" data-name="Trazado 11099" d="M14.468,20.633H.737A.738.738,0,0,0,0,21.37v8.966a.738.738,0,0,0,.737.737H1.789l-.52.987a.778.778,0,0,0,1.376.725l.4-.767a.223.223,0,1,0-.394-.208l-.4.767a.332.332,0,0,1-.588-.31l.629-1.194H5.44l-.626,1.3A1.269,1.269,0,0,0,5.4,34.061l.881.426A1.282,1.282,0,0,0,7.977,33.9l1.366-2.825h2.315l.9,1.712a.778.778,0,0,0,1.376-.725l-.52-.987h1.052a.738.738,0,0,0,.737-.737V21.37a.738.738,0,0,0-.737-.737ZM7.576,33.7a.833.833,0,0,1-1.1.382L5.6,33.66a.823.823,0,0,1-.382-1.1L7.468,27.9a.822.822,0,0,1,1.1-.382l.88.426a.823.823,0,0,1,.382,1.1Zm5.965-1.437a.332.332,0,0,1-.588.31l-.792-1.5h.751Zm1.218-1.931a.292.292,0,0,1-.291.291H9.558l.671-1.388a1.269,1.269,0,0,0-.589-1.693l-.88-.426a1.269,1.269,0,0,0-1.693.589l-.6,1.249H1.373V22.005H13.832v6.953H11.114a.223.223,0,0,0,0,.445h2.867a.3.3,0,0,0,.3-.3V21.856a.3.3,0,0,0-.3-.3H1.223a.3.3,0,0,0-.3.3v7.252a.3.3,0,0,0,.3.3H6.247l-.592,1.223H.737a.292.292,0,0,1-.291-.291V21.37a.292.292,0,0,1,.291-.291H14.468a.292.292,0,0,1,.291.291Z" transform="translate(0 -20.633)" fill="#393a34" stroke="#707070" stroke-width="0.2"/>
    <path id="Trazado_11100" data-name="Trazado 11100" d="M274.993,139.216a.223.223,0,0,0-.223.223v1.452a.223.223,0,1,0,.445,0v-1.452A.223.223,0,0,0,274.993,139.216Z" transform="translate(-266.61 -135.695)" fill="#393a34" stroke="#707070" stroke-width="0.2"/>
    <path id="Trazado_11101" data-name="Trazado 11101" d="M198.867,173.938a.223.223,0,0,0-.337.291l.63.73a.223.223,0,0,0,.337-.291Z" transform="translate(-192.582 -169.31)" fill="#393a34" stroke="#707070" stroke-width="0.2"/>
    <path id="Trazado_11102" data-name="Trazado 11102" d="M324.642,180l-.687.676a.223.223,0,0,0,.312.317l.687-.676a.223.223,0,1,0-.312-.317Z" transform="translate(-314.27 -175.208)" fill="#393a34" stroke="#707070" stroke-width="0.2"/>
    <path id="Trazado_11103" data-name="Trazado 11103" d="M67.992,78.032l0-.006a.244.244,0,0,0-.227-.152h0a.245.245,0,0,0-.227.152l0,.005-.374.983a.229.229,0,0,0,.208.3.223.223,0,0,0,.208-.144l.186-.489.184.488a.223.223,0,0,0,.417-.157Z" transform="translate(-65.157 -76.174)" fill="#393a34" stroke="#707070" stroke-width="0.2"/>
    <path id="Trazado_11104" data-name="Trazado 11104" d="M114.1,77.884a.223.223,0,0,0-.282.141l-.139.42-.147-.425a.223.223,0,0,0-.421.146l.341.983a.245.245,0,0,0,.231.163h0a.246.246,0,0,0,.231-.168l.325-.979A.223.223,0,0,0,114.1,77.884Z" transform="translate(-109.744 -76.171)" fill="#393a34" stroke="#707070" stroke-width="0.2"/>
    <path id="Trazado_11105" data-name="Trazado 11105" d="M200.006,426.184l-.614-.3a.223.223,0,1,0-.194.4l.614.3a.223.223,0,0,0,.194-.4Z" transform="translate(-193.161 -413.832)" fill="#393a34" stroke="#707070" stroke-width="0.2"/>
    <path id="Trazado_11106" data-name="Trazado 11106" d="M263.617,270.594a.252.252,0,1,0,.117.337A.252.252,0,0,0,263.617,270.594Z" transform="translate(-255.437 -263.146)" fill="#393a34" stroke="#707070" stroke-width="0.2"/>
    <path id="Trazado_11107" data-name="Trazado 11107" d="M244.792,309.521a.252.252,0,1,0,.117.337A.252.252,0,0,0,244.792,309.521Z" transform="translate(-237.171 -300.917)" fill="#393a34" stroke="#707070" stroke-width="0.2"/>
    <ellipse id="Elipse_160" data-name="Elipse 160" cx="0.252" cy="0.252" rx="0.252" ry="0.252" transform="translate(6.7 9.734)" fill="#393a34" stroke="#707070" stroke-width="0.2"/>
    <ellipse id="Elipse_161" data-name="Elipse 161" cx="0.252" cy="0.252" rx="0.252" ry="0.252" transform="translate(6.072 10.98) rotate(-19.214)" fill="#393a34" stroke="#707070" stroke-width="0.2"/>
    <ellipse id="Elipse_162" data-name="Elipse 162" cx="0.252" cy="0.252" rx="0.252" ry="0.252" transform="translate(8.202 9.348) rotate(-45.891)" fill="#393a34" stroke="#707070" stroke-width="0.2"/>
    <ellipse id="Elipse_163" data-name="Elipse 163" cx="0.252" cy="0.252" rx="0.252" ry="0.252" transform="translate(7.659 10.584) rotate(-59.744)" fill="#393a34" stroke="#707070" stroke-width="0.2"/>
    <ellipse id="Elipse_164" data-name="Elipse 164" cx="0.252" cy="0.252" rx="0.252" ry="0.252" transform="matrix(0.662, -0.75, 0.75, 0.662, 7.09, 11.674)" fill="#393a34" stroke="#707070" stroke-width="0.2"/>
    <path id="Trazado_11108" data-name="Trazado 11108" d="M424.329,329.929h-.663a.223.223,0,0,0,0,.445h.663a.223.223,0,1,0,0-.445Z" transform="translate(-410.868 -320.744)" fill="#393a34" stroke="#707070" stroke-width="0.2"/>
  </g>
</svg>
