<svg id="_2997155" data-name="2997155" xmlns="http://www.w3.org/2000/svg" width="16.178" height="16.178" viewBox="0 0 16.178 16.178">
  <path id="Trazado_11277" data-name="Trazado 11277" d="M15.7,9.886v-.7a.237.237,0,1,0-.474,0v.7H12.955V7.776a.577.577,0,0,0-.576-.576H11.337V4.925h2a1.892,1.892,0,0,1,1.89,1.89V8.076a.237.237,0,1,0,.474,0V6.815A2.366,2.366,0,0,0,13.34,4.451H11.277a1.187,1.187,0,0,0-1.125-.813H9.367v-.9a.712.712,0,0,0,.66-.548H12.4a.831.831,0,0,0,.822-.822A.822.822,0,0,0,12.4.549H10.027A.712.712,0,0,0,9.335,0H7.791A.712.712,0,0,0,7.1.549H4.724a.822.822,0,0,0,0,1.643H7.1a.712.712,0,0,0,.66.548v.9H6.973a1.187,1.187,0,0,0-1.125.813H4.067a.711.711,0,0,0-1.34,0H.237a.237.237,0,1,0,0,.474H2.686V7.2H.237a.237.237,0,1,0,0,.474h2.49a.711.711,0,0,0,1.34,0H5.848a1.187,1.187,0,0,0,1.125.813h.4a.237.237,0,0,0,0-.474h-.4a.712.712,0,0,1-.7-.6v0c.01-.044-.01-2.611,0-2.694h0a.712.712,0,0,1,.7-.6h3.179a.712.712,0,0,1,.7.6h0c.037.315.032,2.418,0,2.694v0a.712.712,0,0,1-.7.6H8.48a.237.237,0,0,0,0,.474h1.673a1.187,1.187,0,0,0,1.125-.813h1.1a.1.1,0,0,1,.1.1v2.11a.478.478,0,0,0-.474.478v.466a.478.478,0,0,0,.478.478H15.7a.478.478,0,0,0,.478-.478v-.466a.478.478,0,0,0-.474-.478ZM10.046,1.023H12.4a.348.348,0,0,1,.348.348.351.351,0,0,1-.348.348H10.046Zm-2.966.7H4.724a.348.348,0,0,1,0-.7H7.08ZM3.634,7.437a.237.237,0,1,1-.474,0V4.688a.237.237,0,1,1,.474,0ZM5.788,7.2H4.108V4.925H5.788Zm3.1-3.562h-.66v-.9h.66Zm-1.1-1.371a.237.237,0,0,1-.237-.237V.711A.237.237,0,0,1,7.791.474H9.335a.237.237,0,0,1,.237.237v1.32a.237.237,0,0,1-.237.237ZM15.7,10.83a0,0,0,0,1,0,0H12.485a0,0,0,0,1,0,0v-.466a0,0,0,0,1,0,0H15.7a0,0,0,0,1,0,0Zm-1.378,1.3a.333.333,0,0,0-.466,0c-.447.442-1.488,1.554-1.488,2.329a1.721,1.721,0,0,0,3.442,0C15.813,13.682,14.773,12.57,14.325,12.128ZM14.092,15.7a1.248,1.248,0,0,1-1.247-1.247c0-.295.329-.962,1.247-1.892.918.93,1.247,1.6,1.247,1.892A1.248,1.248,0,0,1,14.092,15.7Z" transform="translate(0 0)" fill="#8696a9"/>
</svg>
