<svg xmlns="http://www.w3.org/2000/svg" width="20.88" height="23.654" viewBox="0 0 20.88 23.654">
  <path id="alert" d="M15.687,14.471a7.69,7.69,0,0,1-3.561-4.637l-.864-3.229A5.63,5.63,0,0,0,6.017,2.427L5.694,1.221a1.66,1.66,0,0,0-3.208.859l.323,1.205A5.646,5.646,0,0,0,.355,9.527l.864,3.229a7.641,7.641,0,0,1,.261,1.98A7.654,7.654,0,0,1,.46,18.55a.894.894,0,0,0,.064,1.008.905.905,0,0,0,.957.326l4.775-1.279a2.322,2.322,0,0,0,4.44-1.189l4.775-1.279a.907.907,0,0,0,.672-.885.9.9,0,0,0-.455-.783ZM3.227,1.152a1,1,0,0,1,1.827.24l.281,1.048c-.031,0-.062.009-.094.012q-.157.016-.312.04c-.055.009-.11.018-.164.028q-.172.033-.341.075c-.025.006-.05.01-.075.017s-.04.013-.06.019q-.19.052-.375.118l-.1.036q-.192.072-.378.157l-.03.012-.28-1.046a.987.987,0,0,1,.1-.756Zm6.819,16.44a1.661,1.661,0,0,1-3.144.841ZM15.3,15.5,1.307,19.244a.239.239,0,0,1-.257-.088.237.237,0,0,1-.017-.272,8.32,8.32,0,0,0,1.111-4.148,8.276,8.276,0,0,0-.284-2.152L1,9.355A4.986,4.986,0,0,1,3.35,3.73l.006,0a4.964,4.964,0,0,1,.875-.376c.1-.032.188-.069.286-.1a5.059,5.059,0,0,1,1.026-.161c.073,0,.147-.008.22-.009h.051a4.975,4.975,0,0,1,4.806,3.693l.864,3.229a8.36,8.36,0,0,0,3.873,5.039.233.233,0,0,1,.123.207.244.244,0,0,1-.182.244Zm0,0" transform="translate(5.36 -0.035) rotate(16)"/>
</svg>
