<svg xmlns="http://www.w3.org/2000/svg" width="34.055" height="33.643" viewBox="0 0 34.055 33.643">
  <g id="Grupo_19322" data-name="Grupo 19322" transform="translate(-50.53 -204.448)">
    <path id="Path" d="M2721.186,315.792a1.253,1.253,0,0,1,.365-.888l14.778-14.834a1.244,1.244,0,0,1,1.759-.006l.007.006,14.781,14.834a1.257,1.257,0,0,1,.365.888v10.821a4.588,4.588,0,0,1-4.579,4.6h-7.317" transform="translate(-2669.656 -94.118)" fill="none" stroke="#fbd24d" stroke-width="2"/>
    <path id="Path-2" data-name="Path" d="M2753.241,315.792a1.251,1.251,0,0,0-.365-.888L2738.1,300.07a1.244,1.244,0,0,0-1.759-.006l-.007.006L2721.551,314.9a1.258,1.258,0,0,0-.365.888v10.821a4.589,4.589,0,0,0,4.579,4.6h7.317" transform="translate(-2669.656 -94.118)" fill="none" stroke="#fbd24d" stroke-width="2"/>
    <g id="Grupo_243" data-name="Grupo 243" transform="translate(59.313 222.42)">
      <path id="Trazado_10611" data-name="Trazado 10611" d="M.6,137.178a.6.6,0,0,1,.6.6v1.8H3v-1.8a.6.6,0,1,1,1.2,0v1.8H9.66a3.6,3.6,0,1,1,0,1.2H.6a.6.6,0,0,1-.6-.6v-2.4A.6.6,0,0,1,.6,137.178Zm12.608,5.4a2.4,2.4,0,1,0-2.4-2.4A2.4,2.4,0,0,0,13.208,142.582Z" transform="translate(0 -136.577)" fill="#fbd24d" stroke="#fbd24d" stroke-width="0.5"/>
    </g>
  </g>
</svg>
