<svg id="_864603" data-name="864603" xmlns="http://www.w3.org/2000/svg" width="14.599" height="13.23" viewBox="0 0 14.599 13.23">
  <g id="Grupo_4585" data-name="Grupo 4585" transform="translate(0 0)">
    <path id="Trazado_11123" data-name="Trazado 11123" d="M14.371,31.528H13.23v-.456A.228.228,0,0,0,13,30.843H11.634V28.562h1.6a.228.228,0,0,0,.228-.228.224.224,0,0,0,0-.025L13,24.2a.228.228,0,0,0-.227-.2H10.037a.228.228,0,0,0-.227.2l-.456,4.106a.228.228,0,0,0,.2.252h1.622v2.281H9.809a.228.228,0,0,0-.228.228v.456H.228A.228.228,0,0,0,0,31.756v4.106a.228.228,0,0,0,.228.228H.912V37a.228.228,0,0,0,.228.228h.684A.228.228,0,0,0,2.053,37V36.09H12.546V37a.228.228,0,0,0,.228.228h.684A.228.228,0,0,0,13.687,37V36.09h.684a.228.228,0,0,0,.228-.228V31.756A.228.228,0,0,0,14.371,31.528ZM9.835,28.106l.407-3.65h2.329l.406,3.65Zm.2,3.194h2.737v.228H10.037ZM1.6,36.774H1.369V36.09H1.6Zm11.634,0H13V36.09h.228Zm.912-1.141H.456v-1.6h5.7a.228.228,0,0,0,.228.228H8.212a.228.228,0,0,0,.228-.228h5.7Zm0-2.053H.456v-1.6h5.7a.228.228,0,0,0,.228.228H8.212a.228.228,0,0,0,.228-.228h5.7Z" transform="translate(0 -24)" fill="#8696a9"/>
  </g>
</svg>
