<svg xmlns="http://www.w3.org/2000/svg" width="17.5" height="21.336" viewBox="0 0 17.5 21.336">
  <g id="Grupo_19287" data-name="Grupo 19287" transform="translate(22 -360)">
    <g id="_1532495" data-name="1532495" transform="translate(-22 360)">
      <path id="Trazado_10979" data-name="Trazado 10979" d="M51.824,134.378c-3.175-.018-5.8-6.5-5.8-9.8,0-5.392,4.045-6.573,5.6-6.573a6.449,6.449,0,0,1,2.114.52,4.727,4.727,0,0,0,1.207.346,3.758,3.758,0,0,0,.866-.281,6.942,6.942,0,0,1,2.611-.631h.006a5.351,5.351,0,0,1,4.478,2.262l.327.491-.47.355a3.955,3.955,0,0,0-1.9,3.261,3.681,3.681,0,0,0,2.054,3.4c.294.177.6.36.6.759,0,.261-2.08,5.858-5.1,5.858a4.1,4.1,0,0,1-1.723-.418,3.493,3.493,0,0,0-1.533-.369,3.944,3.944,0,0,0-1.214.328,5.947,5.947,0,0,1-2.106.491Z" transform="translate(-46.022 -113.043)"/>
      <path id="Trazado_10980" data-name="Trazado 10980" d="M259.163,0c.079,2.837-1.95,4.8-3.976,4.681A4.521,4.521,0,0,1,259.163,0Z" transform="translate(-246.44)"/>
    </g>
  </g>
</svg>
