<svg id="_330487" data-name="330487" xmlns="http://www.w3.org/2000/svg" width="17.389" height="14.121" viewBox="0 0 17.389 14.121">
  <g id="Grupo_4731" data-name="Grupo 4731" transform="translate(0 0)">
    <path id="Trazado_11504" data-name="Trazado 11504" d="M16.087,88.276H1.3A1.484,1.484,0,0,0,0,89.89v3.093H17.389V89.89A1.484,1.484,0,0,0,16.087,88.276Z" transform="translate(0 -88.276)" fill="#82afff"/>
    <path id="Trazado_11505" data-name="Trazado 11505" d="M0,315a1.484,1.484,0,0,0,1.3,1.614H16.087a1.484,1.484,0,0,0,1.3-1.614v-3.093H0Z" transform="translate(0 -302.494)" fill="#82afff"/>
  </g>
  <rect id="Rectángulo_17402" data-name="Rectángulo 17402" width="17.389" height="4.707" transform="translate(0 4.707)" fill="#f5f5f5"/>
  <path id="Trazado_11506" data-name="Trazado 11506" d="M215.576,213.626h-1.338a.626.626,0,0,0,.063-.055.392.392,0,0,1,.279-.116.573.573,0,0,0,.406-.168.341.341,0,0,1,.128-.086.334.334,0,0,1,.151-.029.519.519,0,0,0,.22-.044l-.071-.171a.334.334,0,0,1-.151.029.573.573,0,0,0-.406.168.392.392,0,0,1-.279.116.575.575,0,0,0-.406.168.346.346,0,0,1-.125.084l1.052-1.051-.131-.131-.947.946a.662.662,0,0,0,.006-.083.388.388,0,0,1,.116-.279.573.573,0,0,0,.169-.407.386.386,0,0,1,.115-.278.518.518,0,0,0,.125-.186l-.172-.071a.34.34,0,0,1-.086.127.572.572,0,0,0-.168.406.342.342,0,0,1-.029.151.338.338,0,0,1-.086.128.575.575,0,0,0-.169.407.342.342,0,0,1-.028.147v-1.487h-.186V213.2a.663.663,0,0,0-.055-.062.389.389,0,0,1-.116-.279.573.573,0,0,0-.168-.406.386.386,0,0,1-.115-.278.514.514,0,0,0-.044-.22l-.172.071a.34.34,0,0,1,.029.151.572.572,0,0,0,.168.406.388.388,0,0,1,.116.279.574.574,0,0,0,.168.407.342.342,0,0,1,.084.125l-1.052-1.052-.131.131,1.05,1.05a.361.361,0,0,1-.116-.079.518.518,0,0,0-.187-.125.525.525,0,0,0-.22-.044.4.4,0,0,1-.281-.116.528.528,0,0,0-.188-.125.522.522,0,0,0-.221-.044.347.347,0,0,1-.153-.03l-.071.172a.522.522,0,0,0,.221.044.347.347,0,0,1,.153.03.342.342,0,0,1,.129.086.582.582,0,0,0,.408.169.394.394,0,0,1,.28.116.681.681,0,0,0,.059.052H211.86v.186h1.484a.356.356,0,0,1-.137.026.518.518,0,0,0-.22.044.523.523,0,0,0-.187.125.34.34,0,0,1-.128.086.347.347,0,0,1-.153.03.578.578,0,0,0-.409.169.343.343,0,0,1-.129.086l.071.172a.523.523,0,0,0,.187-.125.342.342,0,0,1,.129-.086.346.346,0,0,1,.153-.03.579.579,0,0,0,.408-.169.4.4,0,0,1,.28-.116.674.674,0,0,0,.079-.005l-.949.949.131.131,1.049-1.049a.356.356,0,0,1-.079.115.576.576,0,0,0-.169.407.395.395,0,0,1-.117.281.58.58,0,0,0-.169.409.348.348,0,0,1-.03.152l.172.071a.519.519,0,0,0,.044-.221.348.348,0,0,1,.03-.152.344.344,0,0,1,.087-.129.578.578,0,0,0,.169-.408.345.345,0,0,1,.03-.152.341.341,0,0,1,.086-.128.687.687,0,0,0,.052-.059v1.342h.186v-1.484a.357.357,0,0,1,.026.137.578.578,0,0,0,.169.408.4.4,0,0,1,.116.281.58.58,0,0,0,.169.409.344.344,0,0,1,.087.129l.172-.071a.52.52,0,0,0-.125-.188.344.344,0,0,1-.087-.129.348.348,0,0,1-.03-.152.579.579,0,0,0-.169-.408.394.394,0,0,1-.116-.281.707.707,0,0,0-.005-.079l.949.949.131-.131-.946-.946a.689.689,0,0,0,.083.006.339.339,0,0,1,.151.029.343.343,0,0,1,.128.086.522.522,0,0,0,.187.125.514.514,0,0,0,.22.043.342.342,0,0,1,.151.03.335.335,0,0,1,.127.086.522.522,0,0,0,.186.125l.071-.172a.335.335,0,0,1-.127-.086.522.522,0,0,0-.186-.125.514.514,0,0,0-.22-.043.342.342,0,0,1-.151-.03.338.338,0,0,1-.128-.086.517.517,0,0,0-.187-.124.507.507,0,0,0-.22-.044.349.349,0,0,1-.148-.029h1.488v-.186h0Z" transform="translate(-205.023 -206.659)" fill="#f09146"/>
  <ellipse id="Elipse_195" data-name="Elipse 195" cx="0.929" cy="0.929" rx="0.929" ry="0.929" transform="translate(7.766 6.131)" fill="#ffe15a"/>
</svg>
