<svg id="_948747" data-name="948747" xmlns="http://www.w3.org/2000/svg" width="12.797" height="17.062" viewBox="0 0 12.797 17.062">
  <g id="Grupo_4676" data-name="Grupo 4676" transform="translate(0.533 3.199)">
    <g id="Grupo_4675" data-name="Grupo 4675">
      <path id="Trazado_11335" data-name="Trazado 11335" d="M89.863,96h-9.6a.266.266,0,0,0-.267.267V109.6a.267.267,0,0,0,.533,0V96.533H89.6V109.6a.267.267,0,0,0,.533,0V96.267A.266.266,0,0,0,89.863,96Z" transform="translate(-79.999 -96)" fill="#8696a9"/>
    </g>
  </g>
  <g id="Grupo_4678" data-name="Grupo 4678" transform="translate(1.333 3.999)">
    <g id="Grupo_4677" data-name="Grupo 4677">
      <path id="Trazado_11336" data-name="Trazado 11336" d="M112.263,120h-8a.266.266,0,0,0-.267.267V132.8a.267.267,0,1,0,.533,0V120.533H112V132.8a.267.267,0,1,0,.533,0v-12.53A.266.266,0,0,0,112.263,120Z" transform="translate(-103.999 -120)" fill="#8696a9"/>
    </g>
  </g>
  <g id="Grupo_4680" data-name="Grupo 4680" transform="translate(11.197 8.531)">
    <g id="Grupo_4679" data-name="Grupo 4679">
      <path id="Trazado_11337" data-name="Trazado 11337" d="M400.985,256.076a.266.266,0,0,0-.377,0l-.533.533a.267.267,0,1,0,.377.377l.533-.533A.266.266,0,0,0,400.985,256.076Z" transform="translate(-399.997 -255.998)" fill="#8696a9"/>
    </g>
  </g>
  <g id="Grupo_4682" data-name="Grupo 4682" transform="translate(11.73 8.531)">
    <g id="Grupo_4681" data-name="Grupo 4681">
      <path id="Trazado_11338" data-name="Trazado 11338" d="M416.985,256.609l-.533-.533a.267.267,0,0,0-.377.377l.533.533a.267.267,0,0,0,.377-.377Z" transform="translate(-415.997 -255.998)" fill="#8696a9"/>
    </g>
  </g>
  <g id="Grupo_4684" data-name="Grupo 4684" transform="translate(11.73 10.664)">
    <g id="Grupo_4683" data-name="Grupo 4683">
      <path id="Trazado_11339" data-name="Trazado 11339" d="M416.985,320.076a.266.266,0,0,0-.377,0l-.533.533a.267.267,0,1,0,.377.377l.533-.533A.266.266,0,0,0,416.985,320.076Z" transform="translate(-415.997 -319.998)" fill="#8696a9"/>
    </g>
  </g>
  <g id="Grupo_4686" data-name="Grupo 4686" transform="translate(11.197 10.664)">
    <g id="Grupo_4685" data-name="Grupo 4685">
      <path id="Trazado_11340" data-name="Trazado 11340" d="M400.985,320.609l-.533-.533a.267.267,0,0,0-.377.377l.533.533a.267.267,0,1,0,.377-.377Z" transform="translate(-399.997 -319.998)" fill="#8696a9"/>
    </g>
  </g>
  <g id="Grupo_4688" data-name="Grupo 4688" transform="translate(5.332 3.999)">
    <g id="Grupo_4687" data-name="Grupo 4687">
      <path id="Trazado_11341" data-name="Trazado 11341" d="M224.266,120a.266.266,0,0,0-.267.267V132.8a.267.267,0,0,0,.533,0v-12.53A.266.266,0,0,0,224.266,120Z" transform="translate(-223.999 -120)" fill="#8696a9"/>
    </g>
  </g>
  <g id="Grupo_4690" data-name="Grupo 4690" transform="translate(0 16.529)">
    <g id="Grupo_4689" data-name="Grupo 4689">
      <path id="Trazado_11342" data-name="Trazado 11342" d="M74.929,496H64.266a.267.267,0,0,0,0,.533H74.929a.267.267,0,0,0,0-.533Z" transform="translate(-63.999 -496)" fill="#8696a9"/>
    </g>
  </g>
  <g id="Grupo_4692" data-name="Grupo 4692" transform="translate(3.199)">
    <g id="Grupo_4691" data-name="Grupo 4691">
      <path id="Trazado_11343" data-name="Trazado 11343" d="M162.4,0A2.4,2.4,0,0,0,160,2.4a.267.267,0,1,0,.533,0,1.866,1.866,0,1,1,3.732,0,.267.267,0,0,0,.533,0A2.4,2.4,0,0,0,162.4,0Z" transform="translate(-159.999)" fill="#8696a9"/>
    </g>
  </g>
  <g id="Grupo_4694" data-name="Grupo 4694" transform="translate(3.199 2.133)">
    <g id="Grupo_4693" data-name="Grupo 4693">
      <path id="Trazado_11344" data-name="Trazado 11344" d="M164.531,64h-4.265a.267.267,0,1,0,0,.533h4.265a.267.267,0,1,0,0-.533Z" transform="translate(-159.999 -64)" fill="#8696a9"/>
    </g>
  </g>
  <g id="Grupo_4696" data-name="Grupo 4696" transform="translate(5.332 1.066)">
    <g id="Grupo_4695" data-name="Grupo 4695">
      <path id="Trazado_11345" data-name="Trazado 11345" d="M224.266,32a.266.266,0,0,0-.267.267v1.066a.267.267,0,0,0,.533,0V32.267A.266.266,0,0,0,224.266,32Z" transform="translate(-223.999 -32)" fill="#8696a9"/>
    </g>
  </g>
</svg>
