<svg xmlns="http://www.w3.org/2000/svg" width="17.389" height="13.748" viewBox="0 0 17.389 13.748">
  <g id="Grupo_4757" data-name="Grupo 4757" transform="translate(-43.277 -239.633)">
    <g id="tail" transform="translate(43.277 239.633)">
      <path id="Trazado_11633" data-name="Trazado 11633" d="M16.089,88.3H1.3A1.455,1.455,0,0,0,0,89.87v10.609a1.455,1.455,0,0,0,1.3,1.57H16.085a1.455,1.455,0,0,0,1.3-1.57V89.87A1.45,1.45,0,0,0,16.089,88.3Z" transform="translate(0 -88.3)" fill="#f5f5f5"/>
      <g id="Grupo_4756" data-name="Grupo 4756">
        <path id="Trazado_11634" data-name="Trazado 11634" d="M0,371.4a1.455,1.455,0,0,0,1.3,1.57H16.085a1.455,1.455,0,0,0,1.3-1.57v-.6H0Z" transform="translate(0 -359.22)" fill="#ff4b55"/>
        <path id="Trazado_11635" data-name="Trazado 11635" d="M16.089,88.3H1.3A1.455,1.455,0,0,0,0,89.87v.6H17.389v-.6A1.455,1.455,0,0,0,16.089,88.3Z" transform="translate(0 -88.3)" fill="#ff4b55"/>
      </g>
      <rect id="Rectángulo_17438" data-name="Rectángulo 17438" width="17.389" height="5.067" transform="translate(0 4.341)" fill="#41479b"/>
    </g>
  </g>
</svg>
