<svg id="_330459" data-name="330459" xmlns="http://www.w3.org/2000/svg" width="17.389" height="14.121" viewBox="0 0 17.389 14.121">
  <path id="Trazado_11458" data-name="Trazado 11458" d="M16.087,88.276H1.3A1.484,1.484,0,0,0,0,89.89v10.893A1.484,1.484,0,0,0,1.3,102.4H16.087a1.484,1.484,0,0,0,1.3-1.614V89.89A1.484,1.484,0,0,0,16.087,88.276Z" transform="translate(0 -88.276)" fill="#f5f5f5"/>
  <g id="Grupo_4729" data-name="Grupo 4729" transform="translate(0 0)">
    <path id="Trazado_11459" data-name="Trazado 11459" d="M2.109,89.362H19.321a1.356,1.356,0,0,0-1.228-1.086H3.337A1.356,1.356,0,0,0,2.109,89.362Z" transform="translate(-2.02 -88.276)" fill="#ff4b55"/>
    <rect id="Rectángulo_17398" data-name="Rectángulo 17398" width="17.389" height="1.086" transform="translate(0 4.345)" fill="#ff4b55"/>
    <rect id="Rectángulo_17399" data-name="Rectángulo 17399" width="17.389" height="1.086" transform="translate(0 2.172)" fill="#ff4b55"/>
    <path id="Trazado_11460" data-name="Trazado 11460" d="M0,243.813a.342.342,0,0,0,.3.372h17.09V243.1H0Z" transform="translate(0 -236.581)" fill="#ff4b55"/>
    <rect id="Rectángulo_17400" data-name="Rectángulo 17400" width="17.389" height="1.086" transform="translate(0 10.863)" fill="#ff4b55"/>
    <path id="Trazado_11461" data-name="Trazado 11461" d="M19.321,397.92H2.109a1.356,1.356,0,0,0,1.228,1.086H18.093A1.356,1.356,0,0,0,19.321,397.92Z" transform="translate(-2.02 -384.885)" fill="#ff4b55"/>
    <rect id="Rectángulo_17401" data-name="Rectángulo 17401" width="17.389" height="1.086" transform="translate(0 8.69)" fill="#ff4b55"/>
  </g>
  <path id="Trazado_11462" data-name="Trazado 11462" d="M.372,95.879h9.29a.372.372,0,0,0,.372-.372v-6.86a.372.372,0,0,0-.372-.372H1.614A1.614,1.614,0,0,0,0,89.889v5.618A.372.372,0,0,0,.372,95.879Z" transform="translate(0 -88.275)" fill="#41479b"/>
  <g id="Grupo_4730" data-name="Grupo 4730" transform="translate(0.6 0.829)">
    <path id="Trazado_11463" data-name="Trazado 11463" d="M14.7,107.992l.082.247.26,0a.035.035,0,0,1,.021.063l-.209.154.078.248a.035.035,0,0,1-.054.039l-.212-.151-.212.151a.035.035,0,0,1-.054-.039l.078-.248-.209-.154a.035.035,0,0,1,.021-.063l.26,0,.082-.247A.035.035,0,0,1,14.7,107.992Z" transform="translate(-14.253 -107.968)" fill="#f5f5f5"/>
    <path id="Trazado_11464" data-name="Trazado 11464" d="M14.7,138.647l.082.247.26,0a.035.035,0,0,1,.021.063l-.209.154.078.248a.035.035,0,0,1-.054.039l-.212-.151-.212.151a.035.035,0,0,1-.054-.039l.078-.248-.209-.154a.035.035,0,0,1,.021-.063l.26,0,.082-.247A.035.035,0,0,1,14.7,138.647Z" transform="translate(-14.253 -137.332)" fill="#f5f5f5"/>
    <path id="Trazado_11465" data-name="Trazado 11465" d="M14.7,169.3l.082.247.26,0a.035.035,0,0,1,.021.063l-.209.154.078.248a.035.035,0,0,1-.054.039l-.212-.151-.212.151a.035.035,0,0,1-.054-.039l.078-.248-.209-.154a.035.035,0,0,1,.021-.063l.26,0,.082-.247A.035.035,0,0,1,14.7,169.3Z" transform="translate(-14.253 -166.696)" fill="#f5f5f5"/>
    <path id="Trazado_11466" data-name="Trazado 11466" d="M14.7,199.955l.082.247.26,0a.035.035,0,0,1,.021.063l-.209.154.078.248a.035.035,0,0,1-.054.039l-.212-.151-.212.151a.035.035,0,0,1-.054-.039l.078-.248-.209-.155a.035.035,0,0,1,.021-.063l.26,0,.082-.247A.035.035,0,0,1,14.7,199.955Z" transform="translate(-14.253 -196.06)" fill="#f5f5f5"/>
    <path id="Trazado_11467" data-name="Trazado 11467" d="M14.7,230.61l.082.247.26,0a.035.035,0,0,1,.021.063l-.209.154.078.248a.035.035,0,0,1-.054.039l-.212-.151-.212.151a.035.035,0,0,1-.054-.039l.078-.248-.209-.155a.035.035,0,0,1,.021-.063l.26,0,.082-.247A.035.035,0,0,1,14.7,230.61Z" transform="translate(-14.253 -225.424)" fill="#f5f5f5"/>
    <path id="Trazado_11468" data-name="Trazado 11468" d="M38.489,123.021l.082.247.26,0a.035.035,0,0,1,.021.063l-.209.154.078.248a.035.035,0,0,1-.054.039l-.212-.151-.212.151a.035.035,0,0,1-.054-.039l.078-.248-.209-.154a.035.035,0,0,1,.021-.063l.26,0,.082-.247A.035.035,0,0,1,38.489,123.021Z" transform="translate(-37.044 -122.365)" fill="#f5f5f5"/>
    <path id="Trazado_11469" data-name="Trazado 11469" d="M38.489,153.676l.082.247.26,0a.035.035,0,0,1,.021.063l-.209.154.078.248a.035.035,0,0,1-.054.039l-.212-.151-.212.151a.035.035,0,0,1-.054-.039l.078-.248-.209-.154a.035.035,0,0,1,.021-.063l.26,0,.082-.247A.035.035,0,0,1,38.489,153.676Z" transform="translate(-37.044 -151.729)" fill="#f5f5f5"/>
    <path id="Trazado_11470" data-name="Trazado 11470" d="M38.489,184.33l.082.247.26,0a.035.035,0,0,1,.021.063l-.209.155.078.248a.035.035,0,0,1-.054.039l-.212-.151-.212.151a.035.035,0,0,1-.054-.039l.078-.248-.209-.155a.035.035,0,0,1,.021-.063l.26,0,.082-.247A.035.035,0,0,1,38.489,184.33Z" transform="translate(-37.044 -181.092)" fill="#f5f5f5"/>
    <path id="Trazado_11471" data-name="Trazado 11471" d="M38.489,214.984l.082.247.26,0a.035.035,0,0,1,.021.063l-.209.155.078.248a.035.035,0,0,1-.054.039l-.212-.151-.212.151a.035.035,0,0,1-.054-.039l.078-.248-.209-.155a.035.035,0,0,1,.021-.063l.26,0,.082-.247A.035.035,0,0,1,38.489,214.984Z" transform="translate(-37.044 -210.457)" fill="#f5f5f5"/>
    <path id="Trazado_11472" data-name="Trazado 11472" d="M62.282,107.992l.082.247.26,0a.035.035,0,0,1,.021.063l-.209.154.078.248a.035.035,0,0,1-.054.039l-.212-.151-.212.151a.035.035,0,0,1-.054-.039l.078-.248-.209-.154a.035.035,0,0,1,.021-.063l.26,0,.082-.247A.035.035,0,0,1,62.282,107.992Z" transform="translate(-59.835 -107.968)" fill="#f5f5f5"/>
    <path id="Trazado_11473" data-name="Trazado 11473" d="M62.282,138.646l.082.247.26,0a.035.035,0,0,1,.021.063l-.209.154.078.248a.035.035,0,0,1-.054.039l-.212-.151-.212.151a.035.035,0,0,1-.054-.039l.078-.248-.209-.154a.035.035,0,0,1,.021-.063l.26,0,.082-.247A.035.035,0,0,1,62.282,138.646Z" transform="translate(-59.835 -137.332)" fill="#f5f5f5"/>
    <path id="Trazado_11474" data-name="Trazado 11474" d="M62.282,169.3l.082.247.26,0a.035.035,0,0,1,.021.063l-.209.154.078.248a.035.035,0,0,1-.054.039l-.212-.151-.212.151a.035.035,0,0,1-.054-.039l.078-.248-.209-.154a.035.035,0,0,1,.021-.063l.26,0,.082-.247A.035.035,0,0,1,62.282,169.3Z" transform="translate(-59.835 -166.696)" fill="#f5f5f5"/>
    <path id="Trazado_11475" data-name="Trazado 11475" d="M62.282,199.955l.082.247.26,0a.035.035,0,0,1,.021.063l-.209.154.078.248a.035.035,0,0,1-.054.039l-.212-.151-.212.151a.035.035,0,0,1-.054-.039l.078-.248-.209-.154a.035.035,0,0,1,.021-.063l.26,0,.082-.247A.035.035,0,0,1,62.282,199.955Z" transform="translate(-59.835 -196.059)" fill="#f5f5f5"/>
    <path id="Trazado_11476" data-name="Trazado 11476" d="M62.282,230.609l.082.247.26,0a.035.035,0,0,1,.021.063l-.209.154.078.248a.035.035,0,0,1-.054.039l-.212-.151-.212.151a.035.035,0,0,1-.054-.039l.078-.248-.209-.154a.035.035,0,0,1,.021-.063l.26,0,.082-.247A.035.035,0,0,1,62.282,230.609Z" transform="translate(-59.835 -225.424)" fill="#f5f5f5"/>
    <path id="Trazado_11477" data-name="Trazado 11477" d="M86.076,123.021l.082.247.26,0a.035.035,0,0,1,.021.063l-.209.154.078.248a.035.035,0,0,1-.054.039l-.212-.151-.212.151a.035.035,0,0,1-.054-.039l.078-.248-.209-.154a.035.035,0,0,1,.021-.063l.26,0,.082-.247A.035.035,0,0,1,86.076,123.021Z" transform="translate(-82.628 -122.365)" fill="#f5f5f5"/>
    <path id="Trazado_11478" data-name="Trazado 11478" d="M86.076,153.676l.082.247.26,0a.035.035,0,0,1,.021.063l-.209.154.078.248a.035.035,0,0,1-.054.039l-.212-.151-.212.151a.035.035,0,0,1-.054-.039l.078-.248-.209-.154a.035.035,0,0,1,.021-.063l.26,0,.082-.247A.035.035,0,0,1,86.076,153.676Z" transform="translate(-82.628 -151.729)" fill="#f5f5f5"/>
    <path id="Trazado_11479" data-name="Trazado 11479" d="M86.076,184.33l.082.247.26,0a.035.035,0,0,1,.021.063l-.209.155.078.248a.035.035,0,0,1-.054.039l-.212-.151-.212.151a.035.035,0,0,1-.054-.039l.078-.248-.209-.155a.035.035,0,0,1,.021-.063l.26,0,.082-.247A.035.035,0,0,1,86.076,184.33Z" transform="translate(-82.628 -181.092)" fill="#f5f5f5"/>
    <path id="Trazado_11480" data-name="Trazado 11480" d="M86.076,214.984l.082.247.26,0a.035.035,0,0,1,.021.063l-.209.155.078.248a.035.035,0,0,1-.054.039l-.212-.151-.212.151a.035.035,0,0,1-.054-.039l.078-.248-.209-.155a.035.035,0,0,1,.021-.063l.26,0,.082-.247A.035.035,0,0,1,86.076,214.984Z" transform="translate(-82.628 -210.457)" fill="#f5f5f5"/>
    <path id="Trazado_11481" data-name="Trazado 11481" d="M109.868,107.992l.082.247.26,0a.035.035,0,0,1,.021.063l-.209.154.078.248a.035.035,0,0,1-.054.039l-.212-.151-.212.151a.035.035,0,0,1-.054-.039l.078-.248-.209-.154a.035.035,0,0,1,.021-.063l.26,0,.082-.247A.035.035,0,0,1,109.868,107.992Z" transform="translate(-105.418 -107.968)" fill="#f5f5f5"/>
    <path id="Trazado_11482" data-name="Trazado 11482" d="M109.868,138.646l.082.247.26,0a.035.035,0,0,1,.021.063l-.209.154.078.248a.035.035,0,0,1-.054.039l-.212-.151-.212.151a.035.035,0,0,1-.054-.039l.078-.248-.209-.154a.035.035,0,0,1,.021-.063l.26,0,.082-.247A.035.035,0,0,1,109.868,138.646Z" transform="translate(-105.418 -137.332)" fill="#f5f5f5"/>
    <path id="Trazado_11483" data-name="Trazado 11483" d="M109.868,169.3l.082.247.26,0a.035.035,0,0,1,.021.063l-.209.154.078.248a.035.035,0,0,1-.054.039l-.212-.151-.212.151a.035.035,0,0,1-.054-.039l.078-.248-.209-.154a.035.035,0,0,1,.021-.063l.26,0,.082-.247A.035.035,0,0,1,109.868,169.3Z" transform="translate(-105.418 -166.696)" fill="#f5f5f5"/>
    <path id="Trazado_11484" data-name="Trazado 11484" d="M109.868,199.955l.082.247.26,0a.035.035,0,0,1,.021.063l-.209.154.078.248a.035.035,0,0,1-.054.039l-.212-.151-.212.151a.035.035,0,0,1-.054-.039l.078-.248-.209-.154a.035.035,0,0,1,.021-.063l.26,0,.082-.247A.035.035,0,0,1,109.868,199.955Z" transform="translate(-105.418 -196.059)" fill="#f5f5f5"/>
    <path id="Trazado_11485" data-name="Trazado 11485" d="M109.868,230.609l.082.247.26,0a.035.035,0,0,1,.021.063l-.209.154.078.248a.035.035,0,0,1-.054.039l-.212-.151-.212.151a.035.035,0,0,1-.054-.039l.078-.248-.209-.154a.035.035,0,0,1,.021-.063l.26,0,.082-.247A.035.035,0,0,1,109.868,230.609Z" transform="translate(-105.418 -225.424)" fill="#f5f5f5"/>
    <path id="Trazado_11486" data-name="Trazado 11486" d="M133.662,123.021l.082.247.26,0a.035.035,0,0,1,.021.063l-.209.154.078.248a.035.035,0,0,1-.054.039l-.212-.151-.212.151a.035.035,0,0,1-.054-.039l.078-.248-.209-.154a.035.035,0,0,1,.021-.063l.26,0,.082-.247A.035.035,0,0,1,133.662,123.021Z" transform="translate(-128.211 -122.365)" fill="#f5f5f5"/>
    <path id="Trazado_11487" data-name="Trazado 11487" d="M133.662,153.676l.082.247.26,0a.035.035,0,0,1,.021.063l-.209.154.078.248a.035.035,0,0,1-.054.039l-.212-.151-.212.151a.035.035,0,0,1-.054-.039l.078-.248-.209-.154a.035.035,0,0,1,.021-.063l.26,0,.082-.247A.035.035,0,0,1,133.662,153.676Z" transform="translate(-128.211 -151.729)" fill="#f5f5f5"/>
    <path id="Trazado_11488" data-name="Trazado 11488" d="M133.662,184.33l.082.247.26,0a.035.035,0,0,1,.021.063l-.209.155.078.248a.035.035,0,0,1-.054.039l-.212-.151-.212.151a.035.035,0,0,1-.054-.039l.078-.248-.209-.155a.035.035,0,0,1,.021-.063l.26,0,.082-.247A.035.035,0,0,1,133.662,184.33Z" transform="translate(-128.211 -181.092)" fill="#f5f5f5"/>
    <path id="Trazado_11489" data-name="Trazado 11489" d="M133.662,214.984l.082.247.26,0a.035.035,0,0,1,.021.063l-.209.155.078.248a.035.035,0,0,1-.054.039l-.212-.151-.212.151a.035.035,0,0,1-.054-.039l.078-.248-.209-.155a.035.035,0,0,1,.021-.063l.26,0,.082-.247A.035.035,0,0,1,133.662,214.984Z" transform="translate(-128.211 -210.457)" fill="#f5f5f5"/>
    <path id="Trazado_11490" data-name="Trazado 11490" d="M157.456,107.992l.082.247.26,0a.035.035,0,0,1,.021.063l-.209.154.078.248a.035.035,0,0,1-.054.039l-.212-.151-.212.151a.035.035,0,0,1-.054-.039l.078-.248-.209-.154a.035.035,0,0,1,.021-.063l.26,0,.082-.247A.035.035,0,0,1,157.456,107.992Z" transform="translate(-151.003 -107.968)" fill="#f5f5f5"/>
    <path id="Trazado_11491" data-name="Trazado 11491" d="M157.456,138.646l.082.247.26,0a.035.035,0,0,1,.021.063l-.209.154.078.248a.035.035,0,0,1-.054.039l-.212-.151-.212.151a.035.035,0,0,1-.054-.039l.078-.248-.209-.154a.035.035,0,0,1,.021-.063l.26,0,.082-.247A.035.035,0,0,1,157.456,138.646Z" transform="translate(-151.003 -137.332)" fill="#f5f5f5"/>
    <path id="Trazado_11492" data-name="Trazado 11492" d="M157.456,169.3l.082.247.26,0a.035.035,0,0,1,.021.063l-.209.154.078.248a.035.035,0,0,1-.054.039l-.212-.151-.212.151a.035.035,0,0,1-.054-.039l.078-.248-.209-.154a.035.035,0,0,1,.021-.063l.26,0,.082-.247A.035.035,0,0,1,157.456,169.3Z" transform="translate(-151.003 -166.696)" fill="#f5f5f5"/>
    <path id="Trazado_11493" data-name="Trazado 11493" d="M157.456,199.955l.082.247.26,0a.035.035,0,0,1,.021.063l-.209.154.078.248a.035.035,0,0,1-.054.039l-.212-.151-.212.151a.035.035,0,0,1-.054-.039l.078-.248-.209-.154a.035.035,0,0,1,.021-.063l.26,0,.082-.247A.035.035,0,0,1,157.456,199.955Z" transform="translate(-151.003 -196.059)" fill="#f5f5f5"/>
    <path id="Trazado_11494" data-name="Trazado 11494" d="M157.456,230.609l.082.247.26,0a.035.035,0,0,1,.021.063l-.209.154.078.248a.035.035,0,0,1-.054.039l-.212-.151-.212.151a.035.035,0,0,1-.054-.039l.078-.248-.209-.154a.035.035,0,0,1,.021-.063l.26,0,.082-.247A.035.035,0,0,1,157.456,230.609Z" transform="translate(-151.003 -225.424)" fill="#f5f5f5"/>
    <path id="Trazado_11495" data-name="Trazado 11495" d="M181.249,123.021l.082.247.26,0a.035.035,0,0,1,.021.063l-.209.154.078.248a.035.035,0,0,1-.054.039l-.212-.151-.212.151a.035.035,0,0,1-.054-.039l.078-.248-.209-.154a.035.035,0,0,1,.021-.063l.26,0,.082-.247A.035.035,0,0,1,181.249,123.021Z" transform="translate(-173.794 -122.365)" fill="#f5f5f5"/>
    <path id="Trazado_11496" data-name="Trazado 11496" d="M181.249,153.676l.082.247.26,0a.035.035,0,0,1,.021.063l-.209.154.078.248a.035.035,0,0,1-.054.039l-.212-.151-.212.151a.035.035,0,0,1-.054-.039l.078-.248-.209-.154a.035.035,0,0,1,.021-.063l.26,0,.082-.247A.035.035,0,0,1,181.249,153.676Z" transform="translate(-173.794 -151.729)" fill="#f5f5f5"/>
    <path id="Trazado_11497" data-name="Trazado 11497" d="M181.249,184.33l.082.247.26,0a.035.035,0,0,1,.021.063l-.209.155.078.248a.035.035,0,0,1-.054.039l-.212-.151-.212.151a.035.035,0,0,1-.054-.039l.078-.248-.209-.155a.035.035,0,0,1,.021-.063l.26,0,.082-.247A.035.035,0,0,1,181.249,184.33Z" transform="translate(-173.794 -181.092)" fill="#f5f5f5"/>
    <path id="Trazado_11498" data-name="Trazado 11498" d="M181.249,214.984l.082.247.26,0a.035.035,0,0,1,.021.063l-.209.155.078.248a.035.035,0,0,1-.054.039l-.212-.151-.212.151a.035.035,0,0,1-.054-.039l.078-.248-.209-.155a.035.035,0,0,1,.021-.063l.26,0,.082-.247A.035.035,0,0,1,181.249,214.984Z" transform="translate(-173.794 -210.457)" fill="#f5f5f5"/>
    <path id="Trazado_11499" data-name="Trazado 11499" d="M205.043,107.992l.082.247.26,0a.035.035,0,0,1,.021.063l-.209.154.078.248a.035.035,0,0,1-.054.039l-.212-.151-.212.151a.035.035,0,0,1-.054-.039l.078-.248-.209-.154a.035.035,0,0,1,.021-.063l.26,0,.082-.247A.035.035,0,0,1,205.043,107.992Z" transform="translate(-196.587 -107.968)" fill="#f5f5f5"/>
    <path id="Trazado_11500" data-name="Trazado 11500" d="M205.043,138.646l.082.247.26,0a.035.035,0,0,1,.021.063l-.209.154.078.248a.035.035,0,0,1-.054.039l-.212-.151-.212.151a.035.035,0,0,1-.054-.039l.078-.248-.209-.154a.035.035,0,0,1,.021-.063l.26,0,.082-.247A.035.035,0,0,1,205.043,138.646Z" transform="translate(-196.587 -137.332)" fill="#f5f5f5"/>
    <path id="Trazado_11501" data-name="Trazado 11501" d="M205.043,169.3l.082.247.26,0a.035.035,0,0,1,.021.063l-.209.154.078.248a.035.035,0,0,1-.054.039l-.212-.151-.212.151a.035.035,0,0,1-.054-.039l.078-.248-.209-.154a.035.035,0,0,1,.021-.063l.26,0,.082-.247A.035.035,0,0,1,205.043,169.3Z" transform="translate(-196.587 -166.696)" fill="#f5f5f5"/>
    <path id="Trazado_11502" data-name="Trazado 11502" d="M205.043,199.955l.082.247.26,0a.035.035,0,0,1,.021.063l-.209.154.078.248a.035.035,0,0,1-.054.039l-.212-.151-.212.151a.035.035,0,0,1-.054-.039l.078-.248-.209-.154a.035.035,0,0,1,.021-.063l.26,0,.082-.247A.035.035,0,0,1,205.043,199.955Z" transform="translate(-196.587 -196.059)" fill="#f5f5f5"/>
    <path id="Trazado_11503" data-name="Trazado 11503" d="M205.043,230.609l.082.247.26,0a.035.035,0,0,1,.021.063l-.209.154.078.248a.035.035,0,0,1-.054.039l-.212-.151-.212.151a.035.035,0,0,1-.054-.039l.078-.248-.209-.154a.035.035,0,0,1,.021-.063l.26,0,.082-.247A.035.035,0,0,1,205.043,230.609Z" transform="translate(-196.587 -225.424)" fill="#f5f5f5"/>
  </g>
</svg>
