<svg xmlns="http://www.w3.org/2000/svg" width="17.389" height="13.748" viewBox="0 0 17.389 13.748">
  <g id="_330557" data-name="330557" transform="translate(0)">
    <g id="Grupo_4744" data-name="Grupo 4744" transform="translate(0 0)">
      <path id="Trazado_11571" data-name="Trazado 11571" d="M0,354.426A1.456,1.456,0,0,0,1.3,356H16.087a1.456,1.456,0,0,0,1.3-1.572V353.1H0Z" transform="translate(0 -342.249)" fill="#c8414b"/>
      <path id="Trazado_11572" data-name="Trazado 11572" d="M16.087,88.276H1.3A1.456,1.456,0,0,0,0,89.848V91.17H17.389V89.848A1.456,1.456,0,0,0,16.087,88.276Z" transform="translate(0 -88.276)" fill="#c8414b"/>
    </g>
    <rect id="Rectángulo_17416" data-name="Rectángulo 17416" width="17.389" height="7.96" transform="translate(0 2.895)" fill="#ffd250"/>
    <path id="Trazado_11573" data-name="Trazado 11573" d="M208.983,217.9l.307-1.38a.2.2,0,0,0-.2-.248h-.216a.2.2,0,0,0-.2.248Z" transform="translate(-201.629 -211.029)" fill="#c8414b"/>
    <rect id="Rectángulo_17417" data-name="Rectángulo 17417" width="0.724" height="3.075" transform="translate(6.994 6.15)" fill="#f5f5f5"/>
    <rect id="Rectángulo_17418" data-name="Rectángulo 17418" width="1.085" height="0.362" transform="translate(6.818 5.789)" fill="#fab446"/>
    <g id="Grupo_4745" data-name="Grupo 4745" transform="translate(3.125 5.246)">
      <rect id="Rectángulo_17419" data-name="Rectángulo 17419" width="1.809" height="0.362" transform="translate(4.472 1.628)" fill="#c8414b"/>
      <path id="Trazado_11574" data-name="Trazado 11574" d="M204.119,274.379l-1.085-.362v-.362l1.085.362Z" transform="translate(-197.838 -271.303)" fill="#c8414b"/>
      <path id="Trazado_11575" data-name="Trazado 11575" d="M76.569,217.9l.307-1.38a.2.2,0,0,0-.2-.248h-.216a.2.2,0,0,0-.2.248Z" transform="translate(-76.257 -216.275)" fill="#c8414b"/>
    </g>
    <path id="Trazado_11576" data-name="Trazado 11576" d="M106.293,229.517a.362.362,0,0,0-.362.362v2.352c0,.44.41,1.266,1.809,1.266s1.809-.827,1.809-1.266v-2.352a.362.362,0,0,0-.362-.362Z" transform="translate(-102.488 -223.728)" fill="#f5f5f5"/>
    <g id="Grupo_4746" data-name="Grupo 4746" transform="translate(3.443 5.789)">
      <path id="Trazado_11577" data-name="Trazado 11577" d="M107.74,231.326h-1.809v-1.447a.362.362,0,0,1,.362-.362h1.447Z" transform="translate(-105.931 -229.517)" fill="#c8414b"/>
      <path id="Trazado_11578" data-name="Trazado 11578" d="M150.069,273.655h1.809v.9a.9.9,0,0,1-.9.9h0a.9.9,0,0,1-.9-.9Z" transform="translate(-148.26 -271.846)" fill="#c8414b"/>
    </g>
    <path id="Trazado_11579" data-name="Trazado 11579" d="M105.931,273.655h1.809v.9a.9.9,0,0,1-.9.9h0a.9.9,0,0,1-.9-.9Z" transform="translate(-102.403 -266.057)" fill="#fab446"/>
    <g id="Grupo_4747" data-name="Grupo 4747" transform="translate(3.854 7.598)">
      <path id="Trazado_11580" data-name="Trazado 11580" d="M132.775,275.279v-1.624h-.362v1.791A.9.9,0,0,0,132.775,275.279Z" transform="translate(-131.689 -273.655)" fill="#c8414b"/>
      <path id="Trazado_11581" data-name="Trazado 11581" d="M115.12,275.446v-1.791h-.362v1.624A.9.9,0,0,0,115.12,275.446Z" transform="translate(-114.758 -273.655)" fill="#c8414b"/>
    </g>
    <rect id="Rectángulo_17420" data-name="Rectángulo 17420" width="1.085" height="0.362" transform="translate(3.854 6.874)" fill="#ffb441"/>
    <g id="Grupo_4748" data-name="Grupo 4748" transform="translate(3.854 6.15)">
      <rect id="Rectángulo_17421" data-name="Rectángulo 17421" width="1.085" height="0.362" fill="#fab446"/>
      <rect id="Rectángulo_17422" data-name="Rectángulo 17422" width="0.724" height="0.655" transform="translate(0.181 0.215)" fill="#fab446"/>
    </g>
    <rect id="Rectángulo_17423" data-name="Rectángulo 17423" width="0.724" height="3.075" transform="translate(3.075 6.15)" fill="#f5f5f5"/>
    <g id="Grupo_4749" data-name="Grupo 4749" transform="translate(2.894 5.789)">
      <rect id="Rectángulo_17424" data-name="Rectángulo 17424" width="1.085" height="0.362" transform="translate(0 3.256)" fill="#fab446"/>
      <rect id="Rectángulo_17425" data-name="Rectángulo 17425" width="1.085" height="0.362" fill="#fab446"/>
    </g>
    <rect id="Rectángulo_17426" data-name="Rectángulo 17426" width="1.447" height="0.362" transform="translate(2.714 9.407)" fill="#5064aa"/>
    <rect id="Rectángulo_17427" data-name="Rectángulo 17427" width="1.085" height="0.362" transform="translate(6.966 9.045)" fill="#fab446"/>
    <rect id="Rectángulo_17428" data-name="Rectángulo 17428" width="1.447" height="0.362" transform="translate(6.643 9.407)" fill="#5064aa"/>
    <rect id="Rectángulo_17429" data-name="Rectángulo 17429" width="2.171" height="0.362" transform="translate(4.097 5.427)" fill="#fab446"/>
    <rect id="Rectángulo_17430" data-name="Rectángulo 17430" width="0.362" height="1.085" transform="translate(4.929 4.342)" fill="#ffb441"/>
    <g id="Grupo_4750" data-name="Grupo 4750" transform="translate(3.605 3.799)">
      <path id="Trazado_11582" data-name="Trazado 11582" d="M128.543,182.051a.543.543,0,1,1,.543-.543A.543.543,0,0,1,128.543,182.051Zm0-.724a.181.181,0,1,0,.181.181A.181.181,0,0,0,128.543,181.328Z" transform="translate(-127.276 -180.966)" fill="#f5f5f5"/>
      <path id="Trazado_11583" data-name="Trazado 11583" d="M146.2,182.051a.543.543,0,1,1,.543-.543A.543.543,0,0,1,146.2,182.051Zm0-.724a.181.181,0,1,0,.181.181A.181.181,0,0,0,146.2,181.328Z" transform="translate(-144.209 -180.966)" fill="#f5f5f5"/>
      <path id="Trazado_11584" data-name="Trazado 11584" d="M163.854,190.879a.543.543,0,1,1,.543-.543A.543.543,0,0,1,163.854,190.879Zm0-.724a.181.181,0,1,0,.181.181A.181.181,0,0,0,163.854,190.156Z" transform="translate(-161.14 -189.432)" fill="#f5f5f5"/>
      <path id="Trazado_11585" data-name="Trazado 11585" d="M110.888,190.879a.543.543,0,1,1,.543-.543A.543.543,0,0,1,110.888,190.879Zm0-.724a.181.181,0,1,0,.181.181A.181.181,0,0,0,110.888,190.156Z" transform="translate(-110.345 -189.432)" fill="#f5f5f5"/>
    </g>
    <path id="Trazado_11586" data-name="Trazado 11586" d="M159.62,282.845v.181a.181.181,0,0,1-.362,0v-.181h.362m.362-.362H158.9v.543a.543.543,0,0,0,1.085,0v-.543Z" transform="translate(-153.56 -274.523)" fill="#fab446"/>
    <path id="Trazado_11587" data-name="Trazado 11587" d="M163.672,239.429h0a.362.362,0,0,1-.362-.362v-.362a.362.362,0,0,1,.362-.362h0a.362.362,0,0,1,.362.362v.362A.362.362,0,0,1,163.672,239.429Z" transform="translate(-157.804 -232.193)" fill="#ffa0d2"/>
    <ellipse id="Elipse_198" data-name="Elipse 198" cx="0.543" cy="0.543" rx="0.543" ry="0.543" transform="translate(4.595 7.055)" fill="#5064aa"/>
    <rect id="Rectángulo_17431" data-name="Rectángulo 17431" width="0.362" height="1.085" transform="translate(4.929 3.618)" fill="#fab446"/>
    <path id="Trazado_11588" data-name="Trazado 11588" d="M115.12,195.292l-.362-.362.212-.212a1.747,1.747,0,0,1,1.235-.512h0a1.747,1.747,0,0,1,1.235.512l.212.212-.362.362Z" transform="translate(-110.989 -189.865)" fill="#c8414b"/>
    <g id="Grupo_4751" data-name="Grupo 4751" transform="translate(4.262 4.884)">
      <ellipse id="Elipse_199" data-name="Elipse 199" cx="0.181" cy="0.181" rx="0.181" ry="0.181" transform="translate(0.724)" fill="#ffd250"/>
      <ellipse id="Elipse_200" data-name="Elipse 200" cx="0.181" cy="0.181" rx="0.181" ry="0.181" fill="#ffd250"/>
      <ellipse id="Elipse_201" data-name="Elipse 201" cx="0.181" cy="0.181" rx="0.181" ry="0.181" transform="translate(1.447)" fill="#ffd250"/>
    </g>
    <g id="Grupo_4752" data-name="Grupo 4752" transform="translate(2.894 6.874)">
      <rect id="Rectángulo_17432" data-name="Rectángulo 17432" width="1.809" height="0.362" fill="#c8414b"/>
      <path id="Trazado_11589" data-name="Trazado 11589" d="M70.621,274.379l1.085-.362v-.362l-1.085.362Z" transform="translate(-70.621 -272.931)" fill="#c8414b"/>
    </g>
  </g>
</svg>
