<svg xmlns="http://www.w3.org/2000/svg" width="17.389" height="13.749" viewBox="0 0 17.389 13.749">
  <g id="_330554" data-name="330554" transform="translate(0)">
    <path id="Trazado_11567" data-name="Trazado 11567" d="M171.8,88.276H158.9a.362.362,0,0,1,.362.362v6.151a.362.362,0,0,1-.362.362h14.472v-5.3A1.572,1.572,0,0,0,171.8,88.276Z" transform="translate(-155.98 -88.276)" fill="#f5f5f5"/>
    <path id="Trazado_11568" data-name="Trazado 11568" d="M.6,247.534H.3a.335.335,0,0,1-.3-.362v5.665a1.456,1.456,0,0,0,1.3,1.572H16.087a1.456,1.456,0,0,0,1.3-1.572v-5.3H.6Z" transform="translate(0 -240.66)" fill="#ff4b55"/>
    <path id="Trazado_11569" data-name="Trazado 11569" d="M.362,95.149H6.512a.362.362,0,0,0,.362-.362V88.637a.362.362,0,0,0-.362-.362H1.572A1.572,1.572,0,0,0,0,89.847v4.941A.362.362,0,0,0,.362,95.149Z" transform="translate(0 -88.275)" fill="#41479b"/>
    <path id="Trazado_11570" data-name="Trazado 11570" d="M43.742,132.137l.345,1.034,1.09.008a.147.147,0,0,1,.086.265l-.877.648.329,1.039a.147.147,0,0,1-.225.164l-.887-.634-.887.634a.147.147,0,0,1-.226-.164l.329-1.039-.877-.648a.147.147,0,0,1,.086-.265l1.09-.008.345-1.034A.147.147,0,0,1,43.742,132.137Z" transform="translate(-40.166 -130.243)" fill="#f5f5f5"/>
  </g>
</svg>
