<svg xmlns="http://www.w3.org/2000/svg" width="17.389" height="13.75" viewBox="0 0 17.389 13.75">
  <g id="_330529" data-name="330529" transform="translate(0)">
    <rect id="Rectángulo_17406" data-name="Rectángulo 17406" width="17.389" height="4.342" transform="translate(0 4.704)" fill="#ff4b55"/>
    <path id="Trazado_11517" data-name="Trazado 11517" d="M16.087,88.257H1.3A1.439,1.439,0,0,0,0,89.744v.865H17.389v-.78A1.456,1.456,0,0,0,16.087,88.257Z" transform="translate(0 -88.257)" fill="#41479b"/>
    <rect id="Rectángulo_17407" data-name="Rectángulo 17407" width="17.389" height="2.352" transform="translate(0 2.352)" fill="#f5f5f5"/>
    <path id="Trazado_11518" data-name="Trazado 11518" d="M0,367.222a1.439,1.439,0,0,0,1.3,1.487H16.087a1.456,1.456,0,0,0,1.3-1.572v-.78H0Z" transform="translate(0 -354.959)" fill="#41479b"/>
    <g id="Grupo_4736" data-name="Grupo 4736" transform="translate(0 5.066)">
      <rect id="Rectángulo_17408" data-name="Rectángulo 17408" width="17.389" height="2.352" transform="translate(0 3.98)" fill="#f5f5f5"/>
      <ellipse id="Elipse_197" data-name="Elipse 197" cx="1.693" cy="1.809" rx="1.693" ry="1.809" transform="translate(3.167)" fill="#f5f5f5"/>
    </g>
    <rect id="Rectángulo_17409" data-name="Rectángulo 17409" width="1.751" height="0.875" transform="translate(3.901 6.175)" fill="#3cc8ff"/>
    <path id="Trazado_11519" data-name="Trazado 11519" d="M115.275,251.058l.02.193.079-.178-.041.19.13-.145-.1.168.168-.1-.144.13.19-.041-.177.079.193.02-.193.02.177.079-.19-.041.144.13-.168-.1.1.168-.13-.145.041.19-.079-.178-.02.193-.02-.193-.079.178.041-.19-.13.145.1-.168-.168.1.145-.13-.19.041.177-.079-.193-.02.193-.02-.177-.079.19.041-.145-.13.168.1-.1-.168.13.145-.041-.19.079.178Z" transform="translate(-111.077 -244.386)" fill="#ffe15a"/>
    <path id="Trazado_11520" data-name="Trazado 11520" d="M115.544,260.132h-.7l-.642-.525v-.759h2.043v.759Z" transform="translate(-110.41 -251.856)" fill="#41479b"/>
    <path id="Trazado_11521" data-name="Trazado 11521" d="M114.529,251.261h0a.029.029,0,0,0-.058,0h0a.671.671,0,0,1-.131.342.792.792,0,0,1-.153-.367.066.066,0,0,0-.095-.049.067.067,0,0,0-.036.05.594.594,0,0,1-.267.458.773.773,0,0,1-.188-.452.068.068,0,0,0-.132-.013.878.878,0,0,1-.692.615v.175h2.043v-.292C114.587,251.67,114.529,251.261,114.529,251.261Z" transform="translate(-109.033 -244.503)" fill="#73af00"/>
    <g id="Grupo_4737" data-name="Grupo 4737" transform="translate(3.375 5.766)">
      <path id="Trazado_11522" data-name="Trazado 11522" d="M110.723,229.411c-.233-.117-.233-.233-.233-.233a1.725,1.725,0,0,0-.525-.117s.058-.117-.058-.117h-.35c-.117,0-.058.117-.058.117a1.725,1.725,0,0,0-.525.117s0,.117-.233.233a.447.447,0,0,0-.233.379.088.088,0,1,0,.175,0,.087.087,0,0,0-.005-.028h.005l.584-.409h.934l.584.409h.005a.086.086,0,0,0-.005.028.088.088,0,1,0,.175,0A.446.446,0,0,0,110.723,229.411Z" transform="translate(-108.272 -228.944)" fill="#f0aa00"/>
      <path id="Trazado_11523" data-name="Trazado 11523" d="M105.435,246.5c-.058,0-.233,0-.233-.175s.233-.175.233-.175l-.35-.117c-.117.408.117.408.117.934a.86.86,0,0,1-.7.759.292.292,0,0,1-.467,0,.86.86,0,0,1-.7-.759c0-.525.233-.525.117-.934l-.35.117s.233,0,.233.175-.175.175-.233.175a.262.262,0,0,0-.292.292,1.225,1.225,0,0,0,.7.875c.409.233.233.467.759.467s.35-.233.759-.467a1.225,1.225,0,0,0,.7-.875A.262.262,0,0,0,105.435,246.5Z" transform="translate(-102.809 -245.332)" fill="#f0aa00"/>
    </g>
    <g id="Grupo_4738" data-name="Grupo 4738" transform="translate(3.954 5.927)">
      <path id="Trazado_11524" data-name="Trazado 11524" d="M119.175,233.412l-.141-.063a.117.117,0,0,0-.074-.007.938.938,0,0,0-.485.284l.175.058Z" transform="translate(-118.475 -233.318)" fill="#73af00"/>
      <path id="Trazado_11525" data-name="Trazado 11525" d="M141.257,233.412l.141-.063a.117.117,0,0,1,.074-.007.938.938,0,0,1,.485.284l-.175.058Z" transform="translate(-140.323 -233.318)" fill="#73af00"/>
      <path id="Trazado_11526" data-name="Trazado 11526" d="M135.358,232.991l.106-.106a.015.015,0,1,0-.021-.021l-.106.106-.106-.106a.015.015,0,1,0-.021.021l.106.106-.106.106a.015.015,0,1,0,.021.021l.106-.106.106.106a.015.015,0,0,0,.021-.021Z" transform="translate(-134.52 -232.86)" fill="#73af00"/>
    </g>
    <path id="Trazado_11527" data-name="Trazado 11527" d="M112.264,235.685c0-.1-.094-.142-.175-.161v-.046a.539.539,0,0,1-.278-.124c-.041-.028-.088-.06-.144-.094a.807.807,0,0,0-.454-.138v.1h-.233v-.1a.807.807,0,0,0-.454.138c-.056.034-.1.066-.144.094a.539.539,0,0,1-.278.124v.046c-.081.019-.175.062-.175.161l.175-.058v.027a.7.7,0,0,0,.376-.155c.039-.027.084-.057.136-.089a.713.713,0,0,1,.3-.112v.1h.35v-.1a.714.714,0,0,1,.3.112c.052.032.1.062.136.089a.7.7,0,0,0,.376.155v-.027Z" transform="translate(-106.292 -229.102)" fill="#f5f5f5"/>
    <path id="Trazado_11528" data-name="Trazado 11528" d="M116.505,217.918v-.072h-.163a.115.115,0,0,0,.046-.088c0-.161-.367-.2-.584-.2s-.584.043-.584.2a.114.114,0,0,0,.046.088H115.1v.072a.882.882,0,0,0-.266.113l.065.1a.68.68,0,0,1,.318-.107v-.058h1.167v.058a.679.679,0,0,1,.318.107l.065-.1A.882.882,0,0,0,116.505,217.918Zm-.467-.088v-.044a.044.044,0,0,0-.055-.043l-.179.045-.179-.045a.044.044,0,0,0-.055.043v.044a.524.524,0,0,1-.23-.071,1.27,1.27,0,0,1,.926,0A.525.525,0,0,1,116.039,217.83Z" transform="translate(-111.02 -212.255)" fill="#3cc8ff"/>
    <g id="Grupo_4739" data-name="Grupo 4739" transform="translate(4.022 6.309)">
      <path id="Trazado_11529" data-name="Trazado 11529" d="M136.722,242.2l.015.044h.047a.006.006,0,0,1,0,.011l-.038.028.014.045a.006.006,0,0,1-.01.007l-.038-.027-.038.027a.006.006,0,0,1-.01-.007l.014-.045-.038-.028a.006.006,0,0,1,0-.011h.047l.015-.044A.006.006,0,0,1,136.722,242.2Z" transform="translate(-135.973 -242.193)" fill="#f5f5f5"/>
      <path id="Trazado_11530" data-name="Trazado 11530" d="M131.276,242.576l.019.043.047,0a.006.006,0,0,1,0,.011l-.034.032.019.043a.006.006,0,0,1-.009.008l-.041-.023-.035.031a.006.006,0,0,1-.01-.006l.009-.046-.04-.024a.006.006,0,0,1,0-.012l.046-.005.01-.046A.006.006,0,0,1,131.276,242.576Z" transform="translate(-130.756 -242.557)" fill="#f5f5f5"/>
      <path id="Trazado_11531" data-name="Trazado 11531" d="M125.877,244.131l.028.037.044-.015a.006.006,0,0,1,.007.01l-.027.038.028.038a.006.006,0,0,1-.007.01l-.045-.014-.027.038a.006.006,0,0,1-.011,0v-.047l-.044-.014a.006.006,0,0,1,0-.012l.044-.015v-.047A.006.006,0,0,1,125.877,244.131Z" transform="translate(-125.591 -244.049)" fill="#f5f5f5"/>
      <path id="Trazado_11532" data-name="Trazado 11532" d="M120.363,246.567l.033.033.042-.02a.006.006,0,0,1,.008.009l-.022.041.032.034a.006.006,0,0,1-.006.011l-.046-.008-.022.041a.006.006,0,0,1-.012,0l-.007-.046-.046-.008a.006.006,0,0,1,0-.012l.042-.021-.006-.046A.006.006,0,0,1,120.363,246.567Z" transform="translate(-120.313 -246.386)" fill="#f5f5f5"/>
      <path id="Trazado_11533" data-name="Trazado 11533" d="M142.174,242.576l-.019.043-.047,0a.006.006,0,0,0,0,.011l.034.032-.019.043a.006.006,0,0,0,.009.008l.041-.023.035.031a.006.006,0,0,0,.01-.006l-.009-.046.04-.024a.006.006,0,0,0,0-.012l-.046-.005-.01-.046A.006.006,0,0,0,142.174,242.576Z" transform="translate(-141.208 -242.557)" fill="#f5f5f5"/>
      <path id="Trazado_11534" data-name="Trazado 11534" d="M147.7,244.131l-.028.037-.044-.015a.006.006,0,0,0-.007.01l.027.038-.028.038a.006.006,0,0,0,.007.01l.045-.014.027.038a.006.006,0,0,0,.011,0v-.047l.044-.014a.006.006,0,0,0,0-.012l-.044-.015v-.047A.006.006,0,0,0,147.7,244.131Z" transform="translate(-146.5 -244.049)" fill="#f5f5f5"/>
      <path id="Trazado_11535" data-name="Trazado 11535" d="M153.115,246.567l-.033.033-.042-.02a.006.006,0,0,0-.008.009l.022.041-.032.034a.006.006,0,0,0,.006.011l.046-.008.022.041a.006.006,0,0,0,.012,0l.007-.046.046-.008a.006.006,0,0,0,0-.012l-.042-.021.006-.046A.006.006,0,0,0,153.115,246.567Z" transform="translate(-151.678 -246.386)" fill="#f5f5f5"/>
    </g>
    <path id="Trazado_11536" data-name="Trazado 11536" d="M128.575,276.469l.3.2h.359l.166-.142-.128.051h-.423Z" transform="translate(-124.245 -268.755)" fill="#8c5a28"/>
    <path id="Trazado_11537" data-name="Trazado 11537" d="M129.788,270.21l-.029.289-.131-.05A.887.887,0,0,1,129.788,270.21Z" transform="translate(-125.233 -262.753)" fill="#f5f5f5"/>
    <g id="Grupo_4740" data-name="Grupo 4740" transform="translate(4.583 7.343)">
      <rect id="Rectángulo_17410" data-name="Rectángulo 17410" width="0.019" height="0.493" transform="translate(0.178)" fill="#8c5a28"/>
      <rect id="Rectángulo_17411" data-name="Rectángulo 17411" width="0.019" height="0.451" transform="translate(0.357 0.041)" fill="#8c5a28"/>
      <rect id="Rectángulo_17412" data-name="Rectángulo 17412" width="0.019" height="0.451" transform="translate(0 0.041)" fill="#8c5a28"/>
    </g>
    <g id="Grupo_4741" data-name="Grupo 4741" transform="translate(4.526 7.343)">
      <path id="Trazado_11538" data-name="Trazado 11538" d="M138.2,275.861h-.118a.022.022,0,0,1-.022-.022v-.06a.022.022,0,0,1,.022-.022h.118a.022.022,0,0,1,.022.022v.06A.022.022,0,0,1,138.2,275.861Z" transform="translate(-137.892 -275.415)" fill="#f5f5f5"/>
      <path id="Trazado_11539" data-name="Trazado 11539" d="M138.2,272.479h-.118a.022.022,0,0,1-.022-.022v-.06a.022.022,0,0,1,.022-.022h.118a.022.022,0,0,1,.022.022v.06A.022.022,0,0,1,138.2,272.479Z" transform="translate(-137.892 -272.172)" fill="#f5f5f5"/>
      <path id="Trazado_11540" data-name="Trazado 11540" d="M138.2,269.365h-.118a.022.022,0,0,1-.022-.022v-.06a.022.022,0,0,1,.022-.022h.118a.022.022,0,0,1,.022.022v.06A.022.022,0,0,1,138.2,269.365Z" transform="translate(-137.892 -269.185)" fill="#f5f5f5"/>
      <path id="Trazado_11541" data-name="Trazado 11541" d="M142.8,275.861h-.1a.022.022,0,0,1-.022-.022v-.06a.022.022,0,0,1,.022-.022h.1a.022.022,0,0,1,.022.022v.06A.022.022,0,0,1,142.8,275.861Z" transform="translate(-142.326 -275.415)" fill="#f5f5f5"/>
      <path id="Trazado_11542" data-name="Trazado 11542" d="M142.8,273.129h-.1a.022.022,0,0,1-.022-.022v-.043a.022.022,0,0,1,.022-.022h.1a.022.022,0,0,1,.022.022v.043A.022.022,0,0,1,142.8,273.129Z" transform="translate(-142.326 -272.81)" fill="#f5f5f5"/>
      <path id="Trazado_11543" data-name="Trazado 11543" d="M142.8,270.372h-.1a.022.022,0,0,1-.022-.022v-.029a.022.022,0,0,1,.022-.022h.1a.022.022,0,0,1,.022.022v.029A.022.022,0,0,1,142.8,270.372Z" transform="translate(-142.326 -270.18)" fill="#f5f5f5"/>
      <path id="Trazado_11544" data-name="Trazado 11544" d="M134.1,275.861H134a.022.022,0,0,1-.022-.022v-.06a.022.022,0,0,1,.022-.022h.1a.022.022,0,0,1,.022.022v.06A.022.022,0,0,1,134.1,275.861Z" transform="translate(-133.982 -275.415)" fill="#f5f5f5"/>
      <path id="Trazado_11545" data-name="Trazado 11545" d="M134.1,273.129H134a.022.022,0,0,1-.022-.022v-.043a.022.022,0,0,1,.022-.022h.1a.022.022,0,0,1,.022.022v.043A.022.022,0,0,1,134.1,273.129Z" transform="translate(-133.982 -272.81)" fill="#f5f5f5"/>
      <path id="Trazado_11546" data-name="Trazado 11546" d="M134.1,270.372H134a.022.022,0,0,1-.022-.022v-.029A.022.022,0,0,1,134,270.3h.1a.022.022,0,0,1,.022.022v.029A.022.022,0,0,1,134.1,270.372Z" transform="translate(-133.982 -270.18)" fill="#f5f5f5"/>
      <path id="Trazado_11547" data-name="Trazado 11547" d="M135.93,268.432v.058l.086-.03Z" transform="translate(-135.85 -268.39)" fill="#f5f5f5"/>
      <path id="Trazado_11548" data-name="Trazado 11548" d="M144.625,268.432v.058l.086-.03Z" transform="translate(-144.189 -268.39)" fill="#f5f5f5"/>
      <path id="Trazado_11549" data-name="Trazado 11549" d="M140.27,267.41v.058l.086-.03Z" transform="translate(-140.012 -267.41)" fill="#f5f5f5"/>
    </g>
    <path id="Trazado_11550" data-name="Trazado 11550" d="M134.709,257.8l.1.069h.125l.058-.049-.044.018H134.8Z" transform="translate(-130.147 -250.852)" fill="#8c5a28"/>
    <path id="Trazado_11551" data-name="Trazado 11551" d="M135.13,255.626l-.01.1-.045-.017A.309.309,0,0,1,135.13,255.626Z" transform="translate(-130.49 -248.766)" fill="#f5f5f5"/>
    <g id="Grupo_4742" data-name="Grupo 4742" transform="translate(4.65 6.82)">
      <rect id="Rectángulo_17413" data-name="Rectángulo 17413" width="0.007" height="0.171" transform="translate(0.062)" fill="#8c5a28"/>
      <rect id="Rectángulo_17414" data-name="Rectángulo 17414" width="0.007" height="0.157" transform="translate(0.124 0.014)" fill="#8c5a28"/>
      <rect id="Rectángulo_17415" data-name="Rectángulo 17415" width="0.007" height="0.157" transform="translate(0 0.014)" fill="#8c5a28"/>
    </g>
    <g id="Grupo_4743" data-name="Grupo 4743" transform="translate(4.361 6.542)">
      <path id="Trazado_11552" data-name="Trazado 11552" d="M138.05,257.589h-.041a.008.008,0,0,1-.008-.008v-.021a.008.008,0,0,1,.008-.008h.041a.008.008,0,0,1,.008.008v.021A.008.008,0,0,1,138.05,257.589Z" transform="translate(-137.668 -257.157)" fill="#f5f5f5"/>
      <path id="Trazado_11553" data-name="Trazado 11553" d="M138.05,256.413h-.041a.008.008,0,0,1-.008-.008v-.021a.008.008,0,0,1,.008-.008h.041a.008.008,0,0,1,.008.008v.021A.008.008,0,0,1,138.05,256.413Z" transform="translate(-137.668 -256.029)" fill="#f5f5f5"/>
      <path id="Trazado_11554" data-name="Trazado 11554" d="M138.05,255.332h-.041a.008.008,0,0,1-.008-.008V255.3a.008.008,0,0,1,.008-.008h.041a.008.008,0,0,1,.008.008v.021A.008.008,0,0,1,138.05,255.332Z" transform="translate(-137.668 -254.992)" fill="#f5f5f5"/>
      <path id="Trazado_11555" data-name="Trazado 11555" d="M139.65,257.589h-.033a.008.008,0,0,1-.008-.008v-.021a.008.008,0,0,1,.008-.008h.033a.008.008,0,0,1,.008.008v.021A.008.008,0,0,1,139.65,257.589Z" transform="translate(-139.21 -257.157)" fill="#f5f5f5"/>
      <path id="Trazado_11556" data-name="Trazado 11556" d="M139.65,256.64h-.033a.008.008,0,0,1-.008-.008v-.015a.008.008,0,0,1,.008-.008h.033a.008.008,0,0,1,.008.008v.015A.008.008,0,0,1,139.65,256.64Z" transform="translate(-139.21 -256.251)" fill="#f5f5f5"/>
      <path id="Trazado_11557" data-name="Trazado 11557" d="M139.65,255.681h-.033a.008.008,0,0,1-.008-.008v-.01a.008.008,0,0,1,.008-.008h.033a.008.008,0,0,1,.008.008v.01A.008.008,0,0,1,139.65,255.681Z" transform="translate(-139.21 -255.336)" fill="#f5f5f5"/>
      <path id="Trazado_11558" data-name="Trazado 11558" d="M136.627,257.589h-.033a.008.008,0,0,1-.008-.008v-.021a.008.008,0,0,1,.008-.008h.033a.008.008,0,0,1,.008.008v.021A.008.008,0,0,1,136.627,257.589Z" transform="translate(-136.311 -257.157)" fill="#f5f5f5"/>
      <path id="Trazado_11559" data-name="Trazado 11559" d="M136.627,256.64h-.033a.008.008,0,0,1-.008-.008v-.015a.008.008,0,0,1,.008-.008h.033a.008.008,0,0,1,.008.008v.015A.008.008,0,0,1,136.627,256.64Z" transform="translate(-136.311 -256.251)" fill="#f5f5f5"/>
      <path id="Trazado_11560" data-name="Trazado 11560" d="M136.627,255.681h-.033a.008.008,0,0,1-.008-.008v-.01a.008.008,0,0,1,.008-.008h.033a.008.008,0,0,1,.008.008v.01A.008.008,0,0,1,136.627,255.681Z" transform="translate(-136.311 -255.336)" fill="#f5f5f5"/>
      <path id="Trazado_11561" data-name="Trazado 11561" d="M137.263,255.008v.02l.03-.01Z" transform="translate(-136.96 -254.716)" fill="#f5f5f5"/>
      <path id="Trazado_11562" data-name="Trazado 11562" d="M140.284,255.008v.02l.03-.01Z" transform="translate(-139.857 -254.716)" fill="#f5f5f5"/>
      <path id="Trazado_11563" data-name="Trazado 11563" d="M138.771,254.653v.02l.03-.01Z" transform="translate(-138.406 -254.375)" fill="#f5f5f5"/>
      <path id="Trazado_11564" data-name="Trazado 11564" d="M129.99,247.98h-.076a.05.05,0,0,1-.05-.05h0a.05.05,0,0,1,.05-.05h.076a.05.05,0,0,1,.05.05h0A.05.05,0,0,1,129.99,247.98Z" transform="translate(-129.865 -247.881)" fill="#f5f5f5"/>
      <path id="Trazado_11565" data-name="Trazado 11565" d="M144.65,247.98h-.05a.05.05,0,0,1-.05-.05h0a.05.05,0,0,1,.05-.05h.05a.05.05,0,0,1,.05.05h0A.05.05,0,0,1,144.65,247.98Z" transform="translate(-143.948 -247.881)" fill="#f5f5f5"/>
      <path id="Trazado_11566" data-name="Trazado 11566" d="M153.944,250.69H153.9a.028.028,0,0,1-.028-.028v0a.028.028,0,0,1,.028-.028h.044a.028.028,0,0,1,.028.028v0A.028.028,0,0,1,153.944,250.69Z" transform="translate(-152.888 -250.515)" fill="#f5f5f5"/>
    </g>
  </g>
</svg>
