<svg xmlns="http://www.w3.org/2000/svg" width="17.389" height="13.748" viewBox="0 0 17.389 13.748">
  <g id="Grupo_4760" data-name="Grupo 4760" transform="translate(-36 -141.546)">
    <g id="_330433" data-name="330433" transform="translate(36 141.546)">
      <path id="Trazado_11636" data-name="Trazado 11636" d="M1.3,88.273A1.456,1.456,0,0,0,0,89.845V100.45a1.456,1.456,0,0,0,1.3,1.572H5.8V88.273Z" transform="translate(0 -88.273)" fill="#73af00"/>
      <rect id="Rectángulo_17439" data-name="Rectángulo 17439" width="5.797" height="13.748" transform="translate(5.797 0)" fill="#f5f5f5"/>
      <path id="Trazado_11637" data-name="Trazado 11637" d="M345.827,88.273h-4.494v13.748h4.494a1.456,1.456,0,0,0,1.3-1.572V89.845A1.456,1.456,0,0,0,345.827,88.273Z" transform="translate(-329.74 -88.273)" fill="#ff4b55"/>
      <path id="Trazado_11638" data-name="Trazado 11638" d="M256.517,263.893l-.517.312v.312h.259Z" transform="translate(-247.305 -256.695)" fill="#ffd250"/>
      <g id="Grupo_4758" data-name="Grupo 4758" transform="translate(7.273 7.042)">
        <path id="Trazado_11639" data-name="Trazado 11639" d="M252.322,276.249a.144.144,0,0,1-.129-.156v-.624a.132.132,0,1,1,.259,0v.624A.144.144,0,0,1,252.322,276.249Z" transform="translate(-250.9 -274.689)" fill="#00c3a0"/>
        <path id="Trazado_11640" data-name="Trazado 11640" d="M215.553,261.026a1.856,1.856,0,0,1-1.381-.666.179.179,0,0,1-.007-.22.115.115,0,0,1,.183-.008,1.538,1.538,0,0,0,2.41,0,.114.114,0,0,1,.183.008.18.18,0,0,1-.007.22A1.857,1.857,0,0,1,215.553,261.026Z" transform="translate(-214.131 -260.09)" fill="#00c3a0"/>
      </g>
      <path id="Trazado_11641" data-name="Trazado 11641" d="M229.592,284.159a1.477,1.477,0,0,1-.928-.338l.143-.26a1.239,1.239,0,0,0,1.571,0l.143.26A1.477,1.477,0,0,1,229.592,284.159Z" transform="translate(-220.898 -275.557)" fill="#00aadc"/>
      <path id="Trazado_11642" data-name="Trazado 11642" d="M240.474,246.764l-.285.533-.049.176.743-.208Z" transform="translate(-231.984 -240.268)" fill="#732d37"/>
      <path id="Trazado_11643" data-name="Trazado 11643" d="M208.222,212.234c-.342,0-.752-.347-.861-1.12l.255-.052c.09.643.418.861.615.86.06,0,.123-.027.128-.079s.007-.076-.128-.131a.453.453,0,0,1-.215-.145c-.236-.326.084-.671.238-.837.027-.029.038-.054.035-.064a.133.133,0,0,0-.116-.067.331.331,0,0,1-.325-.292.453.453,0,0,1,.169-.467l.119.277a.12.12,0,0,0-.036.116c0,.016.011.054.074.054a.387.387,0,0,1,.358.268.406.406,0,0,1-.1.408c-.17.183-.271.321-.215.4a.336.336,0,0,0,.1.055.408.408,0,0,1,.3.463.379.379,0,0,1-.378.355Z" transform="translate(-200.318 -204.859)" fill="#aad264"/>
      <path id="Trazado_11644" data-name="Trazado 11644" d="M256.259,203.687a.766.766,0,0,0-.259-.936s1.81-.312,1.551,2.5h0a2.336,2.336,0,0,1-.512-.7l-.781-.546v-.312Z" transform="translate(-247.305 -198.049)" fill="#874150"/>
      <path id="Trazado_11645" data-name="Trazado 11645" d="M256,241.055l1.293.936-.517.312-.776-.936Z" transform="translate(-247.305 -234.793)" fill="#732d37"/>
      <path id="Trazado_11646" data-name="Trazado 11646" d="M240.775,210.918h0a.289.289,0,0,1,.259.312h0a.708.708,0,0,0-.095.706l.058.141a.622.622,0,0,0,.095.159l.718.866v-.431a4.057,4.057,0,0,0-.3-1.547h0a.775.775,0,0,0-.694-.517h-.038v.312Z" transform="translate(-232.597 -205.592)" fill="#783c46"/>
      <path id="Trazado_11647" data-name="Trazado 11647" d="M233.421,210.6l-.259.312v.312s.308-.188.411-.248a.126.126,0,0,0,.018-.189C233.559,210.754,233.421,210.6,233.421,210.6Z" transform="translate(-225.243 -205.59)" fill="#ffd250"/>
      <path id="Trazado_11648" data-name="Trazado 11648" d="M193.49,251.32a2.46,2.46,0,0,1-2.2-2.652h.259a1.974,1.974,0,1,0,3.878,0h.259A2.46,2.46,0,0,1,193.49,251.32Z" transform="translate(-184.795 -242.094)" fill="#aad264"/>
      <g id="Grupo_4759" data-name="Grupo 4759" transform="translate(6.594 7.288)">
        <ellipse id="Elipse_204" data-name="Elipse 204" cx="0.175" cy="0.212" rx="0.175" ry="0.212" transform="translate(0 0)" fill="#ffe15a"/>
        <ellipse id="Elipse_205" data-name="Elipse 205" cx="0.175" cy="0.212" rx="0.175" ry="0.212" transform="translate(0.388 0.748)" fill="#ffe15a"/>
        <ellipse id="Elipse_206" data-name="Elipse 206" cx="0.175" cy="0.212" rx="0.175" ry="0.212" transform="translate(1.018 1.313)" fill="#ffe15a"/>
        <ellipse id="Elipse_207" data-name="Elipse 207" cx="0.175" cy="0.212" rx="0.175" ry="0.212" transform="translate(3.869 0)" fill="#ffe15a"/>
        <ellipse id="Elipse_208" data-name="Elipse 208" cx="0.175" cy="0.212" rx="0.175" ry="0.212" transform="translate(3.481 0.748)" fill="#ffe15a"/>
        <ellipse id="Elipse_209" data-name="Elipse 209" cx="0.175" cy="0.212" rx="0.175" ry="0.212" transform="translate(2.851 1.313)" fill="#ffe15a"/>
      </g>
      <path id="Trazado_11649" data-name="Trazado 11649" d="M245.1,287.355h-.259a.289.289,0,0,1-.259-.312h0a.289.289,0,0,1,.259-.312h.259a.289.289,0,0,1,.259.312h0A.289.289,0,0,1,245.1,287.355Z" transform="translate(-236.273 -278.597)" fill="#ffb478"/>
      <path id="Trazado_11650" data-name="Trazado 11650" d="M257.04,204.545a1.1,1.1,0,0,0,.512.7h0c.259-2.808-1.551-2.5-1.551-2.5C257.293,202.751,257.04,204.545,257.04,204.545Z" transform="translate(-247.305 -198.049)" fill="#9b4b5a"/>
    </g>
  </g>
</svg>
