<svg xmlns="http://www.w3.org/2000/svg" width="18.5" height="15.516" viewBox="0 0 18.5 15.516">
  <path id="Trazado_10612" data-name="Trazado 10612" d="M26.2,55.758H11.282v-.6a.3.3,0,0,0-.3-.3h-.3v-.9h.6v.3a.3.3,0,1,0,.6,0V53.073a.3.3,0,1,0-.6,0v.3h-.6V49.79A1.2,1.2,0,0,1,11.879,48.6h1.194a1.2,1.2,0,0,1,1.194,1.194v.025a1.793,1.793,0,0,0-1.492,1.765.3.3,0,0,0,.3.3h2.984a.3.3,0,0,0,.3-.3,1.793,1.793,0,0,0-1.492-1.765V49.79A1.792,1.792,0,0,0,13.073,48H11.879a1.792,1.792,0,0,0-1.79,1.79v5.073h-.3a.3.3,0,0,0-.3.3v.6H8.3a.3.3,0,0,0-.3.3v.9a.3.3,0,0,0,.3.3h.9v3.581A1.793,1.793,0,0,0,10.685,62.6v.622a.3.3,0,1,0,.6,0v-.6H23.218v.6a.3.3,0,1,0,.6,0V62.6a1.793,1.793,0,0,0,1.492-1.765V57.25h.9a.3.3,0,0,0,.3-.3v-.9A.3.3,0,0,0,26.2,55.758ZM14.565,50.387a1.2,1.2,0,0,1,1.156.9H13.409A1.2,1.2,0,0,1,14.565,50.387ZM10.089,55.46h.6v.3h-.6ZM24.71,60.831a1.2,1.2,0,0,1-1.194,1.194H10.984A1.2,1.2,0,0,1,9.79,60.831V57.25H24.71ZM25.9,56.653H8.6v-.3H25.9Z" transform="translate(-8 -48)" fill="#8696a9"/>
</svg>
