<svg xmlns="http://www.w3.org/2000/svg" width="18.72" height="15.7" viewBox="0 0 18.72 15.7">
  <path id="Trazado_10513" data-name="Trazado 10513" d="M26.418,55.85h-15.1v-.6a.3.3,0,0,0-.3-.3h-.3v-.906h.6v.3a.3.3,0,1,0,.6,0V53.133a.3.3,0,1,0-.6,0v.3h-.6V49.812A1.209,1.209,0,0,1,11.925,48.6h1.208a1.209,1.209,0,0,1,1.208,1.208v.026a1.814,1.814,0,0,0-1.51,1.786.3.3,0,0,0,.3.3h3.019a.3.3,0,0,0,.3-.3,1.814,1.814,0,0,0-1.51-1.786v-.026A1.814,1.814,0,0,0,13.133,48H11.925a1.814,1.814,0,0,0-1.812,1.812v5.133h-.3a.3.3,0,0,0-.3.3v.6H8.3a.3.3,0,0,0-.3.3v.906a.3.3,0,0,0,.3.3h.906v3.623a1.814,1.814,0,0,0,1.51,1.786v.63a.3.3,0,1,0,.6,0v-.6H23.4v.6a.3.3,0,1,0,.6,0v-.63a1.814,1.814,0,0,0,1.51-1.786V57.36h.906a.3.3,0,0,0,.3-.3v-.906A.3.3,0,0,0,26.418,55.85ZM14.642,50.415a1.21,1.21,0,0,1,1.17.906H13.473A1.21,1.21,0,0,1,14.642,50.415Zm-4.529,5.133h.6v.3h-.6Zm14.795,5.435A1.209,1.209,0,0,1,23.7,62.191H11.019a1.209,1.209,0,0,1-1.208-1.208V57.36h15.1Zm1.208-4.227H8.6v-.3H26.116Z" transform="translate(-8 -48)" fill="#393a34"/>
</svg>
