<svg id="Beauty_Hand_Cream" data-name="Beauty Hand Cream" xmlns="http://www.w3.org/2000/svg" width="16.606" height="16.87" viewBox="0 0 16.606 16.87">
  <g id="Outline" transform="translate(0 0)">
    <path id="Trazado_11233" data-name="Trazado 11233" d="M256.925,7.5a3.139,3.139,0,0,0,2.237.936h0A3.14,3.14,0,0,0,261.4,7.5a3.2,3.2,0,0,0,.925-2.256,2.524,2.524,0,0,0-.137-.759,5.957,5.957,0,0,0-.344-.819,16.374,16.374,0,0,0-1.554-2.411C259.8.6,259.406.14,259.363.09h0a.264.264,0,0,0-.4,0h0c-.078.092-.789.924-1.5,1.953a.264.264,0,0,0,.434.3c.376-.544.755-1.035,1.007-1.351.088-.111.176-.218.26-.321.285.345.839,1.039,1.367,1.818A12.28,12.28,0,0,1,261.422,4,3.127,3.127,0,0,1,261.8,5.24a2.665,2.665,0,0,1-.773,1.886,2.616,2.616,0,0,1-3.726,0,2.664,2.664,0,0,1-.773-1.886,2.919,2.919,0,0,1,.319-1.121.264.264,0,0,0-.13-.349.258.258,0,0,0-.11-.024.264.264,0,0,0-.24.154A3.344,3.344,0,0,0,256,5.24,3.2,3.2,0,0,0,256.925,7.5Z" transform="translate(-247.565 0.002)" fill="#8696a9"/>
    <path id="Trazado_11234" data-name="Trazado 11234" d="M281.669,86a.264.264,0,1,0-.09-.362h0A.264.264,0,0,0,281.669,86Z" transform="translate(-272.265 -82.694)" fill="#8696a9"/>
    <path id="Trazado_11235" data-name="Trazado 11235" d="M376.262,153.176a.262.262,0,0,0,.152-.049,2.151,2.151,0,0,0,.9-1.752.264.264,0,0,0-.527,0,1.623,1.623,0,0,1-.68,1.323.264.264,0,0,0,.153.479Z" transform="translate(-363.61 -146.132)" fill="#8696a9"/>
    <ellipse id="Elipse_194" data-name="Elipse 194" cx="0.24" cy="0.28" rx="0.24" ry="0.28" transform="translate(11.344 6.859)" fill="#8696a9"/>
    <path id="Trazado_11236" data-name="Trazado 11236" d="M126.468,281.062l-2.308.513a.264.264,0,1,0,.114.515l2.372-.527a.264.264,0,0,0,.114-.057l1.845-1.582.015-.014,1.054-1.054a.264.264,0,0,0,0-.373,1.383,1.383,0,0,0-1.938-.016l-1.779,1.27-1.434.239c-.5-.257-3.1-1.571-4.261-1.571a.264.264,0,0,0,0,.527,14.416,14.416,0,0,1,4.095,1.551.264.264,0,0,0,.166.027l1.582-.264a.264.264,0,0,0,.11-.046l1.845-1.318a.265.265,0,0,0,.033-.028.856.856,0,0,1,.993-.157l-.831.831Z" transform="translate(-116.046 -268.916)" fill="#8696a9"/>
    <path id="Trazado_11237" data-name="Trazado 11237" d="M356.975,375.452A1.785,1.785,0,0,0,355,374.5a.264.264,0,1,0,.11.515,1.258,1.258,0,0,1,1.192.381l-4.109.967a.264.264,0,1,0,.121.513l4.481-1.054a.264.264,0,0,0,.175-.374Z" transform="translate(-340.396 -362.127)" fill="#8696a9"/>
    <path id="Trazado_11238" data-name="Trazado 11238" d="M144.382,249.911a4.842,4.842,0,0,1,1.995.956c.193.158.541.424,1.064.813a.259.259,0,0,0,.157.052.264.264,0,0,0,.158-.475c-.351-.261-.816-.611-1.045-.8a5.356,5.356,0,0,0-2.21-1.061.26.26,0,0,0-.06-.007.264.264,0,0,0-.059.521Z" transform="translate(-139.427 -241.173)" fill="#8696a9"/>
    <path id="Trazado_11239" data-name="Trazado 11239" d="M.271,246.332a.258.258,0,0,0,.082-.013l.788-.258a8.391,8.391,0,0,1,1.806-.35.264.264,0,0,0-.042-.526,8.978,8.978,0,0,0-1.921.372l-.8.26a.264.264,0,0,0,.082.514Z" transform="translate(-0.007 -237.106)" fill="#8696a9"/>
    <path id="Trazado_11240" data-name="Trazado 11240" d="M112.8,245.255h.017a.266.266,0,1,0-.017,0Z" transform="translate(-108.849 -236.661)" fill="#8696a9"/>
    <path id="Trazado_11241" data-name="Trazado 11241" d="M14.253,313.571l-.727-.242a.264.264,0,1,0-.167.5l.727.242a.759.759,0,0,1,.508.847l-5.228-1.673,2.6-1.184.015-.007,3.954-2.109a.264.264,0,0,0,.087-.391,1.842,1.842,0,0,0-2.3-.543.264.264,0,0,0,.236.472,1.315,1.315,0,0,1,1.423.159l-3.641,1.942L8.9,312.875H7.44l-5.482-2.61a.264.264,0,0,0-.113-.026H.264a.264.264,0,1,0,0,.527H1.786l5.482,2.61a.264.264,0,0,0,.113.026h.75l6.551,2.1a.264.264,0,0,0,.316-.133,1.286,1.286,0,0,0-.744-1.8Z" transform="translate(0 -298.642)" fill="#8696a9"/>
  </g>
</svg>
