<svg xmlns="http://www.w3.org/2000/svg" width="20.578" height="20.587" viewBox="0 0 20.578 20.587">
  <g id="cabana-de-playa" transform="translate(-0.107 0)">
    <path id="Trazado_11738" data-name="Trazado 11738" d="M20.68,7.13a.306.306,0,0,0-.127-.2L10.57.054a.306.306,0,0,0-.347,0L.24,6.933a.306.306,0,0,0-.078.426L1.087,8.7a.306.306,0,0,0,.426.078l.719-.5v5.43a.306.306,0,0,0,.306.306h1.01V15.95a.306.306,0,0,0,.306.306h1.17v.756a.306.306,0,0,0,.612,0v-.756h1.3v4.025h0a.306.306,0,0,0,.481.25L10.4,18.455l2.976,2.077a.306.306,0,0,0,.481-.252V16.256h1.3v4.025a.306.306,0,1,0,.612,0V16.256h1.17a.306.306,0,0,0,.306-.306V14.023h1.01a.306.306,0,0,0,.306-.306V10.895a.306.306,0,0,0-.612,0V13.41H2.844V7.864L10.4,2.66l7.552,5.2V9.67a.306.306,0,0,0,.612,0V8.286l.719.5a.306.306,0,0,0,.426-.078l.926-1.344A.306.306,0,0,0,20.68,7.13Zm-8.2,9.126L7.551,19.694V18.45l3.143-2.194Zm.764.214V17.7l-.884-.617ZM7.551,17.7V16.47l.884.617Zm1.419-.99-.655-.457h1.31Zm2.853.746,1.419.99v1.244l-2.31-1.612Zm4.809-3.437v1.622H4.161V14.023ZM19.375,8.1l-8.8-6.067a.306.306,0,0,0-.347,0L1.418,8.1l-.579-.84L10.4.678l9.557,6.586Z" transform="translate(0 0)" fill="#8696a9"/>
    <path id="Trazado_11739" data-name="Trazado 11739" d="M120.907,439.372a.306.306,0,0,0-.306.306v2.044a.306.306,0,1,0,.612,0v-2.044A.306.306,0,0,0,120.907,439.372Z" transform="translate(-115.576 -421.441)" fill="#8696a9"/>
    <path id="Trazado_11740" data-name="Trazado 11740" d="M148.689,157.13a.306.306,0,0,0-.306.306v4.8a.306.306,0,0,0,.306.306h7.864a.306.306,0,0,0,.306-.306v-4.8a.306.306,0,0,0-.306-.306Zm.306,1.707h7.252v.558H149Zm7.252-1.095v.482H149v-.482ZM149,161.93v-1.923h7.252v1.923Z" transform="translate(-142.225 -150.718)" fill="#8696a9"/>
  </g>
</svg>
