<svg id="_506781" data-name="506781" xmlns="http://www.w3.org/2000/svg" width="13.71" height="11.425" viewBox="0 0 13.71 11.425">
  <g id="Grupo_4646" data-name="Grupo 4646" transform="translate(0 0)">
    <g id="Grupo_4645" data-name="Grupo 4645">
      <path id="Trazado_11320" data-name="Trazado 11320" d="M13.024,40H.685A.685.685,0,0,0,0,40.686v9.14a.685.685,0,0,0,.685.686H1.828v.457a.457.457,0,0,0,.457.457H3.2a.457.457,0,0,0,.457-.457v-.457h6.4v.457a.457.457,0,0,0,.457.457h.914a.457.457,0,0,0,.457-.457v-.457h1.142a.685.685,0,0,0,.685-.686v-9.14A.685.685,0,0,0,13.024,40ZM3.2,50.968H2.285v-.457H3.2Zm8.226,0h-.914v-.457h.914Zm1.828-1.143a.229.229,0,0,1-.228.228H.685a.229.229,0,0,1-.228-.228v-9.14a.229.229,0,0,1,.228-.228H13.024a.229.229,0,0,1,.228.228Z" transform="translate(0 -40)" fill="#8696a9"/>
    </g>
  </g>
  <g id="Grupo_4648" data-name="Grupo 4648" transform="translate(1.371 1.371)">
    <g id="Grupo_4647" data-name="Grupo 4647">
      <path id="Trazado_11321" data-name="Trazado 11321" d="M58.739,89.143a.229.229,0,0,0,.229-.228v-.229A.685.685,0,0,0,58.282,88h-9.6a.685.685,0,0,0-.685.686v6.4a.685.685,0,0,0,.685.686h9.6a.685.685,0,0,0,.686-.686v-.229a.229.229,0,0,0-.457,0v.229a.229.229,0,0,1-.229.229h-9.6a.229.229,0,0,1-.228-.229v-6.4a.229.229,0,0,1,.228-.229h9.6a.229.229,0,0,1,.229.229v.229A.229.229,0,0,0,58.739,89.143Z" transform="translate(-48 -88)" fill="#8696a9"/>
    </g>
  </g>
  <g id="Grupo_4650" data-name="Grupo 4650" transform="translate(11.882 4.799)">
    <g id="Grupo_4649" data-name="Grupo 4649">
      <path id="Trazado_11322" data-name="Trazado 11322" d="M416.229,208a.229.229,0,0,0-.229.229v.457a.229.229,0,1,0,.457,0v-.457A.228.228,0,0,0,416.229,208Z" transform="translate(-416 -208)" fill="#8696a9"/>
    </g>
  </g>
  <g id="Grupo_4652" data-name="Grupo 4652" transform="translate(11.425 2.742)">
    <g id="Grupo_4651" data-name="Grupo 4651">
      <path id="Trazado_11323" data-name="Trazado 11323" d="M400.914,136h-.457a.457.457,0,0,0-.457.457v.914a.457.457,0,0,0,.457.457h.457a.457.457,0,0,0,.457-.457v-.914A.457.457,0,0,0,400.914,136Zm0,1.371h-.457v-.914h.457Z" transform="translate(-400 -136)" fill="#8696a9"/>
    </g>
  </g>
  <g id="Grupo_4654" data-name="Grupo 4654" transform="translate(11.425 5.941)">
    <g id="Grupo_4653" data-name="Grupo 4653">
      <path id="Trazado_11324" data-name="Trazado 11324" d="M400.914,248h-.457a.457.457,0,0,0-.457.457v.914a.457.457,0,0,0,.457.457h.457a.457.457,0,0,0,.457-.457v-.914A.457.457,0,0,0,400.914,248Zm0,1.371h-.457v-.914h.457Z" transform="translate(-400 -248)" fill="#8696a9"/>
    </g>
  </g>
  <g id="Grupo_4656" data-name="Grupo 4656" transform="translate(4.57 2.971)">
    <g id="Grupo_4655" data-name="Grupo 4655">
      <path id="Trazado_11325" data-name="Trazado 11325" d="M162.285,144a2.285,2.285,0,1,0,2.285,2.285A2.285,2.285,0,0,0,162.285,144Zm0,4.17a1.885,1.885,0,1,1,1.885-1.885A1.885,1.885,0,0,1,162.285,148.17Z" transform="translate(-160 -144)" fill="#8696a9"/>
    </g>
  </g>
  <g id="Grupo_4658" data-name="Grupo 4658" transform="translate(6.626 3.656)">
    <g id="Grupo_4657" data-name="Grupo 4657">
      <path id="Trazado_11326" data-name="Trazado 11326" d="M232.229,168a.228.228,0,0,0-.228.229v.418a.228.228,0,0,0,.457,0v-.418A.229.229,0,0,0,232.229,168Z" transform="translate(-232 -168)" fill="#8696a9"/>
    </g>
  </g>
  <g id="Grupo_4660" data-name="Grupo 4660" transform="translate(2.285 3.199)">
    <g id="Grupo_4659" data-name="Grupo 4659">
      <path id="Trazado_11327" data-name="Trazado 11327" d="M80.229,152a.229.229,0,0,0-.228.229v3.656a.228.228,0,1,0,.457,0v-3.656A.229.229,0,0,0,80.229,152Z" transform="translate(-80 -152)" fill="#8696a9"/>
    </g>
  </g>
  <g id="Grupo_4662" data-name="Grupo 4662" transform="translate(6.626 5.941)">
    <g id="Grupo_4661" data-name="Grupo 4661">
      <path id="Trazado_11328" data-name="Trazado 11328" d="M232.229,248a.228.228,0,0,0-.228.229v.418a.228.228,0,1,0,.457,0v-.418A.229.229,0,0,0,232.229,248Z" transform="translate(-232 -248)" fill="#8696a9"/>
    </g>
  </g>
  <g id="Grupo_4664" data-name="Grupo 4664" transform="translate(5.255 5.027)">
    <g id="Grupo_4663" data-name="Grupo 4663">
      <path id="Trazado_11329" data-name="Trazado 11329" d="M184.647,216h-.418a.229.229,0,0,0,0,.457h.418a.229.229,0,1,0,0-.457Z" transform="translate(-184 -216)" fill="#8696a9"/>
    </g>
  </g>
  <g id="Grupo_4666" data-name="Grupo 4666" transform="translate(7.579 5.027)">
    <g id="Grupo_4665" data-name="Grupo 4665">
      <path id="Trazado_11330" data-name="Trazado 11330" d="M266.007,216h-.418a.229.229,0,1,0,0,.457h.418a.229.229,0,0,0,0-.457Z" transform="translate(-265.36 -216)" fill="#8696a9"/>
    </g>
  </g>
  <g id="Grupo_4668" data-name="Grupo 4668" transform="translate(5.683 4.058)">
    <g id="Grupo_4667" data-name="Grupo 4667">
      <path id="Trazado_11331" data-name="Trazado 11331" d="M199.63,182.428l-.3-.3a.228.228,0,0,0-.322.322l.3.3a.228.228,0,0,0,.322-.322Z" transform="translate(-198.956 -182.076)" fill="#8696a9"/>
    </g>
  </g>
  <g id="Grupo_4670" data-name="Grupo 4670" transform="translate(7.298 5.68)">
    <g id="Grupo_4669" data-name="Grupo 4669">
      <path id="Trazado_11332" data-name="Trazado 11332" d="M256.19,239.228l-.3-.3a.228.228,0,0,0-.322.322l.3.3a.228.228,0,0,0,.322-.322Z" transform="translate(-255.516 -238.876)" fill="#8696a9"/>
    </g>
  </g>
  <g id="Grupo_4672" data-name="Grupo 4672" transform="translate(5.658 5.706)">
    <g id="Grupo_4671" data-name="Grupo 4671">
      <path id="Trazado_11333" data-name="Trazado 11333" d="M198.757,239.811a.228.228,0,0,0-.3,0l-.3.3a.228.228,0,1,0,.322.322l.3-.3A.229.229,0,0,0,198.757,239.811Z" transform="translate(-198.083 -239.756)" fill="#8696a9"/>
    </g>
  </g>
  <g id="Grupo_4674" data-name="Grupo 4674" transform="translate(7.313 4.045)">
    <g id="Grupo_4673" data-name="Grupo 4673">
      <path id="Trazado_11334" data-name="Trazado 11334" d="M256.719,181.7a.229.229,0,0,0-.323,0l-.3.3a.229.229,0,0,0,.324.322l.3-.3A.229.229,0,0,0,256.719,181.7Z" transform="translate(-256.033 -181.635)" fill="#8696a9"/>
    </g>
  </g>
</svg>
