<svg id="_633593" data-name="633593" xmlns="http://www.w3.org/2000/svg" width="20.333" height="20.333" viewBox="0 0 20.333 20.333">
  <g id="Grupo_142" data-name="Grupo 142" transform="translate(0 1.694)">
    <g id="Grupo_141" data-name="Grupo 141">
      <path id="Trazado_10487" data-name="Trazado 10487" d="M17.368,42.667h-.847a.424.424,0,1,0,0,.847h.847a2.12,2.12,0,0,1,2.118,2.118V58.341a2.12,2.12,0,0,1-2.118,2.118H2.965A2.12,2.12,0,0,1,.847,58.341V45.632a2.12,2.12,0,0,1,2.118-2.118h.847a.424.424,0,1,0,0-.847H2.965A2.969,2.969,0,0,0,0,45.632V58.341a2.969,2.969,0,0,0,2.965,2.965h14.4a2.969,2.969,0,0,0,2.965-2.965V45.632A2.969,2.969,0,0,0,17.368,42.667Z" transform="translate(0 -42.667)"/>
    </g>
  </g>
  <g id="Grupo_144" data-name="Grupo 144" transform="translate(6.778 1.694)">
    <g id="Grupo_143" data-name="Grupo 143">
      <path id="Trazado_10488" data-name="Trazado 10488" d="M177.02,42.667H171.09a.424.424,0,0,0,0,.847h5.931a.424.424,0,0,0,0-.847Z" transform="translate(-170.666 -42.667)"/>
    </g>
  </g>
  <g id="Grupo_146" data-name="Grupo 146" transform="translate(0 5.931)">
    <g id="Grupo_145" data-name="Grupo 145">
      <path id="Trazado_10489" data-name="Trazado 10489" d="M19.91,149.333H.424a.424.424,0,1,0,0,.847H19.91a.424.424,0,1,0,0-.847Z" transform="translate(0 -149.333)"/>
    </g>
  </g>
  <g id="Grupo_148" data-name="Grupo 148" transform="translate(5.083)">
    <g id="Grupo_147" data-name="Grupo 147">
      <path id="Trazado_10490" data-name="Trazado 10490" d="M128.424,0A.424.424,0,0,0,128,.424V3.813a.424.424,0,0,0,.847,0V.424A.424.424,0,0,0,128.424,0Z" transform="translate(-128)"/>
    </g>
  </g>
  <g id="Grupo_150" data-name="Grupo 150" transform="translate(14.403)">
    <g id="Grupo_149" data-name="Grupo 149">
      <path id="Trazado_10491" data-name="Trazado 10491" d="M363.09,0a.424.424,0,0,0-.424.424V3.813a.424.424,0,1,0,.847,0V.424A.424.424,0,0,0,363.09,0Z" transform="translate(-362.666)"/>
    </g>
  </g>
  <g id="Grupo_152" data-name="Grupo 152" transform="translate(5.083 9.319)">
    <g id="Grupo_151" data-name="Grupo 151">
      <path id="Trazado_10492" data-name="Trazado 10492" d="M131.387,238.479A2.118,2.118,0,1,0,128,236.785a.424.424,0,1,0,.847,0,1.271,1.271,0,1,1,1.271,1.271h-.847a.424.424,0,1,0,0,.847h.847a1.271,1.271,0,1,1-1.271,1.271.424.424,0,0,0-.847,0,2.118,2.118,0,1,0,3.387-1.694Z" transform="translate(-128 -234.667)"/>
    </g>
  </g>
  <g id="Grupo_154" data-name="Grupo 154" transform="translate(11.015 9.319)">
    <g id="Grupo_153" data-name="Grupo 153">
      <path id="Trazado_10493" data-name="Trazado 10493" d="M279.629,234.694a.423.423,0,0,0-.462.092l-1.694,1.694a.424.424,0,0,0,.6.6l.971-.971v5.755a.424.424,0,0,0,.847,0v-6.778A.424.424,0,0,0,279.629,234.694Z" transform="translate(-277.349 -234.661)"/>
    </g>
  </g>
  <g id="Grupo_156" data-name="Grupo 156" transform="translate(11.014 16.097)">
    <g id="Grupo_155" data-name="Grupo 155">
      <path id="Trazado_10494" data-name="Trazado 10494" d="M281.146,405.333h-3.389a.424.424,0,1,0,0,.847h3.389a.424.424,0,1,0,0-.847Z" transform="translate(-277.333 -405.333)"/>
    </g>
  </g>
</svg>
