<svg xmlns="http://www.w3.org/2000/svg" width="25" height="19.129" viewBox="0 0 25 19.129">
  <g id="_4406199" data-name="4406199" transform="translate(0 -60.121)">
    <path id="Trazado_11687" data-name="Trazado 11687" d="M21.894,62.861h-3.46a.417.417,0,0,1-.362-.21l-.664-1.162a2.721,2.721,0,0,0-2.357-1.368h-5.1a2.721,2.721,0,0,0-2.357,1.368l-.664,1.162a.418.418,0,0,1-.362.21H3.106A3.11,3.11,0,0,0,0,65.967V76.144A3.11,3.11,0,0,0,3.106,79.25H21.894A3.11,3.11,0,0,0,25,76.144V65.967A3.11,3.11,0,0,0,21.894,62.861Zm2.374,13.283a2.376,2.376,0,0,1-2.374,2.374H3.106A2.376,2.376,0,0,1,.732,76.144V65.967a2.376,2.376,0,0,1,2.374-2.374h3.46a1.152,1.152,0,0,0,1-.579l.664-1.162a1.987,1.987,0,0,1,1.721-1h5.1a1.987,1.987,0,0,1,1.721,1l.664,1.162a1.152,1.152,0,0,0,1,.579h3.46a2.376,2.376,0,0,1,2.374,2.374V76.144Z" fill="#b6b7b7"/>
    <path id="Trazado_11688" data-name="Trazado 11688" d="M248.866,148.3a.366.366,0,0,0,0,.732,5.511,5.511,0,0,1,5.5,5.5.366.366,0,0,0,.732,0A6.244,6.244,0,0,0,248.866,148.3Z" transform="translate(-236.366 -83.871)" fill="#b6b7b7"/>
    <path id="Trazado_11689" data-name="Trazado 11689" d="M164.7,166.726a.365.365,0,0,0,.256-.1,5.534,5.534,0,0,1,1.042-.8.366.366,0,1,0-.375-.629,6.268,6.268,0,0,0-1.18.909.366.366,0,0,0,.256.628Z" transform="translate(-156.311 -99.889)" fill="#b6b7b7"/>
    <path id="Trazado_11690" data-name="Trazado 11690" d="M129.966,212.594a.366.366,0,0,0,.418-.306,5.453,5.453,0,0,1,.634-1.842.366.366,0,0,0-.639-.358,6.182,6.182,0,0,0-.718,2.088A.366.366,0,0,0,129.966,212.594Z" transform="translate(-123.324 -142.467)" fill="#b6b7b7"/>
    <path id="Trazado_11691" data-name="Trazado 11691" d="M129.842,283.279a.366.366,0,0,0-.727.087,6.224,6.224,0,0,0,1.2,3,.366.366,0,1,0,.586-.44A5.49,5.49,0,0,1,129.842,283.279Z" transform="translate(-122.808 -211.954)" fill="#b6b7b7"/>
    <path id="Trazado_11692" data-name="Trazado 11692" d="M180.233,365.908a5.457,5.457,0,0,1-3.3-1.1.366.366,0,1,0-.44.586,6.184,6.184,0,0,0,3.743,1.248.366.366,0,1,0,0-.732Z" transform="translate(-167.733 -289.739)" fill="#b6b7b7"/>
    <path id="Trazado_11693" data-name="Trazado 11693" d="M285.121,300.617a.366.366,0,0,0-.45.256,5.527,5.527,0,0,1-3.839,3.839.366.366,0,1,0,.195.706,6.263,6.263,0,0,0,4.35-4.35A.366.366,0,0,0,285.121,300.617Z" transform="translate(-266.863 -228.741)" fill="#b6b7b7"/>
    <path id="Trazado_11694" data-name="Trazado 11694" d="M165,189.707a4.67,4.67,0,0,0,3.848-7.319.366.366,0,1,0-.6.416,3.943,3.943,0,1,1-1.013-1.013.366.366,0,0,0,.416-.6,4.671,4.671,0,1,0-2.647,8.52Z" transform="translate(-152.496 -114.372)" fill="#b6b7b7"/>
  </g>
</svg>
