<svg id="_625322" data-name="625322" xmlns="http://www.w3.org/2000/svg" width="17.464" height="17.464" viewBox="0 0 17.464 17.464">
  <g id="Grupo_4559" data-name="Grupo 4559" transform="translate(0 0)">
    <g id="Grupo_4558" data-name="Grupo 4558">
      <path id="Trazado_11109" data-name="Trazado 11109" d="M16.121,1.346A4.829,4.829,0,0,0,12.14.032,7.069,7.069,0,0,0,7.887,2.126q-.157.157-.3.323a2.348,2.348,0,1,0-2.3,3.309A2.376,2.376,0,0,0,5.9,5.719a5.692,5.692,0,0,0-.04,2.225h0c-.007.7-.159,2.655-.763,3.259L3.864,12.429a.616.616,0,0,0-.6.157L1.352,14.493a.261.261,0,0,0,.369.369l1.907-1.907a.1.1,0,0,1,.135,0l.75.75a.1.1,0,0,1,0,.135L1.435,16.917a.1.1,0,0,1-.135,0L.55,16.168a.1.1,0,0,1,0-.135l.315-.315A.261.261,0,0,0,.5,15.349l-.315.315a.618.618,0,0,0,0,.873l.749.749a.618.618,0,0,0,.873,0l3.077-3.077a.618.618,0,0,0,.157-.6l1.226-1.226c.6-.6,2.557-.755,3.259-.763v0a5.267,5.267,0,0,0,.539.072q.228.019.458.019a6.38,6.38,0,0,0,2.7-.623.262.262,0,0,0,.123-.357h0A.26.26,0,0,0,13,10.6a5.735,5.735,0,0,1-2.893.559A4.13,4.13,0,0,1,7.477,9.99a4.552,4.552,0,0,1-1-4.468A2.348,2.348,0,0,0,7.761,3.045a7.259,7.259,0,0,1,.5-.55A6.547,6.547,0,0,1,12.191.551a4.317,4.317,0,0,1,3.561,1.164c1.852,1.852,1.5,5.214-.779,7.5a7.205,7.205,0,0,1-.9.763.261.261,0,0,0,.307.422,7.726,7.726,0,0,0,.961-.816,7.069,7.069,0,0,0,2.094-4.252A4.829,4.829,0,0,0,16.121,1.346ZM4.152,4.706a1.817,1.817,0,0,1-.52-1.07,1.828,1.828,0,0,1,1.59,1.591A1.812,1.812,0,0,1,4.152,4.706Zm3.6,6.185a4.474,4.474,0,0,0,.5.3l-.186.025q-.428.061-.784.147Zm-.643-.532q.11.11.226.211L4.725,13.179l-.437-.437L6.9,10.133Q7,10.249,7.108,10.359Zm-.531-.644-.468.468q.086-.356.147-.784.014-.1.025-.189A4.506,4.506,0,0,0,6.577,9.715Zm.158-5.01a1.813,1.813,0,0,1-.989.51,2.347,2.347,0,0,0-2.1-2.1,1.82,1.82,0,0,1,1.5-1.5,2.348,2.348,0,0,0,2.1,2.1A1.815,1.815,0,0,1,6.735,4.706ZM6.186,2.672A1.806,1.806,0,0,1,5.665,1.6a1.82,1.82,0,0,1,1.59,1.59A1.806,1.806,0,0,1,6.186,2.672Z" transform="translate(-0.001 -0.003)" fill="#8696a9"/>
    </g>
  </g>
  <g id="Grupo_4561" data-name="Grupo 4561" transform="translate(7.031 1.267)">
    <g id="Grupo_4560" data-name="Grupo 4560">
      <path id="Trazado_11110" data-name="Trazado 11110" d="M214.323,38.11a3.588,3.588,0,0,0-2.961-.95,6.1,6.1,0,0,0-5.211,5.211,3.588,3.588,0,0,0,.95,2.961,3.473,3.473,0,0,0,2.508.972q.223,0,.453-.023a6.1,6.1,0,0,0,5.211-5.211A3.588,3.588,0,0,0,214.323,38.11Zm-.194.563a2.778,2.778,0,0,1,.515,1l-.756-.756Zm-5.855,3.048,1.035-1.035,1.035,1.035-1.035,1.035Zm.666,1.4L207.9,44.159l-1.035-1.035L207.9,42.09Zm.738-2.807,1.035-1.034,1.035,1.035-1.034,1.034Zm1.035,1.773,1.035,1.035-1.035,1.035-1.035-1.035Zm.369-.369,1.035-1.034,1.035,1.035-1.035,1.034Zm1.4-1.4,1.035-1.035,1.035,1.035-1.035,1.035Zm1.275-2.013-.24.24-.755-.755A2.778,2.778,0,0,1,213.759,38.3Zm-1.644-.425,1.035,1.035-1.035,1.035-1.035-1.035Zm-.7-.2c.059-.006.118-.01.177-.014l-.879.879-.556-.556A4.688,4.688,0,0,1,211.413,37.68Zm-1.764.541.693.693-1.034,1.034-.871-.871A5.734,5.734,0,0,1,209.649,38.22Zm-1.581,1.226.871.871L207.9,41.352l-.693-.693A5.733,5.733,0,0,1,208.068,39.447Zm-1.4,2.976a4.69,4.69,0,0,1,.309-1.258l.556.556-.879.879C206.66,42.541,206.665,42.482,206.67,42.422Zm.624,2.347a2.778,2.778,0,0,1-.515-1l.756.756Zm.369.369.241-.241.756.756A2.779,2.779,0,0,1,207.664,45.138Zm1.644.425-1.035-1.035,1.035-1.035,1.035,1.035Zm.7.2q-.089.009-.177.014l.879-.879.556.556A4.687,4.687,0,0,1,210.01,45.762Zm1.764-.541-.693-.693,1.035-1.035.871.871A5.735,5.735,0,0,1,211.774,45.221Zm1.581-1.226-.871-.871,1.034-1.034.693.693A5.74,5.74,0,0,1,213.355,43.995Zm1.4-2.976a4.688,4.688,0,0,1-.309,1.258l-.556-.556.879-.879Q214.762,40.93,214.753,41.019Z" transform="translate(-206.129 -37.138)" fill="#8696a9"/>
    </g>
  </g>
</svg>
