<svg xmlns="http://www.w3.org/2000/svg" width="20.049" height="17.887" viewBox="0 0 20.049 17.887">
  <g id="_845022" data-name="845022" transform="translate(0 -25.018)">
    <g id="Grupo_4764" data-name="Grupo 4764" transform="translate(0 25.018)">
      <g id="Grupo_4763" data-name="Grupo 4763">
        <path id="Trazado_11651" data-name="Trazado 11651" d="M19.9,33.294l-3.7-3.159c0-.022.009-.043.013-.069V25.934a.461.461,0,0,0-.445-.454H13.7a.45.45,0,0,0-.432.454v1.711l-2.96-2.524a.432.432,0,0,0-.562,0L.156,33.289a.433.433,0,0,0,.553.666l.009-.009,9.309-7.926,3.332,2.839,1.992,1.694,3.989,3.4a.432.432,0,0,0,.609-.048A.436.436,0,0,0,19.9,33.294ZM15.342,29.4l-1.21-1.02V26.349h1.21Z" transform="translate(0 -25.018)" fill="#393a34"/>
      </g>
    </g>
    <g id="Grupo_4766" data-name="Grupo 4766" transform="translate(1.911 27.499)">
      <g id="Grupo_4765" data-name="Grupo 4765">
        <path id="Trazado_11652" data-name="Trazado 11652" d="M60.289,89.086l-1.214-1.037-6.469-5.527a.432.432,0,0,0-.562,0l-6.469,5.527L44.36,89.086a.432.432,0,0,0-.048.609.42.42,0,0,0,.6.052l0,0,.54-.467v8.1a.456.456,0,0,0,.445.445H58.746a.453.453,0,0,0,.445-.445v-8.1l.54.467a.43.43,0,0,0,.277.1.437.437,0,0,0,.328-.151A.427.427,0,0,0,60.289,89.086Zm-6.236,7.87H50.6V92.288h3.457Zm.864,0V91.869a.43.43,0,0,0-.415-.445H50.146a.43.43,0,0,0-.415.445v5.086H46.317V88.537l6.007-5.117,6.007,5.117v8.418Z" transform="translate(-44.208 -82.418)" fill="#393a34"/>
      </g>
    </g>
  </g>
</svg>
