<svg xmlns="http://www.w3.org/2000/svg" width="18.989" height="16.941" viewBox="0 0 18.989 16.941">
  <g id="_845022" data-name="845022" transform="translate(0 -25.018)">
    <g id="Grupo_4764" data-name="Grupo 4764" transform="translate(0 25.018)">
      <g id="Grupo_4763" data-name="Grupo 4763">
        <path id="Trazado_11651" data-name="Trazado 11651" d="M18.845,32.856l-6.279-5.35c0-.02,3.78,4.095,0,0l-2.8-2.39a.409.409,0,0,0-.532,0L.148,32.852a.41.41,0,0,0,.524.63l.008-.008L9.5,25.968l3.156,2.689,1.887,1.6,3.778,3.217a.409.409,0,0,0,.577-.045A.413.413,0,0,0,18.845,32.856Z" transform="translate(0 -25.018)" fill="#8696a9"/>
      </g>
    </g>
    <g id="Grupo_4766" data-name="Grupo 4766" transform="translate(1.81 27.367)">
      <g id="Grupo_4765" data-name="Grupo 4765">
        <path id="Trazado_11652" data-name="Trazado 11652" d="M59.439,88.734l-1.15-.982-6.127-5.235a.409.409,0,0,0-.532,0L45.5,87.751l-1.15.982a.409.409,0,0,0-.045.577.4.4,0,0,0,.565.049l0,0,.512-.442v7.674a.432.432,0,0,0,.422.422H57.977a.429.429,0,0,0,.422-.422V88.914l.512.442a.407.407,0,0,0,.262.1.414.414,0,0,0,.311-.143A.4.4,0,0,0,59.439,88.734Zm-5.906,7.453H50.258v-4.42h3.274Zm.819,0V91.369a.408.408,0,0,0-.393-.422H49.832a.408.408,0,0,0-.393.422v4.817H46.206V88.214L51.9,83.368l5.689,4.846v7.973Z" transform="translate(-44.208 -82.418)" fill="#8696a9"/>
      </g>
    </g>
  </g>
</svg>
