<svg xmlns="http://www.w3.org/2000/svg" width="20.223" height="20.223" viewBox="0 0 20.223 20.223">
  <g id="_864390" data-name="864390" transform="translate(0)">
    <g id="Grupo_195" data-name="Grupo 195" transform="translate(0)">
      <g id="Grupo_194" data-name="Grupo 194">
        <path id="Trazado_10587" data-name="Trazado 10587" d="M10.112,0A10.111,10.111,0,1,0,20.223,10.111,10.111,10.111,0,0,0,10.112,0Zm0,19.571a9.459,9.459,0,1,1,9.459-9.459A9.459,9.459,0,0,1,10.112,19.571Z" transform="translate(0)" fill="#393a34"/>
        <path id="Trazado_10588" data-name="Trazado 10588" d="M141.747,132.521a.326.326,0,0,0-.461,0l-4.152,4.152-4.152-4.152a.326.326,0,0,0-.469.453l.008.008,4.152,4.152-4.152,4.152a.326.326,0,1,0,.453.469l.008-.008,4.152-4.152,4.152,4.152a.326.326,0,0,0,.461-.461l-4.152-4.152,4.152-4.152A.326.326,0,0,0,141.747,132.521Z" transform="translate(-127.023 -127.023)" fill="#393a34"/>
      </g>
    </g>
  </g>
</svg>
