<svg id="_985063" data-name="985063" xmlns="http://www.w3.org/2000/svg" width="15.513" height="11.01" viewBox="0 0 15.513 11.01">
  <g id="Grupo_209" data-name="Grupo 209" transform="translate(0 0)">
    <g id="Grupo_208" data-name="Grupo 208">
      <path id="Trazado_10600" data-name="Trazado 10600" d="M15.4,76.293l-.782-.5a.25.25,0,0,0-.135-.04h-.319l-1.931-3.621A.25.25,0,0,0,12.01,72H3.5a.25.25,0,0,0-.221.132L1.351,75.753H1a.252.252,0,0,0-.139.042l-.751.5A.25.25,0,0,0,0,76.5v4.254a.25.25,0,0,0,.25.25H.5v1.251a.751.751,0,0,0,.751.751h1.5a.751.751,0,0,0,.751-.751V81.008H12.01v1.251a.751.751,0,0,0,.751.751h1.5a.751.751,0,0,0,.751-.751V81.008h.25a.25.25,0,0,0,.25-.25V76.5A.25.25,0,0,0,15.4,76.293ZM3.653,72.5H11.86l.134.25H3.52Zm-.4.751h9.008l1.334,2.5H1.918ZM3,82.259a.25.25,0,0,1-.25.25h-1.5a.25.25,0,0,1-.25-.25V81.008H3Zm1.231-1.752,1.4-2H9.878l1.4,2Zm10.279,1.752a.25.25,0,0,1-.25.25h-1.5a.25.25,0,0,1-.25-.25V81.008h2Zm.5-1.752H11.891l-1.676-2.4a.25.25,0,0,0-.205-.107H5.5a.25.25,0,0,0-.2.107l-1.677,2.4H.5v-3.87l.575-.384H14.407l.606.387Z" transform="translate(0 -72)" fill="#8696a9"/>
    </g>
  </g>
  <g id="Grupo_211" data-name="Grupo 211" transform="translate(0.751 5.255)">
    <g id="Grupo_210" data-name="Grupo 210">
      <path id="Trazado_10601" data-name="Trazado 10601" d="M25.251,240a1.251,1.251,0,1,0,1.251,1.251A1.251,1.251,0,0,0,25.251,240Zm0,2a.751.751,0,1,1,.751-.751A.751.751,0,0,1,25.251,242Z" transform="translate(-24 -240)" fill="#8696a9"/>
    </g>
  </g>
  <g id="Grupo_213" data-name="Grupo 213" transform="translate(12.261 5.255)">
    <g id="Grupo_212" data-name="Grupo 212">
      <path id="Trazado_10602" data-name="Trazado 10602" d="M393.251,240a1.251,1.251,0,1,0,1.251,1.251A1.251,1.251,0,0,0,393.251,240Zm0,2a.751.751,0,1,1,.751-.751A.751.751,0,0,1,393.251,242Z" transform="translate(-392 -240)" fill="#8696a9"/>
    </g>
  </g>
  <g id="Grupo_215" data-name="Grupo 215" transform="translate(6.255 6.756)">
    <g id="Grupo_214" data-name="Grupo 214">
      <path id="Trazado_10603" data-name="Trazado 10603" d="M202.752,288h-2.5a.25.25,0,1,0,0,.5h2.5a.25.25,0,1,0,0-.5Z" transform="translate(-200 -288)" fill="#8696a9"/>
    </g>
  </g>
  <g id="Grupo_217" data-name="Grupo 217" transform="translate(5.505 7.757)">
    <g id="Grupo_216" data-name="Grupo 216">
      <path id="Trazado_10604" data-name="Trazado 10604" d="M180.254,320h-4a.25.25,0,1,0,0,.5h4a.25.25,0,1,0,0-.5Z" transform="translate(-176 -320)" fill="#8696a9"/>
    </g>
  </g>
</svg>
