<svg xmlns="http://www.w3.org/2000/svg" width="17.663" height="17.658" viewBox="0 0 17.663 17.658">
  <g id="_4320247" data-name="4320247" transform="translate(-1.807 -1.803)">
    <path id="Trazado_11676" data-name="Trazado 11676" d="M19.247,16.1a.249.249,0,0,1-.08-.013,6.526,6.526,0,0,1-4.239-4.239.248.248,0,0,1,.031-.223l3.682-5.253A11.586,11.586,0,0,1,28.792,2a.248.248,0,0,1,.228.228,11.585,11.585,0,0,1-4.369,10.145l-.009.007-5.253,3.681a.246.246,0,0,1-.142.046Zm-3.809-4.295a6.026,6.026,0,0,0,3.771,3.771l5.144-3.605a11.075,11.075,0,0,0,4.187-9.5,11.07,11.07,0,0,0-9.5,4.192Z" transform="translate(-9.746 0)" stroke="#000" stroke-width="0.3"/>
    <path id="Trazado_11677" data-name="Trazado 11677" d="M55.12,9.131a.253.253,0,0,1-.047,0,5.5,5.5,0,0,1-4.361-4.361.248.248,0,1,1,.487-.093A5.007,5.007,0,0,0,55.166,8.64a.248.248,0,0,1-.046.491Z" transform="translate(-36.676 -1.888)" stroke="#000" stroke-width="0.3"/>
    <path id="Trazado_11678" data-name="Trazado 11678" d="M39.8,24.361a1.939,1.939,0,1,1,1.371-.567,1.939,1.939,0,0,1-1.371.567Zm0-3.383a1.445,1.445,0,1,0,1.021.423,1.445,1.445,0,0,0-1.021-.423Z" transform="translate(-27.008 -13.936)" stroke="#000" stroke-width="0.3"/>
    <path id="Trazado_11679" data-name="Trazado 11679" d="M33.612,51.977H33.6a.248.248,0,0,1-.2-.118l-1.948-3.188a.248.248,0,0,1,.423-.258L33.638,51.3l1.334-1.69a3.594,3.594,0,0,0,.739-2.674l-.163-1.253a.248.248,0,1,1,.491-.064L36.2,46.87a4.091,4.091,0,0,1-.842,3.045l-1.555,1.969A.248.248,0,0,1,33.612,51.977Z" transform="translate(-22.162 -32.685)" stroke="#000" stroke-width="0.3"/>
    <path id="Trazado_11680" data-name="Trazado 11680" d="M5.473,27.939a.248.248,0,0,1-.129-.036L2.157,25.954a.248.248,0,0,1-.025-.405L4.1,23.994a4.093,4.093,0,0,1,3.045-.842l1.253.163a.248.248,0,1,1-.064.491l-1.253-.163a3.6,3.6,0,0,0-2.674.739L2.718,25.717,5.6,27.48a.248.248,0,0,1-.129.459Z" transform="translate(-0.057 -15.92)" stroke="#000" stroke-width="0.3"/>
    <path id="Trazado_11681" data-name="Trazado 11681" d="M14.472,63.813a.248.248,0,0,1-.175-.423l2.211-2.211a.248.248,0,1,1,.35.35l-2.211,2.211A.248.248,0,0,1,14.472,63.813Z" transform="translate(-9.226 -44.502)" stroke="#000" stroke-width="0.3"/>
    <path id="Trazado_11682" data-name="Trazado 11682" d="M2.21,51.551a.248.248,0,0,1-.175-.423l2.211-2.211a.248.248,0,1,1,.35.35L2.385,51.479a.248.248,0,0,1-.175.073Z" transform="translate(0 -35.276)" stroke="#000" stroke-width="0.3"/>
    <path id="Trazado_11683" data-name="Trazado 11683" d="M2.816,62.695a.248.248,0,0,1-.175-.423l2.38-2.38a.248.248,0,1,1,.35.35l-2.38,2.38a.248.248,0,0,1-.175.073Z" transform="translate(-0.456 -43.534)" stroke="#000" stroke-width="0.3"/>
  </g>
</svg>
