<svg id="_1606179" data-name="1606179" xmlns="http://www.w3.org/2000/svg" width="15.815" height="15.815" viewBox="0 0 15.815 15.815">
  <path id="Trazado_11042" data-name="Trazado 11042" d="M.473,196.423c0,.007,0,.012.006.018l.08.636a1.053,1.053,0,0,0,.582.805L.388,201.9a.263.263,0,0,0,.259.312h.527a.264.264,0,0,0,.252-.185L2.686,198h.809l.2.648L2.39,201.85a.264.264,0,0,0,.244.363H3.689a.264.264,0,0,0,.244-.164L4.4,200.9l.353,1.131a.263.263,0,0,0,.252.185h.527a.264.264,0,0,0,.259-.312l-.568-3.023L6.766,195.1H9.047l1.541,3.782-.568,3.023a.263.263,0,0,0,.259.312h.527a.263.263,0,0,0,.252-.185l.353-1.131.469,1.152a.264.264,0,0,0,.244.164h1.054a.264.264,0,0,0,.244-.363l-1.306-3.206.2-.648h.809l1.26,4.032a.263.263,0,0,0,.252.185h.527a.263.263,0,0,0,.259-.312l-.753-4.018a1.054,1.054,0,0,0,.582-.806l.08-.635c0-.007.005-.012.006-.018s0-.014,0-.022l.474-3.766a.264.264,0,1,0-.523-.066l-.034.273a1.047,1.047,0,0,0-1.141.9l-.221,1.677a1.051,1.051,0,0,0,.889,1.187l-.051.4a.529.529,0,0,1-.523.459h-.123a1.32,1.32,0,0,0-1.291-1.054H11.475a1.326,1.326,0,0,0-.257.026L10.67,195.1h2.244a.528.528,0,0,0,.527-.527v-.527a.528.528,0,0,0-.527-.527H2.9a.528.528,0,0,0-.527.527v.527a.528.528,0,0,0,.527.527H5.142l-.547,1.344a1.326,1.326,0,0,0-.257-.026H3.019a1.32,1.32,0,0,0-1.291,1.054H1.6a.528.528,0,0,1-.523-.458l-.051-.4a1.05,1.05,0,0,0,.889-1.184L1.7,193.742a1.047,1.047,0,0,0-1.141-.9l-.034-.273a.264.264,0,0,0-.523.066L.474,196.4c0,.007,0,.014,0,.022Zm14.042-.54a.523.523,0,0,1-.1-.391l.221-1.677a.522.522,0,0,1,.553-.449l-.342,2.718A.521.521,0,0,1,14.515,195.883ZM.98,201.686H.964L1.657,198h.477Zm4.236,0H5.2l-.486-1.556.143-.351Zm5.4,0H10.6l.358-1.907.143.351Zm4.22,0L13.679,198h.477l.692,3.69Zm-3.357-4.745h1.318a.792.792,0,0,1,.746.527h-1.9l-.213-.522C11.441,196.945,11.458,196.941,11.475,196.941Zm-.653-.076v0l.392.963,0,0,1.568,3.85H12.3l-1.2-2.935,0-.011L9.616,195.1H10.1ZM2.9,194.042H12.914v.527H2.9ZM6.2,195.1l-1.487,3.649v0l-1.2,2.937H3.027l1.568-3.85v0l.392-.962h0v0l.721-1.771Zm-3.177,1.845H4.337c.018,0,.034,0,.051,0l-.213.522h-1.9a.792.792,0,0,1,.746-.527ZM.972,193.468a.521.521,0,0,1,.2.345l.222,1.681a.522.522,0,0,1-.433.589l-.342-2.718a.524.524,0,0,1,.348.1Zm0,0" transform="translate(0.001 -186.398)" fill="#8696a9"/>
  <path id="Trazado_11043" data-name="Trazado 11043" d="M179.464,3.427h1.054a1.054,1.054,0,1,0,2.109,0h1.054a.264.264,0,0,0,.169-.466l-1.487-1.239V1.055a.528.528,0,0,0-.527-.527V.264a.264.264,0,1,0-.527,0V.528a.528.528,0,0,0-.527.527v.667L179.3,2.961a.264.264,0,0,0,.169.466Zm2.109.527a.528.528,0,0,1-.527-.527H182.1A.528.528,0,0,1,181.573,3.954Zm-.264-2.9h.527v.527h-.527Zm-.168,1.054H182l.949.791h-2.761Zm0,0" transform="translate(-173.665 0)" fill="#8696a9"/>
</svg>
