<svg id="condominio" xmlns="http://www.w3.org/2000/svg" width="19.385" height="18.895" viewBox="0 0 19.385 18.895">
  <path id="Trazado_11705" data-name="Trazado 11705" d="M25.542,15.744a1.548,1.548,0,0,0,.1-3.094A2.185,2.185,0,0,0,24.4,11.534a2.219,2.219,0,0,0-1.68.083V10.168a.312.312,0,0,0-.314-.31H21.78V8.31A.312.312,0,0,0,21.466,8H13.941a.312.312,0,0,0-.314.31V9.859H13a.312.312,0,0,0-.314.31v4.369A2.213,2.213,0,0,0,10.421,14a2.174,2.174,0,0,0-1.478,1.781,1.238,1.238,0,0,0,.3,2.443h3.449v8.054H8.3a.31.31,0,1,0,0,.62H25.856a.31.31,0,1,0,0-.62H22.72V15.744ZM22.72,12.337a1.583,1.583,0,0,1,1.4-.243,1.559,1.559,0,0,1,1.024.97.315.315,0,0,0,.321.206c.032,0,.058,0,.081,0a.929.929,0,1,1,0,1.859H22.72ZM12.687,17.6H9.238a.62.62,0,1,1,0-1.239.312.312,0,0,0,.314-.31,1.57,1.57,0,0,1,3.047-.512.307.307,0,0,0,.088.129ZM14.255,8.62h6.9V9.859h-6.9Zm5.33,17.656H15.823v-.31h3.762Zm-3.135-.929v-3.1h2.508v3.1Zm5.644.929H20.212v-.62a.312.312,0,0,0-.314-.31h-.314V21.939a.312.312,0,0,0-.314-.31H16.136a.312.312,0,0,0-.314.31v3.407h-.314a.312.312,0,0,0-.314.31v.62H13.314v-15.8h8.779Z" transform="translate(-7.984 -8)" fill="#8696a9"/>
  <path id="Trazado_11706" data-name="Trazado 11706" d="M158.468,280h-6.209a.259.259,0,0,0-.259.259v1.552a.259.259,0,0,0,.259.259h6.209a.259.259,0,0,0,.259-.259v-1.552A.259.259,0,0,0,158.468,280Zm-.259,1.552h-5.692v-1.035h5.692Z" transform="translate(-145.671 -269.206)" fill="#8696a9"/>
  <path id="Trazado_11707" data-name="Trazado 11707" d="M158.468,184h-6.209a.259.259,0,0,0-.259.259v1.552a.259.259,0,0,0,.259.259h6.209a.259.259,0,0,0,.259-.259v-1.552A.259.259,0,0,0,158.468,184Zm-.259,1.552h-5.692v-1.035h5.692Z" transform="translate(-145.671 -177.016)" fill="#8696a9"/>
  <path id="Trazado_11708" data-name="Trazado 11708" d="M158.468,88h-6.209a.259.259,0,0,0-.259.259v1.552a.259.259,0,0,0,.259.259h6.209a.259.259,0,0,0,.259-.259V88.259A.259.259,0,0,0,158.468,88Zm-.259,1.552h-5.692V88.517h5.692Z" transform="translate(-145.671 -84.825)" fill="#8696a9"/>
  <path id="Trazado_11709" data-name="Trazado 11709" d="M480.517,480h-.259a.259.259,0,1,0,0,.517h.259a.259.259,0,0,0,0-.517Z" transform="translate(-461.391 -461.622)" fill="#8696a9"/>
</svg>
