<svg xmlns="http://www.w3.org/2000/svg" xmlns:xlink="http://www.w3.org/1999/xlink" width="37.439" height="36" viewBox="0 0 37.439 36">
  <defs>
    <filter id="Icon_material-favorite" x="0" y="0" width="37.439" height="36" filterUnits="userSpaceOnUse">
      <feOffset dy="3" input="SourceAlpha"/>
      <feGaussianBlur stdDeviation="3" result="blur"/>
      <feFlood flood-opacity="0.369"/>
      <feComposite operator="in" in2="blur"/>
      <feComposite in="SourceGraphic"/>
    </filter>
  </defs>
  <g id="Icon_material-favorite-2" data-name="Icon material-favorite" transform="translate(10 7)">
    <g transform="matrix(1, 0, 0, 1, -10, -7)" filter="url(#Icon_material-favorite)">
      <path id="Icon_material-favorite-3" data-name="Icon material-favorite" d="M11.719,20.5l-1.264-1.151C5.965,15.277,3,12.592,3,9.3A4.749,4.749,0,0,1,7.8,4.5a5.221,5.221,0,0,1,3.924,1.822A5.221,5.221,0,0,1,15.643,4.5a4.749,4.749,0,0,1,4.8,4.8c0,3.3-2.965,5.981-7.455,10.062Z" transform="translate(7 2.5)" fill="none" stroke="#fff" stroke-linecap="round" stroke-linejoin="round" stroke-width="2"/>
    </g>
  </g>
</svg>
