<svg id="_1046857" data-name="1046857" xmlns="http://www.w3.org/2000/svg" width="17.099" height="17.003" viewBox="0 0 17.099 17.003">
  <path id="Trazado_11347" data-name="Trazado 11347" d="M67,13.119l1-.064h.005a2.366,2.366,0,0,0,1.763-1.029l.794-1.165a4.7,4.7,0,0,0,.754-3.45,1.061,1.061,0,0,0-1-.882A4.7,4.7,0,0,0,66.995,7.69l-1.062.928a2.366,2.366,0,0,0-.811,1.874s0,0,0,.005l.057,1a1.414,1.414,0,0,1-.393,1.06l-8.294,8.521a1.205,1.205,0,0,0-.323.895,1.386,1.386,0,0,0,1.4,1.347q.055,0,.11,0a1.205,1.205,0,0,0,.851-.429L66,13.637A1.415,1.415,0,0,1,67,13.119Zm-1.4.2-7.462,9.253a.7.7,0,0,1-.494.241.875.875,0,0,1-.961-.852.7.7,0,0,1,.179-.518l8.294-8.52a1.929,1.929,0,0,0,.537-1.446l-.057-1A1.856,1.856,0,0,1,66.271,9l1.062-.928A4.194,4.194,0,0,1,70.305,7.04a.549.549,0,0,1,.514.456,4.192,4.192,0,0,1-.672,3.076l-.794,1.165a1.856,1.856,0,0,1-1.38.807l-1,.063a1.93,1.93,0,0,0-1.372.707Zm0,0" transform="translate(-54.293 -6.321)" fill="#393a34"/>
  <path id="Trazado_11348" data-name="Trazado 11348" d="M296.64,292.032l-5.561-5.065a.256.256,0,1,0-.345.379l5.56,5.064a.7.7,0,0,1,.211.507.876.876,0,0,1-.908.908.7.7,0,0,1-.506-.21l-4.956-5.441a.256.256,0,1,0-.379.345l4.957,5.442a1.205,1.205,0,0,0,.874.376h.027a1.388,1.388,0,0,0,1.4-1.431,1.207,1.207,0,0,0-.377-.875Zm0,0" transform="translate(-280.014 -277.335)" fill="#393a34"/>
  <path id="Trazado_11349" data-name="Trazado 11349" d="M3.093,7.248a2.374,2.374,0,0,0,1.552.628h.005l1.007,0a1.414,1.414,0,0,1,1.034.456l.443.487a.256.256,0,1,0,.379-.345L7.07,7.989a1.929,1.929,0,0,0-1.411-.623l-1,0a1.862,1.862,0,0,1-1.2-.481L.535,3.414a.089.089,0,0,1,.13-.12L3.32,5.95a.674.674,0,0,0,.952,0l.312-.312h0l.554-.554h0l.312-.312a.674.674,0,0,0,0-.952L2.8,1.164a.089.089,0,0,1,.12-.13L6.383,3.951a1.862,1.862,0,0,1,.481,1.2l0,1a1.93,1.93,0,0,0,.624,1.412L7.966,8a.256.256,0,1,0,.345-.379l-.474-.432A1.415,1.415,0,0,1,7.38,6.156l0-1.007s0,0,0-.005a2.374,2.374,0,0,0-.628-1.552l-.023-.023L3.245.641a.6.6,0,0,0-.812.885L5.088,4.182a.161.161,0,0,1,0,.227l-.131.131L2,1.58a.256.256,0,0,0-.362.362L4.6,4.9,4.4,5.094,1.444,2.134a.256.256,0,0,0-.362.362L4.041,5.456l-.131.131a.161.161,0,0,1-.227,0L1.028,2.932a.6.6,0,0,0-.885.812L3.071,7.225a.239.239,0,0,0,.022.023Zm0,0" transform="translate(0 -0.499)" fill="#393a34"/>
</svg>
