<svg xmlns="http://www.w3.org/2000/svg" width="25.116" height="20.432" viewBox="0 0 25.116 20.432">
  <g id="Grupo_19330" data-name="Grupo 19330" transform="translate(-167.442 -69.695)">
    <path id="_3454923" data-name="3454923" d="M28.831,69.778h-.278a4.338,4.338,0,0,0-2.536-2.1V51.266a.271.271,0,0,0-.289-.275H20.163a.26.26,0,0,0-.275.275v2.292l-1.771,1.366a.306.306,0,0,0-.123.236v3.555H16.161a.328.328,0,0,0-.309.321v6.4a5.177,5.177,0,0,0-1.694.68V55.955a.281.281,0,0,0-.3-.28h-.7V54.528a.294.294,0,0,0-.294-.3h-1.65V52.258a.3.3,0,1,0-.6,0V54.23H8.977a.3.3,0,0,0-.3.3v1.147H7.983a.288.288,0,0,0-.3.28V67.509a4.429,4.429,0,0,0-3.133,2.268H4.268a.3.3,0,0,0-.276.318v1.051a.261.261,0,0,0,.276.275H28.831a.261.261,0,0,0,.276-.275V70.1A.3.3,0,0,0,28.831,69.778ZM24.174,51.589H25.42V67.51a6.22,6.22,0,0,0-1.246-.145Zm-.121,16.377a5.5,5.5,0,0,1,1.587.218,3.926,3.926,0,0,1,2.24,1.593H20.227a3.328,3.328,0,0,1,1.2-1.143,4.5,4.5,0,0,1,.544-.263c.059-.025.119-.049.178-.071a5.383,5.383,0,0,1,1.727-.331Zm-2.8-.182a6.061,6.061,0,0,0-1.079-1.2h1.561v1.2Zm-.764-16.2h1.2V57.5a.3.3,0,1,0,.6,0V51.589h1.3v15.8a6,6,0,0,0-1.246.226V59.036a.309.309,0,0,0-.287-.321H20.436Zm-1.894,3.718,1.246-.977v4.385H18.593ZM16.45,59.313h5.282v1.246H16.45Zm0,1.844h5.282v1.2H16.45Zm0,1.794h5.282v1.2H16.45Zm0,1.794h5.282V65.99H19.309a4.991,4.991,0,0,0-2.468-.652c-.13,0-.261.006-.392.016Zm-2.4,2.181a4.613,4.613,0,0,1,2.16-.943,4.405,4.405,0,0,1,2.86.556l.01.006a5.294,5.294,0,0,1,1.772,1.714c.007.011.014.013.021.024a3.858,3.858,0,0,0-1.315,1.5H13.546a3.934,3.934,0,0,0-.914-1.188,5.655,5.655,0,0,1,.729-1.021,5.223,5.223,0,0,1,.685-.643Zm-4.771-12.1h3.289v.847H9.274Zm-1,1.445H13.56v1H8.277Zm0,1.595H13.56v1.046H8.277Zm0,1.644H13.56v1.046H8.277Zm0,1.644H13.56V62.2H8.277Zm0,1.644H13.56v1H8.277Zm0,1.595H13.56v1.046H8.277Zm0,1.644H13.56v.51a5.829,5.829,0,0,0-.567.536H8.277ZM12.5,67.685a6.473,6.473,0,0,0-.354.553A5.122,5.122,0,0,0,11,67.685Zm-4.467.362a5.67,5.67,0,0,1,1.009-.085,4.972,4.972,0,0,1,3.025.94,3.518,3.518,0,0,1,.8.877H5.219A4.088,4.088,0,0,1,8.037,68.046Zm20.472,2.778H4.59v-.448H28.509Z" transform="translate(163.45 18.705)" fill="#393a34"/>
  </g>
</svg>
