<svg id="_3438261" data-name="3438261" xmlns="http://www.w3.org/2000/svg" width="16.274" height="15.13" viewBox="0 0 16.274 15.13">
  <path id="Trazado_11306" data-name="Trazado 11306" d="M363.057,346.668a.242.242,0,0,0,.167.454,2.637,2.637,0,0,1,2.307.312,2.891,2.891,0,0,0,1.705.519.242.242,0,1,0,0-.483,2.417,2.417,0,0,1-1.453-.448,2.89,2.89,0,0,0-1.705-.519A2.919,2.919,0,0,0,363.057,346.668Z" transform="translate(-351.204 -335.908)" fill="#8696a9"/>
  <path id="Trazado_11307" data-name="Trazado 11307" d="M.242,346.987a2.416,2.416,0,0,1,1.453.448,2.89,2.89,0,0,0,1.705.519,2.92,2.92,0,0,0,1.021-.166.242.242,0,0,0-.167-.454,2.414,2.414,0,0,1-.854.136,2.416,2.416,0,0,1-1.453-.448A2.89,2.89,0,0,0,.242,346.5a.242.242,0,1,0,0,.483Z" transform="translate(0 -335.909)" fill="#8696a9"/>
  <path id="Trazado_11308" data-name="Trazado 11308" d="M99.76,25.858a.242.242,0,0,0,.19-.391A4.435,4.435,0,0,1,99,22.706a4.479,4.479,0,0,1,7.174-3.577.242.242,0,1,0,.291-.386,4.963,4.963,0,0,0-6.894,7.023A.242.242,0,0,0,99.76,25.858Z" transform="translate(-95.34 -17.744)" fill="#8696a9"/>
  <path id="Trazado_11309" data-name="Trazado 11309" d="M353.527,67.923a4.435,4.435,0,0,1-.952,2.762.242.242,0,1,0,.38.3,4.963,4.963,0,0,0-.273-6.439.242.242,0,1,0-.354.329A4.464,4.464,0,0,1,353.527,67.923Z" transform="translate(-340.911 -62.961)" fill="#8696a9"/>
  <path id="Trazado_11310" data-name="Trazado 11310" d="M150.069,66.487a3.526,3.526,0,1,0-6.933,0,.242.242,0,1,0,.475-.088,3.043,3.043,0,1,1,5.983,0,.242.242,0,1,0,.475.088Z" transform="translate(-138.465 -60.877)" fill="#8696a9"/>
  <path id="Trazado_11311" data-name="Trazado 11311" d="M339.623,317.723a.242.242,0,0,0-.242.242v3.641a.242.242,0,0,0,.483,0v-3.641A.242.242,0,0,0,339.623,317.723Z" transform="translate(-328.444 -308.056)" fill="#8696a9"/>
  <path id="Trazado_11312" data-name="Trazado 11312" d="M157.186,181.785a1.56,1.56,0,0,0-1.558-1.558h-3.45a1.56,1.56,0,0,0-1.558,1.558v6.756a.242.242,0,1,0,.483,0v-6.756a1.076,1.076,0,0,1,1.075-1.075h3.45a1.076,1.076,0,0,1,1.075,1.075v2.309a.242.242,0,1,0,.483,0Z" transform="translate(-145.766 -174.991)" fill="#8696a9"/>
  <path id="Trazado_11313" data-name="Trazado 11313" d="M16.032,442.257a2.89,2.89,0,0,0-1.705.519,2.58,2.58,0,0,1-2.906,0,2.89,2.89,0,0,0-1.705-.519,2.89,2.89,0,0,0-1.705.519,2.416,2.416,0,0,1-1.453.448,2.416,2.416,0,0,1-1.453-.448,2.891,2.891,0,0,0-1.705-.519,2.89,2.89,0,0,0-1.705.519,2.416,2.416,0,0,1-1.453.448.242.242,0,1,0,0,.483,2.89,2.89,0,0,0,1.705-.519A2.417,2.417,0,0,1,3.4,442.74a2.417,2.417,0,0,1,1.453.448,2.89,2.89,0,0,0,1.705.519,2.89,2.89,0,0,0,1.705-.519,2.417,2.417,0,0,1,1.453-.448,2.417,2.417,0,0,1,1.453.448,3.061,3.061,0,0,0,3.41,0,2.417,2.417,0,0,1,1.453-.448.242.242,0,0,0,0-.483Z" transform="translate(0 -428.577)" fill="#8696a9"/>
  <path id="Trazado_11314" data-name="Trazado 11314" d="M297.986,399.333a.242.242,0,1,0-.023.3A.243.243,0,0,0,297.986,399.333Z" transform="translate(-287.955 -386.932)" fill="#8696a9"/>
  <path id="Trazado_11315" data-name="Trazado 11315" d="M298.024,231.467a.242.242,0,0,0-.483,0v4.682a.242.242,0,1,0,.483,0Z" transform="translate(-287.953 -224.345)" fill="#8696a9"/>
  <path id="Trazado_11316" data-name="Trazado 11316" d="M220.338,345.073a.242.242,0,0,0,.242-.242v-2.868a.242.242,0,1,0-.483,0v2.868A.242.242,0,0,0,220.338,345.073Z" transform="translate(-213.003 -331.282)" fill="#8696a9"/>
  <path id="Trazado_11317" data-name="Trazado 11317" d="M220.579,255.465a.242.242,0,0,0-.483,0v1.982a.242.242,0,1,0,.483,0Z" transform="translate(-213.003 -247.57)" fill="#8696a9"/>
  <path id="Trazado_11318" data-name="Trazado 11318" d="M220.127,231.586a.242.242,0,1,0,.085-.291A.243.243,0,0,0,220.127,231.586Z" transform="translate(-213.015 -224.373)" fill="#8696a9"/>
  <path id="Trazado_11319" data-name="Trazado 11319" d="M183.547,231.467v4.3a.242.242,0,1,0,.483,0v-4.3a.242.242,0,0,0-.483,0Z" transform="translate(-177.632 -224.345)" fill="#8696a9"/>
</svg>
