<svg xmlns="http://www.w3.org/2000/svg" width="17.002" height="12.066" viewBox="0 0 17.002 12.066">
  <path id="_3030336" data-name="3030336" d="M24.728,89.049h-.274V86.856a1.1,1.1,0,0,0-1.1-1.1V81.1a1.1,1.1,0,0,0-1.1-1.1H10.742a1.1,1.1,0,0,0-1.1,1.1v4.662a1.1,1.1,0,0,0-1.1,1.1v2.194H8.274A.274.274,0,0,0,8,89.324v1.1a.274.274,0,0,0,.274.274h.274v1.1a.274.274,0,0,0,.274.274h.823a.274.274,0,0,0,.269-.22l.23-1.151H22.857l.23,1.151a.274.274,0,0,0,.269.22h.823a.274.274,0,0,0,.274-.274v-1.1h.274A.274.274,0,0,0,25,90.42v-1.1A.274.274,0,0,0,24.728,89.049ZM10.194,81.1a.549.549,0,0,1,.548-.548H22.26a.549.549,0,0,1,.548.548v4.662H22.26v-1.1a1.1,1.1,0,0,0-1.1-1.1H17.872a1.1,1.1,0,0,0-1.1,1.1v1.1h-.548v-1.1a1.1,1.1,0,0,0-1.1-1.1H11.839a1.1,1.1,0,0,0-1.1,1.1v1.1h-.548Zm11.517,3.565v1.1H17.324v-1.1a.549.549,0,0,1,.548-.548h3.291A.549.549,0,0,1,21.711,84.662Zm-6.033,0v1.1H11.291v-1.1a.549.549,0,0,1,.548-.548H15.13A.549.549,0,0,1,15.678,84.662ZM9.1,86.856a.549.549,0,0,1,.548-.548H23.356a.549.549,0,0,1,.548.548v2.194H9.1Zm.324,4.662H9.1v-.823h.488Zm14.484,0h-.324l-.165-.823H23.9Zm.548-1.371H8.548V89.6h15.9Z" transform="translate(-8 -80)" fill="#8696a9"/>
</svg>
