<svg xmlns="http://www.w3.org/2000/svg" width="20.432" height="20.103" viewBox="0 0 20.432 20.103">
  <g id="edificio" transform="translate(-8 -8)">
    <path id="Trazado_11710" data-name="Trazado 11710" d="M28.1,27.444H26.125V10.966a.33.33,0,0,0-.33-.33h-.989V9.648a.33.33,0,0,0-.33-.33H19.864v-.33a.33.33,0,1,0-.659,0v.33h-.33V8.33a.33.33,0,1,0-.659,0v.989h-.33a.33.33,0,0,0-.33.33v.989h-.989a.33.33,0,0,0-.33.33v6.591h-3.3V16.9a.33.33,0,0,0-.659,0v.659h-.33V15.909a.33.33,0,0,0-.659,0v1.648h-.659a.33.33,0,0,0-.33.33v9.557H8.33a.33.33,0,1,0,0,.659H28.1a.33.33,0,1,0,0-.659ZM16.239,24.478H12.614V23.159h3.625Zm0-3.3H12.614V19.864h3.625Zm0-1.977H12.284a.33.33,0,0,0-.33.33v1.977a.33.33,0,0,0,.33.33h3.955V22.5H12.284a.33.33,0,0,0-.33.33v1.977a.33.33,0,0,0,.33.33h3.955v2.307H10.966V18.216h5.273Zm1.977-9.227h5.932v.659H18.216Zm2.636,17.466H18.875V23.819h1.977Zm2.636,0H21.512V23.819h1.977Zm1.977,0H24.148V23.489a.33.33,0,0,0-.33-.33H18.546a.33.33,0,0,0-.33.33v3.955H16.9V11.3h8.568Z" fill="#8696a9"/>
    <path id="Trazado_11711" data-name="Trazado 11711" d="M250.307,279H248.33a.33.33,0,0,0-.33.33v1.977a.33.33,0,0,0,.33.33h1.977a.33.33,0,0,0,.33-.33V279.33A.33.33,0,0,0,250.307,279Zm-.33,1.977h-1.318v-1.318h1.318Z" transform="translate(-230.113 -259.836)" fill="#8696a9"/>
    <path id="Trazado_11712" data-name="Trazado 11712" d="M346.307,279H344.33a.33.33,0,0,0-.33.33v1.977a.33.33,0,0,0,.33.33h1.977a.33.33,0,0,0,.33-.33V279.33A.33.33,0,0,0,346.307,279Zm-.33,1.977h-1.318v-1.318h1.318Z" transform="translate(-322.159 -259.836)" fill="#8696a9"/>
    <path id="Trazado_11713" data-name="Trazado 11713" d="M250.307,199H248.33a.33.33,0,0,0-.33.33v1.977a.33.33,0,0,0,.33.33h1.977a.33.33,0,0,0,.33-.33V199.33A.33.33,0,0,0,250.307,199Zm-.33,1.977h-1.318v-1.318h1.318Z" transform="translate(-230.113 -183.132)" fill="#8696a9"/>
    <path id="Trazado_11714" data-name="Trazado 11714" d="M346.307,199H344.33a.33.33,0,0,0-.33.33v1.977a.33.33,0,0,0,.33.33h1.977a.33.33,0,0,0,.33-.33V199.33A.33.33,0,0,0,346.307,199Zm-.33,1.977h-1.318v-1.318h1.318Z" transform="translate(-322.159 -183.132)" fill="#8696a9"/>
    <path id="Trazado_11715" data-name="Trazado 11715" d="M250.307,119H248.33a.33.33,0,0,0-.33.33v1.977a.33.33,0,0,0,.33.33h1.977a.33.33,0,0,0,.33-.33V119.33A.33.33,0,0,0,250.307,119Zm-.33,1.977h-1.318v-1.318h1.318Z" transform="translate(-230.113 -106.427)" fill="#8696a9"/>
    <path id="Trazado_11716" data-name="Trazado 11716" d="M346.307,119H344.33a.33.33,0,0,0-.33.33v1.977a.33.33,0,0,0,.33.33h1.977a.33.33,0,0,0,.33-.33V119.33A.33.33,0,0,0,346.307,119Zm-.33,1.977h-1.318v-1.318h1.318Z" transform="translate(-322.159 -106.427)" fill="#8696a9"/>
  </g>
</svg>
