<svg xmlns="http://www.w3.org/2000/svg" width="21" height="19.645" viewBox="0 0 21 19.645">
  <g id="Grupo_139" data-name="Grupo 139" transform="translate(-4013 -152)">
    <path id="Trazado_10475" data-name="Trazado 10475" d="M19.887,27.645H6.339A.339.339,0,0,1,6,27.306V8.339A.339.339,0,0,1,6.339,8H19.887a.339.339,0,0,1,.339.339V27.306A.339.339,0,0,1,19.887,27.645Zm-13.21-.677H19.548V8.677H6.677Z" transform="translate(4007 144)"/>
    <path id="Trazado_10476" data-name="Trazado 10476" d="M33.21,20.048H30.839a.339.339,0,0,1-.339-.339V17.339A.339.339,0,0,1,30.839,17H33.21a.339.339,0,0,1,.339.339V19.71A.339.339,0,0,1,33.21,20.048Zm-2.032-.677h1.694V17.677H31.177Z" transform="translate(3990.798 138.048)"/>
    <path id="Trazado_10477" data-name="Trazado 10477" d="M55.452,41.728H53.589a.339.339,0,0,1-.339-.339V39.527a.339.339,0,0,1,.339-.339h1.863a.339.339,0,0,1,.339.339V41.39A.339.339,0,0,1,55.452,41.728Zm-1.524-.677h1.185V39.865H53.927Z" transform="translate(3975.754 123.376)"/>
    <path id="Trazado_10478" data-name="Trazado 10478" d="M55.452,53.852H53.589a.339.339,0,0,1-.339-.339V51.651a.339.339,0,0,1,.339-.339h1.863a.339.339,0,0,1,.339.339v1.863A.339.339,0,0,1,55.452,53.852Zm-1.524-.677h1.185V51.989H53.927Z" transform="translate(3975.754 115.358)"/>
    <path id="Trazado_10479" data-name="Trazado 10479" d="M17.21,20.048H14.839a.339.339,0,0,1-.339-.339V17.339A.339.339,0,0,1,14.839,17H17.21a.339.339,0,0,1,.339.339V19.71A.339.339,0,0,1,17.21,20.048Zm-2.032-.677h1.694V17.677H15.177Z" transform="translate(4001.379 138.048)"/>
    <path id="Trazado_10480" data-name="Trazado 10480" d="M33.21,35.548H30.839a.339.339,0,0,1-.339-.339V32.839a.339.339,0,0,1,.339-.339H33.21a.339.339,0,0,1,.339.339V35.21A.339.339,0,0,1,33.21,35.548Zm-2.032-.677h1.694V33.177H31.177Z" transform="translate(3990.798 127.798)"/>
    <path id="Trazado_10481" data-name="Trazado 10481" d="M17.21,35.548H14.839a.339.339,0,0,1-.339-.339V32.839a.339.339,0,0,1,.339-.339H17.21a.339.339,0,0,1,.339.339V35.21A.339.339,0,0,1,17.21,35.548Zm-2.032-.677h1.694V33.177H15.177Z" transform="translate(4001.379 127.798)"/>
    <path id="Trazado_10482" data-name="Trazado 10482" d="M33.21,51.048H30.839a.339.339,0,0,1-.339-.339V48.339A.339.339,0,0,1,30.839,48H33.21a.339.339,0,0,1,.339.339V50.71A.339.339,0,0,1,33.21,51.048Zm-2.032-.677h1.694V48.677H31.177Z" transform="translate(3990.798 117.548)"/>
    <path id="Trazado_10483" data-name="Trazado 10483" d="M17.21,51.048H14.839a.339.339,0,0,1-.339-.339V48.339A.339.339,0,0,1,14.839,48H17.21a.339.339,0,0,1,.339.339V50.71A.339.339,0,0,1,17.21,51.048Zm-2.032-.677h1.694V48.677H15.177Z" transform="translate(4001.379 117.548)"/>
    <path id="Trazado_10484" data-name="Trazado 10484" d="M53.113,43.516H46.339A.339.339,0,0,1,46,43.177V32.339A.339.339,0,0,1,46.339,32h6.774a.339.339,0,0,1,.339.339V43.177A.339.339,0,0,1,53.113,43.516Zm-6.435-.677h6.1V32.677h-6.1Z" transform="translate(3980.548 128.129)"/>
  </g>
</svg>
