<svg xmlns="http://www.w3.org/2000/svg" width="34.304" height="33.643" viewBox="0 0 34.304 33.643">
  <g id="Grupo_19321" data-name="Grupo 19321" transform="translate(-50.705 -260.35)">
    <path id="Path" d="M2753.241,315.792a1.254,1.254,0,0,0-.365-.888L2738.1,300.07a1.244,1.244,0,0,0-1.759-.006l-.007.006L2721.551,314.9a1.257,1.257,0,0,0-.365.888v10.821a4.589,4.589,0,0,0,4.579,4.6h7.317" transform="translate(-2669.481 -38.217)" fill="none" stroke="#00bf78" stroke-width="2"/>
    <path id="Path-2" data-name="Path" d="M2721.186,315.792a1.256,1.256,0,0,1,.365-.888l14.778-14.834a1.244,1.244,0,0,1,1.759-.006l.007.006,14.781,14.834a1.259,1.259,0,0,1,.365.888v10.821a4.589,4.589,0,0,1-4.579,4.6h-7.317" transform="translate(-2669.233 -38.217)" fill="none" stroke="#00bf78" stroke-width="2"/>
    <g id="Grupo_133" data-name="Grupo 133" transform="translate(58.896 274.423)">
      <path id="Trazado_129" data-name="Trazado 129" d="M27.586,156.826H26.94v-9.38a.793.793,0,0,0-.792-.792H24.7a.793.793,0,0,0-.792.792v9.38h-1.64V151.7a.793.793,0,0,0-.792-.792H20.036a.793.793,0,0,0-.792.792v5.13H17.6v-2.657a.793.793,0,0,0-.792-.792H15.368a.793.793,0,0,0-.792.792v2.657H13.9a.295.295,0,1,0,0,.589H27.586a.295.295,0,1,0,0-.589Zm-10.571,0H15.165v-2.657a.2.2,0,0,1,.2-.2h1.444a.2.2,0,0,1,.2.2Zm4.668,0H19.834V151.7a.2.2,0,0,1,.2-.2H21.48a.2.2,0,0,1,.2.2Zm4.668,0H24.5v-9.38a.2.2,0,0,1,.2-.2h1.444a.2.2,0,0,1,.2.2v9.38Z" transform="translate(-13.601 -146.654)" fill="#00bf78" stroke="#00bf78" stroke-width="1"/>
    </g>
  </g>
</svg>
