<svg id="Grupo_4786" data-name="Grupo 4786" xmlns="http://www.w3.org/2000/svg" width="22.912" height="17.266" viewBox="0 0 22.912 17.266">
  <path id="Trazado_129" data-name="Trazado 129" d="M36.04,162.975H35V147.924a1.272,1.272,0,0,0-1.27-1.27H31.416a1.272,1.272,0,0,0-1.27,1.27v15.051H27.514v-8.232a1.272,1.272,0,0,0-1.27-1.27H23.926a1.272,1.272,0,0,0-1.27,1.27v8.232H20.024v-4.263a1.272,1.272,0,0,0-1.27-1.27H16.437a1.272,1.272,0,0,0-1.27,1.27v4.263H14.074a.473.473,0,1,0,0,.945H36.04a.473.473,0,1,0,0-.945Zm-16.961,0H16.111v-4.263a.326.326,0,0,1,.325-.325h2.317a.326.326,0,0,1,.325.325Zm7.49,0H23.6v-8.232a.326.326,0,0,1,.325-.325h2.317a.326.326,0,0,1,.325.325Zm7.49,0H31.091V147.924a.326.326,0,0,1,.325-.325h2.317a.326.326,0,0,1,.325.325Z" transform="translate(-13.601 -146.654)" fill="#323232"/>
</svg>
