<svg id="Grupo_4786" data-name="Grupo 4786" xmlns="http://www.w3.org/2000/svg" width="30.248" height="22.795" viewBox="0 0 30.248 22.795">
  <path id="Trazado_129" data-name="Trazado 129" d="M43.225,168.2H41.857v-19.87a1.679,1.679,0,0,0-1.677-1.677H37.121a1.679,1.679,0,0,0-1.677,1.677V168.2H31.969V157.334a1.679,1.679,0,0,0-1.677-1.677H27.233a1.679,1.679,0,0,0-1.677,1.677V168.2H22.081v-5.628A1.679,1.679,0,0,0,20.4,160.9H17.344a1.679,1.679,0,0,0-1.677,1.677V168.2H14.225a.624.624,0,1,0,0,1.248h29a.624.624,0,1,0,0-1.248Zm-22.393,0H16.915v-5.628a.43.43,0,0,1,.429-.429H20.4a.43.43,0,0,1,.429.429Zm9.888,0H26.8V157.334a.43.43,0,0,1,.429-.429h3.059a.43.43,0,0,1,.429.429Zm9.888,0H36.691v-19.87a.43.43,0,0,1,.429-.429h3.059a.43.43,0,0,1,.429.429Z" transform="translate(-13.601 -146.654)" fill="#fe3151"/>
</svg>
