<svg xmlns="http://www.w3.org/2000/svg" xmlns:xlink="http://www.w3.org/1999/xlink" width="74.249" height="74.249" viewBox="0 0 74.249 74.249">
  <defs>
    <filter id="Rect치ngulo_17513" x="0" y="0" width="74.249" height="74.249" filterUnits="userSpaceOnUse">
      <feOffset dy="3" input="SourceAlpha"/>
      <feGaussianBlur stdDeviation="3" result="blur"/>
      <feFlood flood-opacity="0.161"/>
      <feComposite operator="in" in2="blur"/>
      <feComposite in="SourceGraphic"/>
    </filter>
  </defs>
  <g id="Grupo_4825" data-name="Grupo 4825" transform="translate(-138.751 -116.269)">
    <g transform="matrix(1, 0, 0, 1, 138.75, 116.27)" filter="url(#Rect치ngulo_17513)">
      <rect id="Rect치ngulo_17513-2" data-name="Rect치ngulo 17513" width="56.249" height="56.249" rx="8" transform="translate(9 6)" fill="#fff"/>
    </g>
    <g id="_460086" data-name="460086" transform="translate(163.208 132.268)">
      <g id="Grupo_4777" data-name="Grupo 4777" transform="translate(0)">
        <g id="Grupo_4776" data-name="Grupo 4776">
          <path id="Trazado_11669" data-name="Trazado 11669" d="M119.2,16a12.647,12.647,0,0,0-4.667-9.813V.667A.666.666,0,0,0,113.867,0H99.2a.666.666,0,0,0-.667.667v5.52a12.651,12.651,0,0,0,0,19.626v13.52a.666.666,0,0,0,1.138.471l6.862-6.862L113.4,39.8a.666.666,0,0,0,1.138-.471V25.813A12.647,12.647,0,0,0,119.2,16ZM99.867,1.333H113.2v3.9a12.618,12.618,0,0,0-2.349-1.143l-.057-.02q-.147-.053-.3-.1l-.14-.045-.234-.071q-.125-.037-.251-.071l-.209-.056-.2-.049-.166-.038-.2-.045-.234-.045q-.135-.025-.272-.047l-.2-.031-.184-.026-.235-.029-.142-.016c-.122-.012-.244-.023-.367-.032l-.129-.008q-.141-.009-.283-.015l-.123,0c-.132,0-.264-.007-.4-.007s-.265,0-.4.007l-.123,0q-.142.006-.283.015l-.129.008q-.184.013-.367.032l-.142.016-.235.029-.184.026-.2.031q-.137.022-.272.048l-.233.045-.2.045-.165.038-.2.049-.209.056q-.126.034-.251.071l-.233.071-.14.046q-.149.049-.3.1l-.057.02a12.627,12.627,0,0,0-2.349,1.143v-3.9ZM113.2,37.723l-6.2-6.2a.666.666,0,0,0-.943,0l-6.2,6.2V26.765a12.629,12.629,0,0,0,2.349,1.143l.058.021q.147.052.295.1l.14.046.233.071q.125.037.251.071l.208.056.2.049.165.038.2.045c.077.016.155.031.233.045s.181.033.272.048l.2.031.184.026.235.029.142.016c.122.013.244.023.367.032l.129.008q.141.009.283.015l.123,0c.132,0,.264.007.4.007s.265,0,.4-.007l.123,0q.142-.006.283-.015l.129-.008q.184-.013.367-.032l.142-.016.235-.029.184-.026.2-.031q.136-.022.272-.047l.234-.045.2-.045.166-.038.2-.049.209-.056.251-.071.234-.071.14-.046q.148-.049.295-.1l.058-.021a12.619,12.619,0,0,0,2.349-1.143V37.723Zm.332-12.815a.673.673,0,0,0-.073.049,11.356,11.356,0,0,1-3.2,1.747l-.073.026-.085.028-.176.057-.058.018-.213.064-.033.009a11.234,11.234,0,0,1-1.358.3h0q-.413.063-.835.1l-.053,0-.213.014-.077,0-.2.008-.076,0c-.09,0-.179,0-.269,0s-.18,0-.269,0l-.076,0-.2-.008-.077,0L105.7,27.3l-.053,0q-.422-.033-.835-.1h0a11.235,11.235,0,0,1-1.358-.3l-.033-.009-.214-.064-.058-.018-.176-.057-.085-.028-.073-.026a11.358,11.358,0,0,1-3.2-1.747.662.662,0,0,0-.074-.049,11.321,11.321,0,0,1,0-17.813.652.652,0,0,0,.077-.052,11.356,11.356,0,0,1,3.2-1.747l.073-.026.085-.028.176-.057.058-.018.214-.064.033-.009a11.247,11.247,0,0,1,1.358-.3h0q.413-.063.835-.1l.053,0,.213-.014.077,0,.2-.008.076,0c.09,0,.179,0,.269,0s.18,0,.269,0l.076,0,.2.008.077,0,.213.014.053,0q.422.033.835.1h0a11.245,11.245,0,0,1,1.358.3l.033.009.213.064.058.018.176.057.085.028.073.026a11.358,11.358,0,0,1,3.2,1.747.649.649,0,0,0,.074.049,11.321,11.321,0,0,1,0,17.817Z" transform="translate(-93.867)" fill="#fbd24d"/>
          <path id="Trazado_11670" data-name="Trazado 11670" d="M162.367,92.144a.668.668,0,0,0-.529-.446l-5.1-.8-2.4-4.841a.694.694,0,0,0-1.195,0l-2.4,4.841-5.1.8a.666.666,0,0,0-.377,1.121l3.617,3.751-1.121,4.973a.667.667,0,0,0,.917.758l5.067-2.205L158.8,102.3a.667.667,0,0,0,.917-.758L158.6,96.57l3.617-3.751A.668.668,0,0,0,162.367,92.144ZM157.389,95.9a.666.666,0,0,0-.17.609l.911,4.041L154,98.757a.667.667,0,0,0-.532,0l-4.128,1.8.911-4.041a.666.666,0,0,0-.17-.609l-2.976-3.086,4.177-.651a.664.664,0,0,0,.494-.363l1.958-3.947,1.958,3.947a.664.664,0,0,0,.494.363l4.177.651Z" transform="translate(-141.069 -79.023)" fill="#fbd24d"/>
        </g>
      </g>
    </g>
  </g>
</svg>
