<svg xmlns="http://www.w3.org/2000/svg" width="20.732" height="14.79" viewBox="0 0 20.732 14.79">
  <g id="Grupo_4771" data-name="Grupo 4771" transform="translate(-113.796 62.056) rotate(-90)">
    <g id="_4205548" data-name="4205548" transform="translate(47.56 114.078)">
      <path id="Trazado_11655" data-name="Trazado 11655" d="M36.48,22.2c-.265,0-.48-.154-.48-.344V2.344c0-.19.215-.344.48-.344s.48.154.48.344V21.856C36.961,22.046,36.746,22.2,36.48,22.2Z" transform="translate(-29.362 -2)" stroke="#000" stroke-width="0.5"/>
      <path id="Trazado_11656" data-name="Trazado 11656" d="M35.935,9.6a.48.48,0,0,1-.34-.141l-6.3-6.3L23,9.464a.48.48,0,1,1-.679-.679l6.637-6.638a.5.5,0,0,1,.68,0l6.637,6.638a.48.48,0,0,1-.34.82Z" transform="translate(-22.18 -2.006)" stroke="#000" stroke-width="0.5"/>
    </g>
  </g>
</svg>
