<svg xmlns="http://www.w3.org/2000/svg" xmlns:xlink="http://www.w3.org/1999/xlink" width="100%" height="100%" preserveAspectRatio="none" >
  <defs>
    <clipPath id="clip-path">
      <rect id="Rect치ngulo_17357" data-name="Rect치ngulo 17357" width="100%" height="100%" transform="translate(-1651.451 633)" fill="#fe3151"/>
    </clipPath>
  </defs>
  <g id="Enmascarar_grupo_1" data-name="Enmascarar grupo 1" transform="translate(1651.451 -633)" clip-path="url(#clip-path)">
    <g id="Grupo_19292" data-name="Grupo 19292">
      <rect id="Rect치ngulo_17356" data-name="Rect치ngulo 17356" width="100%" height="100%" transform="translate(-1652.467 633)" fill="#fe3151"/>
      <g id="Grupo_19290" data-name="Grupo 19290" transform="translate(-1653.467 588)">
        <path id="Trazado_11213" data-name="Trazado 11213" d="M1409.66,481.85c30.419-42.986,83.819-2.609,91.439,19.174s35.963,27.158,65.722,8.448,80.645,28,38.222,58.729-71.037-36.9-128.709-14.914S1379.241,524.836,1409.66,481.85Z" transform="translate(1914.658 -81.103) rotate(150)" fill="#ecf2fe" opacity="0.27"/>
        <path id="Trazado_100" data-name="Trazado 100" d="M1412.536,487.03c38.714-54.708,106.676-3.321,116.374,24.4s45.769,34.564,83.643,10.752,102.636,35.634,48.645,74.744-90.408-46.966-163.806-18.981S1373.822,541.738,1412.536,487.03Z" transform="translate(1669.625 -254.073) rotate(150)" fill="#ecf2fe" opacity="0.27"/>
      </g>
    </g>
  </g>
</svg>
