<svg xmlns="http://www.w3.org/2000/svg" width="16.928" height="21.7" viewBox="0 0 16.928 21.7">
  <g id="_1942319" data-name="1942319" transform="matrix(0.602, -0.799, 0.799, 0.602, -3.969, 13.731)">
    <path id="Trazado_11222" data-name="Trazado 11222" d="M.557,4.056a.272.272,0,0,1-.27.286H.271A.268.268,0,0,1,0,4.072a3.351,3.351,0,0,1,.778-2.3.715.715,0,0,0,.254-.731A.744.744,0,0,0,.509.546.281.281,0,0,1,.287.228.281.281,0,0,1,.6.005a1.294,1.294,0,0,1,.953.874,1.242,1.242,0,0,1-.4,1.287A2.885,2.885,0,0,0,.557,4.056Z" transform="translate(16.254 5.685)" fill="#8696a9"/>
    <path id="Trazado_11223" data-name="Trazado 11223" d="M.054,1.42.4.514A.8.8,0,0,1,1.435.054l15.2,5.766A.8.8,0,0,1,17.1,6.852l-.349.905a.8.8,0,0,1-1.032.461L.514,2.452A.8.8,0,0,1,.054,1.42ZM14.746,7.265,15.271,5.9,5.724,2.277,5.2,3.643Zm1.175.445a.247.247,0,0,0,.318-.143l.349-.905a.247.247,0,0,0-.143-.318l-.651-.254-.524,1.366ZM.7,1.928,4.676,3.437,5.2,2.071,1.229.562A.247.247,0,0,0,.911.7L.562,1.61A.247.247,0,0,0,.7,1.928Z" transform="translate(0 4.97)" fill="#8696a9"/>
    <path id="Trazado_11224" data-name="Trazado 11224" d="M.57,5.722a1.576,1.576,0,0,0,.747,1.191.283.283,0,0,1,.1.381.279.279,0,0,1-.381.1,2.118,2.118,0,0,1-1.017-1.6A3.067,3.067,0,0,1,1.142,3.228a1.627,1.627,0,0,0,.6-1.207A2.354,2.354,0,0,0,1.062.48a.278.278,0,0,1,0-.4.278.278,0,0,1,.4,0A3.032,3.032,0,0,1,2.3,2.037a2.244,2.244,0,0,1-.778,1.6A2.5,2.5,0,0,0,.57,5.722Z" transform="translate(14.891 0)" fill="#8696a9"/>
  </g>
</svg>
