<svg id="Gas" xmlns="http://www.w3.org/2000/svg" width="14.507" height="10.998" viewBox="0 0 14.507 10.998">
  <path id="Trazado_11056" data-name="Trazado 11056" d="M173.148,98.574a2.574,2.574,0,1,0-2.574,2.574A2.574,2.574,0,0,0,173.148,98.574Zm-4.68,0a2.106,2.106,0,1,1,2.106,2.106A2.106,2.106,0,0,1,168.468,98.574Z" transform="translate(-163.32 -95.298)" fill="#8696a9"/>
  <path id="Trazado_11057" data-name="Trazado 11057" d="M233.4,129.638a.7.7,0,0,0-.471-.663.232.232,0,0,0,0-.039v-.7a.234.234,0,1,0-.468,0v.7a.236.236,0,0,0,0,.039.7.7,0,1,0,.932.663Zm-.936,0a.234.234,0,1,1,.234.234A.234.234,0,0,1,232.465,129.638Z" transform="translate(-225.445 -126.362)" fill="#8696a9"/>
  <path id="Trazado_11058" data-name="Trazado 11058" d="M22.273,80.42H19.232v-.468A.234.234,0,0,0,19,79.718h-1.4V79.25a.234.234,0,0,0-.234-.234h-.936v-.684a3.276,3.276,0,1,0-2.34,0v.684h-.936a.234.234,0,0,0-.234.234v.468h-1.4a.234.234,0,0,0-.234.234v.468H8.234A.234.234,0,0,0,8,80.654v1.4a.234.234,0,0,0,.234.234h3.042v.468a.234.234,0,0,0,.234.234H19a.234.234,0,0,0,.234-.234v-.468h3.042a.234.234,0,0,0,.234-.234v-1.4A.234.234,0,0,0,22.273,80.42Zm-9.828-5.148a2.808,2.808,0,1,1,2.808,2.808A2.808,2.808,0,0,1,12.446,75.272Zm2.106,3.2a3.282,3.282,0,0,0,1.4,0v.544h-1.4Zm-1.17,1.012h3.744v.234H13.382Zm-4.914,2.34v-.936h2.808v.936Zm10.3.7h-7.02v-2.34h7.02Zm3.276-.7H19.232v-.936h2.808Z" transform="translate(-8 -71.996)" fill="#8696a9"/>
  <path id="Trazado_11059" data-name="Trazado 11059" d="M145.638,408h-1.4a.234.234,0,1,0,0,.468h1.4a.234.234,0,0,0,0-.468Z" transform="translate(-140.022 -398.172)" fill="#8696a9"/>
  <path id="Trazado_11060" data-name="Trazado 11060" d="M216.468,408h-.234a.234.234,0,1,0,0,.468h.234a.234.234,0,1,0,0-.468Z" transform="translate(-209.916 -398.172)" fill="#8696a9"/>
</svg>
