<svg id="_869836" data-name="869836" xmlns="http://www.w3.org/2000/svg" width="8.791" height="14.175" viewBox="0 0 8.791 14.175">
  <g id="Grupo_4587" data-name="Grupo 4587" transform="translate(6.88 5.384)">
    <g id="Grupo_4586" data-name="Grupo 4586">
      <path id="Trazado_11124" data-name="Trazado 11124" d="M346.545,194.477h-.6a.208.208,0,0,0,0,.415h.6a.208.208,0,1,0,0-.415Z" transform="translate(-345.739 -194.477)" fill="#8696a9"/>
    </g>
  </g>
  <g id="Grupo_4589" data-name="Grupo 4589" transform="translate(0)">
    <g id="Grupo_4588" data-name="Grupo 4588">
      <path id="Trazado_11125" data-name="Trazado 11125" d="M106.031,5.592A2.6,2.6,0,0,0,103.638,3V.208A.208.208,0,0,0,103.43,0H99.841a.208.208,0,0,0-.208.208V3A2.6,2.6,0,0,0,97.24,5.592h0v5.982a1.406,1.406,0,0,0,1.2,1.389v1a.208.208,0,0,0,.208.208h5.982a.208.208,0,0,0,.208-.208v-1a1.406,1.406,0,0,0,1.2-1.388h0ZM100.048.415h3.174V2.991h-.931V2a.208.208,0,0,0-.208-.208h-.9a.208.208,0,0,0-.208.208v.989h-.931Zm1.828,1.795v.781h-.482V2.21Zm2.543,11.55H98.852v-.781h5.567Zm1.2-2.393h-5.7a.208.208,0,1,0,0,.415h5.682a.99.99,0,0,1-.967.781H98.644a.99.99,0,0,1-.989-.989V5.8h5.7a.208.208,0,0,0,0-.415H97.665a2.188,2.188,0,0,1,2.175-1.978h3.59a2.188,2.188,0,0,1,2.184,2.185Z" transform="translate(-97.24)" fill="#8696a9"/>
    </g>
  </g>
  <g id="Grupo_4591" data-name="Grupo 4591" transform="translate(0.897 11.367)">
    <g id="Grupo_4590" data-name="Grupo 4590">
      <path id="Trazado_11126" data-name="Trazado 11126" d="M130.458,410.563h-.6a.208.208,0,1,0,0,.415h.6a.208.208,0,1,0,0-.415Z" transform="translate(-129.652 -410.563)" fill="#8696a9"/>
    </g>
  </g>
  <g id="Grupo_4593" data-name="Grupo 4593" transform="translate(2.986 6.581)">
    <g id="Grupo_4592" data-name="Grupo 4592">
      <path id="Trazado_11127" data-name="Trazado 11127" d="M207.9,240.133c0-.023,0-.042,0-.051h0a3.074,3.074,0,0,0-1.275-2.354.208.208,0,0,0-.319.165,1.6,1.6,0,0,1-.274.8l-.106-.106a.208.208,0,0,0-.318.03,2.891,2.891,0,0,0-.484,1.272,2.549,2.549,0,0,0-.018.417,1.283,1.283,0,0,0,.015.169,1.4,1.4,0,0,0,2.8-.184C207.908,240.263,207.9,240.21,207.9,240.133Zm-1.391,1.152a.99.99,0,0,1-.981-.864v-.008a2.316,2.316,0,0,1,.287-1.341l.085.085a.208.208,0,0,0,.147.061h0a.208.208,0,0,0,.147-.061,2.023,2.023,0,0,0,.466-.863,2.719,2.719,0,0,1,.822,1.814h0c0,.011,0,.036.006.067s.01.1.011.122A.99.99,0,0,1,206.5,241.285Z" transform="translate(-205.095 -237.695)" fill="#8696a9"/>
    </g>
  </g>
</svg>
