<svg id="_542410" data-name="542410" xmlns="http://www.w3.org/2000/svg" width="14.208" height="14.208" viewBox="0 0 14.208 14.208">
  <g id="Grupo_4700" data-name="Grupo 4700">
    <g id="Grupo_4699" data-name="Grupo 4699">
      <path id="Trazado_11380" data-name="Trazado 11380" d="M262.3,177.837a.208.208,0,0,0,.208-.208v-2.694a.208.208,0,1,0-.416,0v2.694A.208.208,0,0,0,262.3,177.837Z" transform="translate(-254.817 -169.878)" fill="#8696a9"/>
      <path id="Trazado_11381" data-name="Trazado 11381" d="M2.377,298.809H.747a.331.331,0,0,1-.331-.331V293.9a.331.331,0,0,1,.331-.331h.418a.208.208,0,0,0,0-.416H.747A.748.748,0,0,0,0,293.9v4.579a.748.748,0,0,0,.747.747h1.63a.208.208,0,1,0,0-.416Z" transform="translate(0 -285.017)" fill="#8696a9"/>
      <path id="Trazado_11382" data-name="Trazado 11382" d="M118.691,293.152a.208.208,0,0,0,0,.416.331.331,0,0,1,.331.331v4.579a.331.331,0,0,1-.331.331h-10.25a.208.208,0,0,0,0,.416h10.25a.748.748,0,0,0,.747-.747V293.9A.748.748,0,0,0,118.691,293.152Z" transform="translate(-105.229 -285.017)" fill="#8696a9"/>
      <path id="Trazado_11383" data-name="Trazado 11383" d="M425.67,414.539l-.271.355-.271-.355a.208.208,0,1,0-.331.253l.437.571a.208.208,0,0,0,.331,0l.437-.571a.208.208,0,0,0-.331-.253Z" transform="translate(-412.967 -402.956)" fill="#8696a9"/>
      <path id="Trazado_11384" data-name="Trazado 11384" d="M29.39,9.3V12.93h-.061a.208.208,0,0,0,0,.416H37.68a.208.208,0,0,0,0-.416h-.061V10.922h3.59a.478.478,0,0,0,.478-.478v-.269a.478.478,0,0,0-.3-.442V4.106a.476.476,0,0,0-.3-.441l-2.04-.848V2.156a.486.486,0,0,0-.376-.473A1.692,1.692,0,0,0,36.988,0H34.582a1.692,1.692,0,0,0-1.69,1.69V2.6a.208.208,0,0,0,.416,0V1.69A1.275,1.275,0,0,1,34.582.416h2.406A1.275,1.275,0,0,1,38.262,1.67H37.87a.883.883,0,0,0-.881-.862.208.208,0,1,0,0,.416.466.466,0,0,1,.465.449.486.486,0,0,0-.432.483v.661l-2.04.848a.476.476,0,0,0-.3.442V8.13l-.57-.157V1.69a.466.466,0,0,1,.465-.465h1.746a.208.208,0,1,0,0-.416H34.582a.883.883,0,0,0-.882.882V7.858l-.141-.039a.208.208,0,0,0-.111,0l-.141.039V3.369a.208.208,0,0,0-.416,0v4.6l-.392.108V7.616a1.152,1.152,0,0,0-1.077-1.149v-.6a.208.208,0,1,0-.416,0v.6a1.152,1.152,0,0,0-1.078,1.149V8.79l-.188.052A.479.479,0,0,0,29.39,9.3ZM33.3,12.93H32.1V11.191h1.2Zm1.616,0h-1.2V11.191h1.2ZM37.438,2.156a.069.069,0,0,1,.069-.069h1.061a.069.069,0,0,1,.069.069v.592h-1.2ZM35.1,4.457h1.15a.208.208,0,1,0,0-.416H35.161l2.11-.877h1.534l2.109.877H37.052a.208.208,0,0,0,0,.416h3.922V9.7H38.124a.208.208,0,0,0,0,.416h3.084a.061.061,0,0,1,.061.061v.269a.061.061,0,0,1-.061.061h-3.59V9.3a.479.479,0,0,0-.351-.46l-2.165-.6h0ZM29.807,9.3a.061.061,0,0,1,.045-.059l.857-.236a.208.208,0,0,0-.111-.4l-.253.07V7.616a.736.736,0,0,1,.735-.735h.269a.736.736,0,0,1,.735.735V8.2l-.736.2a.208.208,0,0,0,.111.4L33.5,8.236l3.653,1.008A.061.061,0,0,1,37.2,9.3V9.7h-.923a.208.208,0,1,0,0,.416H37.2V12.93H35.329V10.983a.208.208,0,0,0-.208-.208H31.888a.208.208,0,0,0-.208.208V12.93H29.807V10.114h5.738a.208.208,0,1,0,0-.416H29.807Z" transform="translate(-28.313)" fill="#8696a9"/>
      <path id="Trazado_11385" data-name="Trazado 11385" d="M363.751,445.427l-.271.355-.271-.355a.208.208,0,1,0-.331.253l.437.571a.208.208,0,0,0,.331,0l.437-.571a.208.208,0,0,0-.331-.253Z" transform="translate(-352.766 -432.987)" fill="#8696a9"/>
    </g>
  </g>
</svg>
