<svg id="_882150" data-name="882150" xmlns="http://www.w3.org/2000/svg" width="18.137" height="15.662" viewBox="0 0 18.137 15.662">
  <g id="Grupo_4594" data-name="Grupo 4594" transform="translate(0 0)">
    <path id="Trazado_11128" data-name="Trazado 11128" d="M17.871,46.75a.266.266,0,0,0,.266-.266v-.514a.915.915,0,0,0-.884-.942h-.43v-.544a.692.692,0,0,0-.691-.691H13.993a.692.692,0,0,0-.691.691V45.9a28.826,28.826,0,0,0-6.2,0V44.484a.692.692,0,0,0-.691-.691H6.241A29.135,29.135,0,0,0,10.6,40.533l.834,1.146a.692.692,0,0,0,.965.152l1.729-1.258h0a.692.692,0,0,0,.152-.965l-.32-.44.348-.253a.915.915,0,0,0,.161-1.282l-1.442-1.983a.915.915,0,0,0-1.269-.242l-.348.253-.32-.44a.692.692,0,0,0-.965-.152L8.392,36.328a.692.692,0,0,0-.152.965l.834,1.146a28.823,28.823,0,0,0-5.015,3.648l-.613-.843a1.067,1.067,0,0,0-1.489-.235l-1.123.817A1.067,1.067,0,0,0,.6,43.314l.1.137L.35,43.7a.916.916,0,0,0-.161,1.282l1.442,1.983a.966.966,0,0,0,.636.392v1.062a.915.915,0,0,0,.884.942h.43v.544a.692.692,0,0,0,.691.691H6.41a.692.692,0,0,0,.691-.691V48.491c.755.088,1.6.143,2.476.161h.005a.266.266,0,0,0,.005-.531c-.879-.018-1.733-.074-2.486-.164V46.437a28.253,28.253,0,0,1,6.2,0v1.519c-.753.09-1.607.147-2.486.164a.266.266,0,0,0,.005.531h.005c.872-.018,1.721-.073,2.476-.161v1.418a.692.692,0,0,0,.691.691h2.139a.692.692,0,0,0,.691-.691v-.544h.43a.915.915,0,0,0,.884-.942v-.7a.266.266,0,0,0-.531,0v.7a.39.39,0,0,1-.353.411h-.43V45.56h.43a.39.39,0,0,1,.353.411v.514A.266.266,0,0,0,17.871,46.75Zm-5.8-10.911a.39.39,0,0,1,.527.125l1.442,1.983a.39.39,0,0,1-.044.539l-.348.253-1.925-2.647Zm-3.4,1.141a.162.162,0,0,1,.035-.223L10.434,35.5a.162.162,0,0,1,.223.035l2.714,3.732h0l.476.655a.162.162,0,0,1-.035.223L12.083,41.4a.161.161,0,0,1-.223-.035Zm.719,1.892.894,1.229a28.235,28.235,0,0,1-5.016,3.648L4.373,42.52A28.245,28.245,0,0,1,9.388,38.872Zm-7.121,7.1v.843a.452.452,0,0,1-.206-.158L.619,44.674a.387.387,0,0,1,.044-.54l.348-.253,1.3,1.791A1.009,1.009,0,0,0,2.267,45.971Zm1.314,2.862h-.43a.39.39,0,0,1-.353-.411V45.971a.453.453,0,0,1,.091-.272.334.334,0,0,1,.261-.139h.43v3.273Zm0-4.349v.544h-.43l-.064,0H3.075a.847.847,0,0,0-.443.176L1.027,43a.535.535,0,0,1,.118-.746l1.123-.817a.536.536,0,0,1,.746.118l1.627,2.237H4.271A.692.692,0,0,0,3.581,44.484Zm2.989,5.424a.162.162,0,0,1-.159.159H4.271a.162.162,0,0,1-.159-.159V44.484a.162.162,0,0,1,.159-.159H6.41a.162.162,0,0,1,.159.159Zm9.722,0a.162.162,0,0,1-.159.159H13.993a.162.162,0,0,1-.159-.159V44.484a.162.162,0,0,1,.159-.159h2.139a.162.162,0,0,1,.159.159Z" transform="translate(0 -34.938)" fill="#8696a9"/>
  </g>
</svg>
