<svg id="_281764" data-name="281764" xmlns="http://www.w3.org/2000/svg" width="16.5" height="16.5" viewBox="0 0 16.5 16.5">
  <path id="Trazado_103" data-name="Trazado 103" d="M3.657,143.783l-.574,2.144-2.1.044a8.264,8.264,0,0,1-.061-7.7h0l1.869.343.819,1.858a4.924,4.924,0,0,0,.046,3.315Z" transform="translate(0 -133.812)" fill="#fdba12"/>
  <path id="Trazado_104" data-name="Trazado 104" d="M269.552,208.176a8.247,8.247,0,0,1-2.941,7.975h0l-2.354-.12-.333-2.08a4.917,4.917,0,0,0,2.116-2.511h-4.411v-3.264h7.924Z" transform="translate(-253.197 -201.467)" fill="#3d81ff"/>
  <path id="Trazado_105" data-name="Trazado 105" d="M42.94,314.121h0A8.253,8.253,0,0,1,30.509,311.6l2.674-2.189a4.907,4.907,0,0,0,7.071,2.512Z" transform="translate(-29.526 -299.438)" fill="#36a951"/>
  <path id="Trazado_106" data-name="Trazado 106" d="M41.217,1.9,38.545,4.087a4.906,4.906,0,0,0-7.233,2.569l-2.688-2.2h0A8.252,8.252,0,0,1,41.217,1.9Z" transform="translate(-27.702)" fill="#eb4646"/>
</svg>
