<svg xmlns="http://www.w3.org/2000/svg" width="271.5" height="258.857" viewBox="0 0 271.5 258.857">
  <g id="Grupo_19309" data-name="Grupo 19309" transform="translate(783 -368.089)">
    <g id="Grupo_19308" data-name="Grupo 19308" transform="translate(-2561.36 -886.938)">
      <g id="Grupo_4530" data-name="Grupo 4530" transform="translate(1778.36 1289.898)">
        <g id="Grupo_4525" data-name="Grupo 4525" transform="translate(0 73.26)">
          <path id="Trazado_10992" data-name="Trazado 10992" d="M1833.838,1523.945s9.989-11.729.557-19.129c0,0-6.886-4.138-12.487-3.783,0,0,7.982,13.289,5.417,14.621s-7.827-15.449-7.827-15.449-15.643-1.467-20.666.967c0,0,13.4,10.9,10.59,11.558s-17.287-10.032-17.287-10.032-14.547,2.523-13.743,11.4,5.828,11.6,8.031,11.36,15.083-5.206,15.369-3.4-7.456,7.732-12.891,8.026c0,0,10.3,11.284,17.107,8s7.375-8.467,11.62-10.422,7.875-1.962,6.125.023-9.436,3.935-11.854,8.243-4.589,7.215,2.464,6.131,18.5-6.283,18.99-12.2Z" transform="translate(-1778.36 -1499.768)" fill="#82b378"/>
          <g id="Grupo_4524" data-name="Grupo 4524" transform="translate(7.184 14.464)">
            <path id="Trazado_10993" data-name="Trazado 10993" d="M1794.621,1532.589s39.527-1.649,48.293,9.629a28.594,28.594,0,0,0,7.907,11.023l.934,2.521s-6.873-7.2-9.326-7.631C1842.43,1548.132,1846.218,1534.114,1794.621,1532.589Z" transform="translate(-1794.621 -1532.505)" fill="#82b378"/>
            <path id="Trazado_10994" data-name="Trazado 10994" d="M1919,1578.191a24.825,24.825,0,0,1,9.13,17.459l-1.54.143s-2.747-11.585-7.659-16.1S1919,1578.191,1919,1578.191Z" transform="translate(-1862.801 -1557.455)" fill="#82b378"/>
          </g>
        </g>
        <g id="Grupo_4527" data-name="Grupo 4527" transform="translate(97.951 25.059)">
          <path id="Trazado_10995" data-name="Trazado 10995" d="M2010.592,1432.112s-15.978-8.881-8.573-21.026c0,0,5.931-7.462,12.3-9.4,0,0-3.345,18.087.059,18.5s2.275-20.422,2.275-20.422,16.774-8.134,23.369-7.518c0,0-10.365,17.684-6.964,17.248s15.041-18.337,15.041-18.337,17.215-3.244,20.012,6.954-1.653,15.317-4.2,15.963-18.925.486-18.493,2.611,11.5,5.493,17.661,3.559c0,0-6.751,16.821-15.686,16s-11.716-6.343-17.247-6.75-9.566,1.094-6.8,2.573,12.123.45,16.6,4.232,8.1,6.11-.188,7.837-23.177.712-26.175-5.658Z" transform="translate(-2000.061 -1390.672)" fill="#a8d29f"/>
          <g id="Grupo_4526" data-name="Grupo 4526" transform="translate(2.205 10.66)">
            <path id="Trazado_10996" data-name="Trazado 10996" d="M2068.252,1414.8s-44.612,14.6-49.665,30.78a33.924,33.924,0,0,1-4.2,15.538l.01,3.189s4.644-10.86,7.191-12.357C2021.585,1451.95,2011.545,1437.946,2068.252,1414.8Z" transform="translate(-2010.26 -1414.799)" fill="#82b378"/>
            <path id="Trazado_10997" data-name="Trazado 10997" d="M2009.174,1517.119s-6.854,10.479-2.887,23.2l1.77-.482s-1.764-14.017,1.817-21.08S2009.174,1517.119,2009.174,1517.119Z" transform="translate(-2005.052 -1470.801)" fill="#82b378"/>
          </g>
        </g>
        <g id="Grupo_4529" data-name="Grupo 4529" transform="translate(5.836 0)">
          <path id="Trazado_10998" data-name="Trazado 10998" d="M1868.8,1388.215s20.987-11.84,11.125-27.787c0,0-7.88-9.786-16.3-12.282,0,0,4.56,23.813.078,24.388s-3.169-26.9-3.169-26.9-22.179-10.582-30.866-9.714c0,0,13.809,23.224,9.322,22.677s-19.979-24.044-19.979-24.044-22.719-4.133-26.321,9.334,2.307,20.176,5.673,21.007,24.951.481,24.4,3.286-15.115,7.337-23.252,4.839c0,0,9.041,22.117,20.81,20.959s15.391-8.459,22.677-9.043,12.619,1.362,8.981,3.336-15.976.694-21.848,5.717-10.626,8.122.313,10.33,30.558.744,34.456-7.678Z" transform="translate(-1791.57 -1333.953)" fill="#a8d29f"/>
          <g id="Grupo_4528" data-name="Grupo 4528" transform="translate(11.51 14.104)">
            <path id="Trazado_10999" data-name="Trazado 10999" d="M1817.621,1365.875s58.928,18.875,65.723,40.158a44.723,44.723,0,0,0,5.671,20.446l.013,4.2s-6.212-14.277-9.582-16.229C1879.446,1414.455,1892.563,1395.912,1817.621,1365.875Z" transform="translate(-1817.621 -1365.875)" fill="#82b378"/>
            <path id="Trazado_11000" data-name="Trazado 11000" d="M1975.652,1499.75s9.122,13.757,4,30.555l-2.338-.62s2.209-18.491-2.571-27.772S1975.652,1499.75,1975.652,1499.75Z" transform="translate(-1904.257 -1439.146)" fill="#82b378"/>
          </g>
        </g>
      </g>
      <g id="Grupo_4536" data-name="Grupo 4536" transform="translate(1796.069 1255.027)">
        <g id="Grupo_4535" data-name="Grupo 4535">
          <g id="Grupo_4531" data-name="Grupo 4531" transform="translate(0 69.398)">
            <path id="Trazado_11001" data-name="Trazado 11001" d="M2052.127,1593.087H1836.657c-30.04-34.365-22.106-80.788,17.767-119.939,5.013-4.923,14.632-8.415,25-10.878,19.114-4.538,40.791-5.583,40.96-5.675.063-.024,11.454-9.26,18.308-17.56,21.3-25.781,39.411-23.566,39.411-23.566,21.706-4.224,40.22-5.464,53.946,2.176,0,0,0,0,0,.008,12.715,7.088,21.324,21.805,24.544,48.852.611,5.114,1.03,10.67,1.246,16.7.787,21.95,5.114,41.474,7.682,58.007a0,0,0,0,1,0,0C2069.257,1565.163,2071.886,1583.376,2052.127,1593.087Z" transform="translate(-1818.442 -1412.101)" fill="#ecf2fb"/>
          </g>
          <path id="Trazado_11002" data-name="Trazado 11002" d="M2095.592,1445.22c-13.171,7.174-14.628,30.809-35.241,36.911s-55.607,5.548-75.455,27.079c-19.149,20.773-40.268-32.076-31.174-46.941,19.114-4.538,40.791-5.583,40.96-5.675.063-.024,11.454-9.26,18.308-17.56,21.3-25.781,39.411-23.566,39.411-23.566,21.707-4.224,40.22-5.464,53.947,2.176,0,0,0,0,0,.008C2121.471,1433.276,2108.763,1438.046,2095.592,1445.22Z" transform="translate(-1892.737 -1342.704)" fill="#c6d9f5"/>
          <g id="Grupo_4534" data-name="Grupo 4534" transform="translate(24.795)">
            <path id="Trazado_11003" data-name="Trazado 11003" d="M1954.04,1708.155s3.794,10.061,3.008,13.8.525,10.978-.995,14.222-4.235,7.96-1.61,9.144c1,.449,12.541-8.565,13.2-11.216s1.146-10.467,3.348-14.717.334-7.666-2.872-9.216-7.7-10.08-7.7-10.08Z" transform="translate(-1918.539 -1503.456)" fill="#fcd3b7"/>
            <path id="Trazado_11004" data-name="Trazado 11004" d="M2001.169,1501.3s-63.043-3.891-71.166,4.47c-8.561,8.811,5.384,95.466,5.384,95.466s17.1.491,18.441-4.037c0,0-3.208-41.956-.54-49.214s.976-17.3.976-17.3,33.45,5,44.06,2.451S2001.169,1501.3,2001.169,1501.3Z" transform="translate(-1903.958 -1391.991)" fill="#070b41"/>
            <path id="Trazado_11005" data-name="Trazado 11005" d="M2079.566,1397.713c0,.052-9.291,21.685-13.824,23.99s-20.939,21.172-24.458,20.844,3.633,3.854,3.633,3.854,29.167-14.23,30.835-15.057,10.448-15.285,11.651-22.623S2079.566,1397.713,2079.566,1397.713Z" transform="translate(-1967.081 -1334.672)" fill="#fce2d0"/>
            <path id="Trazado_11006" data-name="Trazado 11006" d="M1898.426,1753.342s-3.593,10.134-6.606,12.483-6.682,8.727-9.935,10.224-8.372,3.349-7.13,5.948c.471.986,15.108,1.548,17.318-.055s7.63-7.258,12.054-9.084,5.2-5.641,3.751-8.895.624-12.667.624-12.667Z" transform="translate(-1874.563 -1532.037)" fill="#fcd3b7"/>
            <path id="Trazado_11007" data-name="Trazado 11007" d="M2152.039,1308.46c-1.347-1.555,32.794,2.279,37.335,19.721,0,0,26.223-20.668,2.169-38.087-8.327-6.029-9.166-12.468-10.375-18.357s-9.519-22.819-23.934-14.411c0,0-6.587.032-10.753,3.644C2137.007,1269.185,2126.666,1321.388,2152.039,1308.46Z" transform="translate(-2020.568 -1255.027)" fill="#163560"/>
            <path id="Trazado_11008" data-name="Trazado 11008" d="M2025.421,1509.367s-68.541,6.993-74.561,13.991-29.666,97.983-29.666,97.983,7,3.9,13.352.25c0,0,18.123-30.868,26.143-40.56s11.013-39.606,12.337-39.912,44.279,5.979,59.066-5.38S2025.421,1509.367,2025.421,1509.367Z" transform="translate(-1900.592 -1396.996)" fill="#233862"/>
            <path id="Trazado_11009" data-name="Trazado 11009" d="M2154.164,1362.46a71.413,71.413,0,0,0-37.082-3.951c-4.237.684-8.051,2.078-11.081,7.069-4.278,7.05-6.28,10.837-6.28,10.837s.413,3.267,6.261,5.866c-1.593,5.845,1.46,16.052-1.346,20.015s-20.224,13.79-21.084,19.253c-1.579,10.037,29.775,28.222,39.125,26.275C2149.575,1442.227,2167.823,1370.143,2154.164,1362.46Z" transform="translate(-1991.186 -1312.299)" fill="#f46270"/>
            <path id="Trazado_11010" data-name="Trazado 11010" d="M2192.385,1289.052s3.222-6.343,3.647-11.546c.3-3.715-2.838-17.081-16.261-13.844a18.565,18.565,0,0,0-7.394,3.624c-2.766,2.275-6.623,6.987-.738,18.353l1.616,3.875Z" transform="translate(-2038.665 -1259.567)" fill="#163560"/>
            <g id="Grupo_4532" data-name="Grupo 4532" transform="translate(122.393 9.308)">
              <path id="Trazado_11011" data-name="Trazado 11011" d="M2180.079,1345.889c-1.357,1.432-.823,6.192,5.531,5.834,4.17-.235,13.109-5.4,12.271-8.958-.4-1.694-3.606-6.062-4.363-16.112l-.758.213-12.731,3.582s.616,4.047.927,7.881C2181.219,1341.546,2180.639,1345.3,2180.079,1345.889Z" transform="translate(-2167.15 -1304.315)" fill="#fcd3b7"/>
              <path id="Trazado_11012" data-name="Trazado 11012" d="M2180.736,1330.715s.616,4.047.927,7.881c7.221-.775,10.525-7.68,11.8-11.462Z" transform="translate(-2167.857 -1304.584)" fill="#f4a269"/>
              <path id="Trazado_11013" data-name="Trazado 11013" d="M2166.191,1310s16.658-4.2,13.885-14.53-2.491-17.835-13.244-15.593-11.752,6.738-11.666,10.412S2161.786,1310.829,2166.191,1310Z" transform="translate(-2153.582 -1277.986)" fill="#fce2d0"/>
              <path id="Trazado_11014" data-name="Trazado 11014" d="M2164.326,1279.773s5.6,10.656,16.15,11.8c6.175.67,7.871,4.738,7.871,4.738s-1.856-11.632-4.964-18.745C2183.383,1277.566,2166.2,1273.081,2164.326,1279.773Z" transform="translate(-2158.697 -1276.095)" fill="#163560"/>
              <path id="Trazado_11015" data-name="Trazado 11015" d="M2159.124,1285.411s-3.647,3.724-4.771,6.349c-1.666,3.888,1.587,12.077,2.931,13.841,0,0-7.757-13.151-5.168-18.847C2154.86,1280.714,2159.124,1285.411,2159.124,1285.411Z" transform="translate(-2151.586 -1280.324)" fill="#163560"/>
            </g>
            <path id="Trazado_11016" data-name="Trazado 11016" d="M2025.9,1501.526s-3.316,3.514-3.72,3.7c-2.194,1.027-4.964.43-6.3.767s-1.108-.5-.121-1.173,3.418-.413,2.424-.659-6.357-1.245-8.376-.7c-3.2.856-5.718-.148-5.919-.475s7.3-3.995,9.44-3.872,8.3-.175,8.3-.175Z" transform="translate(-1946.746 -1391.175)" fill="#fce2d0"/>
            <path id="Trazado_11017" data-name="Trazado 11017" d="M2217.611,1383.223s20.674,46.665,14.933,53.517c-5.7,6.8-45.481-1.462-45.481-1.462l1.225-4.333s29.255-1.791,31.34-2.38c3-.848-14.823-33.576-14.823-33.576Z" transform="translate(-2048.996 -1326.584)" fill="#fce2d0"/>
            <path id="Trazado_11018" data-name="Trazado 11018" d="M2222.788,1366.824c.5.012,6.675,2.038,11.113,10.818,4.359,8.624,5.948,12.811,5.948,12.811s-19.324,14.985-27.013,9.472S2215.7,1366.642,2222.788,1366.824Z" transform="translate(-2061.883 -1317.43)" fill="#f46270"/>
            <path id="Trazado_11019" data-name="Trazado 11019" d="M2180.146,1484.478s-3.321-2.155-4.665-3.333-9.124-2.137-9.122-1.349,4.535,1.856,5.03,2.642,3.261,4.026,5.625,4.019A3.366,3.366,0,0,0,2180.146,1484.478Z" transform="translate(-2037.439 -1380.33)" fill="#ffb27d"/>
            <g id="Grupo_4533" data-name="Grupo 4533" transform="translate(114.847 87.912)">
              <path id="Trazado_11020" data-name="Trazado 11020" d="M2155.637,1477.59l-8.916-1.268a3.9,3.9,0,0,1-3.017-2.486l-4.923-17.407c-.335-1.184.474-1.99,1.805-1.8l8.917,1.268a3.9,3.9,0,0,1,3.017,2.486l4.922,17.407C2157.778,1476.974,2156.969,1477.779,2155.637,1477.59Z" transform="translate(-2136.85 -1454.339)" fill="#1f4a91"/>
              <path id="Trazado_11021" data-name="Trazado 11021" d="M2151.438,1476.993l-8.917-1.268a3.9,3.9,0,0,1-3.017-2.486l-4.922-17.407c-.335-1.184.473-1.989,1.805-1.8l8.916,1.267a3.9,3.9,0,0,1,3.017,2.486l4.923,17.407C2153.579,1476.377,2152.77,1477.183,2151.438,1476.993Z" transform="translate(-2134.507 -1454.006)" fill="#233862"/>
              <path id="Trazado_11022" data-name="Trazado 11022" d="M2138.083,1458.138c-.139-.492.2-.826.75-.748a1.618,1.618,0,0,1,1.253,1.032c.139.491-.2.826-.75.748A1.62,1.62,0,0,1,2138.083,1458.138Z" transform="translate(-2136.485 -1455.888)" fill="#1f4a91"/>
            </g>
            <path id="Trazado_11023" data-name="Trazado 11023" d="M2171.822,1492.384a61.331,61.331,0,0,1-7.543-.273c-1.513-.358-5.378-5.153-4.348-6.353.649-.757,4.253.6,5.971.595s6.179-2.487,9.231,2.593C2175.475,1489.517,2171.822,1492.384,2171.822,1492.384Z" transform="translate(-2033.755 -1383.689)" fill="#fce2d0"/>
          </g>
          <path id="Trazado_11024" data-name="Trazado 11024" d="M2123.619,1527.022s-6.492,6.084-33.664,6.958-62.593,30.9-62.924,39.377,54.711,21.357,55.562,20.144,34.9-30.465,34.9-30.465Z" transform="translate(-1934.873 -1406.851)" fill="#c6d9f5"/>
          <path id="Trazado_11025" data-name="Trazado 11025" d="M2237.073,1609.943c-30.229-37.732-92.325,13.707-108.4,12.255-14.774-1.335,28.811-52.908,82.861-60.582,21.849-3.1,16.616-25.681,16.606-26.378.611,5.114,1.03,10.67,1.246,16.7C2230.178,1573.886,2234.5,1593.411,2237.073,1609.943Z" transform="translate(-1989.987 -1411.437)" fill="#c6d9f5"/>
        </g>
      </g>
    </g>
    <path id="Trazado_11242" data-name="Trazado 11242" d="M470.621,1826.912l-249.392-.8a6.953,6.953,0,0,1-.3-2.843v-1.456a6.937,6.937,0,0,1,.3-2.842l249.392.8a6.956,6.956,0,0,1,.3,2.843v1.457A6.944,6.944,0,0,1,470.621,1826.912Z" transform="translate(-982.425 -1199.966)" fill="#a92036"/>
  </g>
</svg>
