<svg xmlns="http://www.w3.org/2000/svg" width="15.206" height="11.63" viewBox="0 0 15.206 11.63">
  <g id="Grupo_4596" data-name="Grupo 4596" transform="translate(140 -32)">
    <g id="_902808" data-name="902808" transform="translate(-140 32)">
      <g id="Grupo_219" data-name="Grupo 219" transform="translate(0 0)">
        <g id="Grupo_218" data-name="Grupo 218">
          <path id="Trazado_10605" data-name="Trazado 10605" d="M15.136,62.181a10.64,10.64,0,0,0-15.047-.02l-.02.02a.242.242,0,0,0,.343.343,10.156,10.156,0,0,1,14.362-.018l.018.018a.243.243,0,1,0,.344-.343Z" transform="translate(-0.001 -59.055)" fill="#8696a9"/>
        </g>
      </g>
      <g id="Grupo_221" data-name="Grupo 221" transform="translate(1.369 1.939)">
        <g id="Grupo_220" data-name="Grupo 220">
          <path id="Trazado_10606" data-name="Trazado 10606" d="M57.621,125.66a8.71,8.71,0,0,0-12.328,0,.242.242,0,0,0,.343.343,8.226,8.226,0,0,1,11.633-.01l.01.01a.242.242,0,0,0,.343-.343Z" transform="translate(-45.225 -123.103)" fill="#8696a9"/>
        </g>
      </g>
      <g id="Grupo_223" data-name="Grupo 223" transform="translate(2.737 3.877)">
        <g id="Grupo_222" data-name="Grupo 222">
          <path id="Trazado_10607" data-name="Trazado 10607" d="M100.062,189.093a6.769,6.769,0,0,0-9.587,0,.242.242,0,0,0,.343.342,6.284,6.284,0,0,1,8.887-.013l.013.013a.242.242,0,0,0,.343-.342Z" transform="translate(-90.404 -187.103)" fill="#8696a9"/>
        </g>
      </g>
      <g id="Grupo_225" data-name="Grupo 225" transform="translate(4.109 5.815)">
        <g id="Grupo_224" data-name="Grupo 224">
          <path id="Trazado_10608" data-name="Trazado 10608" d="M142.621,252.524a4.839,4.839,0,0,0-6.849,0,.242.242,0,0,0,.343.342,4.354,4.354,0,0,1,6.158-.006l.006.006a.242.242,0,0,0,.343-.342Z" transform="translate(-135.704 -251.104)" fill="#8696a9"/>
        </g>
      </g>
      <g id="Grupo_227" data-name="Grupo 227" transform="translate(5.472 7.753)">
        <g id="Grupo_226" data-name="Grupo 226">
          <path id="Trazado_10609" data-name="Trazado 10609" d="M184.9,315.959l-.006-.006a2.909,2.909,0,0,0-4.111,0,.242.242,0,1,0,.336.349l.006-.006a2.425,2.425,0,0,1,3.428,0,.242.242,0,0,0,.347-.338Z" transform="translate(-180.708 -315.103)" fill="#8696a9"/>
        </g>
      </g>
      <g id="Grupo_229" data-name="Grupo 229" transform="translate(6.633 9.7)">
        <g id="Grupo_228" data-name="Grupo 228">
          <path id="Trazado_10610" data-name="Trazado 10610" d="M220.7,379.686h0a.99.99,0,0,0-1.37,0,.969.969,0,1,0,1.37,0Zm-.686,1.169a.484.484,0,1,1,.484-.484A.484.484,0,0,1,220.015,380.855Z" transform="translate(-219.046 -379.411)" fill="#8696a9"/>
        </g>
      </g>
    </g>
  </g>
</svg>
