<svg xmlns="http://www.w3.org/2000/svg" width="21.344" height="12.742" viewBox="0 0 21.344 12.742">
  <g id="hotel_1_" data-name="hotel (1)" transform="translate(0 -103.171)">
    <g id="Grupo_19392" data-name="Grupo 19392" transform="translate(4.208 110.978)">
      <g id="Grupo_19391" data-name="Grupo 19391" transform="translate(0 0)">
        <path id="Trazado_11721" data-name="Trazado 11721" d="M117.721,290.45a.35.35,0,0,0-.35.35v3.107a.778.778,0,0,1-.778.778H101.285a.35.35,0,1,0,0,.7h15.308a1.479,1.479,0,0,0,1.478-1.478V290.8A.35.35,0,0,0,117.721,290.45Z" transform="translate(-100.935 -290.45)" fill="#8696a9"/>
      </g>
    </g>
    <g id="Grupo_19394" data-name="Grupo 19394" transform="translate(0 103.171)">
      <g id="Grupo_19393" data-name="Grupo 19393" transform="translate(0 0)">
        <path id="Trazado_11722" data-name="Trazado 11722" d="M19.866,103.171H1.478A1.479,1.479,0,0,0,0,104.649v9.787a1.479,1.479,0,0,0,1.478,1.478H3.391a.35.35,0,1,0,0-.7H1.478a.778.778,0,0,1-.778-.778v-9.787a.778.778,0,0,1,.778-.778H19.866a.778.778,0,0,1,.778.778v5.513a.35.35,0,0,0,.7,0v-5.513A1.479,1.479,0,0,0,19.866,103.171Z" transform="translate(0 -103.171)" fill="#8696a9"/>
      </g>
    </g>
    <g id="Grupo_19396" data-name="Grupo 19396" transform="translate(6.482 106.256)">
      <g id="Grupo_19395" data-name="Grupo 19395" transform="translate(0 0)">
        <path id="Trazado_11723" data-name="Trazado 11723" d="M156.99,177.168a1.494,1.494,0,0,0-1.492,1.492v3.589a1.492,1.492,0,1,0,2.984,0V178.66A1.494,1.494,0,0,0,156.99,177.168Zm.792,5.081a.792.792,0,1,1-1.584,0V178.66a.792.792,0,1,1,1.584,0v3.589Z" transform="translate(-155.498 -177.168)" fill="#8696a9"/>
      </g>
    </g>
    <g id="Grupo_19398" data-name="Grupo 19398" transform="translate(2.714 111.352)">
      <g id="Grupo_19397" data-name="Grupo 19397" transform="translate(0 0)">
        <path id="Trazado_11724" data-name="Trazado 11724" d="M65.453,299.408a.35.35,0,0,0-.35.35v.777a.35.35,0,1,0,.7,0v-.777A.35.35,0,0,0,65.453,299.408Z" transform="translate(-65.103 -299.408)" fill="#8696a9"/>
      </g>
    </g>
    <g id="Grupo_19400" data-name="Grupo 19400" transform="translate(2.714 106.256)">
      <g id="Grupo_19399" data-name="Grupo 19399" transform="translate(0 0)">
        <path id="Trazado_11725" data-name="Trazado 11725" d="M67.737,177.168a.35.35,0,0,0-.35.35v2.619H65.8v-2.619a.35.35,0,1,0-.7,0v4.162a.35.35,0,1,0,.7,0v-.843h1.584v2.554a.35.35,0,1,0,.7,0v-5.872A.35.35,0,0,0,67.737,177.168Z" transform="translate(-65.103 -177.168)" fill="#8696a9"/>
      </g>
    </g>
    <g id="Grupo_19402" data-name="Grupo 19402" transform="translate(10.805 108.551)">
      <g id="Grupo_19401" data-name="Grupo 19401" transform="translate(0 0)">
        <path id="Trazado_11726" data-name="Trazado 11726" d="M259.541,232.229a.35.35,0,0,0-.35.35v3.577a.35.35,0,1,0,.7,0v-3.577A.35.35,0,0,0,259.541,232.229Z" transform="translate(-259.191 -232.229)" fill="#8696a9"/>
      </g>
    </g>
    <g id="Grupo_19404" data-name="Grupo 19404" transform="translate(9.663 106.256)">
      <g id="Grupo_19403" data-name="Grupo 19403" transform="translate(0 0)">
        <path id="Trazado_11727" data-name="Trazado 11727" d="M234.433,177.168h-2.284a.35.35,0,1,0,0,.7h.792v1.012a.35.35,0,1,0,.7,0v-1.012h.792a.35.35,0,0,0,0-.7Z" transform="translate(-231.799 -177.168)" fill="#8696a9"/>
      </g>
    </g>
    <g id="Grupo_19406" data-name="Grupo 19406" transform="translate(16.579 106.256)">
      <g id="Grupo_19405" data-name="Grupo 19405" transform="translate(0 0)">
        <path id="Trazado_11728" data-name="Trazado 11728" d="M400.346,183.04h-1.934v-5.522a.35.35,0,1,0-.7,0v5.872a.35.35,0,0,0,.35.35h2.284a.35.35,0,1,0,0-.7Z" transform="translate(-397.712 -177.168)" fill="#8696a9"/>
      </g>
    </g>
    <g id="Grupo_19408" data-name="Grupo 19408" transform="translate(13.121 106.256)">
      <g id="Grupo_19407" data-name="Grupo 19407" transform="translate(0 0)">
        <path id="Trazado_11729" data-name="Trazado 11729" d="M317.39,183.041h-1.934v-2.236H316.9a.35.35,0,0,0,0-.7h-1.444v-2.236h1.934a.35.35,0,1,0,0-.7h-2.284a.35.35,0,0,0-.35.35v5.872a.35.35,0,0,0,.35.35h2.284a.35.35,0,1,0,0-.7Z" transform="translate(-314.756 -177.169)" fill="#8696a9"/>
      </g>
    </g>
    <g id="Grupo_19410" data-name="Grupo 19410" transform="translate(19.494 104.479)">
      <g id="Grupo_19409" data-name="Grupo 19409" transform="translate(0 0)">
        <path id="Trazado_11730" data-name="Trazado 11730" d="M468.159,134.6a.35.35,0,1,0,.151.38A.353.353,0,0,0,468.159,134.6Z" transform="translate(-467.62 -134.546)" fill="#8696a9"/>
      </g>
    </g>
    <g id="Grupo_19412" data-name="Grupo 19412" transform="translate(19.494 113.907)">
      <g id="Grupo_19411" data-name="Grupo 19411">
        <path id="Trazado_11731" data-name="Trazado 11731" d="M468.158,360.763a.35.35,0,1,0,.151.38A.353.353,0,0,0,468.158,360.763Z" transform="translate(-467.62 -360.709)" fill="#8696a9"/>
      </g>
    </g>
    <g id="Grupo_19414" data-name="Grupo 19414" transform="translate(1.151 104.48)">
      <g id="Grupo_19413" data-name="Grupo 19413" transform="translate(0 0)">
        <path id="Trazado_11732" data-name="Trazado 11732" d="M27.735,134.647a.35.35,0,1,0,.56.343A.353.353,0,0,0,27.735,134.647Z" transform="translate(-27.602 -134.574)" fill="#8696a9"/>
      </g>
    </g>
    <g id="Grupo_19416" data-name="Grupo 19416" transform="translate(1.153 113.907)">
      <g id="Grupo_19415" data-name="Grupo 19415" transform="translate(0 0)">
        <path id="Trazado_11733" data-name="Trazado 11733" d="M28.2,360.761a.35.35,0,1,0,.158.377A.354.354,0,0,0,28.2,360.761Z" transform="translate(-27.668 -360.711)" fill="#8696a9"/>
      </g>
    </g>
  </g>
</svg>
