<svg xmlns="http://www.w3.org/2000/svg" xmlns:xlink="http://www.w3.org/1999/xlink" width="315.333" height="297.208" viewBox="0 0 315.333 297.208"><defs><style>.a{isolation:isolate;}.b,.u{fill:url(#a);}.c{fill:url(#b);}.d,.g{fill:#fff;}.e{fill:#81ba60;}.f{fill:url(#c);}.g,.o,.p,.q,.r,.s,.t,.u,.v,.w{fill-rule:evenodd;}.h{fill:url(#d);}.i{fill:url(#e);}.j{fill:#e2e0e3;}.k,.o{fill:#cc2334;}.l{fill:#932a36;}.m{fill:#c13340;}.n,.q{fill:#f46270;}.aa,.p{fill:#dd5057;}.r{fill:url(#f);}.ab,.s{fill:#d9eeff;}.ad,.t{fill:#3e5384;}.v{fill:url(#h);}.w{fill:url(#i);}.x{fill:#ffbba6;}.y{fill:#a34829;}.z{fill:#c47353;}.ac{fill:url(#n);}.ae{fill:url(#p);}.af{fill:url(#z);}.ag{fill:#824940;}</style><linearGradient id="a" y1="0.5" x2="1" y2="0.5" gradientUnits="objectBoundingBox"><stop offset="0" stop-color="#d4e3f7"/><stop offset="0.688" stop-color="#b8d0f2"/><stop offset="1" stop-color="#bad1f2"/></linearGradient><linearGradient id="b" x1="0.396" y1="0.862" x2="0.591" y2="0.183" gradientUnits="objectBoundingBox"><stop offset="0" stop-color="#fff"/><stop offset="1" stop-color="#bad1f2"/></linearGradient><linearGradient id="c" x1="0.757" y1="0.209" x2="0.262" y2="0.769" gradientUnits="objectBoundingBox"><stop offset="0.013" stop-color="#aad362"/><stop offset="0.82" stop-color="#629400"/></linearGradient><linearGradient id="d" x1="0.381" y1="0.095" x2="0.768" y2="1.413" xlink:href="#a"/><linearGradient id="e" x1="0" y1="0.5" x2="1" y2="0.5" xlink:href="#b"/><linearGradient id="f" x1="-0.108" y1="0.065" x2="0.625" y2="0.589" xlink:href="#a"/><linearGradient id="h" x1="-0.843" y1="0.065" x2="-0.11" y2="0.589" xlink:href="#a"/><linearGradient id="i" x1="-1.029" x2="-0.029" xlink:href="#a"/><linearGradient id="n" x1="1.798" y1="-0.039" x2="-0.717" y2="1.005" gradientUnits="objectBoundingBox"><stop offset="0" stop-color="#fff"/><stop offset="0.266" stop-color="#fbfcfe"/><stop offset="0.495" stop-color="#f1f5fc"/><stop offset="0.71" stop-color="#dfe9f9"/><stop offset="0.916" stop-color="#c6d9f4"/><stop offset="1" stop-color="#bad1f2"/></linearGradient><linearGradient id="p" x1="1.306" y1="-0.162" x2="-1.8" y2="2.39" xlink:href="#b"/><linearGradient id="z" x1="0.5" y1="0.266" x2="0.5" y2="1.649" xlink:href="#b"/></defs><g transform="translate(-92.333 -101.396)"><g class="a"><path class="b" d="M407.667,268.774V279.26l-157.34,91.23L250.681,360Z"/><path class="c" d="M250.681,360l-.355,10.486L92.333,279.273l.355-10.486Z"/><path class="d" d="M407.667,268.774,250.681,360,92.688,268.787l156.985-91.23Z"/></g><path class="e" d="M395.963,268.775l-145.319,84.45L104.392,268.787l145.319-84.45Z"/><circle class="f" cx="13.484" cy="13.484" r="13.484" transform="translate(137.481 234.163)"/><path class="g" d="M171.052,278.652,139.33,294.6l27.3,14.138,28.334-16.585"/><g class="a"><path class="h" d="M340.625,183.948l-.2,87.837-90.335,52.5.2-87.837Z"/><path class="i" d="M249.71,131.458l-90.335,52.5-.2,87.837,90.915,52.49.2-87.837,90.335-52.5Z"/></g><g class="a"><path class="j" d="M247.8,239.628l.005,2.3,2.383-1.376-.005-2.3Z"/></g><path class="k" d="M151.009,185.144l102.924-59.813L301.92,101.4,199,161.209Z"/><path class="l" d="M246.691,240.387l102.924-59.813-.044,9.622L246.647,250.009Z"/><path class="m" d="M199,161.209,301.92,101.4l47.695,79.178L246.691,240.387Z"/><path class="n" d="M199,161.209l47.695,79.178-.044,9.622-47.7-79.178-47.987,23.935.044-9.622Z"/><path class="o" d="M195.121,232.234l-4.079,2.355-23.4-13.511,4.079-2.355Z"/><path class="p" d="M170.385,225.833v55.38l19.137,11.049v-55.38Z"/><path class="q" d="M173.13,230.587v14.985l13.969,8.065V238.652Z"/><path class="o" d="M170.385,225.833v56.846l1.334-.77V226.6Z"/><path class="o" d="M173.13,246.572l1.2-.695V231.283l-1.2-.7Z"/><path class="o" d="M187.1,254.637l-13.969-8.065,1.2-.7,12.765,7.37Z"/><path class="q" d="M173.13,262.3V277.28l13.969,8.065V270.361Z"/><path class="o" d="M173.13,278.28l1.2-.7V262.991l-1.2-.7Z"/><path class="o" d="M187.1,286.345,173.13,278.28l1.2-.7,12.765,7.37Z"/><path class="q" d="M167.64,221.078l23.4,13.511V294.6L188.3,293.02V236.174l-17.912-10.342v56.846l-2.745-1.585Z"/><path class="o" d="M194.961,232.142l-4.079,2.355v51.081l.16,9.027,3.919-2.447Z"/><path class="r" d="M299.446,233.074v37.691l-21.257,12.223V245.344Z"/><path class="g" d="M297.329,236.74v32.8l-1.881-1.035V237.826Z"/><path class="s" d="M280.306,279.328l16.945-9.783-1.8-1.04-15.142,8.742Z"/><path class="g" d="M275.367,243.81l2.822,1.629,21.257-12.273-2.822-1.629Z"/><path class="g" d="M275.367,243.81l2.822,1.629v37.548l-2.822-1.629Z"/><path class="t" d="M292.668,239.43h0l2.779-1.6V268.5l-15.141,8.742V246.566Z"/><path class="g" d="M280.306,259.186l16.082-9.283h0l-.941-.543L280.306,258.1Z"/><path class="u" d="M296.388,249.9v1.737l-16.083,9.237v-1.692Z"/><path class="v" d="M204.338,239.979V277.67L225.6,289.892V252.249Z"/><path class="g" d="M206.455,243.645v32.8l1.881-1.036V244.73Z"/><path class="s" d="M223.479,286.233l-16.945-9.783,1.8-1.04,15.142,8.742Z"/><path class="g" d="M228.418,250.715l-2.822,1.629-21.257-12.273,2.823-1.629Z"/><path class="g" d="M228.418,250.715l-2.822,1.629v37.548l2.822-1.629Z"/><path class="t" d="M211.116,246.335h0l-2.779-1.6v30.679l15.141,8.742v-30.68Z"/><path class="g" d="M223.479,266.091,207.4,256.808h0l.941-.543,15.142,8.743Z"/><path class="w" d="M207.4,256.808v1.737l16.083,9.237v-1.692Z"/><path class="r" d="M330.277,216.8v37.691L309.02,266.714V229.07Z"/><path class="g" d="M328.16,220.466v32.8l-1.881-1.036V221.551Z"/><path class="s" d="M311.137,263.054l16.945-9.783-1.8-1.04-15.142,8.742Z"/><path class="g" d="M306.2,227.536l2.822,1.629,21.257-12.273-2.823-1.629Z"/><path class="g" d="M306.2,227.536l2.822,1.629v37.548l-2.822-1.629Z"/><path class="t" d="M323.5,223.156h0l2.779-1.6v30.679l-15.141,8.742v-30.68Z"/><path class="g" d="M311.137,242.912l16.082-9.283h0l-.941-.543-15.142,8.743Z"/><path class="u" d="M327.22,233.629v1.737L311.137,244.6v-1.692Z"/><path class="t" d="M176.467,255.509a1.668,1.668,0,1,1-1.668-1.668A1.668,1.668,0,0,1,176.467,255.509Z"/><g class="a"><path class="b" d="M348.308,362.444v9.109L301.656,398.6l.105-9.109Z"/><path class="i" d="M301.761,389.495l-.105,9.109L254.81,371.557l.105-9.109Z"/><path class="d" d="M348.308,362.444l-46.547,27.05-46.846-27.047,46.547-27.05Z"/></g><path class="e" d="M339.289,362.444,301.732,384.27l-37.8-21.822,37.557-21.826Z"/><path class="x" d="M296.525,362.167V289.179l3.6,2.077v73Z"/><path class="y" d="M303.718,362.18l-3.6,2.076v-73l3.6-2.063Z"/><path class="z" d="M300.122,287.1l-3.6,2.076,3.6,2.077,3.6-2.063Z"/><path class="k" d="M272.942,283.378l3.605-2.071,50.35,29.069-.006,41.531-3.6,2.077-.113-42.16Z"/><path class="aa" d="M272.951,324.91l50.344,29.073-.113-42.16-50.239-28.445Z"/><path class="ab" d="M243.12,165.145l16.113-9.285,16.113,9.3-16.113,9.286Z"/><path class="ac" d="M243.12,177.566l16.113,21.688V174.448l-16.113-9.3Z"/><path class="b" d="M275.346,189.952l-16.113,9.3V174.448l16.113-9.286Z"/><path class="ad" d="M248.481,165.148l10.752-6.2,10.752,6.207-10.752,6.2Z"/><path class="ae" d="M246.67,348.116V315.132l3.6,2.077v33Z"/><path class="b" d="M253.863,348.13l-3.6,2.076v-33l3.6-2.063Z"/><path class="d" d="M250.266,313.055l-3.6,2.076,3.6,2.077,3.6-2.063Z"/><path class="ae" d="M234.317,341.639V308.654l3.6,2.077v33Z"/><path class="b" d="M241.51,341.653l-3.6,2.076v-33l3.6-2.063Z"/><path class="d" d="M237.913,306.578l-3.6,2.076,3.6,2.077,3.6-2.063Z"/><path class="ae" d="M222.167,334.936V301.951l3.6,2.077v33Z"/><path class="b" d="M229.36,334.95l-3.6,2.076v-33l3.6-2.063Z"/><path class="d" d="M225.764,299.875l-3.6,2.076,3.6,2.077,3.6-2.063Z"/><path class="ae" d="M210.128,327.216V294.231l3.6,2.077v33Z"/><path class="b" d="M217.321,327.23l-3.6,2.076v-33l3.6-2.063Z"/><path class="d" d="M213.724,292.155l-3.6,2.076,3.6,2.077,3.6-2.063Z"/><path class="ae" d="M198.711,320.513V287.528l3.6,2.077v33Z"/><path class="b" d="M205.9,320.527l-3.6,2.076v-33l3.6-2.063Z"/><path class="d" d="M202.308,285.452l-3.6,2.076,3.6,2.077,3.6-2.063Z"/><path class="af" d="M191.363,300.08v-2.824L253.638,333.4v2.827Z"/><path class="b" d="M193.81,295.851l-2.446,1.405L253.638,333.4l2.446-1.407Z"/><path class="d" d="M256.088,334.81l0-2.822-2.446,1.407v2.827Z"/><path class="ae" d="M140.161,287.095V254.11l3.6,2.077v33Z"/><path class="b" d="M147.355,287.109l-3.6,2.076v-33l3.6-2.063Z"/><path class="d" d="M143.758,252.034l-3.6,2.076,3.6,2.077,3.6-2.063Z"/><path class="ae" d="M127.808,280.618V247.633l3.6,2.077v33Z"/><path class="b" d="M135,280.632l-3.6,2.076v-33l3.6-2.063Z"/><path class="d" d="M131.4,245.557l-3.6,2.076,3.6,2.077,3.6-2.063Z"/><path class="ae" d="M115.659,273.914V240.93l3.6,2.077v33Z"/><path class="b" d="M122.852,273.928l-3.6,2.076v-33l3.6-2.063Z"/><path class="d" d="M119.255,238.853l-3.6,2.076,3.6,2.077,3.6-2.063Z"/><path class="af" d="M108.822,252.83v-2.824l38.308,22.368V275.2Z"/><path class="b" d="M111.268,248.6l-2.446,1.405,38.308,22.368,2.446-1.407Z"/><path class="d" d="M149.58,273.789l0-2.822-2.446,1.407V275.2Z"/><path class="ag" d="M371.543,273.977h0a1.413,1.413,0,0,1-1.413-1.413V232.838h2.826v39.726A1.413,1.413,0,0,1,371.543,273.977Z"/><circle class="f" cx="23.235" cy="23.235" r="23.235" transform="matrix(0.923, -0.385, 0.385, 0.923, 341.148, 213.932)"/><circle class="f" cx="13.484" cy="13.484" r="13.484" transform="translate(309.811 275.695)"/><circle class="f" cx="13.484" cy="13.484" r="13.484" transform="translate(332.41 265.694) rotate(-19.456)"/></g></svg>