<svg id="house-things" xmlns="http://www.w3.org/2000/svg" width="18.843" height="17.826" viewBox="0 0 18.843 17.826">
  <g id="Grupo_19447" data-name="Grupo 19447" transform="translate(7.118 1.674)">
    <g id="Grupo_19446" data-name="Grupo 19446">
      <path id="Trazado_11778" data-name="Trazado 11778" d="M203.538,60.89l-.67-1.411a.323.323,0,0,0-.292-.184H193.73a.323.323,0,1,0,0,.646h8.642l.583,1.226a.323.323,0,1,0,.583-.277Z" transform="translate(-193.407 -59.295)" fill="#8696a9"/>
    </g>
  </g>
  <g id="Grupo_19449" data-name="Grupo 19449" transform="translate(0 0)">
    <g id="Grupo_19448" data-name="Grupo 19448">
      <path id="Trazado_11779" data-name="Trazado 11779" d="M18.811,20.374l-1.2-2.525a.323.323,0,0,0-.583.277l.981,2.063H.833L2.76,16.137h.5v1.793a.323.323,0,0,0,.323.323H6.515a.323.323,0,0,0,.323-.323V14.14a.323.323,0,0,0-.323-.323H3.587a.323.323,0,0,0-.323.323v1.351H2.556a.323.323,0,0,0-.292.184l-2.234,4.7a.323.323,0,0,0,.292.462h16.5V31H2.015V21.508a.323.323,0,1,0-.646,0V31.32a.323.323,0,0,0,.323.323H17.15a.323.323,0,0,0,.323-.323V20.836H18.52a.323.323,0,0,0,.292-.462ZM3.91,14.463H6.192v.522H3.91v-.522Zm0,1.168H6.192v1.975H3.91V15.631Z" transform="translate(0.001 -13.817)" fill="#8696a9"/>
    </g>
  </g>
  <g id="Grupo_19451" data-name="Grupo 19451" transform="translate(2.382 8.698)">
    <g id="Grupo_19450" data-name="Grupo 19450">
      <path id="Trazado_11780" data-name="Trazado 11780" d="M71.1,254.585h-.172v-4.112a.323.323,0,0,0-.323-.323H65.528a.323.323,0,0,0-.323.323v4.112h-.172a.323.323,0,0,0-.323.323v1.076a.323.323,0,0,0,.323.323h.538a.323.323,0,1,0,0-.646h-.215v-.431h5.425v.431H66.432a.323.323,0,1,0,0,.646H71.1a.323.323,0,0,0,.323-.323v-1.076A.323.323,0,0,0,71.1,254.585Zm-3.359,0H65.851v-1.572h1.895Zm0-2.218H65.851V250.8h1.895Zm2.54,2.218H68.392v-1.572h1.895Zm0-2.218H68.392V250.8h1.895Z" transform="translate(-64.71 -250.15)" fill="#8696a9"/>
    </g>
  </g>
  <g id="Grupo_19453" data-name="Grupo 19453" transform="translate(9.745 8.698)">
    <g id="Grupo_19452" data-name="Grupo 19452">
      <path id="Trazado_11781" data-name="Trazado 11781" d="M271.168,254.585H271v-4.112a.323.323,0,0,0-.323-.323h-5.081a.323.323,0,0,0-.323.323v4.112H265.1a.323.323,0,0,0-.323.323v1.076a.323.323,0,0,0,.323.323h6.071a.323.323,0,0,0,.323-.323v-1.076A.323.323,0,0,0,271.168,254.585Zm-2.713-1.572h.746a.323.323,0,0,0,0-.646h-.746V250.8h1.895v1.572h-.287a.323.323,0,0,0,0,.646h.287v1.572h-1.895Zm-2.54-2.217h1.895v1.572h-1.895Zm0,2.217h1.895v1.572h-1.895Zm4.93,2.648H265.42v-.431h5.425Z" transform="translate(-264.774 -250.15)" fill="#8696a9"/>
    </g>
  </g>
</svg>
