<svg id="house_1_" data-name="house (1)" xmlns="http://www.w3.org/2000/svg" width="23.603" height="19.413" viewBox="0 0 23.603 19.413">
  <path id="Trazado_11748" data-name="Trazado 11748" d="M14.08,37.847H5.59a.34.34,0,0,1-.34-.34V26.3a.34.34,0,0,1,.248-.327l8.49-2.377a.34.34,0,0,1,.431.327V37.508A.34.34,0,0,1,14.08,37.847Zm-8.151-.679H13.74V24.37L5.929,26.558Z" transform="translate(-4.231 -18.434)" fill="#8696a9"/>
  <path id="Trazado_11749" data-name="Trazado 11749" d="M14.08,37.847H5.59a.34.34,0,0,1-.34-.34V26.3a.34.34,0,0,1,.248-.327l8.49-2.377a.34.34,0,0,1,.431.327V37.508A.34.34,0,0,1,14.08,37.847Zm-8.151-.679H13.74V24.37L5.929,26.558Z" transform="translate(-4.231 -18.434)" fill="#8696a9"/>
  <path id="Trazado_11750" data-name="Trazado 11750" d="M2.59,23.664a.34.34,0,0,1-.34-.34v-1.7A.34.34,0,0,1,2.5,21.3l9.509-2.609a.34.34,0,0,1,.43.328v1.666a.34.34,0,0,1-.249.327L2.681,23.651a.346.346,0,0,1-.091.012Zm.34-1.779v.992l8.83-2.452v-.963Z" transform="translate(-2.25 -15.194)" fill="#8696a9"/>
  <path id="Trazado_11751" data-name="Trazado 11751" d="M42.731,31.739H30.59a.34.34,0,0,1-.34-.34V14.673a.34.34,0,0,1,.13-.267.336.336,0,0,1,.29-.062l12.141,2.972a.34.34,0,0,1,.259.33V31.4A.34.34,0,0,1,42.731,31.739Zm-11.8-.679H42.391V17.911L30.929,15.106Z" transform="translate(-20.741 -12.325)" fill="#8696a9"/>
  <path id="Trazado_11752" data-name="Trazado 11752" d="M42.731,31.739H30.59a.34.34,0,0,1-.34-.34V14.673a.34.34,0,0,1,.13-.267.336.336,0,0,1,.29-.062l12.141,2.972a.34.34,0,0,1,.259.33V31.4A.34.34,0,0,1,42.731,31.739Zm-11.8-.679H42.391V17.911L30.929,15.106Z" transform="translate(-20.741 -12.325)" fill="#8696a9"/>
  <path id="Trazado_11753" data-name="Trazado 11753" d="M43.135,12.9a.337.337,0,0,1-.08-.01l-.985-.238a.34.34,0,1,1,.159-.66l.985.238a.34.34,0,0,1-.079.67Z" transform="translate(-28.375 -10.771)" fill="#8696a9"/>
  <path id="Trazado_11754" data-name="Trazado 11754" d="M42.023,14.408a.35.35,0,0,1-.082-.01L27.508,10.832a.34.34,0,0,1-.258-.33V8.76a.34.34,0,0,1,.42-.33l2.567.628a.34.34,0,1,1-.161.66l-2.147-.525v1.044l13.754,3.4V12.552L39.2,11.945a.34.34,0,1,1,.161-.66l2.741.669a.34.34,0,0,1,.259.33v1.783a.34.34,0,0,1-.34.34Z" transform="translate(-18.76 -8.42)" fill="#8696a9"/>
  <path id="Trazado_11755" data-name="Trazado 11755" d="M53.044,15.314a.337.337,0,0,1-.082-.01l-1.008-.248a.34.34,0,1,1,.162-.66l1.009.248a.34.34,0,0,1-.08.669Z" transform="translate(-34.898 -12.359)" fill="#8696a9"/>
  <path id="Trazado_11756" data-name="Trazado 11756" d="M45.257,39.292H38.465a.34.34,0,0,1-.34-.34V32.84a.34.34,0,0,1,.34-.34h6.792a.34.34,0,0,1,.34.34v6.113A.34.34,0,0,1,45.257,39.292ZM38.8,38.613h6.113V33.179H38.8Z" transform="translate(-25.942 -24.322)" fill="#8696a9"/>
  <path id="Trazado_11757" data-name="Trazado 11757" d="M48.465,39.292a.34.34,0,0,1-.34-.34V32.84a.34.34,0,0,1,.679,0v6.113A.34.34,0,0,1,48.465,39.292Z" transform="translate(-32.545 -24.322)" fill="#8696a9"/>
  <path id="Trazado_11758" data-name="Trazado 11758" d="M45.257,42.179H38.465a.34.34,0,1,1,0-.679h6.792a.34.34,0,0,1,0,.679Z" transform="translate(-25.942 -30.266)" fill="#8696a9"/>
  <path id="Trazado_11759" data-name="Trazado 11759" d="M15.773,51.5H10.34a.34.34,0,0,1-.34-.34V44.59a.34.34,0,0,1,.34-.34h5.434a.34.34,0,0,1,.34.34v6.566A.34.34,0,0,1,15.773,51.5Zm-5.094-.679h4.755V44.929H10.679Z" transform="translate(-7.368 -32.082)" fill="#8696a9"/>
  <path id="Trazado_11760" data-name="Trazado 11760" d="M15.773,49.388H10.34a.34.34,0,1,1,0-.679h5.434a.34.34,0,1,1,0,.679Z" transform="translate(-7.368 -35.027)" fill="#8696a9"/>
  <path id="Trazado_11761" data-name="Trazado 11761" d="M15.773,54.6H10.34a.34.34,0,1,1,0-.679h5.434a.34.34,0,1,1,0,.679Z" transform="translate(-7.368 -38.466)" fill="#8696a9"/>
  <path id="Trazado_11762" data-name="Trazado 11762" d="M15.773,59.8H10.34a.34.34,0,1,1,0-.679h5.434a.34.34,0,1,1,0,.679Z" transform="translate(-7.368 -41.905)" fill="#8696a9"/>
</svg>
