<svg xmlns="http://www.w3.org/2000/svg" width="22.759" height="14.956" viewBox="0 0 22.759 14.956">
  <g id="Icons" transform="translate(-2 -14)">
    <path id="Trazado_10463" data-name="Trazado 10463" d="M24.434,28.956H2.325A.325.325,0,0,1,2,28.631V14.325A.325.325,0,0,1,2.325,14H24.434a.325.325,0,0,1,.325.325V28.631A.325.325,0,0,1,24.434,28.956ZM2.65,28.306H24.109V14.65H2.65Z"/>
    <path id="Trazado_10464" data-name="Trazado 10464" d="M25.232,31.054H9.626a.325.325,0,0,1-.325-.325.975.975,0,0,0-.975-.975A.325.325,0,0,1,8,29.429v-7.8a.325.325,0,0,1,.325-.325.975.975,0,0,0,.975-.975A.325.325,0,0,1,9.626,20H25.232a.325.325,0,0,1,.325.325.975.975,0,0,0,.975.975.325.325,0,0,1,.325.325v7.8a.325.325,0,0,1-.325.325.975.975,0,0,0-.975.975.325.325,0,0,1-.325.325ZM9.918,30.4H24.939a1.631,1.631,0,0,1,1.268-1.268V21.918a1.631,1.631,0,0,1-1.268-1.268H9.918A1.631,1.631,0,0,1,8.65,21.918v7.218A1.631,1.631,0,0,1,9.918,30.4Z" transform="translate(-4.049 -4.049)"/>
    <path id="Trazado_10465" data-name="Trazado 10465" d="M33.626,33.852A1.628,1.628,0,0,1,32,32.227h.65a.975.975,0,0,0,1.951,0c0-.57-.578-.852-1.063-.987C32.546,30.961,32,30.388,32,29.626a1.626,1.626,0,0,1,3.251,0H34.6a.975.975,0,0,0-1.951,0c0,.457.358.79,1.063.987.992.278,1.538.851,1.538,1.614A1.628,1.628,0,0,1,33.626,33.852Z" transform="translate(-20.246 -9.448)"/>
    <path id="Trazado_10466" data-name="Trazado 10466" d="M36,25h.65v1.3H36Z" transform="translate(-22.946 -7.424)"/>
    <path id="Trazado_10467" data-name="Trazado 10467" d="M36,45h.65v1.3H36Z" transform="translate(-22.946 -20.921)"/>
    <path id="Trazado_10468" data-name="Trazado 10468" d="M54.3,35.6a1.3,1.3,0,1,1,1.3-1.3A1.3,1.3,0,0,1,54.3,35.6Zm0-1.951a.65.65,0,1,0,.65.65A.65.65,0,0,0,54.3,33.65Z" transform="translate(-34.418 -12.822)"/>
    <path id="Trazado_10469" data-name="Trazado 10469" d="M14.3,35.6a1.3,1.3,0,1,1,1.3-1.3A1.3,1.3,0,0,1,14.3,35.6Zm0-1.951a.65.65,0,1,0,.65.65A.65.65,0,0,0,14.3,33.65Z" transform="translate(-7.424 -12.822)"/>
  </g>
</svg>
