<svg id="_3100561" data-name="3100561" xmlns="http://www.w3.org/2000/svg" width="10.498" height="17.586" viewBox="0 0 10.498 17.586">
  <g id="Grupo_4703" data-name="Grupo 4703" transform="translate(0)">
    <path id="Trazado_11390" data-name="Trazado 11390" d="M111.421,235.494a.258.258,0,0,0-.258-.258h-7.385a.086.086,0,0,1-.086-.086v-1.46a4.711,4.711,0,0,1,.8-2.629.258.258,0,0,0-.428-.287,5.224,5.224,0,0,0-.883,2.915v1.46a.6.6,0,0,0,.6.6h2.576a2.121,2.121,0,0,0,4.143,0h.665A.258.258,0,0,0,111.421,235.494Zm-2.994,1.408a1.6,1.6,0,0,1-1.541-1.15h3.081A1.6,1.6,0,0,1,108.427,236.9Z" transform="translate(-103.178 -222.738)" fill="#8696a9"/>
    <path id="Trazado_11391" data-name="Trazado 11391" d="M157.532,7.068h0a5.237,5.237,0,0,0-2.041-1.149V5.244a.891.891,0,0,0-.89-.89h-.342V.258a.258.258,0,1,0-.515,0v4.1H153.4a.891.891,0,0,0-.89.89v.674a5.236,5.236,0,0,0-2.055,1.162.258.258,0,0,0,.348.38,4.734,4.734,0,0,1,6.379-.012h0a4.745,4.745,0,0,1,1.55,3.5v1.46a.086.086,0,0,1-.086.086h-.709a.258.258,0,1,0,0,.515h.709a.6.6,0,0,0,.6-.6v-1.46a5.261,5.261,0,0,0-1.719-3.885Zm-2.556-1.274a5.291,5.291,0,0,0-1.949,0V5.244a.375.375,0,0,1,.375-.375h1.2a.375.375,0,0,1,.375.375Z" transform="translate(-148.753)" fill="#8696a9"/>
    <path id="Trazado_11392" data-name="Trazado 11392" d="M248.758,451.955a.258.258,0,0,0-.258.258v1.547a.258.258,0,1,0,.515,0v-1.547A.258.258,0,0,0,248.758,451.955Z" transform="translate(-243.509 -436.431)" fill="#8696a9"/>
    <path id="Trazado_11393" data-name="Trazado 11393" d="M329.811,422.143a.258.258,0,0,0-.364.364l1.093,1.094a.258.258,0,0,0,.365-.364Z" transform="translate(-321.602 -407.571)" fill="#8696a9"/>
    <path id="Trazado_11394" data-name="Trazado 11394" d="M136.977,422.143l-1.093,1.094a.258.258,0,0,0,.365.364l1.093-1.094a.258.258,0,0,0-.364-.364Z" transform="translate(-134.688 -407.571)" fill="#8696a9"/>
  </g>
</svg>
