<svg id="_2972473" data-name="2972473" xmlns="http://www.w3.org/2000/svg" width="16.007" height="12.221" viewBox="0 0 16.007 12.221">
  <path id="Trazado_11350" data-name="Trazado 11350" d="M171.557,69.094h-.969l-.261-7.9a.665.665,0,0,0-1.33,0l-.261,7.9h-1.7a.235.235,0,1,0,0,.47h4.521a.392.392,0,0,1,.392.392v1.951a.392.392,0,0,1-.392.392h-9.862a.235.235,0,1,0,0,.47h9.863a.862.862,0,0,0,.861-.861V69.955A.862.862,0,0,0,171.557,69.094Zm-2.09-7.889a.2.2,0,0,1,.39,0l.26,7.889h-.911Z" transform="translate(-156.412 -60.546)" fill="#8696a9"/>
  <path id="Trazado_11351" data-name="Trazado 11351" d="M4.343,72.3H.861a.392.392,0,0,1-.392-.392V69.955a.392.392,0,0,1,.392-.392H9.685a.235.235,0,0,0,0-.47h-6l-.261-7.9a.665.665,0,0,0-1.33,0l-.119,3.6a.235.235,0,1,0,.47.015l.119-3.6a.2.2,0,0,1,.39,0l.26,7.889H2.3l.111-3.353a.235.235,0,1,0-.47-.015l-.111,3.369H.861A.862.862,0,0,0,0,69.955v1.951a.862.862,0,0,0,.861.861H4.343a.235.235,0,1,0,0-.47Z" transform="translate(0 -60.546)" fill="#8696a9"/>
  <path id="Trazado_11352" data-name="Trazado 11352" d="M50.961,401.189a.235.235,0,0,0,0,.47h.75a.235.235,0,0,0,0-.47Z" transform="translate(-49.14 -390.54)" fill="#8696a9"/>
  <path id="Trazado_11353" data-name="Trazado 11353" d="M108.379,401.189h-.751a.235.235,0,0,0,0,.47h.751a.235.235,0,0,0,0-.47Z" transform="translate(-104.037 -390.54)" fill="#8696a9"/>
  <path id="Trazado_11354" data-name="Trazado 11354" d="M164.3,401.189a.235.235,0,1,0,0,.47h.75a.235.235,0,0,0,0-.47Z" transform="translate(-158.934 -390.54)" fill="#8696a9"/>
  <path id="Trazado_11355" data-name="Trazado 11355" d="M220.968,401.189a.235.235,0,0,0,0,.47h.75a.235.235,0,1,0,0-.47Z" transform="translate(-213.832 -390.54)" fill="#8696a9"/>
  <path id="Trazado_11356" data-name="Trazado 11356" d="M367.6,401.658a.235.235,0,1,0,0-.47h-.75a.235.235,0,1,0,0,.47Z" transform="translate(-355.153 -390.539)" fill="#8696a9"/>
  <path id="Trazado_11357" data-name="Trazado 11357" d="M423.5,401.658a.235.235,0,1,0,0-.47h-.751a.235.235,0,1,0,0,.47Z" transform="translate(-409.302 -390.539)" fill="#8696a9"/>
  <path id="Trazado_11358" data-name="Trazado 11358" d="M151.578,132.726a4.072,4.072,0,0,1,5.752,0,.235.235,0,0,0,.332-.332,4.542,4.542,0,0,0-6.417,0,.235.235,0,1,0,.332.332Z" transform="translate(-146.45 -128.862)" fill="#8696a9"/>
  <path id="Trazado_11359" data-name="Trazado 11359" d="M184.378,172.649a.235.235,0,0,0,0-.332,3.281,3.281,0,0,0-4.631,0,.235.235,0,1,0,.329.335,2.81,2.81,0,0,1,3.969,0A.235.235,0,0,0,184.378,172.649Z" transform="translate(-174.057 -167.894)" fill="#8696a9"/>
  <path id="Trazado_11360" data-name="Trazado 11360" d="M210.432,211.859a.235.235,0,0,0,.166-.4,2.041,2.041,0,0,0-2.886,0,.235.235,0,1,0,.332.332,1.571,1.571,0,0,1,2.221,0A.234.234,0,0,0,210.432,211.859Z" transform="translate(-201.152 -206.161)" fill="#8696a9"/>
  <path id="Trazado_11361" data-name="Trazado 11361" d="M232.186,245.763a.235.235,0,1,0,.333.332.489.489,0,0,1,.69,0,.235.235,0,0,0,.332-.332A.96.96,0,0,0,232.186,245.763Z" transform="translate(-224.86 -239.702)" fill="#8696a9"/>
</svg>
