<svg id="_788531" data-name="788531" xmlns="http://www.w3.org/2000/svg" width="13.498" height="8.999" viewBox="0 0 13.498 8.999">
  <g id="Grupo_4701" data-name="Grupo 4701" transform="translate(0)">
    <path id="Trazado_11386" data-name="Trazado 11386" d="M13.271,85.343a.283.283,0,0,0-.331.221L12.554,87.5a1.652,1.652,0,0,1-.442-.381,1.5,1.5,0,0,0-2.477,0,1.044,1.044,0,0,1-.822.471,1.045,1.045,0,0,1-.823-.471,1.582,1.582,0,0,0-1.239-.654,1.58,1.58,0,0,0-1.237.654,1.048,1.048,0,0,1-.824.471,1.049,1.049,0,0,1-.825-.471,1.584,1.584,0,0,0-1.24-.654,1.582,1.582,0,0,0-1.239.654,1.65,1.65,0,0,1-.444.382L.556,85.564a.281.281,0,0,0-.551.11l1.552,7.758a1.128,1.128,0,0,0,1.1.9h8.178a1.128,1.128,0,0,0,1.1-.9l1.552-7.758A.281.281,0,0,0,13.271,85.343Zm-1.882,7.978a.564.564,0,0,1-.551.452H2.659a.564.564,0,0,1-.551-.452L1.056,88.06A1.915,1.915,0,0,0,1.8,87.5a1.049,1.049,0,0,1,.825-.471,1.049,1.049,0,0,1,.826.471,1.583,1.583,0,0,0,1.239.653A1.581,1.581,0,0,0,5.929,87.5a1.045,1.045,0,0,1,.823-.471,1.048,1.048,0,0,1,.824.471,1.5,1.5,0,0,0,2.475,0,.955.955,0,0,1,1.647,0,1.911,1.911,0,0,0,.744.564Z" transform="translate(0.001 -85.337)" fill="#8696a9"/>
  </g>
</svg>
