<svg xmlns="http://www.w3.org/2000/svg" width="117.634" height="133.692" viewBox="0 0 117.634 133.692">
  <g id="Grupo_19304" data-name="Grupo 19304" transform="translate(-31.384 -12.794)">
    <g id="Grupo_19302" data-name="Grupo 19302">
      <g id="Grupo_19301" data-name="Grupo 19301">
        <g id="Grupo_19266" data-name="Grupo 19266">
          <g id="Grupo_1" data-name="Grupo 1">
            <g id="Trazado_1" data-name="Trazado 1">
              <path id="Trazado_11216" data-name="Trazado 11216" d="M143.8,62.5c-7.69-13.79-15.54-27.49-23.69-41-5.87-9.72-19.17-10.75-27.02-2.44-1.5,1.59-2.72,3.45-4.16,5.31a13.673,13.673,0,0,1-.91-1.06c-6.09-9.71-15.73-12.64-24.63-7.47-8.38,4.88-10.53,15.28-5.07,24.89,2.95,5.2,6.03,10.34,8.98,15.55.79,1.39,1.95,2.82.88,4.61-3.55,6-6.3,12.51-10.76,17.9-3.48,4.2-10.01,4.86-14.57,1.99a11.433,11.433,0,0,1-4.61-13.94c.97-2.45,2.24-4.79,3.38-7.18.35-2.44-.52-3.99-3.1-4.32-1.4,2.25-2.93,4.43-4.19,6.75-4.86,8.91-2.19,18.81,6.33,23.76,8.28,4.81,18.27,1.81,23.6-6.92,2.64-4.32,4.65-9.05,8.38-13.32,2.54,4.37,4.85,8.36,7.18,12.33,5.71,9.76,15.78,12.93,24.52,7.75s10.82-15.51,5.13-25.27c-4.6-7.9-9.24-15.77-13.75-23.72-3.4-6-1.65-12.66,4.01-16.06a11.705,11.705,0,0,1,16.015,4.187c.021.038.043.075.065.113q11.475,19.545,22.64,39.29c3.16,5.59,2.58,10.82-1.15,14.73-3.79,3.98-8.81,4.66-14.66,1.9-1.81-.85-3.77-2.38-5.18.12-1.58,2.81,1.1,3.78,2.85,4.82A17.142,17.142,0,0,0,143.8,62.5Zm-71.45-8.61c-3.58-6.15-6.77-11.36-9.71-16.73-3.27-5.97-2.25-11.91,2.41-15.66a12,12,0,0,1,14.73.12c4.67,3.89,5.52,9.72,2.17,15.65-2.991,5.3-6.081,10.54-9.6,16.62Zm32.92,10.56c3.59,6.27,1.97,13.14-3.76,16.53-5.57,3.29-12.6,1.24-16.37-4.78-.09-.14-.17-.29-.25-.43-3-5.36-7.97-10.56-8.44-16.13-.44-5.4,5.23-10.38,8.03-15.65,1.32-2.48,2.82-4.86,4.49-7.71,5.659,9.77,11.03,18.94,16.3,28.17Z" fill="#fff" stroke="#fff" stroke-width="1"/>
            </g>
            <g id="Trazado_2" data-name="Trazado 2">
              <path id="Trazado_11217" data-name="Trazado 11217" d="M41.615,59.657l-3.1-4.319c2.364-4.348,4.7-8.71,7.1-13.038.976-1.762,2.4-2.954,4.453-1.746,1.851,1.09,1.468,2.687.513,4.292C47.634,49.806,45.207,55.083,41.615,59.657Z" fill="#fff" stroke="#fff" stroke-width="1"/>
            </g>
            <g id="Myprop" style="isolation: isolate">
              <g id="Grupo_19302-2" data-name="Grupo 19302" style="isolation: isolate">
                <path id="Trazado_11218" data-name="Trazado 11218" d="M34.174,137.228a1.312,1.312,0,0,1-1.332-1.332V109.715a1.285,1.285,0,0,1,.293-.835,1.25,1.25,0,0,1,.746-.453,1.213,1.213,0,0,1,.857.091,1.311,1.311,0,0,1,.632.61l7.268,14.784,7.245-14.784a1.311,1.311,0,0,1,.632-.61,1.285,1.285,0,0,1,.88-.091,1.248,1.248,0,0,1,.745.453,1.281,1.281,0,0,1,.294.835V135.9a1.35,1.35,0,0,1-1.355,1.332,1.259,1.259,0,0,1-.925-.384,1.3,1.3,0,0,1-.406-.948V115.47l-5.914,12.053a1.264,1.264,0,0,1-1.2.744,1.234,1.234,0,0,1-1.2-.744L35.506,115.47V135.9a1.334,1.334,0,0,1-.384.948A1.288,1.288,0,0,1,34.174,137.228Z" fill="#fff" stroke="#fff" stroke-width="1"/>
                <path id="Trazado_11219" data-name="Trazado 11219" d="M63.742,136.912a8.438,8.438,0,0,1-8.419-8.419V118.156a1.194,1.194,0,0,1,1.173-1.174,1.079,1.079,0,0,1,.813.361,1.109,1.109,0,0,1,.339.813v10.337a6.088,6.088,0,0,0,6.094,6.072h.067a5.923,5.923,0,0,0,4.311-1.783,5.847,5.847,0,0,0,1.784-4.289V118.156a1.108,1.108,0,0,1,.338-.813,1.077,1.077,0,0,1,.812-.361,1.194,1.194,0,0,1,1.174,1.174v19.32a8.4,8.4,0,0,1-8.419,8.419h-.067a8.411,8.411,0,0,1-7.562-4.717,1.118,1.118,0,0,1-.067-.9,1.1,1.1,0,0,1,.586-.654,1.118,1.118,0,0,1,.9-.068,1.1,1.1,0,0,1,.655.587,5.963,5.963,0,0,0,2.077,2.37,5.859,5.859,0,0,0,3.408,1.061h.067a6.089,6.089,0,0,0,6.1-6.1v-3.182a8.118,8.118,0,0,1-6.1,2.618Z" fill="#fff" stroke="#fff" stroke-width="1"/>
                <path id="Trazado_11220" data-name="Trazado 11220" d="M78.571,145.986a1.158,1.158,0,0,1-1.174-1.174V125.379a8.478,8.478,0,0,1,8.442-8.442h.067a8.44,8.44,0,0,1,8.442,8.442v3.137a8.4,8.4,0,0,1-8.442,8.442h-.067a8.075,8.075,0,0,1-6.095-2.618v10.472a1.194,1.194,0,0,1-1.173,1.174Zm1.173-17.47a6.129,6.129,0,0,0,6.095,6.117h.067a6.167,6.167,0,0,0,6.117-6.117v-3.137a6.125,6.125,0,0,0-6.117-6.094h-.067a6.088,6.088,0,0,0-6.095,6.094Z" fill="#fff" stroke="#fff" stroke-width="1"/>
                <path id="Trazado_11221" data-name="Trazado 11221" d="M99.336,137.228a1.158,1.158,0,0,1-1.174-1.174v-10.5a8.517,8.517,0,0,1,8.509-8.509h1.422a1.185,1.185,0,0,1,.835.338,1.2,1.2,0,0,1,0,1.67,1.178,1.178,0,0,1-.835.339h-1.422a6.166,6.166,0,0,0-6.162,6.162v10.5a1.179,1.179,0,0,1-.338.835A1.134,1.134,0,0,1,99.336,137.228Z" fill="#fff" stroke="#fff" stroke-width="1"/>
                <path id="Trazado_11222" data-name="Trazado 11222" d="M119.74,137.228a8.553,8.553,0,0,1-8.509-8.509v-3.16a8.553,8.553,0,0,1,8.509-8.509h.067a8.555,8.555,0,0,1,8.51,8.509v3.16a8.555,8.555,0,0,1-8.51,8.509Zm-6.162-8.509a6.166,6.166,0,0,0,6.162,6.162h.067a6.164,6.164,0,0,0,6.162-6.162v-3.16a6.164,6.164,0,0,0-6.162-6.162h-.067a6.166,6.166,0,0,0-6.162,6.162Z" fill="#fff" stroke="#fff" stroke-width="1"/>
                <path id="Trazado_11223" data-name="Trazado 11223" d="M132.74,145.986a1.156,1.156,0,0,1-1.173-1.174V125.379a8.478,8.478,0,0,1,8.442-8.442h.067a8.44,8.44,0,0,1,8.442,8.442v3.137a8.4,8.4,0,0,1-8.442,8.442h-.067a8.075,8.075,0,0,1-6.1-2.618v10.472a1.2,1.2,0,0,1-1.174,1.174Zm1.174-17.47a6.127,6.127,0,0,0,6.1,6.117h.067a6.167,6.167,0,0,0,6.117-6.117v-3.137a6.125,6.125,0,0,0-6.117-6.094h-.067a6.086,6.086,0,0,0-6.1,6.094Z" fill="#fff" stroke="#fff" stroke-width="1"/>
              </g>
              <g id="Grupo_19303" data-name="Grupo 19303" style="isolation: isolate">
                <path id="Trazado_11224" data-name="Trazado 11224" d="M34.174,137.228a1.312,1.312,0,0,1-1.332-1.332V109.715a1.285,1.285,0,0,1,.293-.835,1.25,1.25,0,0,1,.746-.453,1.213,1.213,0,0,1,.857.091,1.311,1.311,0,0,1,.632.61l7.268,14.784,7.245-14.784a1.311,1.311,0,0,1,.632-.61,1.285,1.285,0,0,1,.88-.091,1.248,1.248,0,0,1,.745.453,1.281,1.281,0,0,1,.294.835V135.9a1.35,1.35,0,0,1-1.355,1.332,1.259,1.259,0,0,1-.925-.384,1.3,1.3,0,0,1-.406-.948V115.47l-5.914,12.053a1.264,1.264,0,0,1-1.2.744,1.234,1.234,0,0,1-1.2-.744L35.506,115.47V135.9a1.334,1.334,0,0,1-.384.948A1.288,1.288,0,0,1,34.174,137.228Z" fill="#fff" stroke="#fff" stroke-miterlimit="10" stroke-width="1"/>
                <path id="Trazado_11225" data-name="Trazado 11225" d="M63.742,136.912a8.438,8.438,0,0,1-8.419-8.419V118.156a1.194,1.194,0,0,1,1.173-1.174,1.079,1.079,0,0,1,.813.361,1.109,1.109,0,0,1,.339.813v10.337a6.088,6.088,0,0,0,6.094,6.072h.067a5.923,5.923,0,0,0,4.311-1.783,5.847,5.847,0,0,0,1.784-4.289V118.156a1.108,1.108,0,0,1,.338-.813,1.077,1.077,0,0,1,.812-.361,1.194,1.194,0,0,1,1.174,1.174v19.32a8.4,8.4,0,0,1-8.419,8.419h-.067a8.411,8.411,0,0,1-7.562-4.717,1.118,1.118,0,0,1-.067-.9,1.1,1.1,0,0,1,.586-.654,1.118,1.118,0,0,1,.9-.068,1.1,1.1,0,0,1,.655.587,5.963,5.963,0,0,0,2.077,2.37,5.859,5.859,0,0,0,3.408,1.061h.067a6.089,6.089,0,0,0,6.1-6.1v-3.182a8.118,8.118,0,0,1-6.1,2.618Z" fill="#fff" stroke="#fff" stroke-miterlimit="10" stroke-width="1"/>
                <path id="Trazado_11226" data-name="Trazado 11226" d="M78.571,145.986a1.158,1.158,0,0,1-1.174-1.174V125.379a8.478,8.478,0,0,1,8.442-8.442h.067a8.44,8.44,0,0,1,8.442,8.442v3.137a8.4,8.4,0,0,1-8.442,8.442h-.067a8.075,8.075,0,0,1-6.095-2.618v10.472a1.194,1.194,0,0,1-1.173,1.174Zm1.173-17.47a6.129,6.129,0,0,0,6.095,6.117h.067a6.167,6.167,0,0,0,6.117-6.117v-3.137a6.125,6.125,0,0,0-6.117-6.094h-.067a6.088,6.088,0,0,0-6.095,6.094Z" fill="#fff" stroke="#fff" stroke-miterlimit="10" stroke-width="1"/>
                <path id="Trazado_11227" data-name="Trazado 11227" d="M99.336,137.228a1.158,1.158,0,0,1-1.174-1.174v-10.5a8.517,8.517,0,0,1,8.509-8.509h1.422a1.185,1.185,0,0,1,.835.338,1.2,1.2,0,0,1,0,1.67,1.178,1.178,0,0,1-.835.339h-1.422a6.166,6.166,0,0,0-6.162,6.162v10.5a1.179,1.179,0,0,1-.338.835A1.134,1.134,0,0,1,99.336,137.228Z" fill="#fff" stroke="#fff" stroke-miterlimit="10" stroke-width="1"/>
                <path id="Trazado_11228" data-name="Trazado 11228" d="M119.74,137.228a8.553,8.553,0,0,1-8.509-8.509v-3.16a8.553,8.553,0,0,1,8.509-8.509h.067a8.555,8.555,0,0,1,8.51,8.509v3.16a8.555,8.555,0,0,1-8.51,8.509Zm-6.162-8.509a6.166,6.166,0,0,0,6.162,6.162h.067a6.164,6.164,0,0,0,6.162-6.162v-3.16a6.164,6.164,0,0,0-6.162-6.162h-.067a6.166,6.166,0,0,0-6.162,6.162Z" fill="#fff" stroke="#fff" stroke-miterlimit="10" stroke-width="1"/>
                <path id="Trazado_11229" data-name="Trazado 11229" d="M132.74,145.986a1.156,1.156,0,0,1-1.173-1.174V125.379a8.478,8.478,0,0,1,8.442-8.442h.067a8.44,8.44,0,0,1,8.442,8.442v3.137a8.4,8.4,0,0,1-8.442,8.442h-.067a8.075,8.075,0,0,1-6.1-2.618v10.472a1.2,1.2,0,0,1-1.174,1.174Zm1.174-17.47a6.127,6.127,0,0,0,6.1,6.117h.067a6.167,6.167,0,0,0,6.117-6.117v-3.137a6.125,6.125,0,0,0-6.117-6.094h-.067a6.086,6.086,0,0,0-6.1,6.094Z" fill="#fff" stroke="#fff" stroke-miterlimit="10" stroke-width="1"/>
              </g>
            </g>
          </g>
        </g>
      </g>
    </g>
  </g>
</svg>
