<svg xmlns="http://www.w3.org/2000/svg" width="85.99" height="56.369" viewBox="0 0 85.99 56.369">
  <g id="Grupo_4732" data-name="Grupo 4732" transform="translate(-150 -96.247)">
    <g id="Grupo_4734" data-name="Grupo 4734" transform="translate(-2 7)">
      <g id="Grupo_4733" data-name="Grupo 4733">
        <path id="Trazado_1" data-name="Trazado 1" d="M324.73,580.007c-5.788-10.38-11.7-20.691-17.831-30.86-4.418-7.316-14.429-8.092-20.338-1.837-1.129,1.2-2.047,2.6-3.131,4a10.311,10.311,0,0,1-.685-.8c-4.584-7.309-11.84-9.514-18.539-5.623-6.308,3.673-7.926,11.5-3.816,18.734,2.22,3.914,4.539,7.783,6.759,11.7.595,1.046,1.468,2.123.662,3.47-2.672,4.516-4.742,9.416-8.1,13.473a8.65,8.65,0,0,1-14.437-8.995c.73-1.844,1.686-3.605,2.544-5.4.263-1.837-.391-3-2.333-3.252-1.054,1.693-2.205,3.334-3.154,5.081-3.658,6.706-1.648,14.158,4.765,17.884,6.232,3.62,13.752,1.362,17.764-5.209,1.987-3.252,3.5-6.812,6.308-10.026,1.912,3.289,3.651,6.292,5.4,9.281,4.3,7.346,11.877,9.732,18.456,5.833s8.144-11.674,3.861-19.021c-3.462-5.946-6.955-11.87-10.349-17.854a8.626,8.626,0,0,1,3.018-12.088,8.81,8.81,0,0,1,12.1,3.237q8.637,14.711,17.041,29.573c2.378,4.208,1.942,8.144-.866,11.087-2.853,3-6.631,3.508-11.034,1.43-1.362-.64-2.838-1.791-3.9.09-1.189,2.115.828,2.845,2.145,3.628a12.9,12.9,0,0,0,17.681-17.538Zm-53.78-6.481c-2.695-4.629-5.1-8.551-7.309-12.593-2.461-4.494-1.694-8.965,1.814-11.787a9.028,9.028,0,0,1,11.087.09c3.515,2.928,4.155,7.316,1.633,11.78C275.925,565.005,273.6,568.949,270.95,573.526Zm24.779,7.948c2.7,4.719,1.483,9.89-2.83,12.442-4.193,2.476-9.484.933-12.322-3.6-.068-.105-.128-.218-.188-.324-2.258-4.034-6-7.948-6.353-12.141-.331-4.065,3.937-7.813,6.044-11.78.994-1.867,2.123-3.658,3.38-5.8C287.72,567.625,291.762,574.527,295.728,581.474Z" transform="translate(-88.517 -453.742)" fill="#f9fbfc"/>
      </g>
      <path id="Trazado_2" data-name="Trazado 2" d="M249.451,584.481l-2.333-3.251c1.779-3.273,3.541-6.556,5.347-9.814.735-1.326,1.808-2.223,3.352-1.314,1.393.82,1.1,2.022.386,3.23C253.982,577.067,252.155,581.039,249.451,584.481Z" transform="translate(-90.149 -460.356)" fill="#f9fbfc"/>
    </g>
  </g>
</svg>
