<svg id="_900551" data-name="900551" xmlns="http://www.w3.org/2000/svg" width="11.448" height="14.31" viewBox="0 0 11.448 14.31">
  <g id="Grupo_4643" data-name="Grupo 4643" transform="translate(0 0)">
    <g id="Grupo_4642" data-name="Grupo 4642">
      <path id="Trazado_11288" data-name="Trazado 11288" d="M112.847,11a3.815,3.815,0,0,0,.32.345h0A3.782,3.782,0,0,0,115.8,12.4c.062,0,.125,0,.188,0a3.86,3.86,0,0,0,3.631-3.788A3.794,3.794,0,0,0,118.2,5.622a.715.715,0,0,1-.253-.558V4.532a.716.716,0,0,0-.477-.672V3.578a.711.711,0,0,0-.186-.477.7.7,0,0,0,0-.954.709.709,0,0,0-.31-1.155,1.189,1.189,0,0,0-2.345,0,.709.709,0,0,0-.312,1.155.7.7,0,0,0,0,.954.711.711,0,0,0-.186.477v.282a.715.715,0,0,0-.477.672v.559a.711.711,0,0,1-.272.545A3.814,3.814,0,0,0,112.847,11ZM115.8.478a.717.717,0,0,1,.675.477h-1.349A.717.717,0,0,1,115.8.478Zm-.954.954h1.908a.239.239,0,0,1,0,.477h-1.908a.239.239,0,0,1,0-.477Zm0,.954h1.908a.239.239,0,0,1,0,.477h-1.908a.239.239,0,0,1,0-.477Zm-.238,1.193a.239.239,0,0,1,.238-.239h1.908a.239.239,0,0,1,.238.239v.239h-2.385Zm-.924,2.429h0a1.186,1.186,0,0,0,.447-.915V4.532a.239.239,0,0,1,.239-.239h2.862a.239.239,0,0,1,.239.239v.532a1.183,1.183,0,0,0,.429.929,3.319,3.319,0,0,1,1.24,2.615,3.377,3.377,0,0,1-3.176,3.315,3.338,3.338,0,0,1-2.279-5.915Z" transform="translate(-110.076 -0.001)" fill="#8696a9"/>
      <path id="Trazado_11289" data-name="Trazado 11289" d="M232.24,432a.239.239,0,0,0-.239.239v.954a.239.239,0,0,0,.477,0v-.954A.239.239,0,0,0,232.24,432Z" transform="translate(-226.515 -419.124)" fill="#8696a9"/>
      <path id="Trazado_11290" data-name="Trazado 11290" d="M140.809,411.668h0a.238.238,0,0,0-.326.087h0l-.477.826a.238.238,0,1,0,.411.241l0,0,.477-.826A.238.238,0,0,0,140.809,411.668Z" transform="translate(-137.231 -399.364)" fill="#8696a9"/>
      <path id="Trazado_11291" data-name="Trazado 11291" d="M73.559,356.005l0,0-.826.477a.238.238,0,1,0,.236.415l0,0,.826-.477a.239.239,0,0,0-.236-.415Z" transform="translate(-71.876 -345.361)" fill="#8696a9"/>
      <path id="Trazado_11292" data-name="Trazado 11292" d="M49.432,280.242a.239.239,0,0,0-.239-.239H48.24a.239.239,0,0,0,0,.477h.954A.238.238,0,0,0,49.432,280.242Z" transform="translate(-48.001 -271.655)" fill="#8696a9"/>
      <path id="Trazado_11293" data-name="Trazado 11293" d="M72.728,188.42l0,0,.826.477a.238.238,0,0,0,.241-.412l0,0-.826-.477a.238.238,0,1,0-.241.411Z" transform="translate(-71.877 -182.371)" fill="#8696a9"/>
      <path id="Trazado_11294" data-name="Trazado 11294" d="M363.885,188.93A.238.238,0,0,0,364,188.9l.826-.477a.239.239,0,0,0-.236-.415l0,0-.826.477a.239.239,0,0,0,.119.445Z" transform="translate(-354.237 -182.371)" fill="#8696a9"/>
      <path id="Trazado_11295" data-name="Trazado 11295" d="M385.194,280h-.954a.239.239,0,0,0,0,.477h.954a.239.239,0,0,0,0-.477Z" transform="translate(-373.984 -271.655)" fill="#8696a9"/>
      <path id="Trazado_11296" data-name="Trazado 11296" d="M364.782,356.485l0,0-.826-.477a.239.239,0,0,0-.241.411l0,0,.826.477a.239.239,0,0,0,.241-.411Z" transform="translate(-354.185 -345.361)" fill="#8696a9"/>
      <path id="Trazado_11297" data-name="Trazado 11297" d="M308.9,412.541l-.477-.826a.238.238,0,0,0-.415.236l0,0,.477.826a.238.238,0,1,0,.415-.236Z" transform="translate(-300.222 -399.324)" fill="#8696a9"/>
    </g>
  </g>
</svg>
