<svg xmlns="http://www.w3.org/2000/svg" width="28.167" height="24.005" viewBox="0 0 28.167 24.005">
  <path id="_149223" data-name="149223" d="M27.457,2.087A.538.538,0,0,0,27,2.024L18.085,4.747,9.673,2.934a.477.477,0,0,0-.063,0,.558.558,0,0,0-.161,0L.394,4.776A.472.472,0,0,0,0,5.226V25.04a.447.447,0,0,0,.189.359.531.531,0,0,0,.314.1.584.584,0,0,0,.109-.011L9.57,23.667l8.452,1.366a.51.51,0,0,0,.088.007.546.546,0,0,0,.177-.03h.005l9.055-3.226a.465.465,0,0,0,.321-.43V2.461A.45.45,0,0,0,27.457,2.087ZM1.006,5.595,9.055,3.957v18.87L1.006,24.466Zm9.055-1.631L17.606,5.59V24.03L10.061,22.81Zm16.6,17.074-8.048,2.867V5.558L26.661,3.1Z" transform="translate(0.25 -1.746)" fill="#fff" stroke="#fff" stroke-width="0.5"/>
</svg>
