<svg id="_546394" data-name="546394" xmlns="http://www.w3.org/2000/svg" width="16.933" height="11.289" viewBox="0 0 16.933 11.289">
  <g id="Grupo_4775" data-name="Grupo 4775" transform="translate(0 0)">
    <path id="Trazado_11660" data-name="Trazado 11660" d="M16.065,85.333H.868A.871.871,0,0,0,0,86.2v9.552a.871.871,0,0,0,.868.868h15.2a.871.871,0,0,0,.868-.868V86.2A.871.871,0,0,0,16.065,85.333Zm-.326.651-6.773,5.08a.908.908,0,0,1-1,0l-6.773-5.08ZM12.121,91.4l3.691,4.559.012.012H1.109l.012-.012L4.812,91.4a.326.326,0,0,0-.506-.41L.651,95.5V86.391l6.925,5.194a1.554,1.554,0,0,0,1.78,0l6.925-5.194V95.5L12.627,90.99a.326.326,0,0,0-.506.41Z" transform="translate(0 -85.333)" fill="#393a34"/>
  </g>
</svg>
