<svg xmlns="http://www.w3.org/2000/svg" width="18.273" height="17.128" viewBox="0 0 18.273 17.128">
  <g id="_3288997" data-name="3288997" transform="translate(0 -16.033)">
    <path id="Trazado_10990" data-name="Trazado 10990" d="M38.245,208.688a4.554,4.554,0,0,0-5.944,5.406.268.268,0,0,0,.519-.131,4,4,0,0,1-.113-.713h2.917a1.119,1.119,0,0,0,.131.316l-2.063,2.063a3.989,3.989,0,0,1-.474-.669.268.268,0,0,0-.466.263,4.554,4.554,0,0,0,8.382-3.353.268.268,0,0,0-.519.131,3.994,3.994,0,0,1,.113.713H37.811a1.12,1.12,0,0,0-.131-.316l2.063-2.063a3.986,3.986,0,0,1,.474.669.268.268,0,0,0,.466-.263A4.56,4.56,0,0,0,38.245,208.688Zm1.12,1.268L37.3,212.019a1.12,1.12,0,0,0-.316-.131V208.97a4.055,4.055,0,0,1,2.379.986Zm.379,5.672-2.063-2.063a1.118,1.118,0,0,0,.131-.316h2.917A4.053,4.053,0,0,1,39.744,215.629Zm-3.026-2.057a.591.591,0,1,1,.591-.591A.591.591,0,0,1,36.718,213.572Zm-3.026-3.238,2.063,2.063a1.12,1.12,0,0,0-.131.316H32.707A4.053,4.053,0,0,1,33.692,210.335Zm1.531-1.089a3.983,3.983,0,0,1,1.227-.277v2.92a1.119,1.119,0,0,0-.316.131l-2.064-2.064A3.984,3.984,0,0,1,35.224,209.246Zm-1.152,6.761,2.063-2.063a1.119,1.119,0,0,0,.316.131v2.918A4.055,4.055,0,0,1,34.071,216.007Zm4.141.711a3.985,3.985,0,0,1-1.227.277v-2.92a1.117,1.117,0,0,0,.316-.131l2.064,2.064A3.984,3.984,0,0,1,38.212,216.718Z" transform="translate(-31.015 -185.524)" fill="#8696a9"/>
    <path id="Trazado_10991" data-name="Trazado 10991" d="M17.719,30.051H15.984V25.169a1.127,1.127,0,0,0-1.126-1.126h-.3V22.022a1.986,1.986,0,0,0-1.984-1.984h-.018V20.02a1.127,1.127,0,0,0-1.126-1.126H5.971v-.877a1.414,1.414,0,0,0-1.412-1.412H3.968v-.018a.554.554,0,0,0-.554-.554H1.7a.84.84,0,1,0,0,1.68H3.415a.554.554,0,0,0,.554-.554v-.018h.591a.878.878,0,0,1,.877.877v3.744a5.7,5.7,0,1,0,5.7,3.962h2.005a.268.268,0,1,0,0-.535H10.935a5.68,5.68,0,0,0-.31-.609h3.394v5.208a1.7,1.7,0,1,0,1.944,1.944h1.756a.554.554,0,0,0,.554-.554V30.6A.554.554,0,0,0,17.719,30.051ZM3.433,17.159a.018.018,0,0,1-.018.018H1.7a.3.3,0,1,1,0-.609H3.415a.018.018,0,0,1,.018.018v.572Zm11.121,8.564h.9v4.5a1.694,1.694,0,0,0-.9-.441Zm-3.129-6.294a.591.591,0,0,1,.591.591v.018H5.971v-.609ZM5.7,32.626a5.168,5.168,0,1,1,5.168-5.168A5.174,5.174,0,0,1,5.7,32.626Zm4.565-8.583a5.7,5.7,0,0,0-4.3-2.282V20.574h6.6a1.451,1.451,0,0,1,1.449,1.449v2.021Zm4.589.535a.591.591,0,0,1,.591.591v.018h-.9v-.609Zm-.572,8.047a1.163,1.163,0,0,1-.268-2.294v1.131a.268.268,0,1,0,.535,0V30.332a1.163,1.163,0,0,1-.268,2.294Zm3.451-1.449a.018.018,0,0,1-.018.018H15.984v-.609h1.735a.018.018,0,0,1,.018.018Z" transform="translate(0)" fill="#8696a9"/>
  </g>
</svg>
