<svg id="_717518" data-name="717518" xmlns="http://www.w3.org/2000/svg" width="27.837" height="27.796" viewBox="0 0 27.837 27.796">
  <ellipse id="Elipse_182" data-name="Elipse 182" cx="13.898" cy="13.898" rx="13.898" ry="13.898" transform="translate(0.006 0)" fill="#27a2db"/>
  <g id="Grupo_4610" data-name="Grupo 4610" transform="translate(0 1.123)">
    <path id="Trazado_11194" data-name="Trazado 11194" d="M239.928,19.281a.508.508,0,0,0-.616.167,4.57,4.57,0,0,0-.894,2.146c-.064.534-.029,1.213-.5,1.573-.312.239-.692.217-.729.422s.363.3.537.69a1.2,1.2,0,0,1-.422,1.419c-.376.189-.764-.126-1.3-.307a3,3,0,0,0-1.133-.143.5.5,0,0,0-.234.94,2.739,2.739,0,0,1,.983.929,3.156,3.156,0,0,1,.077,3.03c-.441.856-1.07.953-1.074,1.534s.655.814,1.611,1.688c.882.807.678.949,2.57,3.337,1.362,1.72,1.644,1.868,1.8,1.8.486-.2-.6-2.243.384-3.644a2.919,2.919,0,0,1,3.222-1.036c.736.334.758.99,1.649,1.419a2.922,2.922,0,0,0,1.61.236.507.507,0,0,0,.44-.38,13.481,13.481,0,0,0,.353-3.947,15.013,15.013,0,0,0-2.418-6.959,14.591,14.591,0,0,0-1.6-1.946,13.93,13.93,0,0,0-4.317-2.971Z" transform="translate(-220.448 -19.238)" fill="#d5d6db"/>
    <path id="Trazado_11195" data-name="Trazado 11195" d="M139.66,218.157l-2.608.153-1.227-1.534a3.284,3.284,0,0,1,1.074-1.3c.45-.311.7-.293.92-.614.4-.6-.029-1.317.23-1.457.242-.131.817.39,1.151.844s.226.553.537,1c.5.721,1.045.832,1,1.151-.037.248-.376.252-.69.614A1.779,1.779,0,0,0,139.66,218.157Z" transform="translate(-127.751 -201.84)" fill="#d5d6db"/>
    <path id="Trazado_11196" data-name="Trazado 11196" d="M1.055,145.034c2.007-.7,2.587-.625,2.722-.4.1.172-.092.371-.077.844a2.061,2.061,0,0,0,.614,1.3c.685.688,1.335.248,2.071.767.825.582.217,1.281,1.151,2.531a7.8,7.8,0,0,0,2.805,1.867s.161.084.186.05c.063-.084-.967-.622-1.3-1.611A3.625,3.625,0,0,1,9.147,149a3.9,3.9,0,0,1,.23-1.457c.309-.732.767-.892.69-1.3-.063-.34-.389-.308-.537-.69-.247-.639.477-1.207.23-1.611-.145-.237-.434-.109-1.151-.307-.84-.232-.821-.512-1.534-.69a4.173,4.173,0,0,0-1.688,0c-.993.142-1.327.424-1.534.23-.309-.288.339-1,0-1.764-.253-.567-.751-.484-.844-.92-.145-.68.908-1.6,1.534-2.148.412-.36.7-.538.767-.92A1.636,1.636,0,0,0,5,136.347c-.4-.705-.766-.7-.844-1.151-.094-.544.39-.867.23-1.151s-.814-.249-1.227-.153A3.868,3.868,0,0,0,.9,135.848,7.664,7.664,0,0,0,0,139.99,12.974,12.974,0,0,0,1.055,145.034Z" transform="translate(0 -127.01)" fill="#d5d6db"/>
  </g>
  <path id="Trazado_11197" data-name="Trazado 11197" d="M405.565,212.21a12.016,12.016,0,0,1-1.4,3.114c.054,0-1.4-2.34-1.4-3.114a1.4,1.4,0,1,1,2.8,0Z" transform="translate(-378.823 -198.299)" fill="#ce412d"/>
  <ellipse id="Elipse_183" data-name="Elipse 183" cx="0.809" cy="0.809" rx="0.809" ry="0.809" transform="translate(24.533 13.104)" fill="#fff"/>
  <path id="Trazado_11198" data-name="Trazado 11198" d="M283.458,154.919a12.016,12.016,0,0,1-1.4,3.114c.054,0-1.4-2.34-1.4-3.114a1.4,1.4,0,0,1,2.8,0Z" transform="translate(-263.974 -144.414)" fill="#ce412d"/>
  <ellipse id="Elipse_184" data-name="Elipse 184" cx="0.809" cy="0.809" rx="0.809" ry="0.809" transform="translate(17.274 9.696)" fill="#fff"/>
  <path id="Trazado_11199" data-name="Trazado 11199" d="M330.579,70.041a12.016,12.016,0,0,1-1.4,3.114c.054,0-1.4-2.34-1.4-3.114a1.4,1.4,0,1,1,2.8,0Z" transform="translate(-308.294 -64.581)" fill="#ce412d"/>
  <ellipse id="Elipse_185" data-name="Elipse 185" cx="0.809" cy="0.809" rx="0.809" ry="0.809" transform="translate(20.075 4.651)" fill="#fff"/>
  <path id="Trazado_11200" data-name="Trazado 11200" d="M162.579,197.574a12.016,12.016,0,0,1-1.4,3.114c.054,0-1.4-2.34-1.4-3.114a1.4,1.4,0,1,1,2.8,0Z" transform="translate(-150.28 -184.533)" fill="#ce412d"/>
  <ellipse id="Elipse_186" data-name="Elipse 186" cx="0.809" cy="0.809" rx="0.809" ry="0.809" transform="translate(10.089 12.232)" fill="#fff"/>
  <path id="Trazado_11201" data-name="Trazado 11201" d="M16.823,150.745a12.016,12.016,0,0,1-1.4,3.114c.054,0-1.4-2.34-1.4-3.114a1.4,1.4,0,1,1,2.8,0Z" transform="translate(-13.189 -140.488)" fill="#ce412d"/>
  <ellipse id="Elipse_187" data-name="Elipse 187" cx="0.809" cy="0.809" rx="0.809" ry="0.809" transform="translate(1.425 9.448)" fill="#fff"/>
</svg>
