<svg xmlns="http://www.w3.org/2000/svg" width="17.244" height="17.24" viewBox="0 0 17.244 17.24">
  <g id="_900782" data-name="900782" transform="translate(0.053 0.028)">
    <g id="Grupo_4773" data-name="Grupo 4773" transform="translate(0 0.022)">
      <path id="Trazado_11657" data-name="Trazado 11657" d="M8.56.022a8.583,8.583,0,0,0-.92.049A8.09,8.09,0,0,0,6.811.2L6.653.239A8.571,8.571,0,0,0,2.425,2.606q-.161.165-.315.339A8.58,8.58,0,0,0,14.7,14.6q.161-.165.315-.339A8.58,8.58,0,0,0,8.56.022ZM2.806,3.035c.045-.047.092-.092.138-.137s.106-.1.16-.156.1-.088.146-.131.11-.1.167-.145.1-.082.152-.123.114-.092.173-.136.1-.077.158-.114.119-.086.179-.125.109-.072.164-.107.123-.078.185-.114l.169-.1q.095-.054.191-.106l.172-.09c.065-.033.131-.065.2-.1s.117-.054.176-.08l.2-.086.178-.071c.069-.026.139-.051.209-.076L6.1.983c.071-.023.143-.044.215-.065S6.438.883,6.5.867L6.568.85A7.1,7.1,0,0,0,4.74,3.818a9.606,9.606,0,0,1-1.96-.754Zm-.411.46a9.937,9.937,0,0,0,2.171.864,14.842,14.842,0,0,0-.577,3.957H.558A7.991,7.991,0,0,1,2.395,3.5Zm0,10.213A7.992,7.992,0,0,1,.558,8.888H3.988a14.84,14.84,0,0,0,.577,3.957A9.944,9.944,0,0,0,2.395,13.709Zm4.1,2.63c-.058-.015-.118-.033-.177-.051s-.145-.042-.217-.065-.12-.04-.179-.061-.141-.049-.21-.076-.118-.046-.177-.07l-.2-.086-.174-.08-.2-.1c-.057-.029-.114-.057-.172-.088s-.129-.07-.193-.107-.112-.064-.167-.1-.125-.077-.186-.116-.109-.07-.162-.106-.121-.084-.181-.127-.1-.075-.156-.114-.117-.091-.175-.137-.1-.08-.15-.122-.112-.1-.168-.146-.1-.086-.145-.13-.108-.1-.161-.156-.093-.09-.138-.137l-.025-.027a9.6,9.6,0,0,1,1.96-.754,7.1,7.1,0,0,0,1.828,2.968Zm1.778.249c-1.224-.174-2.3-1.451-2.972-3.337a14.535,14.535,0,0,1,2.972-.35Zm0-4.259a15.062,15.062,0,0,0-3.151.376A14.308,14.308,0,0,1,4.56,8.888H8.274v3.44Zm0-4.012H4.56A14.305,14.305,0,0,1,5.123,4.5a15.067,15.067,0,0,0,3.151.376Zm0-4.012A14.52,14.52,0,0,1,5.3,3.954C5.978,2.068,7.05.79,8.274.617ZM14.726,3.5a7.992,7.992,0,0,1,1.836,4.821H13.133a14.84,14.84,0,0,0-.577-3.957A9.948,9.948,0,0,0,14.726,3.5Zm-4.1-2.63c.06.015.12.034.179.051s.145.042.217.065.12.04.179.061.141.049.21.076.118.046.177.07l.2.086.174.08.2.1c.057.029.114.057.172.088s.129.07.193.107.112.064.167.1.125.077.186.116.109.07.162.106.121.084.181.127.1.075.157.114.117.09.175.137.1.08.15.122.112.1.168.146.1.086.145.13.108.1.161.156.093.09.138.137l.025.027a9.6,9.6,0,0,1-1.96.755A7.1,7.1,0,0,0,10.552.848ZM8.846.617c1.224.174,2.3,1.451,2.972,3.337a14.535,14.535,0,0,1-2.972.35V.617Zm0,4.259A15.062,15.062,0,0,0,12,4.5a14.308,14.308,0,0,1,.563,3.816H8.846Zm0,4.012h3.714A14.305,14.305,0,0,1,12,12.7h0a15.067,15.067,0,0,0-3.151-.376Zm0,7.7V12.9a14.519,14.519,0,0,1,2.972.35C11.143,15.137,10.07,16.414,8.846,16.588Zm5.468-2.419c-.045.047-.092.092-.138.137s-.106.105-.161.156-.1.086-.145.13-.111.1-.167.146-.1.082-.152.123-.114.092-.173.136-.1.077-.158.114-.119.086-.179.125-.109.072-.164.107-.123.078-.185.114l-.168.1q-.095.054-.191.106l-.172.09c-.065.033-.131.065-.2.1s-.117.054-.176.08l-.2.086c-.059.024-.118.048-.178.071s-.14.051-.21.076-.119.042-.179.061-.143.044-.216.065-.12.035-.18.052l-.07.017a7.1,7.1,0,0,0,1.828-2.968,9.606,9.606,0,0,1,1.96.754Zm.411-.46a9.937,9.937,0,0,0-2.171-.864,14.842,14.842,0,0,0,.577-3.957h3.429A7.991,7.991,0,0,1,14.726,13.709Z" transform="translate(0 -0.022)" fill="#393a34" stroke="#393a34" stroke-width="0.1"/>
    </g>
  </g>
</svg>
