<svg xmlns="http://www.w3.org/2000/svg" width="116.676" height="38.599" viewBox="0 0 116.676 38.599">
  <g id="Myprop" transform="translate(-159.925 -365.568)" style="isolation: isolate">
    <g id="Grupo_19306" data-name="Grupo 19306" style="isolation: isolate">
      <path id="Trazado_11230" data-name="Trazado 11230" d="M161.757,394.909a1.312,1.312,0,0,1-1.332-1.332V367.4a1.281,1.281,0,0,1,.294-.835,1.248,1.248,0,0,1,.745-.453,1.207,1.207,0,0,1,.857.091,1.311,1.311,0,0,1,.632.61l7.268,14.784,7.245-14.784a1.315,1.315,0,0,1,.632-.61,1.281,1.281,0,0,1,.881-.091,1.253,1.253,0,0,1,.745.453,1.285,1.285,0,0,1,.293.835v26.181a1.35,1.35,0,0,1-1.354,1.332,1.261,1.261,0,0,1-.926-.384,1.3,1.3,0,0,1-.406-.948V373.151L171.417,385.2a1.263,1.263,0,0,1-1.2.744,1.235,1.235,0,0,1-1.2-.744l-5.936-12.053v20.426a1.336,1.336,0,0,1-.384.948A1.288,1.288,0,0,1,161.757,394.909Z" fill="#fe3151" stroke="#fe3151" stroke-width="1"/>
      <path id="Trazado_11231" data-name="Trazado 11231" d="M191.325,394.593a8.438,8.438,0,0,1-8.419-8.419V375.837a1.2,1.2,0,0,1,1.174-1.174,1.075,1.075,0,0,1,.812.361,1.109,1.109,0,0,1,.339.813v10.337a6.088,6.088,0,0,0,6.094,6.072h.068a5.925,5.925,0,0,0,4.311-1.783,5.85,5.85,0,0,0,1.783-4.289V375.837a1.112,1.112,0,0,1,.338-.813,1.079,1.079,0,0,1,.813-.361,1.2,1.2,0,0,1,1.174,1.174v19.32a8.4,8.4,0,0,1-8.419,8.419h-.068a8.408,8.408,0,0,1-7.561-4.717,1.114,1.114,0,0,1-.068-.9,1.1,1.1,0,0,1,.587-.654,1.118,1.118,0,0,1,.9-.068,1.1,1.1,0,0,1,.654.587,5.961,5.961,0,0,0,2.077,2.369,5.862,5.862,0,0,0,3.408,1.062h.068a6.088,6.088,0,0,0,6.094-6.1v-3.182a8.117,8.117,0,0,1-6.094,2.618Z" fill="#fe3151" stroke="#fe3151" stroke-width="1"/>
      <path id="Trazado_11232" data-name="Trazado 11232" d="M206.154,403.667a1.158,1.158,0,0,1-1.174-1.174V383.06a8.478,8.478,0,0,1,8.442-8.442h.068a8.438,8.438,0,0,1,8.441,8.442V386.2a8.4,8.4,0,0,1-8.441,8.442h-.068a8.072,8.072,0,0,1-6.094-2.618v10.472a1.2,1.2,0,0,1-1.174,1.174Zm1.174-17.47a6.125,6.125,0,0,0,6.094,6.116h.068a6.163,6.163,0,0,0,6.116-6.116V383.06a6.123,6.123,0,0,0-6.116-6.094h-.068a6.086,6.086,0,0,0-6.094,6.094Z" fill="#fe3151" stroke="#fe3151" stroke-width="1"/>
      <path id="Trazado_11233" data-name="Trazado 11233" d="M226.919,394.909a1.156,1.156,0,0,1-1.173-1.174V383.24a8.517,8.517,0,0,1,8.508-8.51h1.423a1.188,1.188,0,0,1,.835.339,1.2,1.2,0,0,1,0,1.67,1.179,1.179,0,0,1-.835.339h-1.423a6.164,6.164,0,0,0-6.161,6.162v10.495a1.18,1.18,0,0,1-.339.835A1.134,1.134,0,0,1,226.919,394.909Z" fill="#fe3151" stroke="#fe3151" stroke-width="1"/>
      <path id="Trazado_11234" data-name="Trazado 11234" d="M247.323,394.909a8.553,8.553,0,0,1-8.509-8.509v-3.16a8.555,8.555,0,0,1,8.509-8.51h.068a8.555,8.555,0,0,1,8.509,8.51v3.16a8.553,8.553,0,0,1-8.509,8.509Zm-6.162-8.509a6.166,6.166,0,0,0,6.162,6.162h.068a6.166,6.166,0,0,0,6.162-6.162v-3.16a6.166,6.166,0,0,0-6.162-6.162h-.068a6.166,6.166,0,0,0-6.162,6.162Z" fill="#fe3151" stroke="#fe3151" stroke-width="1"/>
      <path id="Trazado_11235" data-name="Trazado 11235" d="M260.324,403.667a1.158,1.158,0,0,1-1.174-1.174V383.06a8.478,8.478,0,0,1,8.442-8.442h.068a8.438,8.438,0,0,1,8.441,8.442V386.2a8.4,8.4,0,0,1-8.441,8.442h-.068a8.072,8.072,0,0,1-6.094-2.618v10.472a1.2,1.2,0,0,1-1.174,1.174ZM261.5,386.2a6.125,6.125,0,0,0,6.094,6.116h.068a6.163,6.163,0,0,0,6.116-6.116V383.06a6.123,6.123,0,0,0-6.116-6.094h-.068a6.086,6.086,0,0,0-6.094,6.094Z" fill="#fe3151" stroke="#fe3151" stroke-width="1"/>
    </g>
    <g id="Grupo_19307" data-name="Grupo 19307" style="isolation: isolate">
      <path id="Trazado_11236" data-name="Trazado 11236" d="M161.757,394.909a1.312,1.312,0,0,1-1.332-1.332V367.4a1.281,1.281,0,0,1,.294-.835,1.248,1.248,0,0,1,.745-.453,1.207,1.207,0,0,1,.857.091,1.311,1.311,0,0,1,.632.61l7.268,14.784,7.245-14.784a1.315,1.315,0,0,1,.632-.61,1.281,1.281,0,0,1,.881-.091,1.253,1.253,0,0,1,.745.453,1.285,1.285,0,0,1,.293.835v26.181a1.35,1.35,0,0,1-1.354,1.332,1.261,1.261,0,0,1-.926-.384,1.3,1.3,0,0,1-.406-.948V373.151L171.417,385.2a1.263,1.263,0,0,1-1.2.744,1.235,1.235,0,0,1-1.2-.744l-5.936-12.053v20.426a1.336,1.336,0,0,1-.384.948A1.288,1.288,0,0,1,161.757,394.909Z" fill="#fe3151" stroke="#fe3151" stroke-miterlimit="10" stroke-width="1"/>
      <path id="Trazado_11237" data-name="Trazado 11237" d="M191.325,394.593a8.438,8.438,0,0,1-8.419-8.419V375.837a1.2,1.2,0,0,1,1.174-1.174,1.075,1.075,0,0,1,.812.361,1.109,1.109,0,0,1,.339.813v10.337a6.088,6.088,0,0,0,6.094,6.072h.068a5.925,5.925,0,0,0,4.311-1.783,5.85,5.85,0,0,0,1.783-4.289V375.837a1.112,1.112,0,0,1,.338-.813,1.079,1.079,0,0,1,.813-.361,1.2,1.2,0,0,1,1.174,1.174v19.32a8.4,8.4,0,0,1-8.419,8.419h-.068a8.408,8.408,0,0,1-7.561-4.717,1.114,1.114,0,0,1-.068-.9,1.1,1.1,0,0,1,.587-.654,1.118,1.118,0,0,1,.9-.068,1.1,1.1,0,0,1,.654.587,5.961,5.961,0,0,0,2.077,2.369,5.862,5.862,0,0,0,3.408,1.062h.068a6.088,6.088,0,0,0,6.094-6.1v-3.182a8.117,8.117,0,0,1-6.094,2.618Z" fill="#fe3151" stroke="#fe3151" stroke-miterlimit="10" stroke-width="1"/>
      <path id="Trazado_11238" data-name="Trazado 11238" d="M206.154,403.667a1.158,1.158,0,0,1-1.174-1.174V383.06a8.478,8.478,0,0,1,8.442-8.442h.068a8.438,8.438,0,0,1,8.441,8.442V386.2a8.4,8.4,0,0,1-8.441,8.442h-.068a8.072,8.072,0,0,1-6.094-2.618v10.472a1.2,1.2,0,0,1-1.174,1.174Zm1.174-17.47a6.125,6.125,0,0,0,6.094,6.116h.068a6.163,6.163,0,0,0,6.116-6.116V383.06a6.123,6.123,0,0,0-6.116-6.094h-.068a6.086,6.086,0,0,0-6.094,6.094Z" fill="#fe3151" stroke="#fe3151" stroke-miterlimit="10" stroke-width="1"/>
      <path id="Trazado_11239" data-name="Trazado 11239" d="M226.919,394.909a1.156,1.156,0,0,1-1.173-1.174V383.24a8.517,8.517,0,0,1,8.508-8.51h1.423a1.188,1.188,0,0,1,.835.339,1.2,1.2,0,0,1,0,1.67,1.179,1.179,0,0,1-.835.339h-1.423a6.164,6.164,0,0,0-6.161,6.162v10.495a1.18,1.18,0,0,1-.339.835A1.134,1.134,0,0,1,226.919,394.909Z" fill="#fe3151" stroke="#fe3151" stroke-miterlimit="10" stroke-width="1"/>
      <path id="Trazado_11240" data-name="Trazado 11240" d="M247.323,394.909a8.553,8.553,0,0,1-8.509-8.509v-3.16a8.555,8.555,0,0,1,8.509-8.51h.068a8.555,8.555,0,0,1,8.509,8.51v3.16a8.553,8.553,0,0,1-8.509,8.509Zm-6.162-8.509a6.166,6.166,0,0,0,6.162,6.162h.068a6.166,6.166,0,0,0,6.162-6.162v-3.16a6.166,6.166,0,0,0-6.162-6.162h-.068a6.166,6.166,0,0,0-6.162,6.162Z" fill="#fe3151" stroke="#fe3151" stroke-miterlimit="10" stroke-width="1"/>
      <path id="Trazado_11241" data-name="Trazado 11241" d="M260.324,403.667a1.158,1.158,0,0,1-1.174-1.174V383.06a8.478,8.478,0,0,1,8.442-8.442h.068a8.438,8.438,0,0,1,8.441,8.442V386.2a8.4,8.4,0,0,1-8.441,8.442h-.068a8.072,8.072,0,0,1-6.094-2.618v10.472a1.2,1.2,0,0,1-1.174,1.174ZM261.5,386.2a6.125,6.125,0,0,0,6.094,6.116h.068a6.163,6.163,0,0,0,6.116-6.116V383.06a6.123,6.123,0,0,0-6.116-6.094h-.068a6.086,6.086,0,0,0-6.094,6.094Z" fill="#fe3151" stroke="#fe3151" stroke-miterlimit="10" stroke-width="1"/>
    </g>
  </g>
</svg>
