<svg xmlns="http://www.w3.org/2000/svg" xmlns:xlink="http://www.w3.org/1999/xlink" width="302" height="168" viewBox="0 0 302 168">
  <defs>
    <linearGradient id="linear-gradient" x1="0.5" x2="0.5" y2="1" gradientUnits="objectBoundingBox">
      <stop offset="0" stop-color="#fbd24d"/>
      <stop offset="1" stop-color="#ffb300"/>
    </linearGradient>
    <filter id="Rectángulo_17518" x="0" y="0" width="302" height="168" filterUnits="userSpaceOnUse">
      <feOffset dy="3" input="SourceAlpha"/>
      <feGaussianBlur stdDeviation="3" result="blur"/>
      <feFlood flood-opacity="0.051"/>
      <feComposite operator="in" in2="blur"/>
      <feComposite in="SourceGraphic"/>
    </filter>
    <filter id="Rectángulo_17519" x="17.251" y="19.511" width="48" height="48" filterUnits="userSpaceOnUse">
      <feOffset dy="3" input="SourceAlpha"/>
      <feGaussianBlur stdDeviation="3" result="blur-2"/>
      <feFlood flood-opacity="0.161"/>
      <feComposite operator="in" in2="blur-2"/>
      <feComposite in="SourceGraphic"/>
    </filter>
  </defs>
  <g id="Grupo_4822" data-name="Grupo 4822" transform="translate(-37 -1234)">
    <g transform="matrix(1, 0, 0, 1, 37, 1234)" filter="url(#Rectángulo_17518)">
      <rect id="Rectángulo_17518-2" data-name="Rectángulo 17518" width="284" height="150" rx="8" transform="translate(9 6)" fill="url(#linear-gradient)"/>
    </g>
    <text id="Oro" transform="translate(123.5 1272.369)" fill="#fff" font-size="16" font-family="SegoeUI, Segoe UI"><tspan x="-13.5" y="0">Oro</tspan></text>
    <text id="Serás_nivel_Oro" data-name="Serás nivel Oro" transform="translate(143.5 1295.7)" fill="#fff" stroke="#fff" stroke-width="0.3" font-size="11" font-family="SegoeUI, Segoe UI"><tspan x="-36.424" y="0">Serás nivel Oro</tspan></text>
    <path id="arrow-ios-back-fill" d="M4.433,9.4a.8.8,0,0,1-.592-.249L.173,5.126a.613.613,0,0,1,0-.853L3.97.243A.83.83,0,0,1,5.04.155a.621.621,0,0,1,.1.947L1.745,4.7,5.025,8.3a.61.61,0,0,1,.1.718A.774.774,0,0,1,4.433,9.4Z" transform="translate(254.456 1296.948) rotate(-179)" fill="#fff"/>
    <g transform="matrix(1, 0, 0, 1, 37, 1234)" filter="url(#Rectángulo_17519)">
      <rect id="Rectángulo_17519-2" data-name="Rectángulo 17519" width="30" height="30" rx="8" transform="translate(26.25 25.51)" fill="#fff"/>
    </g>
    <g id="_460086" data-name="460086" transform="translate(71.495 1264.845)">
      <g id="Grupo_4777" data-name="Grupo 4777" transform="translate(0)">
        <g id="Grupo_4776" data-name="Grupo 4776">
          <path id="Trazado_11669" data-name="Trazado 11669" d="M107.378,8.533A6.745,6.745,0,0,0,104.889,3.3V.356A.355.355,0,0,0,104.534,0H96.711a.355.355,0,0,0-.356.356V3.3a6.747,6.747,0,0,0,0,10.467v7.211a.355.355,0,0,0,.607.251l3.66-3.66,3.66,3.66a.355.355,0,0,0,.607-.251V13.767A6.745,6.745,0,0,0,107.378,8.533ZM97.067.711h7.111V2.792a6.73,6.73,0,0,0-1.253-.609l-.031-.011-.158-.054-.075-.024-.125-.038-.134-.038-.111-.03-.107-.026-.088-.02-.109-.024-.125-.024-.145-.025-.1-.016-.1-.014-.125-.015-.076-.009c-.065-.007-.13-.012-.2-.017l-.069,0-.151-.008-.066,0c-.07,0-.141,0-.212,0s-.141,0-.212,0l-.066,0-.151.008-.069,0-.2.017-.076.009-.125.015-.1.014-.1.016-.145.025-.125.024-.109.024-.088.02-.107.026-.111.03-.134.038-.125.038-.075.024-.158.054-.031.011a6.735,6.735,0,0,0-1.253.609V.711Zm7.111,19.408-3.3-3.3a.355.355,0,0,0-.5,0l-3.3,3.3V14.275a6.736,6.736,0,0,0,1.253.609l.031.011.157.054.075.024.125.038.134.038.111.03.107.026.088.02.109.024.124.024.145.025.1.016.1.014.125.015.076.009c.065.007.13.012.2.017l.069,0,.151.008.066,0c.07,0,.141,0,.212,0s.141,0,.212,0l.066,0,.151-.008.069,0,.2-.017.076-.009.125-.015.1-.014.1-.016.145-.025.125-.024.109-.024.088-.02.107-.026.111-.03.134-.038.125-.038.075-.024.157-.054.031-.011a6.73,6.73,0,0,0,1.253-.609v5.844Zm.177-6.835a.359.359,0,0,0-.039.026,6.057,6.057,0,0,1-1.708.932l-.039.014-.045.015-.094.031-.031.01-.114.034-.018.005a5.992,5.992,0,0,1-.724.158h0q-.22.034-.445.051l-.028,0-.114.007-.041,0-.106,0h-.041l-.144,0-.144,0h-.041l-.106,0-.041,0-.114-.007-.028,0q-.225-.017-.445-.051h0a5.992,5.992,0,0,1-.724-.158l-.018,0-.114-.034-.031-.01-.094-.031-.045-.015-.039-.014a6.058,6.058,0,0,1-1.708-.932.353.353,0,0,0-.039-.026,6.038,6.038,0,0,1,0-9.5.347.347,0,0,0,.041-.028,6.057,6.057,0,0,1,1.708-.932l.039-.014.045-.015.094-.031.031-.01.114-.034.018-.005a6,6,0,0,1,.724-.158h0q.22-.034.445-.051l.028,0,.114-.007.041,0,.106,0h.041l.144,0,.144,0h.041l.106,0,.041,0,.114.007.028,0q.225.017.445.051h0a6,6,0,0,1,.724.158l.018.005.114.034.031.01.094.031.045.015.039.014a6.058,6.058,0,0,1,1.708.932.346.346,0,0,0,.039.026,6.038,6.038,0,0,1,0,9.5Z" transform="translate(-93.867)" fill="#fbd24d" stroke="#fbd24d" stroke-width="0.3"/>
          <path id="Trazado_11670" data-name="Trazado 11670" d="M154.3,89.146a.356.356,0,0,0-.282-.238l-2.722-.425L150.01,85.9a.37.37,0,0,0-.637,0l-1.281,2.582-2.722.425a.355.355,0,0,0-.2.6l1.929,2-.6,2.652a.356.356,0,0,0,.489.4l2.7-1.176,2.7,1.176a.356.356,0,0,0,.489-.4l-.6-2.652,1.929-2A.356.356,0,0,0,154.3,89.146Zm-2.655,2a.355.355,0,0,0-.091.325l.486,2.155-2.2-.958a.356.356,0,0,0-.284,0l-2.2.958.486-2.155a.355.355,0,0,0-.091-.325L146.156,89.5l2.228-.347a.354.354,0,0,0,.263-.193l1.044-2.1,1.044,2.1a.354.354,0,0,0,.263.193l2.228.347Z" transform="translate(-142.936 -82.148)" fill="#fbd24d" stroke="#fbd24d" stroke-width="0.3"/>
        </g>
      </g>
    </g>
    <text id="Mira_lo_que_puedes_obtener_cuando_desbloquees_este_nivel" data-name="Mira lo que puedes obtener cuando 
desbloquees este nivel" transform="translate(105 1313.668)" fill="#fff" font-size="10" font-family="SegoeUI-Light, Segoe UI" font-weight="300"><tspan x="0" y="11">Mira lo que puedes obtener cuando </tspan><tspan x="0" y="26">desbloquees este nivel</tspan></text>
    <line id="Línea_40" data-name="Línea 40" x2="150" transform="translate(103.5 1305.5)" fill="none" stroke="#fff" stroke-width="1" opacity="0.14"/>
  </g>
</svg>
