<svg id="_3094087" data-name="3094087" xmlns="http://www.w3.org/2000/svg" width="13.269" height="19" viewBox="0 0 13.269 19">
  <g id="Grupo_4640" data-name="Grupo 4640" transform="translate(0)">
    <path id="Trazado_11231" data-name="Trazado 11231" d="M87.241,16.807h.014a.287.287,0,0,0,.294-.263,2.766,2.766,0,0,1,2.176-2.493l.893-.21a4,4,0,0,0,.71,1.646,1.093,1.093,0,0,0,.777.437,1.163,1.163,0,0,0,.118.006,1.126,1.126,0,0,0,.747-.279l.623-.553.623.552a1.126,1.126,0,0,0,.747.279,1.163,1.163,0,0,0,.118-.006,1.093,1.093,0,0,0,.777-.437,4,4,0,0,0,.71-1.646l.893.21a2.766,2.766,0,0,1,2.175,2.493.287.287,0,0,0,.294.263h.014a.284.284,0,0,0,.28-.289,3.12,3.12,0,0,0-.779-1.906,3.473,3.473,0,0,0-1.842-1.1l-1.185-.278-.946-.439v-.854a4.269,4.269,0,0,0,1.12-.752A3.867,3.867,0,0,0,97.838,8.63h.429a.9.9,0,0,0,.928-.872V6.716a.873.873,0,0,0-.555-.8V4.743a4.572,4.572,0,0,0-1.485-3.36A5.185,5.185,0,0,0,93.592,0h-.018a5.172,5.172,0,0,0-3.76,1.617.265.265,0,0,0,.027.39.308.308,0,0,0,.415-.026A4.567,4.567,0,0,1,93.576.553h.016a4.581,4.581,0,0,1,3.149,1.222,4.039,4.039,0,0,1,1.312,2.968v1.1h-.5a.286.286,0,0,0-.294.276v1.2L96.5,6.094a.3.3,0,0,0-.321-.131.282.282,0,0,0-.227.25l-.005.071a1.871,1.871,0,0,1-.7-.872.3.3,0,0,0-.566,0c-.014.045-.311.942-1.854,1.211a.812.812,0,0,0,.177-.338.268.268,0,0,0-.108-.273.31.31,0,0,0-.308-.03,6.618,6.618,0,0,1-2.091.568.3.3,0,0,0-.259.146l-.318.557V6.121a.286.286,0,0,0-.294-.276h-.5V4.792a4.015,4.015,0,0,1,.423-1.8.27.27,0,0,0-.143-.367.3.3,0,0,0-.391.134,4.536,4.536,0,0,0-.477,2.031V5.918a.873.873,0,0,0-.555.8V7.759a.9.9,0,0,0,.928.872h.433a4.067,4.067,0,0,0,2.364,3.3V12.8l-.946.439-1.185.278a3.473,3.473,0,0,0-1.842,1.1,3.12,3.12,0,0,0-.779,1.906A.284.284,0,0,0,87.241,16.807Zm8.129-1.631a.491.491,0,0,1-.354.2.52.52,0,0,1-.4-.126l-.4-.356a1.8,1.8,0,0,0,1.244-1.485l.539.25A3.442,3.442,0,0,1,95.37,15.177ZM97.849,6.4h.419a.33.33,0,0,1,.34.319V7.758a.33.33,0,0,1-.34.319h-.419ZM88.576,7.759V6.716a.33.33,0,0,1,.34-.319h.419V8.078h-.419A.33.33,0,0,1,88.576,7.759Zm1.349.661L90.68,7.1a4.82,4.82,0,0,0,.917-.169.26.26,0,0,0,0,.114.291.291,0,0,0,.286.21,3.639,3.639,0,0,0,3.072-1.164A2.7,2.7,0,0,0,96.08,7a.311.311,0,0,0,.275-.01l.015-.009.889,1.443A3.324,3.324,0,0,1,96.176,10.8a3.767,3.767,0,0,1-2.584,1h-.028A3.6,3.6,0,0,1,89.925,8.42Zm3.634,3.933a4.712,4.712,0,0,0,1.323-.186V13.23a1.293,1.293,0,0,1-2.582,0V12.162A4.425,4.425,0,0,0,93.559,12.353ZM91.722,13.41a1.794,1.794,0,0,0,1.244,1.485l-.4.355a.52.52,0,0,1-.4.126.491.491,0,0,1-.354-.2,3.442,3.442,0,0,1-.631-1.516Z" transform="translate(-86.957 0)" fill="#8696a9"/>
    <path id="Trazado_11232" data-name="Trazado 11232" d="M99.845,459.3a.294.294,0,0,0-.294.294v.525H97.4v-1.212a.294.294,0,0,0-.294-.294h-1.9a.294.294,0,0,0-.294.294v1.212H87.458v-.525a.294.294,0,0,0-.588,0v.819a.294.294,0,0,0,.294.294H99.845a.294.294,0,0,0,.294-.294v-.819A.294.294,0,0,0,99.845,459.3Zm-4.342-.1h1.314v.917H95.5Z" transform="translate(-86.87 -441.708)" fill="#8696a9"/>
  </g>
</svg>
