<svg xmlns="http://www.w3.org/2000/svg" width="16.265" height="10.424" viewBox="0 0 16.265 10.424">
  <g id="Grupo_19279" data-name="Grupo 19279" transform="translate(-1949.367 -311.288)">
    <g id="_633633" data-name="633633" transform="translate(1950 205.858)">
      <g id="Grupo_4513" data-name="Grupo 4513" transform="translate(0 106.662)">
        <g id="Grupo_4512" data-name="Grupo 4512" transform="translate(0 0)">
          <path id="Trazado_10977" data-name="Trazado 10977" d="M14.613,110.766c-.116-.168-2.891-4.1-7.279-4.1-3.765,0-7.12,3.914-7.261,4.08a.307.307,0,0,0,0,.395c.141.167,3.5,4.08,7.261,4.08s7.12-3.914,7.261-4.08A.306.306,0,0,0,14.613,110.766Zm-7.279,3.84c-3.018,0-5.888-2.878-6.617-3.667.728-.789,3.595-3.667,6.617-3.667,3.532,0,6.024,2.874,6.633,3.65C13.264,111.687,10.378,114.607,7.334,114.607Z" transform="translate(0 -106.662)" fill="#fe3151" stroke="#fe3151" stroke-width="0.3"/>
        </g>
      </g>
      <g id="Grupo_4515" data-name="Grupo 4515" transform="translate(4.889 108.495)">
        <g id="Grupo_4514" data-name="Grupo 4514" transform="translate(0 0)">
          <path id="Trazado_10978" data-name="Trazado 10978" d="M173.106,170.662a2.444,2.444,0,1,0,2.444,2.444A2.447,2.447,0,0,0,173.106,170.662Zm0,4.278a1.833,1.833,0,1,1,1.833-1.833A1.836,1.836,0,0,1,173.106,174.94Z" transform="translate(-170.662 -170.662)" fill="#fe3151" stroke="#fe3151" stroke-width="0.3"/>
        </g>
      </g>
    </g>
    <line id="Línea_17" data-name="Línea 17" x2="16" y2="10" transform="translate(1949.5 311.5)" fill="none" stroke="#fe3151" stroke-width="0.5"/>
  </g>
</svg>
