<svg xmlns="http://www.w3.org/2000/svg" width="16.804" height="14.083" viewBox="0 0 16.804 14.083">
  <path id="_4101101" data-name="4101101" d="M32.518,66.135h-.943l-4.64-9.826.2-.716A1.4,1.4,0,0,0,26.1,53.842l-.329-.073a1.4,1.4,0,0,0-1.65.982l-.692,2.423h-.563l-.408-.865.2-.716a1.4,1.4,0,0,0-1.043-1.752l-.339-.075a1.4,1.4,0,0,0-1.647.97L16.005,67.459a.28.28,0,0,0,.539.153l.419-1.477h3.9l-.378,1.323a.28.28,0,0,0,.539.154l1.8-6.3,3,6.347a.28.28,0,0,0,.253.16h6.441a.28.28,0,0,0,.28-.28v-1.12A.28.28,0,0,0,32.518,66.135ZM24.656,54.9a.841.841,0,0,1,.99-.589l.33.073a.84.84,0,0,1,.626,1.051l-.175.614h-2.1ZM20.168,54.9a.843.843,0,0,1,.988-.582l.339.075a.84.84,0,0,1,.626,1.051l-.175.614H19.826Zm-2.093,7.319.318-1.12H22.3l-.32,1.12Zm3.75.56-.32,1.12H17.6l.318-1.12Zm-3.274-2.24.318-1.12h3.063l.529,1.12Zm.476-1.68.318-1.12h1.793l.529,1.12Zm-1.906,6.721.318-1.12h3.905l-.32,1.12Zm10.636,1.68h-1.5l-4.685-9.922a.28.28,0,0,0-.253-.16H19.5l.159-.56h2.316l4.685,9.922a.28.28,0,0,0,.253.16h.84Zm.56,0v-.84a.28.28,0,0,0-.28-.28h-.943l-3.968-8.4h2.492l4.5,9.522Zm3.921,0h-1.5L26.05,57.334a.28.28,0,0,0-.253-.16H24.008l.16-.56H26.46l4.685,9.922a.28.28,0,0,0,.253.16h.84Z" transform="translate(-15.994 -53.733)" fill="#8696a9"/>
</svg>
