<svg id="_4158359" data-name="4158359" xmlns="http://www.w3.org/2000/svg" width="13.748" height="20" viewBox="0 0 13.748 20">
  <path id="Trazado_11081" data-name="Trazado 11081" d="M227.779,217.342a1.2,1.2,0,1,0-1.2,1.2A1.2,1.2,0,0,0,227.779,217.342Zm-1.73.293h.339a.293.293,0,1,0,0-.586h-.339a.61.61,0,1,1,0,.586Z" transform="translate(-219.709 -207.703)" fill="#8696a9"/>
  <path id="Trazado_11082" data-name="Trazado 11082" d="M198.205,2.182a.935.935,0,0,0,.272.663.375.375,0,0,1,.132.282.293.293,0,1,0,.586,0,.934.934,0,0,0-.272-.663.369.369,0,0,1,0-.565.944.944,0,0,0,0-1.325.375.375,0,0,1-.132-.282.293.293,0,0,0-.586,0,.935.935,0,0,0,.272.663.369.369,0,0,1,0,.565A.935.935,0,0,0,198.205,2.182Z" transform="translate(-193.588 0.001)" fill="#8696a9"/>
  <path id="Trazado_11083" data-name="Trazado 11083" d="M243.339,2.182a.934.934,0,0,0,.272.663.375.375,0,0,1,.132.282.293.293,0,0,0,.586,0,.934.934,0,0,0-.272-.663.369.369,0,0,1,0-.565.944.944,0,0,0,0-1.325.375.375,0,0,1-.132-.282.293.293,0,1,0-.586,0,.934.934,0,0,0,.272.663.369.369,0,0,1,0,.565A.934.934,0,0,0,243.339,2.182Z" transform="translate(-236.959 0.001)" fill="#8696a9"/>
  <path id="Trazado_11084" data-name="Trazado 11084" d="M288.473,2.182a.935.935,0,0,0,.272.663.375.375,0,0,1,.132.282.293.293,0,1,0,.586,0,.935.935,0,0,0-.272-.663.369.369,0,0,1,0-.565.944.944,0,0,0,0-1.325.375.375,0,0,1-.132-.282.293.293,0,0,0-.586,0,.935.935,0,0,0,.272.663.369.369,0,0,1,0,.565.934.934,0,0,0-.272.663Z" transform="translate(-280.33 0.001)" fill="#8696a9"/>
  <path id="Trazado_11085" data-name="Trazado 11085" d="M92.951,107.717a.841.841,0,0,0-.023-1.682h-2.2a.684.684,0,0,0,.008-.1v-1.185a.684.684,0,0,0-.684-.684H89.1a.293.293,0,0,0,0,.586h.956a.1.1,0,0,1,.1.1v1.185a.1.1,0,0,1-.1.1H83.741a.1.1,0,0,1-.1-.1v-1.185a.1.1,0,0,1,.1-.1h4.078a.293.293,0,1,0,0-.586H83.741a.684.684,0,0,0-.684.684v1.185a.682.682,0,0,0,.008.1h-2.2a.841.841,0,0,0-.022,1.682A6,6,0,0,0,81.407,110a.293.293,0,0,0,.53-.249,5.416,5.416,0,0,1-.51-2.035H92.365a5.483,5.483,0,0,1-7.9,4.619.3.3,0,0,0-.054-.027,5.434,5.434,0,0,1-1.012-.667.29.29,0,0,0-.038-.032,5.552,5.552,0,0,1-.789-.822.293.293,0,0,0-.462.36,6.153,6.153,0,0,0,.762.813l-1.444,6.943a.912.912,0,0,0,.707,1.078.911.911,0,0,0,1.079-.707l.53-2.547h6.3l.53,2.547a.912.912,0,0,0,1.655.314.906.906,0,0,0,.13-.686l-1.445-6.947A6.05,6.05,0,0,0,92.951,107.717Zm-12.343-.84a.256.256,0,0,1,.256-.256H92.929a.256.256,0,1,1,0,.511H80.864A.256.256,0,0,1,80.608,106.877Zm2.034,12.281a.326.326,0,1,1-.638-.133l1.384-6.652a6.007,6.007,0,0,0,.589.37Zm1.225-3.013.164-.789h3.129a.293.293,0,0,0,0-.586H84.154l.367-1.763a6.084,6.084,0,0,0,4.751,0l.367,1.766h-1.2a.293.293,0,1,0,0,.586H89.76l.164.789Zm5.947-3.407a6.078,6.078,0,0,0,.589-.37l1.385,6.657a.326.326,0,0,1-.638.133Z" transform="translate(-80.022 -100.004)" fill="#8696a9"/>
</svg>
