<svg xmlns="http://www.w3.org/2000/svg" width="23" height="23.759" viewBox="0 0 23 23.759">
  <path id="perfil" d="M23,11.88A11.708,11.708,0,0,0,11.5,0,11.708,11.708,0,0,0,0,11.88a12.029,12.029,0,0,0,3.733,8.751l-.011.01.373.325c.024.021.051.038.075.059.2.17.4.331.613.487.068.051.135.1.2.15q.335.238.687.453l.154.092c.256.151.518.293.786.423l.059.028a11.136,11.136,0,0,0,2.781.909l.077.014c.3.054.609.1.919.126l.113.009c.309.026.621.043.937.043s.622-.017.929-.042l.117-.009c.307-.029.611-.071.911-.124l.078-.015a11.134,11.134,0,0,0,2.742-.888l.1-.045q.387-.188.757-.4l.184-.109c.225-.137.446-.28.661-.432.077-.054.153-.112.23-.169.184-.137.364-.277.539-.425.039-.032.081-.06.119-.094l.383-.33-.011-.01A12.027,12.027,0,0,0,23,11.88Zm-22.164,0A10.856,10.856,0,0,1,11.5.864,10.856,10.856,0,0,1,22.164,11.88a11.148,11.148,0,0,1-3.592,8.235,3.115,3.115,0,0,0-.373-.232l-3.541-1.829a.961.961,0,0,1-.515-.861V15.916c.082-.1.169-.223.258-.353a8.915,8.915,0,0,0,1.094-2.213,1.572,1.572,0,0,0,.872-1.421V10.4A1.6,1.6,0,0,0,16,9.374V7.358a3.567,3.567,0,0,0-.787-2.533A4.624,4.624,0,0,0,11.5,3.456,4.625,4.625,0,0,0,7.792,4.824,3.567,3.567,0,0,0,7,7.358V9.374A1.6,1.6,0,0,0,6.634,10.4v1.531a1.592,1.592,0,0,0,.56,1.219,8.223,8.223,0,0,0,1.293,2.76v1.25A.969.969,0,0,1,8,18L4.695,19.866a3.01,3.01,0,0,0-.314.206A11.151,11.151,0,0,1,.836,11.88Zm16.919,8.913c-.146.11-.3.216-.446.318-.069.047-.138.093-.209.139-.2.126-.4.246-.6.359l-.136.072a10.473,10.473,0,0,1-1.459.638l-.053.019q-.393.135-.8.238h0c-.271.069-.545.127-.821.174l-.023,0c-.26.044-.521.075-.784.1l-.14.011c-.26.02-.521.033-.783.033s-.529-.013-.792-.034l-.136-.011c-.265-.024-.529-.057-.79-.1l-.035-.006a10.346,10.346,0,0,1-1.627-.419l-.049-.017q-.395-.139-.779-.308l-.005,0c-.242-.108-.479-.227-.713-.352l-.092-.049c-.214-.118-.423-.245-.629-.378L5.67,21.1c-.19-.128-.377-.262-.56-.4l-.056-.045.04-.023L8.4,18.762a1.837,1.837,0,0,0,.922-1.6V15.6l-.1-.12A7.3,7.3,0,0,1,7.972,12.8l-.038-.171-.143-.1a.722.722,0,0,1-.322-.6V10.4A.716.716,0,0,1,7.7,9.868l.138-.129V7.333l0-.057a2.665,2.665,0,0,1,.584-1.883A3.867,3.867,0,0,1,11.5,4.32a3.876,3.876,0,0,1,3.072,1.065,2.709,2.709,0,0,1,.591,1.893l0,2.463.138.129a.717.717,0,0,1,.233.528v1.531a.719.719,0,0,1-.494.68l-.208.066-.067.214a8.1,8.1,0,0,1-1.044,2.174c-.11.16-.216.3-.308.41l-.1.122v1.6a1.823,1.823,0,0,0,.978,1.634l3.541,1.829.067.036C17.847,20.726,17.8,20.759,17.756,20.792Z" fill="#393a34"/>
</svg>
