<svg id="_139957" data-name="139957" xmlns="http://www.w3.org/2000/svg" width="18.492" height="15.534" viewBox="0 0 18.492 15.534">
  <g id="Grupo_4641" data-name="Grupo 4641" transform="translate(0 0)">
    <path id="Trazado_11253" data-name="Trazado 11253" d="M51.534,44.314a1.212,1.212,0,0,1-1.987,0,.308.308,0,1,0-.479.387,1.825,1.825,0,0,0,2.945,0,.308.308,0,1,0-.479-.387Z" transform="translate(-33.898 -32.056)" fill="#8696a9"/>
    <path id="Trazado_11254" data-name="Trazado 11254" d="M35.013,39.6a.308.308,0,1,0-.479-.387,1.212,1.212,0,0,1-1.987,0,.308.308,0,1,0-.479.387,1.825,1.825,0,0,0,2.945,0Z" transform="translate(-22.138 -28.525)" fill="#8696a9"/>
    <path id="Trazado_11255" data-name="Trazado 11255" d="M26.534,45.263a1.212,1.212,0,0,1-1.987,0,.308.308,0,1,0-.479.387,1.825,1.825,0,0,0,2.945,0,.308.308,0,1,0-.479-.387Z" transform="translate(-16.603 -32.713)" fill="#8696a9"/>
    <path id="Trazado_11256" data-name="Trazado 11256" d="M12.534,50.21a1.212,1.212,0,0,1-1.987,0,.308.308,0,1,0-.479.387,1.825,1.825,0,0,0,2.945,0,.308.308,0,1,0-.479-.387Z" transform="translate(-6.918 -36.135)" fill="#8696a9"/>
    <path id="Trazado_11257" data-name="Trazado 11257" d="M15.534,32.21a1.212,1.212,0,0,1-1.987,0,.308.308,0,1,0-.479.387,1.825,1.825,0,0,0,2.945,0,.308.308,0,1,0-.479-.387Z" transform="translate(-8.993 -23.683)" fill="#8696a9"/>
    <path id="Trazado_11258" data-name="Trazado 11258" d="M4.013,40.6a.308.308,0,1,0-.479-.387,1.284,1.284,0,0,1-.993.518,1.284,1.284,0,0,1-.993-.518.308.308,0,1,0-.479.387,1.885,1.885,0,0,0,1.472.747A1.885,1.885,0,0,0,4.013,40.6Z" transform="translate(-0.692 -29.217)" fill="#8696a9"/>
    <path id="Trazado_11259" data-name="Trazado 11259" d="M41.534,51.263a1.212,1.212,0,0,1-1.987,0,.308.308,0,1,0-.479.387,1.825,1.825,0,0,0,2.945,0,.308.308,0,1,0-.479-.387Z" transform="translate(-26.98 -36.863)" fill="#8696a9"/>
    <path id="Trazado_11260" data-name="Trazado 11260" d="M15.41,7.3a.645.645,0,0,1,.491-.641.618.618,0,0,1,.742.6.925.925,0,0,0,1.05.916.974.974,0,0,0,.8-.955,2.472,2.472,0,0,0-.83-1.806,2.441,2.441,0,0,0-1.9-.608,2.529,2.529,0,0,0-2.2,2.526V8.621H9.247v-1.2a.645.645,0,0,1,.491-.641.618.618,0,0,1,.742.6A.925.925,0,0,0,11.53,8.3a.974.974,0,0,0,.8-.955A2.468,2.468,0,0,0,9.6,4.937,2.529,2.529,0,0,0,7.4,7.463v2.7H0v1.849H7.4v3.7H9.246V13.553h4.315V15.71H15.41V11.7h3.082V9.854H15.41ZM7.4,11.4H.616v-.616H7.4Zm7.4,3.7h-.616V12.936H8.63v2.157H8.014V7.463A1.907,1.907,0,0,1,9.664,5.55a1.832,1.832,0,0,1,1.424.456,1.853,1.853,0,0,1,.623,1.355.358.358,0,0,1-.264.334.308.308,0,0,1-.353-.305A1.234,1.234,0,0,0,9.619,6.179a1.253,1.253,0,0,0-.99,1.246V9.238h5.548V7.34a1.907,1.907,0,0,1,1.65-1.913,1.852,1.852,0,0,1,2.047,1.81.358.358,0,0,1-.264.334.308.308,0,0,1-.352-.305,1.234,1.234,0,0,0-1.476-1.209,1.253,1.253,0,0,0-.99,1.246V9.854h0V11.7h0Zm3.082-4.623v.616H15.41v-.616Z" transform="translate(0 -4.8)" fill="#8696a9"/>
    <path id="Trazado_11261" data-name="Trazado 11261" d="M28,23.666h5.548V21.2H28Zm.616-1.849h4.315v1.233H28.617Z" transform="translate(-19.371 -16.145)" fill="#8696a9"/>
  </g>
</svg>
