<svg id="_3443265" data-name="3443265" xmlns="http://www.w3.org/2000/svg" width="17.912" height="15.098" viewBox="0 0 17.912 15.098">
  <path id="Trazado_11245" data-name="Trazado 11245" d="M16.755,47.149a3.337,3.337,0,0,1-1.554-.342,2.866,2.866,0,0,0-1.348-.3,2.863,2.863,0,0,0-1.347.3,3.333,3.333,0,0,1-1.553.342A3.335,3.335,0,0,1,9.4,46.807a2.863,2.863,0,0,0-1.347-.3,2.863,2.863,0,0,0-1.345.3,3.333,3.333,0,0,1-1.554.34,3.33,3.33,0,0,1-1.552-.34,2.86,2.86,0,0,0-1.346-.3.256.256,0,0,1,0-.512,3.331,3.331,0,0,1,1.553.343,2.86,2.86,0,0,0,1.346.3,2.862,2.862,0,0,0,1.346-.3A3.333,3.333,0,0,1,8.054,46a3.335,3.335,0,0,1,1.553.342,2.863,2.863,0,0,0,1.347.3,2.862,2.862,0,0,0,1.346-.3A3.333,3.333,0,0,1,13.853,46a3.337,3.337,0,0,1,1.555.343,3.2,3.2,0,0,0,2.7,0A3.336,3.336,0,0,1,19.656,46a.256.256,0,0,1,0,.512,2.866,2.866,0,0,0-1.347.3,3.337,3.337,0,0,1-1.554.342Z" transform="translate(-2 -36.145)" fill="#8696a9"/>
  <path id="Trazado_11246" data-name="Trazado 11246" d="M16.755,55.149a3.337,3.337,0,0,1-1.554-.342,2.866,2.866,0,0,0-1.348-.3,2.863,2.863,0,0,0-1.347.3,3.333,3.333,0,0,1-1.553.342A3.334,3.334,0,0,1,9.4,54.807a2.863,2.863,0,0,0-1.347-.3,2.863,2.863,0,0,0-1.345.3,3.333,3.333,0,0,1-1.554.34,3.33,3.33,0,0,1-1.552-.34,2.861,2.861,0,0,0-1.346-.3.256.256,0,1,1,0-.512,3.331,3.331,0,0,1,1.553.343,2.86,2.86,0,0,0,1.346.3,2.863,2.863,0,0,0,1.346-.3A3.333,3.333,0,0,1,8.054,54a3.334,3.334,0,0,1,1.553.342,2.863,2.863,0,0,0,1.347.3,2.863,2.863,0,0,0,1.346-.3A3.333,3.333,0,0,1,13.853,54a3.337,3.337,0,0,1,1.555.343,3.2,3.2,0,0,0,2.7,0A3.337,3.337,0,0,1,19.656,54a.256.256,0,0,1,0,.512,2.866,2.866,0,0,0-1.348.3A3.337,3.337,0,0,1,16.755,55.149Z" transform="translate(-2 -42.098)" fill="#8696a9"/>
  <path id="Trazado_11247" data-name="Trazado 11247" d="M16.755,63.149a3.337,3.337,0,0,1-1.554-.342,2.866,2.866,0,0,0-1.348-.3,2.863,2.863,0,0,0-1.347.3,3.333,3.333,0,0,1-1.553.342A3.334,3.334,0,0,1,9.4,62.807a2.863,2.863,0,0,0-1.347-.3,2.863,2.863,0,0,0-1.345.3,3.333,3.333,0,0,1-1.554.34,3.331,3.331,0,0,1-1.552-.34,2.861,2.861,0,0,0-1.346-.3.256.256,0,1,1,0-.512,3.331,3.331,0,0,1,1.553.343,2.86,2.86,0,0,0,1.346.3,2.863,2.863,0,0,0,1.346-.3A3.333,3.333,0,0,1,8.054,62a3.334,3.334,0,0,1,1.553.342,2.863,2.863,0,0,0,1.347.3,2.862,2.862,0,0,0,1.346-.3A3.333,3.333,0,0,1,13.853,62a3.337,3.337,0,0,1,1.555.343,3.194,3.194,0,0,0,2.7,0A3.337,3.337,0,0,1,19.656,62a.256.256,0,1,1,0,.512,2.866,2.866,0,0,0-1.348.3,3.337,3.337,0,0,1-1.554.342Z" transform="translate(-2 -48.051)" fill="#8696a9"/>
  <path id="Trazado_11248" data-name="Trazado 11248" d="M36.256,18.5A.256.256,0,0,1,36,18.247V9.163a1.663,1.663,0,0,1,3.327,0,.256.256,0,1,1-.512,0,1.152,1.152,0,0,0-2.3,0v9.084A.256.256,0,0,1,36.256,18.5Z" transform="translate(-27.3 -7.5)" fill="#8696a9"/>
  <path id="Trazado_11249" data-name="Trazado 11249" d="M58.756,18.5a.256.256,0,0,1-.256-.256V9.163a1.663,1.663,0,1,1,3.327,0,.256.256,0,1,1-.512,0,1.151,1.151,0,0,0-2.3,0v9.084A.256.256,0,0,1,58.756,18.5Z" transform="translate(-44.042 -7.5)" fill="#8696a9"/>
  <path id="Trazado_11250" data-name="Trazado 11250" d="M42.013,22.767H36.256a.256.256,0,1,1,0-.512h5.757a.256.256,0,1,1,0,.512Z" transform="translate(-27.3 -18.479)" fill="#8696a9"/>
  <path id="Trazado_11251" data-name="Trazado 11251" d="M42.013,30.767H36.256a.256.256,0,1,1,0-.512h5.757a.256.256,0,1,1,0,.512Z" transform="translate(-27.3 -24.432)" fill="#8696a9"/>
  <path id="Trazado_11252" data-name="Trazado 11252" d="M42.013,38.767H36.256a.256.256,0,1,1,0-.512h5.757a.256.256,0,1,1,0,.512Z" transform="translate(-27.3 -30.385)" fill="#8696a9"/>
</svg>
