<svg xmlns="http://www.w3.org/2000/svg" width="8.447" height="15.9" viewBox="0 0 8.447 15.9">
  <g id="Grupo_197" data-name="Grupo 197" transform="translate(0)">
    <g id="Grupo_196" data-name="Grupo 196">
      <path id="Trazado_10589" data-name="Trazado 10589" d="M128.2,0h-7.95A.248.248,0,0,0,120,.248v15.4a.248.248,0,0,0,.248.248h7.95a.248.248,0,0,0,.248-.248V.248A.248.248,0,0,0,128.2,0Zm-.248,15.4H120.5V.5h7.453Z" transform="translate(-120)" fill="#8696a9"/>
      <path id="Trazado_10590" data-name="Trazado 10590" d="M344.248,210.981a.248.248,0,0,0,.248-.248v-2.484a.248.248,0,1,0-.5,0v2.484A.248.248,0,0,0,344.248,210.981Z" transform="translate(-337.044 -201.541)" fill="#8696a9"/>
    </g>
  </g>
</svg>
