<svg xmlns="http://www.w3.org/2000/svg" width="19.347" height="22" viewBox="0 0 19.347 22">
  <g id="room-service" transform="translate(-30.875)">
    <path id="Trazado_11700" data-name="Trazado 11700" d="M49.242,189.4H37.678v-.614a1,1,0,0,0-1-1h-3.2a.991.991,0,0,0-.352.064v-2.138a.622.622,0,0,0-.622-.622H31.5a.622.622,0,0,0-.622.622v10.546a.322.322,0,0,0,.645,0V185.737h.969v12.758H31.52v-.731a.322.322,0,0,0-.645,0v.754a.622.622,0,0,0,.622.622h1.015a.622.622,0,0,0,.622-.622v-2.061h3.9v.451a.885.885,0,0,0,.884.884h9.95v.726a.622.622,0,0,0,.622.622H49.5a.622.622,0,0,0,.622-.622v-8.236A.885.885,0,0,0,49.242,189.4Zm-12.208,4.811h-3.9V191.1h3.9Zm-3.548-5.776h3.2a.352.352,0,0,1,.352.352v1.668h-3.9v-1.668A.352.352,0,0,1,33.485,188.432Zm-.352,7.38v-.928h3.9v.928Zm4.544,1.1v-6.866H49.242a.24.24,0,0,1,.239.239v6.626a.24.24,0,0,1-.239.239H37.917A.239.239,0,0,1,37.678,196.907Zm11.8,1.587h-.969v-.7h.73c.027,0,.054,0,.08,0l.02,0c.024,0,.048-.006.072-.011h.007l.06-.015v.736Z" transform="translate(0 -177.139)" fill="#8696a9"/>
    <path id="Trazado_11701" data-name="Trazado 11701" d="M158.746,7.857c-2.673,0-2.495,0-2.565.009a2.552,2.552,0,0,0-.5-.009l-.726-.4h3.482a.9.9,0,1,0,0-1.8h-.354a6.175,6.175,0,0,0-.936-1.957.322.322,0,0,0-.524.375,5.535,5.535,0,0,1,.789,1.582H146.749a5.584,5.584,0,0,1,8.907-2.621.322.322,0,1,0,.413-.495,6.232,6.232,0,0,0-3.156-1.39V.834a.833.833,0,0,0-1.667,0v.312a6.228,6.228,0,0,0-5.168,4.505h-.289a.9.9,0,1,0,0,1.8h1.9a.941.941,0,0,0-.107.208.422.422,0,0,0,.159.5l2.923,1.888a.322.322,0,0,0,.15.051c4.288.331,3.211.239,4.974.419v.4a.494.494,0,0,0,.494.494h.752a.494.494,0,0,0,.486.411h1.232a.494.494,0,0,0,.494-.494V8.35a.494.494,0,0,0-.494-.494Zm-6.855-6.765V.833a.189.189,0,0,1,.378,0v.258h-.015C152.129,1.088,152.02,1.087,151.891,1.092Zm6.544,5.2a.256.256,0,1,1,0,.512H153.8a2.724,2.724,0,0,0-1.338-.512Zm-12.9.256a.257.257,0,0,1,.256-.256h4.989a.876.876,0,0,0-.076.511h-4.912A.256.256,0,0,1,145.532,6.552Zm5.571.9a.924.924,0,0,0,.165.089l.747.328c-.181.012-.48.029-1.188.072l-1.193-.489Zm-.164,2.006-2.655-1.714a.3.3,0,0,1,.053-.03.288.288,0,0,1,.228,0l2.085.856a.324.324,0,0,0,.142.024c1.413-.086,1.345-.076,1.669-.116a.55.55,0,0,0,.482-.5c.029-.4-.3-.536-.5-.619l-.095-.04-.821-.361-.008,0a.293.293,0,0,1-.175-.214.289.289,0,0,1,0-.033v0l1.6.372,2.5,1.392c.09.05.15.041.344.041V9.865C153.935,9.676,155.307,9.795,150.94,9.458Zm5.487-.956h.593v2.261h-.593Zm2.168,2.672h-.93V8.5h.93Z" transform="translate(-109.114 0)" fill="#8696a9"/>
  </g>
</svg>
