<svg id="_181992" data-name="181992" xmlns="http://www.w3.org/2000/svg" width="12.272" height="13.149" viewBox="0 0 12.272 13.149">
  <g id="Grupo_4702" data-name="Grupo 4702" transform="translate(0)">
    <path id="Trazado_11387" data-name="Trazado 11387" d="M26.933,0h-.877a.219.219,0,0,0-.208.151l-.094.288h-5.1L20.567.153A.219.219,0,0,0,20.358,0h-.877a2.413,2.413,0,0,0-2.41,2.411v9.643a1.06,1.06,0,0,0,1.1,1.1h2.52A.22.22,0,0,0,20.9,13L22.32,8.615a.22.22,0,0,0-.148-.279l-1.594-.455V6.794a.219.219,0,1,0-.438,0v.962L19.1,7.46a.219.219,0,0,0-.27.146l-.27.879h0l-.606,1.969a.219.219,0,0,0,.419.129l.543-1.766,2.035.6a.216.216,0,0,0,.062.009.219.219,0,0,0,.062-.43L19.048,8.4l.141-.459,2.643.755-1.305,4.016H18.167a.623.623,0,0,1-.657-.657V2.411A1.974,1.974,0,0,1,19.326.446l2.358,7.074a.219.219,0,1,0,.416-.139L19.786.438H20.2l2.33,7.3a.219.219,0,0,0,.418-.133L20.8.877H25.61L21.684,12.862a.219.219,0,0,0,.208.288h1.1a.219.219,0,1,0,0-.438h-.793L26.215.438h.416L23.875,8.918a.219.219,0,0,0,.417.135l2.8-8.607a1.974,1.974,0,0,1,1.816,1.965V10.3a.6.6,0,0,1-.155.5L27,12.556a.6.6,0,0,1-.5.155H24.084v-2.63h.438v1.972a.219.219,0,0,0,.438,0V10.081h3.288a.219.219,0,0,0,0-.438H26.275V6.794a.219.219,0,1,0-.438,0V9.643H23.865a.219.219,0,0,0-.219.219V12.93a.219.219,0,0,0,.219.219h2.63a1.014,1.014,0,0,0,.813-.283l1.753-1.753a1.014,1.014,0,0,0,.283-.812V2.411A2.413,2.413,0,0,0,26.933,0Z" transform="translate(-17.071)" fill="#8696a9"/>
  </g>
</svg>
