<svg id="_808513" data-name="808513" xmlns="http://www.w3.org/2000/svg" width="14.727" height="14.725" viewBox="0 0 14.727 14.725">
  <g id="Grupo_4574" data-name="Grupo 4574" transform="translate(1.964 8.835)">
    <g id="Grupo_4573" data-name="Grupo 4573">
      <path id="Trazado_11117" data-name="Trazado 11117" d="M67.715,289.259h-.982v-.982a.245.245,0,0,0-.245-.245h-.982a.245.245,0,0,0-.245.245v.982h-.982a.245.245,0,0,0-.245.245v.982a.245.245,0,0,0,.245.245h.982v.982a.245.245,0,0,0,.245.245h.982a.245.245,0,0,0,.245-.245v-.982h.982a.245.245,0,0,0,.245-.245V289.5A.245.245,0,0,0,67.715,289.259Zm-.245.982h-.982a.245.245,0,0,0-.245.245v.982h-.491v-.982a.245.245,0,0,0-.245-.245h-.982v-.491h.982a.245.245,0,0,0,.245-.245v-.982h.491v.982a.245.245,0,0,0,.245.245h.982Z" transform="translate(-64.034 -288.032)" fill="#8696a9"/>
    </g>
  </g>
  <g id="Grupo_4576" data-name="Grupo 4576" transform="translate(0 0)">
    <g id="Grupo_4575" data-name="Grupo 4575">
      <path id="Trazado_11118" data-name="Trazado 11118" d="M14.7,10.382a4.146,4.146,0,0,0-3.469-3.454A4.074,4.074,0,0,0,10.8,6.9H8.1V5.922H7.609V5.431a.982.982,0,0,0-.982-.982H5.4a.491.491,0,1,1,0-.982H9.327a.982.982,0,0,0,0-1.963H8.1a.491.491,0,0,1-.491-.491V.032H7.118v.982A.982.982,0,0,0,8.1,2H9.327a.491.491,0,0,1,0,.982H5.4a.982.982,0,1,0,0,1.963H6.627a.491.491,0,0,1,.491.491v.491H6.627V6.9h-2.7a4,4,0,0,0-.433.025A4.147,4.147,0,0,0,.026,10.383a3.927,3.927,0,0,0,5.968,3.785,2.4,2.4,0,0,1,1.077-.381,3.784,3.784,0,0,1,.571,0,2.422,2.422,0,0,1,1.094.385A3.927,3.927,0,0,0,14.7,10.382ZM7.118,6.413h.491V6.9H7.118ZM13.36,13.12a3.433,3.433,0,0,1-4.365.632A2.9,2.9,0,0,0,7.677,13.3q-.155-.011-.314-.011c-.112,0-.221,0-.331.013a2.887,2.887,0,0,0-1.3.453A3.436,3.436,0,0,1,.514,10.437,3.679,3.679,0,0,1,3.547,7.416a3.53,3.53,0,0,1,.381-.022H10.8a3.61,3.61,0,0,1,.381.02,3.68,3.68,0,0,1,3.033,3.021A3.411,3.411,0,0,1,13.36,13.12Z" transform="translate(0 -0.032)" fill="#8696a9"/>
    </g>
  </g>
  <g id="Grupo_4578" data-name="Grupo 4578" transform="translate(9.817 8.344)">
    <g id="Grupo_4577" data-name="Grupo 4577">
      <path id="Trazado_11119" data-name="Trazado 11119" d="M321.016,272.032a.982.982,0,1,0,.982.982A.982.982,0,0,0,321.016,272.032Zm0,1.472a.491.491,0,1,1,.491-.491A.491.491,0,0,1,321.016,273.5Z" transform="translate(-320.034 -272.032)" fill="#8696a9"/>
    </g>
  </g>
  <g id="Grupo_4580" data-name="Grupo 4580" transform="translate(9.817 11.289)">
    <g id="Grupo_4579" data-name="Grupo 4579">
      <path id="Trazado_11120" data-name="Trazado 11120" d="M321.016,368.032a.982.982,0,1,0,.982.982A.982.982,0,0,0,321.016,368.032Zm0,1.473a.491.491,0,1,1,.491-.491A.491.491,0,0,1,321.016,369.5Z" transform="translate(-320.034 -368.032)" fill="#8696a9"/>
    </g>
  </g>
  <g id="Grupo_4582" data-name="Grupo 4582" transform="translate(8.099 9.816)">
    <g id="Grupo_4581" data-name="Grupo 4581">
      <path id="Trazado_11121" data-name="Trazado 11121" d="M265.016,320.032a.982.982,0,1,0,.982.982A.982.982,0,0,0,265.016,320.032Zm0,1.472a.491.491,0,1,1,.491-.491A.491.491,0,0,1,265.016,321.5Z" transform="translate(-264.034 -320.032)" fill="#8696a9"/>
    </g>
  </g>
  <g id="Grupo_4584" data-name="Grupo 4584" transform="translate(11.535 9.816)">
    <g id="Grupo_4583" data-name="Grupo 4583">
      <path id="Trazado_11122" data-name="Trazado 11122" d="M377.016,320.032a.982.982,0,1,0,.982.982A.982.982,0,0,0,377.016,320.032Zm0,1.472a.491.491,0,1,1,.491-.491A.491.491,0,0,1,377.016,321.5Z" transform="translate(-376.034 -320.032)" fill="#8696a9"/>
    </g>
  </g>
</svg>
