<svg id="_1332646" data-name="1332646" xmlns="http://www.w3.org/2000/svg" width="13.362" height="17.159" viewBox="0 0 13.362 17.159">
  <path id="Trazado_11667" data-name="Trazado 11667" d="M13.247,3.474,6.8.038a.32.32,0,0,0-.305,0L.222,3.476a.321.321,0,0,0-.167.282V8.246a9.3,9.3,0,0,0,5.571,8.507l.87.379a.321.321,0,0,0,.255,0l.981-.424a9.276,9.276,0,0,0,5.684-8.552v-4.4a.321.321,0,0,0-.17-.283Zm-.472,4.683a8.636,8.636,0,0,1-5.294,7.961h0l-.854.369-.742-.324A8.652,8.652,0,0,1,.7,8.246v-4.3L6.649.686,12.775,3.95Zm0,0" transform="translate(-0.055 0)" fill="#fe3151"/>
  <path id="Trazado_11668" data-name="Trazado 11668" d="M80.407,147.379a.321.321,0,0,0-.488.417l1.7,1.986a.321.321,0,0,0,.447.041l3.95-3.214a.321.321,0,0,0-.405-.5L81.9,149.127Zm0,0" transform="translate(-76.182 -139.341)" fill="#fe3151"/>
</svg>
