<svg id="_2829961" data-name="2829961" xmlns="http://www.w3.org/2000/svg" width="13.828" height="14.6" viewBox="0 0 13.828 14.6">
  <path id="Trazado_11388" data-name="Trazado 11388" d="M25.256,9.985V8.768a.214.214,0,1,0-.429,0V9.985A2.311,2.311,0,0,0,23.7,14.171H21.639a1.816,1.816,0,0,1-1.785-2.15l.4-2.159h2.258a.787.787,0,0,0,.786-.786V6.241a3.906,3.906,0,0,1,.9-.1.626.626,0,0,1,.625.625v1.15a.214.214,0,1,0,.429,0V6.761a1.055,1.055,0,0,0-.627-.963V4.661a.214.214,0,0,0-.214-.214h0V1.567a1.567,1.567,0,0,0-3-.639L20.194,3.655a.214.214,0,0,0,.391.175L21.8,1.1a1.139,1.139,0,0,1,2.178.464v2.88h-.429V1.567a.71.71,0,0,0-1.359-.29L17.3,12.233h-.469l3.4-7.62a.214.214,0,0,0-.391-.175l-3.482,7.795h-.116a.5.5,0,0,0-.5.5v.448H15.02a1.537,1.537,0,0,0-1.488,1.151.214.214,0,0,0,.207.268h3.37a.214.214,0,0,0,0-.429H14.056a1.109,1.109,0,0,1,.964-.562h3.633a.673.673,0,0,1,.652.5l.015.058H17.967a.214.214,0,0,0,0,.429H19.6a.214.214,0,0,0,.207-.268l-.085-.326a1.1,1.1,0,0,0-1.066-.825h-.472v-.448a.5.5,0,0,0-.414-.492L22.586,1.452a.282.282,0,0,1,.539.115v2.88h-.037a.214.214,0,0,0-.214.214V5.916a4.342,4.342,0,0,0-2.936,3.331l-.505,2.7A2.244,2.244,0,0,0,21.639,14.6h3.4a2.312,2.312,0,0,0,.214-4.615Zm-9.08,3.2v-.448a.072.072,0,0,1,.071-.071h1.434a.072.072,0,0,1,.071.071v.448ZM23.3,4.876h.9v.832a4.339,4.339,0,0,0-.9.094Zm-.429,1.493V9.076a.358.358,0,0,1-.357.357H20.339l.02-.107a3.913,3.913,0,0,1,2.515-2.957Zm2.167,7.8a1.884,1.884,0,1,1,1.884-1.884A1.886,1.886,0,0,1,25.041,14.171Z" transform="translate(-13.526 0)" fill="#8696a9"/>
  <path id="Trazado_11389" data-name="Trazado 11389" d="M384.579,397.143a.962.962,0,1,0,.962.962A.963.963,0,0,0,384.579,397.143Zm0,1.5a.534.534,0,1,1,.534-.534A.535.535,0,0,1,384.579,398.639Z" transform="translate(-373.064 -385.818)" fill="#8696a9"/>
</svg>
