<svg xmlns="http://www.w3.org/2000/svg" width="22" height="22" viewBox="0 0 22 22">
  <g id="share" transform="translate(-0.004 0)">
    <path id="Trazado_10" data-name="Trazado 10" d="M19.483,103.673H2.525A2.523,2.523,0,0,1,0,101.152V87.861A2.523,2.523,0,0,1,2.525,85.34H5.733a.687.687,0,1,1,0,1.375H2.525a1.147,1.147,0,0,0-1.146,1.146v13.292A1.147,1.147,0,0,0,2.525,102.3H19.483a1.147,1.147,0,0,0,1.146-1.146V93.36a.687.687,0,0,1,1.375,0v7.792A2.523,2.523,0,0,1,19.483,103.673Zm0,0" transform="translate(0 -81.673)" fill="#fff"/>
    <path id="Trazado_11" data-name="Trazado 11" d="M128.69,14.655a.605.605,0,0,1-.151-.018A.678.678,0,0,1,128,13.98V12.6a8.948,8.948,0,0,1,8.937-8.937h.229V.688a.687.687,0,0,1,1.182-.477L144.311,6.4a.687.687,0,0,1,0,.953l-5.958,6.187a.687.687,0,0,1-1.182-.477V10.084h-1.089a7.52,7.52,0,0,0-6.764,4.181.708.708,0,0,1-.627.391Zm8.251-9.613a7.575,7.575,0,0,0-7.5,6.618,8.888,8.888,0,0,1,6.645-2.952h1.776a.688.688,0,0,1,.687.687v1.962l4.316-4.482-4.316-4.482V4.355a.688.688,0,0,1-.687.687Zm0,0" transform="translate(-122.5)" fill="#fff"/>
  </g>
</svg>
