<svg xmlns="http://www.w3.org/2000/svg" width="13.444" height="11" viewBox="0 0 13.444 11">
    <path id="Combined-Shape" d="M705.444,258.832h0v7.333A1.837,1.837,0,0,1,703.611,268h-9.778A1.837,1.837,0,0,1,692,266.167v-7.333h0A1.837,1.837,0,0,1,693.833,257h9.778A1.837,1.837,0,0,1,705.444,258.832Zm-1.288-.271a.614.614,0,0,0-.546-.339h-9.778a.614.614,0,0,0-.546.339l5.435,3.8Zm.065,1.447-5.149,3.6a.611.611,0,0,1-.7,0l-5.15-3.6v6.159a.615.615,0,0,0,.611.611h9.778a.615.615,0,0,0,.611-.611Z" transform="translate(-692 -257)" fill="rgba(0,0,0,0.5)"/>
 </svg>