<svg id="_4337039" data-name="4337039" xmlns="http://www.w3.org/2000/svg" width="18.912" height="18.912" viewBox="0 0 18.912 18.912">
  <path id="Trazado_11278" data-name="Trazado 11278" d="M485.487,85.838h-.453a.277.277,0,0,0,0,.554h.453a.277.277,0,0,0,0-.554Z" transform="translate(-466.852 -82.667)" fill="#8696a9"/>
  <path id="Trazado_11279" data-name="Trazado 11279" d="M325.616,86.392h.452a.277.277,0,1,0,0-.554h-.452a.277.277,0,0,0,0,.554Z" transform="translate(-313.322 -82.667)" fill="#8696a9"/>
  <path id="Trazado_11280" data-name="Trazado 11280" d="M464,25.617a.277.277,0,0,0-.392-.392l-.32.32a.277.277,0,0,0,.392.392Z" transform="translate(-446.097 -24.215)" fill="#8696a9"/>
  <path id="Trazado_11281" data-name="Trazado 11281" d="M350.756,138.745a.276.276,0,0,0,.2-.081l.32-.32a.277.277,0,0,0-.392-.392l-.32.32a.277.277,0,0,0,.2.473Z" transform="translate(-337.534 -132.778)" fill="#8696a9"/>
  <path id="Trazado_11282" data-name="Trazado 11282" d="M411.173.28V.732a.277.277,0,0,0,.554,0V.28a.277.277,0,0,0-.554,0Z" transform="translate(-395.985 -0.003)" fill="#8696a9"/>
  <path id="Trazado_11283" data-name="Trazado 11283" d="M411.173,159.7v.452a.277.277,0,0,0,.554,0V159.7a.277.277,0,0,0-.554,0Z" transform="translate(-395.985 -153.534)" fill="#8696a9"/>
  <path id="Trazado_11284" data-name="Trazado 11284" d="M350.952,25.225a.277.277,0,1,0-.392.392l.32.32a.277.277,0,0,0,.392-.392Z" transform="translate(-337.534 -24.215)" fill="#8696a9"/>
  <path id="Trazado_11285" data-name="Trazado 11285" d="M463.678,137.951a.277.277,0,1,0-.392.392l.32.32a.277.277,0,0,0,.392-.392Z" transform="translate(-446.096 -132.778)" fill="#8696a9"/>
  <path id="Trazado_11286" data-name="Trazado 11286" d="M368.911,41.59a1.985,1.985,0,1,0-1.985,1.985A1.987,1.987,0,0,0,368.911,41.59Zm-1.985,1.431a1.431,1.431,0,1,1,1.431-1.431A1.432,1.432,0,0,1,366.927,43.02Z" transform="translate(-351.462 -38.142)" fill="#8696a9"/>
  <path id="Trazado_11287" data-name="Trazado 11287" d="M14.272,52.593a.85.85,0,0,0-.38-.264v-.408a.747.747,0,0,0-.746-.746H8.19V49.233a.277.277,0,0,0-.554,0v1.942H7.108V46.258h.528V47.94a.277.277,0,1,0,.554,0V46.258h3.682a.578.578,0,0,0,.577-.62A5.091,5.091,0,0,0,8.19,41v-.575a.818.818,0,0,0-1.636,0V41A5.092,5.092,0,0,0,2.3,45.638a.578.578,0,0,0,.577.62H6.554v4.917H5.007a.181.181,0,0,1-.154-.085L2.762,47.775a.746.746,0,0,0-1.029-.233l-.345.218A.852.852,0,0,0,.129,48.871l2.684,4.308L1.484,55.818a.852.852,0,0,0,1.522.766l1.308-2.6h3.85a.277.277,0,0,0,0-.554H3.789a.3.3,0,0,1-.253-.14L.6,48.578a.3.3,0,0,1,.506-.315l2.658,4.267a.647.647,0,0,0,.552.307h9.3a.3.3,0,0,1,.23.108l2.529,3.066a.3.3,0,1,1-.46.379l-2.245-2.721a.648.648,0,0,0-.5-.236H9.456a.277.277,0,0,0,0,.554h3.712a.1.1,0,0,1,.074.035l2.245,2.721A.852.852,0,1,0,16.8,55.659ZM11.9,45.679a.021.021,0,0,1-.006.017.024.024,0,0,1-.018.008H10.635a6.27,6.27,0,0,0-1.3-3.77A4.55,4.55,0,0,1,11.9,45.679Zm-4.247-4.17c1.3.226,2.341,2.021,2.432,4.195H7.649Zm-.541-1.087a.264.264,0,0,1,.528,0v.516a5.059,5.059,0,0,0-.528,0v-.516ZM3.7,53.982,2.511,56.335a.3.3,0,1,1-.532-.268l1.185-2.353a.848.848,0,0,0,.532.268ZM4.109,45.7H2.872a.024.024,0,0,1-.018-.008.021.021,0,0,1-.006-.017,4.55,4.55,0,0,1,2.566-3.746,6.27,6.27,0,0,0-1.3,3.77Zm.554,0c.091-2.172,1.127-3.969,2.432-4.195V45.7Zm8.674,6.579H4.315a.1.1,0,0,1-.082-.045L1.721,48.2l.308-.194a.192.192,0,0,1,.265.06l2.092,3.316a.732.732,0,0,0,.622.343h8.139a.192.192,0,0,1,.192.192Z" transform="translate(0 -38.141)" fill="#8696a9"/>
</svg>
