<svg xmlns="http://www.w3.org/2000/svg" width="15.357" height="15.347" viewBox="0 0 15.357 15.347">
  <path id="Trazado_11677" data-name="Trazado 11677" d="M15.607,12.59l-3.036-2.025a.886.886,0,0,0-1.187.193L10.5,11.895a.378.378,0,0,1-.485.1L9.847,11.9A10.167,10.167,0,0,1,7.2,9.823a10.209,10.209,0,0,1-2.081-2.65l-.092-.168a.378.378,0,0,1,.1-.486L6.26,5.634a.887.887,0,0,0,.193-1.187L4.428,1.412A.881.881,0,0,0,3.24,1.144l-1.27.763a1.791,1.791,0,0,0-.817,1.06C.7,4.633,1.041,7.508,5.275,11.743c3.369,3.369,5.877,4.275,7.6,4.275a4.428,4.428,0,0,0,1.175-.153,1.789,1.789,0,0,0,1.06-.817l.763-1.269A.882.882,0,0,0,15.607,12.59Zm-.163.932-.762,1.27a1.292,1.292,0,0,1-.762.591c-1.538.422-4.224.073-8.29-3.993S1.214,4.637,1.636,3.1a1.294,1.294,0,0,1,.592-.763L3.5,1.574a.382.382,0,0,1,.516.116l1.1,1.651.923,1.385a.385.385,0,0,1-.083.515l-1.137.884a.875.875,0,0,0-.232,1.123l.09.164a10.6,10.6,0,0,0,2.167,2.765,10.615,10.615,0,0,0,2.764,2.167l.164.09a.875.875,0,0,0,1.123-.232l.884-1.137a.385.385,0,0,1,.515-.083l3.036,2.025A.382.382,0,0,1,15.443,13.522Z" transform="translate(-0.84 -0.821)" fill="#1a1a1a" stroke="#1a1a1a" stroke-width="0.3"/>
</svg>
