<svg xmlns="http://www.w3.org/2000/svg" width="72.856" height="72.856" viewBox="0 0 72.856 72.856">
  <g id="_711239" data-name="711239" transform="matrix(1, 0.017, -0.017, 1, 478.276, -4)">
    <g id="Grupo_19262" data-name="Grupo 19262" transform="translate(-476.883 12.325)">
      <path id="Trazado_11209" data-name="Trazado 11209" d="M35.809,0A35.809,35.809,0,1,0,71.617,35.809,35.85,35.85,0,0,0,35.809,0ZM55.822,26.385,32.937,49.091a3.521,3.521,0,0,1-4.936.09L15.885,38.142a3.64,3.64,0,0,1-.269-5.026,3.55,3.55,0,0,1,5.026-.179l9.6,8.8L50.706,21.27a3.617,3.617,0,1,1,5.116,5.116Z" transform="translate(0 0)" fill="#fe3151"/>
    </g>
  </g>
</svg>
