<svg xmlns="http://www.w3.org/2000/svg" width="14.744" height="12.14" viewBox="0 0 14.744 12.14">
  <g id="_3075340" data-name="3075340" transform="translate(0 -45.058)">
    <path id="Trazado_10987" data-name="Trazado 10987" d="M13.44,45.058v.871H13l-.86-.871H3.366v0l-.771.862v0H1.3v-.871H0V47.65H1.3v-.408H2.6v.847h.434v-.847h.886v8.232H3.029V49.389H2.6v6.518h1.32V57.2h9.1V47.241h.421v.408h1.3V45.058Zm-1.479.434.625.633v7.614H11.7v.434h.882v.433H4.349v-.433H10.4v-.434H4.349V45.924l-.389-.432Zm-8.49.1.3.332h-.6Zm-3.037-.1H.87v1.725H.434Zm.87,1.316v-.446H3.915v.446Zm3.045,9.956V55.039h8.237v1.725Zm8.671-10.4h.421v.446H13.02Zm1.291.854h-.437V45.492h.437Z" transform="translate(0 0)" fill="#8696a9"/>
    <path id="Trazado_10988" data-name="Trazado 10988" d="M89.784,164.891h.434v.434h-.434Z" transform="translate(-87.189 -116.369)" fill="#8696a9"/>
    <path id="Trazado_10989" data-name="Trazado 10989" d="M374.951,345.392h.434v.434h-.434Z" transform="translate(-364.114 -291.653)" fill="#8696a9"/>
  </g>
</svg>
