<svg id="_4415756" data-name="4415756" xmlns="http://www.w3.org/2000/svg" width="14.684" height="13.5" viewBox="0 0 14.684 13.5">
  <path id="Trazado_11099" data-name="Trazado 11099" d="M13.972,20.633H.712A.712.712,0,0,0,0,21.344V30a.712.712,0,0,0,.712.712H1.728l-.5.953a.751.751,0,0,0,1.329.7l.39-.741a.215.215,0,1,0-.381-.2l-.39.741a.321.321,0,0,1-.568-.3l.607-1.153h3.04l-.6,1.251A1.226,1.226,0,0,0,5.218,33.6l.85.411A1.238,1.238,0,0,0,7.7,33.443l1.319-2.728h2.235l.871,1.653a.751.751,0,0,0,1.329-.7l-.5-.953h1.016A.712.712,0,0,0,14.684,30V21.344a.712.712,0,0,0-.712-.712ZM7.316,33.256a.8.8,0,0,1-1.061.369l-.85-.411a.8.8,0,0,1-.369-1.061l2.175-4.5a.794.794,0,0,1,1.061-.369l.85.411a.8.8,0,0,1,.369,1.061Zm5.761-1.388a.321.321,0,0,1-.567.3l-.765-1.452h.725ZM14.253,30a.282.282,0,0,1-.281.281H9.231l.648-1.34A1.226,1.226,0,0,0,9.31,27.31L8.46,26.9a1.226,1.226,0,0,0-1.635.569l-.583,1.206H1.326V21.958H13.358v6.715H10.733a.215.215,0,0,0,0,.43H13.5a.286.286,0,0,0,.286-.286v-7a.286.286,0,0,0-.286-.286H1.181a.286.286,0,0,0-.286.286v7a.286.286,0,0,0,.286.286H6.033l-.571,1.181H.712A.282.282,0,0,1,.43,30V21.344a.282.282,0,0,1,.281-.281h13.26a.282.282,0,0,1,.281.281Z" transform="translate(0 -20.633)" fill="#8696a9"/>
  <path id="Trazado_11100" data-name="Trazado 11100" d="M274.985,139.216a.215.215,0,0,0-.215.215v1.4a.215.215,0,1,0,.43,0v-1.4A.215.215,0,0,0,274.985,139.216Z" transform="translate(-266.89 -135.815)" fill="#8696a9"/>
  <path id="Trazado_11101" data-name="Trazado 11101" d="M198.854,173.935a.215.215,0,0,0-.326.281l.608.705a.215.215,0,0,0,.326-.281Z" transform="translate(-192.784 -169.466)" fill="#8696a9"/>
  <path id="Trazado_11102" data-name="Trazado 11102" d="M324.616,180l-.664.653a.215.215,0,0,0,.3.307l.664-.653a.215.215,0,1,0-.3-.307Z" transform="translate(-314.599 -175.37)" fill="#8696a9"/>
  <path id="Trazado_11103" data-name="Trazado 11103" d="M67.963,78.027l0-.006a.236.236,0,0,0-.219-.147h0a.236.236,0,0,0-.219.147l0,.005-.361.949a.221.221,0,0,0,.2.292.215.215,0,0,0,.2-.139l.18-.472.178.471a.215.215,0,0,0,.4-.152Z" transform="translate(-65.225 -76.232)" fill="#8696a9"/>
  <path id="Trazado_11104" data-name="Trazado 11104" d="M114.07,77.884a.215.215,0,0,0-.272.136l-.135.405-.142-.41a.215.215,0,0,0-.406.141l.33.95a.237.237,0,0,0,.223.157h0a.237.237,0,0,0,.223-.162l.314-.946A.215.215,0,0,0,114.07,77.884Z" transform="translate(-109.859 -76.229)" fill="#8696a9"/>
  <path id="Trazado_11105" data-name="Trazado 11105" d="M199.974,426.173l-.593-.287a.215.215,0,0,0-.187.387l.593.287a.215.215,0,1,0,.187-.387Z" transform="translate(-193.363 -414.244)" fill="#8696a9"/>
  <path id="Trazado_11106" data-name="Trazado 11106" d="M263.6,270.593a.244.244,0,1,0,.113.326A.244.244,0,0,0,263.6,270.593Z" transform="translate(-255.705 -263.401)" fill="#8696a9"/>
  <path id="Trazado_11107" data-name="Trazado 11107" d="M244.779,309.52a.244.244,0,1,0,.113.326A.244.244,0,0,0,244.779,309.52Z" transform="translate(-237.419 -301.211)" fill="#8696a9"/>
  <ellipse id="Elipse_160" data-name="Elipse 160" cx="0.244" cy="0.244" rx="0.244" ry="0.244" transform="translate(6.47 9.401)" fill="#8696a9"/>
  <ellipse id="Elipse_161" data-name="Elipse 161" cx="0.244" cy="0.244" rx="0.244" ry="0.244" transform="translate(5.864 10.604) rotate(-19.214)" fill="#8696a9"/>
  <ellipse id="Elipse_162" data-name="Elipse 162" cx="0.244" cy="0.244" rx="0.244" ry="0.244" transform="translate(7.921 9.028) rotate(-45.891)" fill="#8696a9"/>
  <ellipse id="Elipse_163" data-name="Elipse 163" cx="0.244" cy="0.244" rx="0.244" ry="0.244" transform="translate(7.396 10.221) rotate(-59.744)" fill="#8696a9"/>
  <ellipse id="Elipse_164" data-name="Elipse 164" cx="0.244" cy="0.244" rx="0.244" ry="0.244" transform="matrix(0.662, -0.75, 0.75, 0.662, 6.847, 11.274)" fill="#8696a9"/>
  <path id="Trazado_11108" data-name="Trazado 11108" d="M424.3,329.929h-.64a.215.215,0,0,0,0,.43h.64a.215.215,0,0,0,0-.43Z" transform="translate(-411.299 -321.059)" fill="#8696a9"/>
</svg>
