<svg id="_717513" data-name="717513" xmlns="http://www.w3.org/2000/svg" width="25.53" height="27.837" viewBox="0 0 25.53 27.837">
  <path id="Trazado_11188" data-name="Trazado 11188" d="M19.4,51.565a12.768,12.768,0,0,1,21.466-9.344c.177.167.351.337.517.511.027.027.054.058.078.085.123.129.238.259.354.391a12.778,12.778,0,0,1,.994,15.41c-.119.18-.245.361-.374.534-.146.194-.3.385-.449.568a12.765,12.765,0,0,1-20.594-1.311c-.1-.153-.191-.306-.283-.463-.14-.238-.269-.483-.395-.732A12.738,12.738,0,0,1,19.4,51.565Z" transform="translate(-19.4 -36.494)" fill="#b6b7b7"/>
  <path id="Trazado_11189" data-name="Trazado 11189" d="M19.4,51.565a12.767,12.767,0,0,1,21.983-8.834L21.109,57.948A12.7,12.7,0,0,1,19.4,51.565Z" transform="translate(-19.4 -36.494)" fill="#e1e6e9"/>
  <path id="Trazado_11190" data-name="Trazado 11190" d="M244.454,113.053l8.684-6.679c.123.129.238.259.354.391a12.778,12.778,0,0,1,.994,15.41c-.119.18-.245.361-.374.534Z" transform="translate(-231.076 -100.051)" fill="#27a2db"/>
  <path id="Trazado_11191" data-name="Trazado 11191" d="M41.505,111.347,61.657,96.352c.177.167.351.337.517.511.15.157.293.313.432.477l-8.265,6.151,9.259,9.259a12.543,12.543,0,0,1-.824,1.1l-9.538-9.538-11.056,8.228c-.1-.153-.191-.306-.283-.463C41.76,111.84,41.631,111.6,41.505,111.347Z" transform="translate(-40.191 -90.625)" fill="#64798a"/>
  <path id="Trazado_11192" data-name="Trazado 11192" d="M65.552,0A3.725,3.725,0,0,0,62.546,5.71c.067.106.141.206.218.3A13.862,13.862,0,0,1,65.336,12.5a.364.364,0,0,0,.361.318h0a.364.364,0,0,0,.361-.318,13.862,13.862,0,0,1,2.572-6.486c.076-.1.15-.2.216-.3A3.725,3.725,0,0,0,65.552,0Z" transform="translate(-59.442 0)" fill="#fe3151"/>
  <ellipse id="Elipse_180" data-name="Elipse 180" cx="2.564" cy="2.564" rx="2.564" ry="2.564" transform="translate(3.691 1.138)" fill="#ebf0f3"/>
  <path id="Trazado_11193" data-name="Trazado 11193" d="M187.089,296.5a2.967,2.967,0,0,0-2.394,4.547c.053.084.113.164.174.242a11.042,11.042,0,0,1,2.049,5.167.29.29,0,0,0,.287.253h0a.29.29,0,0,0,.287-.253,11.043,11.043,0,0,1,2.049-5.167c.061-.078.12-.157.172-.24a2.967,2.967,0,0,0-2.624-4.549Z" transform="translate(-174.439 -278.871)" fill="#fcd462"/>
  <ellipse id="Elipse_181" data-name="Elipse 181" cx="2.042" cy="2.042" rx="2.042" ry="2.042" transform="translate(10.723 18.531)" fill="#fe3151"/>
</svg>
