<svg id="_717555" data-name="717555" xmlns="http://www.w3.org/2000/svg" width="27.837" height="24.992" viewBox="0 0 27.837 24.992">
  <path id="Trazado_11210" data-name="Trazado 11210" d="M84.295,282.137h-1.1v-.928h1.1Zm-2.2,0h-1.1v-.928h1.1Zm-2.2,0h-1.1v-.928h1.1Zm-2.2,0h-1.1v-.928h1.1Zm-2.2,0h-1.1v-.928h1.1Zm-2.2,0h-1.1v-.928h1.1Zm-2.2,0h-1.1v-.928h1.1Zm-2.2,0h-1.1v-.928h1.1Zm-2.36-.981a1.209,1.209,0,0,1-.021-.225v-.962h.928v.962a.265.265,0,0,0,0,.051Zm.907-2.289h-.928v-1.1h.928Zm.278-1.388-.122-.922a1.124,1.124,0,0,1,.122-.006h1.028v.928Zm2.13,0v-.928h1.1v.928Zm2.2,0v-.928h1.1v.928Zm2.2,0v-.928h1.1v.928Zm2.475-.384-.678-.634a.276.276,0,0,0,.075-.19v-.544h.928v.544A1.2,1.2,0,0,1,76.71,277.092Zm.325-2.468h-.928v-1.1h.928ZM76,272.873a.276.276,0,0,0-.173-.06h-.6v-.928h.6a1.211,1.211,0,0,1,.748.26Zm-1.879-.06h-1.1v-.928h1.1v.928Zm-2.2,0h-1.1v-.928h1.1Zm-2.2,0h-1.1v-.928h1.1Z" transform="translate(-62.541 -257.146)" fill="#d5d6db"/>
  <path id="Trazado_11211" data-name="Trazado 11211" d="M4.245,23.935A4.417,4.417,0,0,0,.68,30.7c.079.125.168.244.259.361a16.439,16.439,0,0,1,3.05,7.693.431.431,0,0,0,.428.377h0a.431.431,0,0,0,.428-.377,16.44,16.44,0,0,1,3.05-7.692c.09-.116.178-.233.256-.357a4.417,4.417,0,0,0-3.906-6.773Z" transform="translate(0 -23.932)" fill="#fe3151"/>
  <ellipse id="Elipse_190" data-name="Elipse 190" cx="3.041" cy="3.041" rx="3.041" ry="3.041" transform="translate(1.376 1.349)" fill="#ebf0f3"/>
  <path id="Trazado_11212" data-name="Trazado 11212" d="M323.938,180.8a4.417,4.417,0,0,0-3.564,6.769c.079.125.168.244.258.361a16.439,16.439,0,0,1,3.05,7.693.431.431,0,0,0,.428.377h0a.431.431,0,0,0,.428-.377,16.44,16.44,0,0,1,3.05-7.692c.09-.116.178-.233.257-.357a4.417,4.417,0,0,0-3.906-6.773Z" transform="translate(-300.69 -171.473)" fill="#fcd462"/>
  <ellipse id="Elipse_191" data-name="Elipse 191" cx="3.041" cy="3.041" rx="3.041" ry="3.041" transform="translate(20.379 10.673)" fill="#fe3151"/>
</svg>
