<svg xmlns="http://www.w3.org/2000/svg" width="15.492" height="12.603" viewBox="0 0 15.492 12.603">
  <path id="_3454923" data-name="3454923" d="M19.313,62.579h-.171a2.676,2.676,0,0,0-1.564-1.295V51.16a.167.167,0,0,0-.178-.17H13.966a.16.16,0,0,0-.17.17v1.414l-1.092.842a.189.189,0,0,0-.076.146v2.192H11.5a.2.2,0,0,0-.191.2V59.9a3.193,3.193,0,0,0-1.045.42V54.053a.174.174,0,0,0-.183-.173H9.647v-.708a.181.181,0,0,0-.181-.184H8.448V51.772a.184.184,0,0,0-.369,0v1.216H7.067a.185.185,0,0,0-.186.184v.708H6.454a.178.178,0,0,0-.187.173V61.18a2.732,2.732,0,0,0-1.933,1.4H4.162a.184.184,0,0,0-.17.2v.648a.161.161,0,0,0,.17.17H19.313a.161.161,0,0,0,.17-.17v-.648A.184.184,0,0,0,19.313,62.579ZM16.44,51.36h.768v9.82a3.836,3.836,0,0,0-.768-.089Zm-.075,10.1a3.393,3.393,0,0,1,.979.135,2.421,2.421,0,0,1,1.381.983h-4.72a2.053,2.053,0,0,1,.74-.705,2.775,2.775,0,0,1,.336-.162l.11-.044a3.32,3.32,0,0,1,1.065-.2Zm-1.729-.112a3.739,3.739,0,0,0-.666-.738h.963v.738Zm-.471-9.99H14.9v3.647a.184.184,0,0,0,.369,0V51.36h.8V61.1a3.7,3.7,0,0,0-.768.139V55.953a.191.191,0,0,0-.177-.2h-.991ZM13,53.653l.768-.6v2.7H13Zm-1.322,2.471h3.258v.768H11.676Zm0,1.137h3.258V58H11.676Zm0,1.107h3.258v.738H11.676Zm0,1.107h3.258v.768H13.44a3.079,3.079,0,0,0-1.522-.4c-.08,0-.161,0-.242.01Zm-1.483,1.345a2.846,2.846,0,0,1,1.332-.581,2.717,2.717,0,0,1,1.764.343l.006,0a3.265,3.265,0,0,1,1.093,1.057c0,.007.009.008.013.015a2.38,2.38,0,0,0-.811.923h-3.7a2.427,2.427,0,0,0-.564-.733,3.488,3.488,0,0,1,.449-.63,3.221,3.221,0,0,1,.422-.4ZM7.25,53.357H9.278v.523H7.25Zm-.615.891H9.893v.615H6.635Zm0,.984H9.893v.645H6.635Zm0,1.014H9.893v.645H6.635Zm0,1.014H9.893v.645H6.635Zm0,1.014H9.893v.615H6.635Zm0,.984H9.893V59.9H6.635Zm0,1.014H9.893v.315a3.6,3.6,0,0,0-.35.331H6.635Zm2.607,1.014a3.992,3.992,0,0,0-.219.341,3.16,3.16,0,0,0-.708-.341Zm-2.756.223a3.5,3.5,0,0,1,.623-.052,3.067,3.067,0,0,1,1.866.58,2.17,2.17,0,0,1,.495.541H4.748A2.521,2.521,0,0,1,6.487,61.511Zm12.628,1.713H4.36v-.277H19.114Z" transform="translate(-3.991 -50.99)" fill="#8696a9"/>
</svg>
