<svg id="user00" xmlns="http://www.w3.org/2000/svg" width="19.612" height="19.614" viewBox="0 0 19.612 19.614">
  <path id="Trazado_10445" data-name="Trazado 10445" d="M9.807,0a9.807,9.807,0,1,0,0,19.614q.443,0,.883-.04c.272-.024.542-.062.81-.109l.1-.018A9.807,9.807,0,0,0,9.807,0ZM9.019,18.926H9c-.254-.023-.507-.057-.757-.1L8.2,18.819q-.367-.066-.726-.161l-.058-.015c-.234-.063-.465-.137-.693-.219L6.649,18.4c-.223-.082-.443-.174-.659-.273l-.08-.036c-.212-.1-.419-.208-.623-.325L5.2,17.716q-.3-.176-.589-.375l-.087-.06c-.189-.134-.373-.276-.552-.425l-.049-.043V14.057a3.6,3.6,0,0,1,3.6-3.6H12.1a3.6,3.6,0,0,1,3.6,3.6v2.757l-.043.036q-.274.229-.563.433l-.077.053q-.292.2-.6.381l-.077.044c-.207.118-.417.229-.631.329l-.074.033c-.218.1-.439.193-.664.276l-.065.023c-.229.082-.461.156-.7.22l-.056.014c-.24.063-.482.118-.727.162l-.042.007c-.25.044-.5.078-.758.1H10.6c-.261.023-.523.035-.788.035s-.529-.01-.789-.032Zm7.326-2.719v-2.15a4.255,4.255,0,0,0-4.25-4.25H7.519a4.255,4.255,0,0,0-4.25,4.25v2.15a9.153,9.153,0,1,1,13.076,0Zm0,0" transform="translate(0 0)"/>
  <path id="Trazado_10446" data-name="Trazado 10446" d="M163.269,64a3.269,3.269,0,1,0,3.269,3.269A3.269,3.269,0,0,0,163.269,64Zm0,5.884a2.615,2.615,0,1,1,2.615-2.615A2.615,2.615,0,0,1,163.269,69.884Zm0,0" transform="translate(-153.462 -61.385)"/>
</svg>
