<svg id="_2611932" data-name="2611932" xmlns="http://www.w3.org/2000/svg" width="9.091" height="14.776" viewBox="0 0 9.091 14.776">
  <path id="Trazado_11423" data-name="Trazado 11423" d="M105.643,0h-5.195A1.95,1.95,0,0,0,98.5,1.948v5.31a.216.216,0,1,0,.433,0V1.948A1.517,1.517,0,0,1,100.448.433h5.195a1.517,1.517,0,0,1,1.515,1.515v12.4H98.933V8.124a.216.216,0,1,0-.433,0V14.56a.216.216,0,0,0,.216.216h8.658a.216.216,0,0,0,.216-.216V1.948A1.95,1.95,0,0,0,105.643,0Z" transform="translate(-98.5)" fill="#8696a9"/>
  <path id="Trazado_11424" data-name="Trazado 11424" d="M149.777,56.136a.216.216,0,0,0,.216-.216V45.649a.65.65,0,0,0-.649-.649h-5.195a.65.65,0,0,0-.649.649v10.88a1.083,1.083,0,0,0,1.082,1.082h4.329a1.076,1.076,0,0,0,1.036-.767.216.216,0,1,0-.414-.126.654.654,0,0,1-.621.46h-4.329a.65.65,0,0,1-.649-.649V45.649a.217.217,0,0,1,.216-.216h5.195a.217.217,0,0,1,.216.216v10.27A.216.216,0,0,0,149.777,56.136Z" transform="translate(-142.201 -43.701)" fill="#8696a9"/>
  <path id="Trazado_11425" data-name="Trazado 11425" d="M264.053,277.976V277.4a.65.65,0,0,0-.479-.627v-.286a.6.6,0,1,0-1.206,0v.286a.65.65,0,0,0-.479.627v.577a.65.65,0,0,0,.649.649h.866A.65.65,0,0,0,264.053,277.976Zm-1.252-1.49a.17.17,0,1,1,.34,0v.263h-.34Zm.819,1.49a.217.217,0,0,1-.216.216h-.866a.217.217,0,0,1-.216-.216V277.4a.217.217,0,0,1,.216-.216h.866a.217.217,0,0,1,.216.216Z" transform="translate(-257.174 -267.922)" fill="#8696a9"/>
  <path id="Trazado_11426" data-name="Trazado 11426" d="M204.149,76.3h1.732a.649.649,0,1,0,0-1.3h-1.732a.649.649,0,0,0,0,1.3Zm0-.866h1.732a.216.216,0,1,1,0,.433h-1.732a.216.216,0,0,1,0-.433Z" transform="translate(-200.47 -72.836)" fill="#8696a9"/>
  <path id="Trazado_11427" data-name="Trazado 11427" d="M204.149,136.3h1.732a.649.649,0,1,0,0-1.3h-1.732a.649.649,0,0,0,0,1.3Zm0-.866h1.732a.216.216,0,1,1,0,.433h-1.732a.216.216,0,0,1,0-.433Z" transform="translate(-200.47 -131.104)" fill="#8696a9"/>
  <path id="Trazado_11428" data-name="Trazado 11428" d="M205.881,196.3a.649.649,0,1,0,0-1.3h-1.732a.649.649,0,0,0,0,1.3Zm-1.948-.649a.217.217,0,0,1,.216-.216h1.732a.216.216,0,1,1,0,.433h-1.732A.217.217,0,0,1,203.933,195.649Z" transform="translate(-200.47 -189.372)" fill="#8696a9"/>
  <path id="Trazado_11429" data-name="Trazado 11429" d="M196.267,388.5a.216.216,0,0,0-.216.216v.346a.216.216,0,1,0,.433,0v-.346A.216.216,0,0,0,196.267,388.5Z" transform="translate(-193.236 -377.288)" fill="#8696a9"/>
  <path id="Trazado_11430" data-name="Trazado 11430" d="M301.164,388.5a.216.216,0,0,0-.216.216v.346a.216.216,0,1,0,.433,0v-.346A.216.216,0,0,0,301.164,388.5Z" transform="translate(-295.105 -377.288)" fill="#8696a9"/>
  <path id="Trazado_11431" data-name="Trazado 11431" d="M232.726,400.792a.847.847,0,0,0,.638-.291.216.216,0,1,0-.326-.284.413.413,0,0,1-.624,0,.216.216,0,1,0-.326.284A.847.847,0,0,0,232.726,400.792Z" transform="translate(-228.181 -388.595)" fill="#8696a9"/>
</svg>
