<svg id="_1022382" data-name="1022382" xmlns="http://www.w3.org/2000/svg" width="10.407" height="13.514" viewBox="0 0 10.407 13.514">
  <g id="Grupo_4551" data-name="Grupo 4551" transform="translate(0)">
    <g id="Grupo_4550" data-name="Grupo 4550">
      <path id="Trazado_11033" data-name="Trazado 11033" d="M68.923,9.529l0-.008-.035-.055-.02-.03L68.839,9.4l-.033-.046L68.8,9.34l-.007-.009-.041-.053-.015-.018-.043-.05-.018-.021-.037-.04-.028-.03L68.586,9.1a2.294,2.294,0,0,0-.989-.59l-.02,0-1.79-.332h-.01a.438.438,0,0,0-.246.031.461.461,0,0,1-.1-.279V7.6a2.871,2.871,0,0,0,.329-.245,2.325,2.325,0,0,0,.783-1.534.615.615,0,0,0,.586-.614V4.742a.612.612,0,0,0-.224-.475V3.207c.647-.319.788-.691.788-.953A2.131,2.131,0,0,0,66.6.784a4.515,4.515,0,0,0-5.084,0,2.131,2.131,0,0,0-1.094,1.47c0,.262.141.634.788.953V4.268a.612.612,0,0,0-.224.475V5.2a.615.615,0,0,0,.586.614,2.325,2.325,0,0,0,.783,1.534,2.872,2.872,0,0,0,.329.245v.324a.461.461,0,0,1-.1.279.438.438,0,0,0-.256-.03L60.53,8.5l-.02,0a2.3,2.3,0,0,0-.989.59l-.022.022-.027.029-.037.041-.018.021-.043.051-.015.018-.041.053-.007.009-.01.014-.033.046-.025.036-.02.03-.035.055,0,.008a2.294,2.294,0,0,0-.334,1.2v.241a.2.2,0,0,0,.4,0v-.241a1.917,1.917,0,0,1,.084-.562.648.648,0,0,0,.4.142.659.659,0,0,0,.071,0,.649.649,0,0,0,.439-.239L60.46,9.8a.653.653,0,0,0-.022-.845c.057-.023.115-.044.175-.062l1.142-.212.906,1.268a.466.466,0,0,0,.38.2.472.472,0,0,0,.185-.038l.06-.026.264.307-.38,2.733H60.681V11.512a.2.2,0,0,0-.4,0v1.606h-.792a.247.247,0,0,1-.247-.247v-.982a.2.2,0,0,0-.4,0v.982a.643.643,0,0,0,.643.643h9.122a.643.643,0,0,0,.643-.643V10.726A2.3,2.3,0,0,0,68.923,9.529Zm-8.772.018-.215.267a.257.257,0,0,1-.361.039l-.083-.067q.027-.047.056-.093h0c.017-.026.034-.051.052-.077l.016-.023.049-.064.013-.016q.028-.035.058-.068l.018-.019c.02-.021.04-.043.061-.063l.005-.005a1.912,1.912,0,0,1,.248-.206l.043.035a.257.257,0,0,1,.039.361Zm7.843-.361.043-.035a1.911,1.911,0,0,1,.248.206l.005.005c.021.021.041.042.061.063l.018.019q.03.033.058.068l.013.016.049.064.016.023c.018.025.035.051.052.077h0q.029.046.056.093l-.083.067a.257.257,0,0,1-.361-.039l-.215-.267A.257.257,0,0,1,67.994,9.186ZM65.63,8.606h0l.052-.039a.042.042,0,0,1,.032-.008l.208.039-.8,1.117a.072.072,0,0,1-.088.025l-.589-.25Zm-1.577.684L62.9,8.427a.85.85,0,0,0,.175-.507V7.8a2.582,2.582,0,0,0,.977.2h0a2.583,2.583,0,0,0,.977-.2v.116a.85.85,0,0,0,.175.507Zm.385.626-.18.21h-.41l-.18-.21.385-.164Zm-3.234-7.16c-.254-.157-.392-.33-.392-.5,0-.357.477-.842.92-1.142a4.119,4.119,0,0,1,4.64,0c.443.3.92.785.92,1.142,0,.171-.137.345-.392.5V2.4a.611.611,0,0,0-.46-.593,10.8,10.8,0,0,0-2.512-.351h0a8.751,8.751,0,0,0-2.276.348.614.614,0,0,0-.446.589Zm.687.7-.008-.005-.037-.025-.014-.01L61.8,3.389l-.019-.015-.021-.017-.021-.019-.015-.014L61.705,3.3l-.01-.011h3.323a.2.2,0,0,0,0-.4H61.6V2.388a.216.216,0,0,1,.157-.208,8.351,8.351,0,0,1,2.168-.333h0a10.4,10.4,0,0,1,2.414.339.216.216,0,0,1,.162.209v.5h-.531a.2.2,0,0,0,0,.4h.437L66.4,3.3l-.022.022-.015.014-.021.019-.021.017-.019.015-.029.021-.014.01-.037.025-.008.005a1.955,1.955,0,0,1-.292.148l-.007,0a5.031,5.031,0,0,1-1.862.307A5.031,5.031,0,0,1,62.191,3.6l-.007,0A1.955,1.955,0,0,1,61.892,3.451Zm.019.46V4.3a1.1,1.1,0,0,0-.309-.1v-.46A2,2,0,0,0,61.911,3.911Zm4.286,0a2,2,0,0,0,.309-.177v.46a1.1,1.1,0,0,0-.309.1ZM62.608,7.052a1.943,1.943,0,0,1-.657-1.436.2.2,0,0,0-.2-.194H61.6a.219.219,0,0,1-.218-.218V4.742a.217.217,0,0,1,.08-.169.719.719,0,0,1,.311.1l0,0a.458.458,0,0,1,.045.033l.005,0,.021.019.018.016.006,0,.015.011.006,0,.02.012h0l.022.01.006,0,.017.006.006,0,.023.006h0l.024,0h.055l.024,0h.007l.018,0,.007,0,.023-.008a.273.273,0,0,0,.168-.252V4.061a6.024,6.024,0,0,0,1.747.244A6.024,6.024,0,0,0,65.8,4.061v.474a.272.272,0,0,0,.168.252l.023.008L66,4.8l.018,0h.006a.269.269,0,0,0,.048,0H66.1a.269.269,0,0,0,.047-.009l.006,0,.017-.006.006,0,.022-.01h0l.02-.012.006,0,.014-.011.006,0,.018-.016.021-.019.006,0,.02-.016h0l.022-.015.006,0,.02-.012,0,0,.023-.012.006,0,.021-.01h0l.024-.01,0,0,.023-.008h0L66.5,4.6h0a.832.832,0,0,1,.153-.028.217.217,0,0,1,.08.169V5.2a.219.219,0,0,1-.218.218h-.158a.2.2,0,0,0-.2.194A1.943,1.943,0,0,1,65.5,7.052a2.159,2.159,0,0,1-2.891,0Zm.462,2.687a.072.072,0,0,1-.088-.025l-.8-1.117.208-.039a.042.042,0,0,1,.032.008l.052.039h0l1.182.884Zm.5,3.378.361-2.6h.247l.361,2.6Zm5.046,0h-.792V11.512a.2.2,0,0,0-.4,0v1.606H64.938l-.38-2.733.264-.307.06.026a.472.472,0,0,0,.185.038.466.466,0,0,0,.38-.2l.906-1.268,1.142.212c.06.018.118.039.175.062a.654.654,0,0,0-.022.845l.216.267a.648.648,0,0,0,.439.239.66.66,0,0,0,.071,0,.648.648,0,0,0,.4-.142,1.917,1.917,0,0,1,.084.562v2.145h0A.247.247,0,0,1,68.614,13.118Z" transform="translate(-58.85)" fill="#8696a9"/>
    </g>
  </g>
  <g id="Grupo_4553" data-name="Grupo 4553" transform="translate(6.54 11.314)">
    <g id="Grupo_4552" data-name="Grupo 4552">
      <path id="Trazado_11034" data-name="Trazado 11034" d="M308.009,428.66h-1.043a.324.324,0,0,0-.324.323v.555a.324.324,0,0,0,.324.324h1.043a.324.324,0,0,0,.323-.324v-.555A.324.324,0,0,0,308.009,428.66Zm-.97.806v-.41h.9v.41Z" transform="translate(-306.643 -428.66)" fill="#8696a9"/>
    </g>
  </g>
  <g id="Grupo_4555" data-name="Grupo 4555" transform="translate(2.177 11.314)">
    <g id="Grupo_4554" data-name="Grupo 4554">
      <path id="Trazado_11035" data-name="Trazado 11035" d="M142.7,428.659H141.66a.324.324,0,0,0-.323.323v.556a.324.324,0,0,0,.323.323H142.7a.324.324,0,0,0,.323-.323v-.556A.324.324,0,0,0,142.7,428.659Zm-.073.806h-.9v-.41h.9Z" transform="translate(-141.337 -428.659)" fill="#8696a9"/>
    </g>
  </g>
</svg>
