<svg xmlns="http://www.w3.org/2000/svg" width="19.635" height="12.522" viewBox="0 0 19.635 12.522">
  <g id="Sent_and_seen" data-name="Sent and seen" transform="translate(1.418 1.411)">
    <g id="Path" transform="translate(0 0)" fill="#e9446a" stroke-miterlimit="10">
      <path d="M 4.07273006439209 10.40546035766602 L 3.720000028610229 10.0543794631958 L -0.3527299165725708 6.000649929046631 L -0.7087699174880981 5.646269798278809 L -0.3527299165725708 5.291889667510986 L 0.6654500961303711 4.278460025787354 L 1.018180131912231 3.927379846572876 L 1.370910048484802 4.278460025787354 L 4.072729587554932 6.967666149139404 L 11.42909049987793 -0.3543801009654999 L 11.78182029724121 -0.7054600715637207 L 12.13455009460449 -0.3543801009654999 L 13.15272998809814 0.659049928188324 L 13.50876998901367 1.013429880142212 L 13.15272998809814 1.367809891700745 L 4.425459861755371 10.0543794631958 L 4.07273006439209 10.40546035766602 Z" stroke="none"/>
      <path d="M 4.07273006439209 9.699999809265137 L 12.80000019073486 1.013429880142212 L 11.78182029724121 -9.536743306171047e-08 L 4.07273006439209 7.673130035400391 L 1.018180131912231 4.632839679718018 L 9.536743306171047e-08 5.646269798278809 L 4.07273006439209 9.699999809265137 M 4.07273006439209 11.11091995239258 L 3.367280006408691 10.40876007080078 L -0.7054498791694641 6.355030059814453 L -1.417529940605164 5.646269798278809 L -0.7054498791694641 4.937510013580322 L 0.3127301037311554 3.924079895019531 L 1.018180131912231 3.221920013427734 L 1.72363007068634 3.924079895019531 L 4.072728633880615 6.262211799621582 L 11.07637023925781 -0.7087600827217102 L 11.78182029724121 -1.410920143127441 L 12.48727035522461 -0.7087600827217102 L 13.50545024871826 0.3046699166297913 L 14.21753025054932 1.013429880142212 L 13.50545024871826 1.722189903259277 L 4.778180122375488 10.40876007080078 L 4.07273006439209 11.11091995239258 Z" stroke="none" fill="#fff"/>
    </g>
    <g id="Path_Copy" data-name="Path Copy" transform="translate(4 0)" fill="#e9446a" stroke-miterlimit="10">
      <path d="M 4.07273006439209 10.40546035766602 L 3.720000028610229 10.0543794631958 L -0.3527299165725708 6.000649929046631 L -0.7087699174880981 5.646269798278809 L -0.3527299165725708 5.291889667510986 L 0.6654500961303711 4.278460025787354 L 1.018180131912231 3.927379846572876 L 1.370910048484802 4.278460025787354 L 4.072729587554932 6.967666149139404 L 11.42909049987793 -0.3543801009654999 L 11.78182029724121 -0.7054600715637207 L 12.13455009460449 -0.3543801009654999 L 13.15272998809814 0.659049928188324 L 13.50876998901367 1.013429880142212 L 13.15272998809814 1.367809891700745 L 4.425459861755371 10.0543794631958 L 4.07273006439209 10.40546035766602 Z" stroke="none"/>
      <path d="M 4.07273006439209 9.699999809265137 L 12.80000019073486 1.013429880142212 L 11.78182029724121 -9.536743306171047e-08 L 4.07273006439209 7.673130035400391 L 1.018180131912231 4.632839679718018 L 9.536743306171047e-08 5.646269798278809 L 4.07273006439209 9.699999809265137 M 4.07273006439209 11.11091995239258 L 3.367280006408691 10.40876007080078 L -0.7054498791694641 6.355030059814453 L -1.417529940605164 5.646269798278809 L -0.7054498791694641 4.937510013580322 L 0.3127301037311554 3.924079895019531 L 1.018180131912231 3.221920013427734 L 1.72363007068634 3.924079895019531 L 4.072728633880615 6.262211799621582 L 11.07637023925781 -0.7087600827217102 L 11.78182029724121 -1.410920143127441 L 12.48727035522461 -0.7087600827217102 L 13.50545024871826 0.3046699166297913 L 14.21753025054932 1.013429880142212 L 13.50545024871826 1.722189903259277 L 4.778180122375488 10.40876007080078 L 4.07273006439209 11.11091995239258 Z" stroke="none" fill="#fff"/>
    </g>
  </g>
</svg>
