<svg id="_160200" data-name="160200" xmlns="http://www.w3.org/2000/svg" width="18.311" height="18.311" viewBox="0 0 18.311 18.311">
  <g id="Grupo_4787" data-name="Grupo 4787">
    <path id="Trazado_11673" data-name="Trazado 11673" d="M9.155,0A9.157,9.157,0,0,0,1.386,14C1.025,15.268.371,17.665.364,17.69a.352.352,0,0,0,.443.429L4.437,17A9.156,9.156,0,1,0,9.155,0Zm0,17.607a8.43,8.43,0,0,1-4.483-1.286.352.352,0,0,0-.187-.054.358.358,0,0,0-.1.015l-3.169.975c.233-.85.651-2.369.894-3.215a.353.353,0,0,0-.043-.289,8.452,8.452,0,1,1,7.092,3.852Z" fill="#00bf78"/>
    <path id="Trazado_11674" data-name="Trazado 11674" d="M21.187,17.646c-.65-.361-1.2-.723-1.607-.987-.308-.2-.531-.347-.695-.429a.8.8,0,0,0-.935.066.352.352,0,0,0-.044.054,4.95,4.95,0,0,1-1.275,1.429,8.479,8.479,0,0,1-2.165-1.4,4.688,4.688,0,0,1-1.713-2.164c.638-.657.868-1.07.868-1.541a9.965,9.965,0,0,0-1.336-2.714c-.205-.2-.668-.237-1.374-.1a.356.356,0,0,0-.18.1c-.086.086-2.088,2.127-1.136,4.6,1.044,2.715,3.725,5.871,7.143,6.384a7.406,7.406,0,0,0,1.093.087,3.242,3.242,0,0,0,3.532-3.018A.351.351,0,0,0,21.187,17.646Zm-4.344,2.6c-3.614-.542-5.891-4.123-6.59-5.94a3.876,3.876,0,0,1,.907-3.774,2.656,2.656,0,0,1,.651-.045,12.646,12.646,0,0,1,1.107,2.185c0,.185-.06.442-.777,1.16a.351.351,0,0,0-.1.249c0,1.844,3.889,4.4,4.578,4.4.6,0,1.38-1.007,1.825-1.663a.334.334,0,0,1,.131.041c.127.064.346.207.624.389.367.24.854.558,1.43.888C20.363,19.394,19.632,20.665,16.843,20.246Z" transform="translate(-6.051 -6.333)" fill="#00bf78"/>
  </g>
</svg>
