<svg xmlns="http://www.w3.org/2000/svg" width="15.632" height="11.986" viewBox="0 0 15.632 11.986">
  <g id="Grupo_4596" data-name="Grupo 4596" transform="translate(140.1 -31.9)">
    <g id="_902808" data-name="902808" transform="translate(-140 32)">
      <g id="Grupo_219" data-name="Grupo 219" transform="translate(0 0)">
        <g id="Grupo_218" data-name="Grupo 218">
          <path id="Trazado_10605" data-name="Trazado 10605" d="M15.34,62.223A10.783,10.783,0,0,0,.09,62.2l-.02.02a.245.245,0,0,0,.347.347,10.293,10.293,0,0,1,14.556-.018l.018.018a.246.246,0,1,0,.349-.347Z" transform="translate(-0.001 -59.055)" fill="#393a34" stroke="#393a34" stroke-width="0.2"/>
        </g>
      </g>
      <g id="Grupo_221" data-name="Grupo 221" transform="translate(1.388 1.965)">
        <g id="Grupo_220" data-name="Grupo 220">
          <path id="Trazado_10606" data-name="Trazado 10606" d="M57.788,125.694a8.827,8.827,0,0,0-12.494,0,.245.245,0,0,0,.347.347,8.337,8.337,0,0,1,11.79-.01l.01.01a.246.246,0,0,0,.347-.347Z" transform="translate(-45.225 -123.103)" fill="#393a34" stroke="#393a34" stroke-width="0.2"/>
        </g>
      </g>
      <g id="Grupo_223" data-name="Grupo 223" transform="translate(2.774 3.929)">
        <g id="Grupo_222" data-name="Grupo 222">
          <path id="Trazado_10607" data-name="Trazado 10607" d="M100.192,189.12a6.86,6.86,0,0,0-9.716,0,.246.246,0,1,0,.348.347,6.369,6.369,0,0,1,9.007-.014l.014.014a.246.246,0,1,0,.348-.347Z" transform="translate(-90.404 -187.103)" fill="#393a34" stroke="#393a34" stroke-width="0.2"/>
        </g>
      </g>
      <g id="Grupo_225" data-name="Grupo 225" transform="translate(4.164 5.893)">
        <g id="Grupo_224" data-name="Grupo 224">
          <path id="Trazado_10608" data-name="Trazado 10608" d="M142.714,252.543a4.9,4.9,0,0,0-6.941,0,.245.245,0,0,0,.347.347,4.413,4.413,0,0,1,6.241-.006l.006.006a.246.246,0,0,0,.347-.347Z" transform="translate(-135.704 -251.104)" fill="#393a34" stroke="#393a34" stroke-width="0.2"/>
        </g>
      </g>
      <g id="Grupo_227" data-name="Grupo 227" transform="translate(5.545 7.857)">
        <g id="Grupo_226" data-name="Grupo 226">
          <path id="Trazado_10609" data-name="Trazado 10609" d="M184.955,315.971l-.006-.006a2.948,2.948,0,0,0-4.166,0,.245.245,0,1,0,.34.354l.006-.006a2.457,2.457,0,0,1,3.474,0,.245.245,0,0,0,.352-.342Z" transform="translate(-180.708 -315.103)" fill="#393a34" stroke="#393a34" stroke-width="0.2"/>
        </g>
      </g>
      <g id="Grupo_229" data-name="Grupo 229" transform="translate(6.722 9.831)">
        <g id="Grupo_228" data-name="Grupo 228">
          <path id="Trazado_10610" data-name="Trazado 10610" d="M220.723,379.69h0a1,1,0,0,0-1.388,0,.982.982,0,1,0,1.389,0Zm-.695,1.184a.491.491,0,1,1,.491-.491A.491.491,0,0,1,220.028,380.874Z" transform="translate(-219.046 -379.411)" fill="#393a34" stroke="#393a34" stroke-width="0.2"/>
        </g>
      </g>
    </g>
  </g>
</svg>
