<svg xmlns="http://www.w3.org/2000/svg" width="326.889" height="212.677" viewBox="0 0 326.889 212.677"><defs><style>.a{fill:#ebf3fa;}.b{opacity:0.5;}.c{fill:#d5e5fb;}.d{fill:#cbdef4;}.e{fill:#b1dba5;}.f{fill:#bfe8b5;}.g{fill:#a8d29f;}.h{fill:#f8fcff;}.i{fill:#ecf2fb;}.j{fill:#c6d9f5;}.k{fill:#f0f5fc;}.l{fill:#c13340;}.m{fill:#3e5384;}.n{fill:#bad1f2;}.o{fill:#edf3fb;}.p{fill:#c7daf5;}.q{fill:#dd5057;}.r{fill:#f46270;}.s{fill:#efcdaf;}.t{fill:#82b378;}.u{fill:#d3a784;}.v{fill:#fff;}.w{fill:#163560;}.x{fill:#fce2d0;}.y{fill:#ffb27d;}.z{fill:#fe3151;}.aa{fill:#fcd3b7;}.ab{fill:#efa979;}.ac{fill:#070b41;}.ad{fill:#233862;}.ae{fill:#17467f;}.af{fill:#0c2442;}.ag{fill:#f99746;}</style></defs><g transform="translate(-385.052 -154.543)"><path class="a" d="M711.572,291.49a75.41,75.41,0,0,1-6.74,23.63q-.388.834-.782,1.64l-.127.257a113.272,113.272,0,0,1-6.79,11.509c-1.143,1.773-5.126,5.433-13.22,9.855q-1.244.681-2.623,1.385c-16.5,8.418-47.421,19.04-100.719,24.823-42.981,4.665-123.458,4.04-164.551-9.393-11.29-3.692-24.227-20.251-24.227-20.251q-1.63-3.094-2.991-6.024c-.083-.175-.164-.35-.243-.523q-.683-1.484-1.3-2.928c-.007-.019-.014-.037-.019-.055q-.437-1.292-.781-2.527-.211-.763-.388-1.5a35.6,35.6,0,0,1-.994-6.935q-.023-.558-.026-1.1a29.852,29.852,0,0,1,.18-3.417c.086-.768.2-1.519.34-2.255.015-.082.031-.165.048-.247q.223-1.122.526-2.2.086-.316.179-.627.3-1,.664-1.979c.007-.023.016-.046.025-.07.451-1.214.966-2.4,1.53-3.555.83-1.713,1.763-3.375,2.753-5.024,1.412-2.354,2.936-4.679,4.424-7.069,5.035-8.089,9.672-16.947,8.273-30.351a56.99,56.99,0,0,0-1.535-8.343,90.647,90.647,0,0,1-1.93-9.524A69.829,69.829,0,0,1,404,203.3a64.528,64.528,0,0,1,2.885-6.466A69.294,69.294,0,0,1,422.423,176.9a83.235,83.235,0,0,1,18.231-12.321,92.013,92.013,0,0,1,9.613-4.158,96.266,96.266,0,0,1,13.519-3.865c29.409-6.133,61.211,1.517,77.086,25.832,20.934,32.06,52.81,36.97,66.679,32.98,2.906-.836,5.842-1.617,8.8-2.307,18.057-4.2,37.042-4.982,55.661,6.354l.022.012.011.007q2.4,1.464,4.79,3.2.863.627,1.725,1.294,1.642,1.267,3.28,2.678a96.326,96.326,0,0,1,10.7,10.9q.738.873,1.472,1.781s0,0,0,0q.357.437.71.883,1.074,1.351,2.144,2.779c.606.811,1.21,1.635,1.815,2.482a78.68,78.68,0,0,1,5.228,8.339,69.85,69.85,0,0,1,3.721,8.026q.121.312.238.623c.045.119.089.238.131.355q.843,2.274,1.486,4.516.309,1.074.575,2.139.519,2.06.884,4.088A63.015,63.015,0,0,1,711.572,291.49Z" transform="translate(0 0)"/><g class="b" transform="translate(466.875 246.694)"><path class="c" d="M1275.511,909.352a63.017,63.017,0,0,1,.622,17.964,75.4,75.4,0,0,1-6.74,23.63q-.387.834-.782,1.64l-.127.257a113.211,113.211,0,0,1-6.79,11.509c-1.26,1.954-5.973,6.2-15.843,11.239l-103.2.376v-.374l-102.429.374h-8.789V909.643h8.772V894.877h17.5V907.41h5.346V884.231h1.162V882.61h.208v1.621h4.221V882.61h.209v1.621h5.977V882.61h.209v1.621h3.761V882.61h.209v1.621h1.543v21.637h5.906v-3.5l6.967.032v-5.672h1.4v-1.122h.186v1.122h6.455v-1.124h.186v1.124h1.3v11.278h8.294v4.151h4.61v-2.41h4.277v-9.569h2.131v-4.463h.321v4.463h5.112v-8.366h.5v8.366h3.38v-.116h-.005V899h.005V898h-.005v-1.672h.005v-1.068h-.005v-1.672h.005v-1.067h-.005v-1.672h.005v-1.154h-.005V888.02h.005v-1.468h-.005V884.88h.005v-1.108h1.007v-1.251h.161v1.251h7.463v-1.251h.16v1.251h1.363v8.746l.958.005v-.005h-.008v-1.672h.008v-1.154h-.008V888.02h.008v-1.15h-.008V885.2h.008v-.005h9.05v.005h1.555l.242.133v9.546h6.615V907.41h5.344V884.231h1.162V882.61h.209v1.621h4.221V882.61h.209v1.621h5.976V882.61h.209v1.621h3.761V882.61h.209v1.621H1183v21.637h5.906v-3.5l6.967.032v-5.672h1.4v-1.122h.186v1.122h6.454v-1.124h.186v1.124h1.3v11.278h8.3v4.151h4.609v-2.41h4.275v-9.569h2.132v-4.463h.323v4.463h5.111v-8.366h.5v8.366h3.38v-.116h-.006V899h.006V898h-.006v-1.672h.006v-1.068h-.006v-1.672h.006v-1.067h-.006v-1.672h.006v-1.154h-.006V888.02h.006v-1.468h-.006V884.88h.006v-1.108h1.009v-1.251h.161v1.251h7.462v-1.251h.161v1.251h1.361v8.746l.946.005h.014v-.005h-.008v-1.672h.008v-1.154h-.008V888.02h.008v-1.15h-.008V885.2h.008v-.005h9.05v.005h1.554c.082.045.161.087.242.133v9.546h11.1v12.534h5.345v-9.158q.923,2.454,1.617,4.872.309,1.074.575,2.139Q1275.145,907.324,1275.511,909.352Z" transform="translate(-1031.436 -882.521)"/><g transform="translate(31.617 1.251)"><rect class="d" width="13.352" height="3.668" transform="translate(106.596 0.459)"/><rect class="d" width="13.352" height="3.668" transform="translate(106.596 6.104)"/><rect class="d" width="13.352" height="3.668" transform="translate(106.596 11.867)"/><rect class="d" width="13.352" height="3.668" transform="translate(106.596 17.722)"/><rect class="d" width="13.352" height="3.668" transform="translate(106.596 23.371)"/><g transform="translate(170.99)"><rect class="d" width="6.23" height="2.227"/><rect class="d" width="6.23" height="2.227" transform="translate(0 3.428)"/><rect class="d" width="6.23" height="2.227" transform="translate(0 6.928)"/><rect class="d" width="6.23" height="2.227" transform="translate(0 10.484)"/><rect class="d" width="6.23" height="2.227" transform="translate(0 13.915)"/></g><g transform="translate(170.99 17.691)"><rect class="d" width="6.23" height="2.227"/><rect class="d" width="6.23" height="2.227" transform="translate(0 3.428)"/><rect class="d" width="6.23" height="2.227" transform="translate(0 6.928)"/><rect class="d" width="6.23" height="2.227" transform="translate(0 10.484)"/><rect class="d" width="6.23" height="2.227" transform="translate(0 13.915)"/></g><g transform="translate(182.072 1.461)"><rect class="d" width="6.676" height="2.227"/><rect class="d" width="6.676" height="2.227" transform="translate(0 3.428)"/><rect class="d" width="6.676" height="2.227" transform="translate(0 6.928)"/><rect class="d" width="6.676" height="2.227" transform="translate(0 10.484)"/><rect class="d" width="6.676" height="2.227" transform="translate(0 13.915)"/></g><g transform="translate(182.072 18.952)"><rect class="d" width="6.676" height="2.227"/><rect class="d" width="6.676" height="2.227" transform="translate(0 3.428)"/><rect class="d" width="6.676" height="2.227" transform="translate(0 6.928)"/><rect class="d" width="6.676" height="2.227" transform="translate(0 10.484)"/><rect class="d" width="6.676" height="2.227" transform="translate(0 13.915)"/></g><g transform="translate(182.072 36.802)"><rect class="d" width="6.676" height="2.227"/><rect class="d" width="6.676" height="2.227" transform="translate(0 3.428)"/><rect class="d" width="6.676" height="2.227" transform="translate(0 6.928)"/><rect class="d" width="6.676" height="2.227" transform="translate(0 10.484)"/><rect class="d" width="6.676" height="2.227" transform="translate(0 13.915)"/></g><rect class="d" width="12.983" height="3.668" transform="translate(0 0.459)"/><rect class="d" width="12.983" height="3.668" transform="translate(0 5.984)"/><rect class="d" width="12.983" height="3.668" transform="translate(0 11.747)"/><rect class="d" width="12.983" height="3.668" transform="translate(0 17.602)"/><rect class="d" width="12.983" height="3.668" transform="translate(0 23.251)"/><g transform="translate(68.464)"><rect class="d" width="6.676" height="2.227"/><rect class="d" width="6.676" height="2.227" transform="translate(0 3.428)"/><rect class="d" width="6.676" height="2.227" transform="translate(0 6.928)"/><rect class="d" width="6.676" height="2.227" transform="translate(0 10.484)"/><rect class="d" width="6.676" height="2.227" transform="translate(0 13.915)"/></g><g transform="translate(68.464 17.691)"><rect class="d" width="6.676" height="2.227"/><rect class="d" width="6.676" height="2.227" transform="translate(0 3.428)"/><rect class="d" width="6.676" height="2.227" transform="translate(0 6.928)"/><rect class="d" width="6.676" height="2.227" transform="translate(0 10.484)"/><rect class="d" width="6.676" height="2.227" transform="translate(0 13.915)"/></g><g transform="translate(79.769 1.461)"><rect class="d" width="7.588" height="2.227"/><rect class="d" width="7.588" height="2.227" transform="translate(0 3.428)"/><rect class="d" width="7.588" height="2.227" transform="translate(0 6.928)"/><rect class="d" width="7.588" height="2.227" transform="translate(0 10.484)"/><rect class="d" width="7.588" height="2.227" transform="translate(0 13.915)"/></g><g transform="translate(79.769 18.952)"><rect class="d" width="7.588" height="2.227"/><rect class="d" width="7.588" height="2.227" transform="translate(0 3.428)"/><rect class="d" width="7.588" height="2.227" transform="translate(0 6.928)"/><rect class="d" width="7.588" height="2.227" transform="translate(0 10.484)"/><rect class="d" width="7.588" height="2.227" transform="translate(0 13.915)"/></g><g transform="translate(79.769 36.802)"><rect class="d" width="7.588" height="2.227"/><rect class="d" width="7.588" height="2.227" transform="translate(0 3.428)"/><rect class="d" width="7.588" height="2.227" transform="translate(0 6.928)"/><rect class="d" width="7.588" height="2.227" transform="translate(0 10.484)"/><rect class="d" width="7.588" height="2.227" transform="translate(0 13.915)"/></g></g></g><path class="e" d="M1651.516,1325.395s-17.993-1.76-23.67,8.715-22.88-8.171-33.057-9.479-21.076,5.76-21.8,10.81-30.9-8.917-45.961,14.128l124.693-.387Z" transform="translate(-997.417 -1021.833)"/><path class="f" d="M713.638,1433.515a102.846,102.846,0,0,1-6.07,10.392l-.72,1.117c-1.292,2-6.209,6.416-16.588,11.615-16.681,8.358-47.467,18.75-99.974,24.447-20.643,2.24-49.937,3.261-79.361,2.228q-1.589-.055-3.178-.12-1.216-.048-2.432-.1-1.931-.084-3.86-.182-2.22-.113-4.435-.241c-.812-.048-1.622-.1-2.432-.147-26.163-1.635-51.159-5.043-68.854-10.828-11.29-3.692-24.227-20.251-24.227-20.251q-2.606-4.945-4.532-9.475c-.007-.019-.014-.037-.019-.054q-.437-1.292-.781-2.527a468.342,468.342,0,0,1,77.364,4.106C520.634,1449.775,667.121,1428.962,713.638,1433.515Z" transform="translate(-9.715 -1116.499)"/><path class="g" d="M1552.794,829.147s-2.1-8.949,11.212-9.377c25.491-.82,7.782-15.1,28.977-13.121s33.164-34.854,25.635-35.036-19.354-2.134-16.522-19.336,15.1-13.5,19.131-20.9,9.581-16.329,24.062-14.635,20.877,8.12,20.335,24.208-9.81,88.2-9.81,88.2Z" transform="translate(-1019.816 -490.85)"/><path class="h" d="M1428.99,689.794a8.356,8.356,0,0,1,8.146-4.358s8.34-8.171,17.233-1.089c0,0,9.454-1.755,16.455,1.519,4.668,2.183,6.209,4.473,6.209,4.473Z" transform="translate(-911.79 -460.216)"/><path class="h" d="M1183.855,512.526a10.05,10.05,0,0,1,9.755-5s9.986-9.37,20.636-1.249c0,0,11.32-2.012,19.7,1.742,5.589,2.5,7.436,5.129,7.436,5.129Z" transform="translate(-697.686 -304.32)"/><path class="g" d="M519.316,1328.851H388.8c-.083-.175-.164-.35-.243-.523q-.683-1.485-1.3-2.928c-.007-.019-.014-.037-.019-.055q-.437-1.291-.78-2.527-.211-.763-.388-1.5a35.593,35.593,0,0,1-.994-6.935q-.023-.558-.026-1.1a32.129,32.129,0,0,1,.172-3.229q.129-1.251.349-2.444c.015-.083.03-.165.048-.247q.2-1.068.473-2.1c.055-.215.112-.426.171-.638q.3-1.06.655-2.086l.071.014c15.727,3.007,31.93-6.054,51.33-2.165,24.163,4.844,31.978,22.719,39.758,20.035S518.682,1317.733,519.316,1328.851Z" transform="translate(-0.002 -999.931)"/><g transform="translate(569.59 219.41)"><g transform="translate(29.504 0)"><rect class="i" width="59.944" height="84.048" transform="translate(4.129 34.919)"/><path class="j" d="M2629.893,958.223a63.008,63.008,0,0,1,.622,17.964,75.407,75.407,0,0,1-6.74,23.63q-.388.834-.782,1.64c-.042.086-.084.172-.126.257a113.335,113.335,0,0,1-6.791,11.509c-1.142,1.773-5.125,5.433-13.22,9.855h-20.745V939.026l.635-.008,31.313-.424,8.8-.119a69.841,69.841,0,0,1,3.72,8.026q.122.312.238.623c.045.119.089.238.131.355q.843,2.274,1.486,4.516.309,1.074.575,2.139Q2629.527,956.2,2629.893,958.223Z" transform="translate(-2518.037 -904.107)"/><path class="j" d="M2148.893,667.006q2.4,1.464,4.789,3.2l-6.4,13.173-9,18.518-2.047,4.215-.633,1.3h-59.669l4.129-5.347.133-.172,26.687-34.918.16.149,17.986-.055,23.849-.074Z" transform="translate(-2075.939 -666.979)"/><path class="k" d="M2169.932,670.394q.863.627,1.725,1.294l-6.389,13.152-8.372,17.237,0,.008-.63,1.3v0l-2.049,4.217h-59.669l1.773-2.3h0l2.486-3.22,19.647-25.443,5.983-7.748,1.219-1.58,15.639-.048,23.851-.073Q2167.541,668.658,2169.932,670.394Z" transform="translate(-2092.188 -667.167)"/><g transform="translate(30.949)"><path class="l" d="M2398.391,710.351l-44.836-.675h0l-1.109-.016-1.684-2.244-.978-1.3-3.161-4.215-24.9-33.191-1.16-1.547-.135-.18,18.023.005,23.95,0,.022.012.011.007q2.4,1.464,4.789,3.2.863.627,1.725,1.294,1.642,1.267,3.28,2.678a96.332,96.332,0,0,1,10.7,10.9q.738.873,1.472,1.781s0,0,0,0q.357.437.709.883,1.074,1.351,2.145,2.779c.605.811,1.209,1.635,1.815,2.482a78.709,78.709,0,0,1,5.228,8.339,69.884,69.884,0,0,1,3.721,8.026q.121.312.238.623C2398.3,710.115,2398.349,710.234,2398.391,710.351Z" transform="translate(-2320.43 -666.979)"/><path class="l" d="M2589.167,701.4a69.791,69.791,0,0,1,3.721,8.026l-49.35-42.385h13.73l.022.012.01.007q2.4,1.464,4.79,3.2.864.628,1.725,1.294,1.642,1.267,3.281,2.678a96.368,96.368,0,0,1,10.7,10.9q.738.874,1.472,1.781s0,0,0,0q.357.437.709.883,1.074,1.351,2.145,2.779c.605.811,1.209,1.635,1.815,2.482A78.691,78.691,0,0,1,2589.167,701.4Z" transform="translate(-2515.296 -667.035)"/></g><g transform="translate(16.239 25.222)"><path class="m" d="M5.728,0h0a5.542,5.542,0,0,1,5.542,5.542V18.736a0,0,0,0,1,0,0H0a0,0,0,0,1,0,0V5.728A5.728,5.728,0,0,1,5.728,0Z" transform="translate(0.328 0.328)"/><path class="n" d="M2210.707,866.228h-.86a5.626,5.626,0,0,0-5.619,5.62v13.774h11.927V871.676A5.454,5.454,0,0,0,2210.707,866.228Zm-.86.657h.86a4.8,4.8,0,0,1,4.791,4.791v.176h-10.614v0A4.968,4.968,0,0,1,2209.846,866.885Zm-4.963,5.794h4.769v12.286h-4.769Zm5.614,12.286V872.678h5v12.286Z" transform="translate(-2204.227 -866.228)"/></g><g transform="translate(33.731 25.222)"><path class="m" d="M5.728,0h0a5.542,5.542,0,0,1,5.542,5.542V18.736a0,0,0,0,1,0,0H0a0,0,0,0,1,0,0V5.728A5.728,5.728,0,0,1,5.728,0Z" transform="translate(0.328 0.328)"/><path class="n" d="M2348.889,866.228h-.86a5.626,5.626,0,0,0-5.62,5.62v13.774h11.927V871.676A5.454,5.454,0,0,0,2348.889,866.228Zm-.86.657h.86a4.8,4.8,0,0,1,4.791,4.791v.176h-10.614v0A4.969,4.969,0,0,1,2348.028,866.885Zm-4.963,5.794h4.769v12.286h-4.769Zm5.614,12.286V872.678h5v12.286Z" transform="translate(-2342.409 -866.228)"/></g></g><g transform="translate(0 51.731)"><path class="j" d="M1899.324,1075.641l-13.983,28.788H1842.86l22.148-28.683Z" transform="translate(-1842.86 -1075.641)"/><g transform="translate(1.273)"><path class="o" d="M1909.38,1075.641l-13.983,28.788h-42.481l22.147-28.683Z" transform="translate(-1852.916 -1075.641)"/><path class="k" d="M1895.308,1303.061v38.369l-42.387.083v-38.452Z" transform="translate(-1852.92 -1274.272)"/><rect class="p" width="35.894" height="38.369" transform="translate(42.388 28.788)"/><path class="q" d="M2079.17,1106.852h-38.56l-22.793-30.386,11.486,0,26.411.006Z" transform="translate(-1996.943 -1076.361)"/><path class="n" d="M1965.146,1292.959v32.061h-17.858v-31.766a9.077,9.077,0,0,1,9.076-9.076,8.784,8.784,0,0,1,8.782,8.782Z" transform="translate(-1935.342 -1257.779)"/><path class="l" d="M2244.248,1106.864h-2.515l-34.912-30.384,13.972.006Z" transform="translate(-2162.021 -1076.374)"/></g></g><path class="r" d="M7.716,0a7.465,7.465,0,0,1,7.465,7.465V38.453H0V7.716A7.716,7.716,0,0,1,7.716,0Z" transform="translate(14.531 79.252)"/><path class="q" d="M1979.105,1308.3v.268H1965.98v-.051a6.67,6.67,0,0,1,6.67-6.67h0A6.452,6.452,0,0,1,1979.105,1308.3Z" transform="translate(-1950.395 -1221.484)"/><g transform="translate(15.313 80.092)"><path class="n" d="M1970.769,1299.69a6.95,6.95,0,0,0-6.943,6.943v.324H1977.5v-.541A6.735,6.735,0,0,0,1970.769,1299.69Zm-6.394,6.721a6.382,6.382,0,0,1,2.048-4.467c.133-.123.272-.242.416-.354a6.372,6.372,0,0,1,3.934-1.353,6.142,6.142,0,0,1,3.677,1.216c.148.109.288.224.425.346a6.171,6.171,0,0,1,2.078,4.612Z" transform="translate(-1963.826 -1299.69)"/></g><path class="s" d="M2053.121,1477.666a.469.469,0,1,1,.469.469A.468.468,0,0,1,2053.121,1477.666Z" transform="translate(-2026.505 -1374.636)"/><g transform="translate(17.726 81.638)"><path class="n" d="M1991.7,1312.23l-.175.235-3.449,4.612-.409.547h-.262l-.471-.547-3.86-4.467-.183-.212.413-.357.186.215,4.025,4.658,3.585-4.795.163-.217Z" transform="translate(-1982.894 -1311.902)"/></g><rect class="n" width="16.812" height="1.249" transform="translate(14.101 88.051)"/><g transform="translate(15.657 90.471)"><path class="s" d="M1979.534,1407.737h-12.986v-26.056h12.986Zm-12.848-.137H1979.4v-25.781h-12.711Z" transform="translate(-1966.548 -1381.682)"/></g></g><g transform="translate(630.805 319.29)"><path class="t" d="M2396.208,1520.146l-.72,1.117c-1.292,2-6.209,6.416-16.588,11.615h-49.346a12.28,12.28,0,0,1,6.2-9.352,16.92,16.92,0,0,1,1.775-.908c.189-.084.382-.167.577-.244q.5-.2,1.021-.383c.293-.1.591-.2.893-.288.672-.2,1.369-.383,2.083-.539a54.976,54.976,0,0,1,15.44-.638c7.6.581,11.074,3.774,21.032,3.226A79.906,79.906,0,0,0,2396.208,1520.146Z" transform="translate(-2329.16 -1512.028)"/><path class="t" d="M2363.205,1468.966s-3.727-13.643-6.573-12.924S2363.205,1468.966,2363.205,1468.966Z" transform="translate(-2352.343 -1456.014)"/><path class="t" d="M2338.491,1508.941s-9.625-10.363-11.814-8.406S2338.491,1508.941,2338.491,1508.941Z" transform="translate(-2326.444 -1494.684)"/><path class="t" d="M2407.177,1488.01s.616-14.13-2.314-14.314S2407.177,1488.01,2407.177,1488.01Z" transform="translate(-2394.158 -1471.456)"/></g><path class="g" d="M2208.305,1585.179H2201.9c-.344-.292.238-.953.844-1a3.739,3.739,0,0,1,.979.116c.088-1.171.592-6.438,2.49-6.226,2.135.237,0,2.319-.6,3.552a29.325,29.325,0,0,0-1.134,2.84c.173.038.353.075.536.109.283-.869,1.336-3.791,2.674-3.621,1.572.2.94,1.371-.174,2.066-.818.511-1.821,1.238-2.3,1.589a6.777,6.777,0,0,0,1.254.1A2.7,2.7,0,0,1,2208.305,1585.179Z" transform="translate(-1586.768 -1243.325)"/><g transform="translate(508.355 331.764)"><path class="g" d="M1389.04,1563.354s-3.482-9.563-5.927-8.748S1389.04,1563.354,1389.04,1563.354Z" transform="translate(-1379.685 -1554.557)"/><path class="g" d="M1379.443,1592.944c-.3,0-5.853-5.766-6.223-4.257S1379.443,1592.944,1379.443,1592.944Z" transform="translate(-1371.422 -1584.147)"/><path class="g" d="M1373.068,1612.671a6.619,6.619,0,0,0-5.208-1.559c-2.91.549-4.152,1.149-5.979.734a2.706,2.706,0,0,0-2.761.825Z" transform="translate(-1359.12 -1603.873)"/></g><g transform="translate(522.05 309.042)"><rect class="q" width="29.527" height="12.977"/><g transform="translate(3.544 12.977)"><path class="u" d="M1495.563,1496.293h-.043a.218.218,0,0,1-.217-.237l1.613-18.49h1.125l-2.166,18.45A.314.314,0,0,1,1495.563,1496.293Z" transform="translate(-1495.302 -1477.566)"/></g><g transform="translate(23.058 12.977)"><path class="u" d="M1651.932,1496.293h.043a.218.218,0,0,0,.217-.237l-1.613-18.49h-1.124l2.166,18.45A.314.314,0,0,0,1651.932,1496.293Z" transform="translate(-1649.455 -1477.566)"/></g><g transform="translate(4.26 3.456)"><path class="v" d="M1500.956,1407.085l.576-.685a2.507,2.507,0,0,0,1.72.708c.591,0,.965-.272.965-.7,0-.389-.218-.6-1.23-.841-1.16-.272-1.813-.615-1.813-1.634a1.666,1.666,0,0,1,1.86-1.58,3.02,3.02,0,0,1,1.977.685l-.514.724a2.474,2.474,0,0,0-1.479-.56c-.56,0-.887.288-.887.661,0,.42.249.607,1.292.856,1.152.28,1.751.693,1.751,1.611,0,1.019-.8,1.626-1.946,1.626A3.355,3.355,0,0,1,1500.956,1407.085Z" transform="translate(-1500.956 -1402.353)"/><path class="v" d="M1540.982,1402.661h.887l2.4,5.487h-1.012l-.553-1.315h-2.576l-.56,1.315h-.981Zm1.37,3.323-.942-2.179-.934,2.179Z" transform="translate(-1533.822 -1402.622)"/><path class="v" d="M1590.847,1402.969h.957v4.576h2.864v.872h-3.821Z" transform="translate(-1579.468 -1402.891)"/><path class="v" d="M1628.9,1402.969h4.039v.856h-3.082v1.417h2.732v.856h-2.732v1.463h3.121v.856H1628.9Z" transform="translate(-1612.708 -1402.891)"/></g><path class="q" d="M1700.562,1375.052l4.053,6.818-4.053,6.159Z" transform="translate(-1671.035 -1375.052)"/></g><g transform="translate(409.104 177.006)"><path class="w" d="M765.457,379.514c-7.48-8.733-6.71-15.952-6.486-22.673s-4.66-26.256-21.409-24.29a12.472,12.472,0,0,0-9.861,1.056c-9.932,5.152-29.692,45.949-21.551,58.462,1.589,2.443,4.242,3.808,8.238,3.619h0a21.193,21.193,0,0,0,3.941-.6c-.206-.4.547-1,1.9-1.558.372-.153.791-.305,1.248-.448a20.733,20.733,0,0,1,2.144-.543c.391-.077.8-.148,1.213-.208,6.874-.994,16.738.695,16.981,13.516a75.958,75.958,0,0,0,8.724-.848c1.933-.3,4.032-.7,6.128-1.234.907-.234,1.815-.492,2.709-.781a27.645,27.645,0,0,0,6.964-3.215C772.013,395.934,774.169,389.684,765.457,379.514Z" transform="translate(-687.877 -331.997)"/><path class="x" d="M1400.085,971.662s2.946-4.484,5.32-4.572,6.771-1.319,6.418-.44-3.077.967-3.341,1.495,4.045,1.319,5.276,1.407,4.133,0,4.045.615-5.229,3.165-8.858,2.814a24.61,24.61,0,0,0-8.112,1.055Z" transform="translate(-1295.648 -886.037)"/><path class="y" d="M1529.09,993.093c-.021.145-.321.4-.817.693-.011-.029-.021-.056-.03-.085l-.019-.019c-.018-.019-.018-.019-.018-.057-.071-.15-.179-.3-.269-.511l-.055-.058a3.176,3.176,0,0,0-.38-.473C1528.4,992.647,1529.135,992.778,1529.09,993.093Z" transform="translate(-1406.935 -908.962)"/><path class="r" d="M1063.543,772.8a44.151,44.151,0,0,0,4.505,6.814c3.5,4.384,8.9,9.449,15.674,10.448a16.821,16.821,0,0,0,9.312-1.511l.01,0c8.23-3.653,14.418-12.055,14.418-12.055a6.766,6.766,0,0,0-.923-6.64s-16.619,3.738-18.2,2.947-10.815-27.389-13.013-30.731-9.691-5.078-9.691-5.078Z" transform="translate(-1001.707 -685.729)"/><path class="z" d="M1095.527,1012.938c3.5,4.384,8.9,9.449,15.674,10.448a16.821,16.821,0,0,0,9.312-1.511c-.322.042-8.541,1.058-11.818-4.8-3.342-5.98-6.956-15.476-11.92-12.311C1094.632,1006.127,1094.727,1009.522,1095.527,1012.938Z" transform="translate(-1029.185 -919.048)"/><path class="aa" d="M751.531,686.995c5.863-13.148,9.451-16.922,8.766-21-.51-3.037,1.552-56.632,1.552-56.632.7-.215,2.09-.409,2.853-.578a7.153,7.153,0,0,0,5.224-4.543,36.454,36.454,0,0,0,1.773-12.092l.751.148,12.628,2.5s-.287,3.974-.3,7.718q0,.047,0,.093a7.263,7.263,0,0,0,5.242,7.023c1.6.461,2.983.854,2.983.854a115.789,115.789,0,0,1,5.523,26.839c.886,13.6-8.432,19.508.07,46.686C807.279,711.764,748.292,694.26,751.531,686.995Z" transform="translate(-729.079 -559.215)"/><path class="ab" d="M930.3,595.814s-.287,3.974-.3,7.718c-7.067-.2-10.8-6.645-12.332-10.219Z" transform="translate(-874.297 -560.235)"/><path class="x" d="M919.335,446.418s-16.719.276-16.731-10.139-2.177-17.393,8.5-18.009,12.753,3.355,13.6,6.831S923.684,446.078,919.335,446.418Z" transform="translate(-860.977 -407.294)"/><path class="w" d="M881.623,402.09s-4.578,12.218-11.6,14.025-10.072-.076-10.072-.076a19.894,19.894,0,0,0,6.507-11.753S878.17,396.275,881.623,402.09Z" transform="translate(-823.884 -391.368)"/><path class="w" d="M1022.217,410.784s3.395,1.269,4.792,3.745a16.833,16.833,0,0,1,2.26,9.561s3.449-8.3-.427-13C1024.732,406.106,1022.217,410.784,1022.217,410.784Z" transform="translate(-965.612 -399.071)"/><path class="a" d="M1007.331,586.006a4.2,4.2,0,0,0,3.462,1.408,3.073,3.073,0,0,0,2.576-1.7A11.23,11.23,0,0,0,1007.331,586.006Z" transform="translate(-952.61 -553.342)"/><path class="r" d="M770.408,751.828s.063,7.929.488,15.112c.282,4.761.72,9.2,1.4,10.773,1.715,3.957,3.648,4.6,3.648,4.6l14.959,3.667,5.26,1.287,16.587-4.954s7.555-21.087,4.521-32.957a91.231,91.231,0,0,0-7.668-20.114s-13.535,13.253-31.158-1.124l-4.023.792Z" transform="translate(-745.678 -677.976)"/><path class="z" d="M774.263,1001.565c.282,4.761.72,9.2,1.4,10.773,1.715,3.957,3.648,4.6,3.648,4.6l14.959,3.667,6.5-1.91s-21.689-3.287-19.285-21.947Z" transform="translate(-749.046 -912.6)"/><path class="z" d="M910.392,1262.462c-8.4-.624-16.617-1.439-24.457-2.466q-3.326-.435-6.556-.921a199.964,199.964,0,0,1,1.267-22.931c1.137-8.418,1.952-16.508,2.534-23.764.953-11.859,1.289-21.488,1.406-26.674.044-1.952.057-3.274.061-3.849,0-.089,0-.16,0-.213,0-.076,0-.114,0-.114h22.225s.315.98.825,2.62c2.1,6.742,7.493,24.651,7.917,31.653C915.826,1219.241,913.42,1239.256,910.392,1262.462Z" transform="translate(-840.856 -1073.991)"/><path class="ac" d="M741.186,1205.388q-.815,1.377-1.6,2.828c-7.508,13.95-12.581,32.636-15.578,46.523q-3.327-.435-6.556-.922a230.962,230.962,0,0,1-23.468-4.668c.63-9.342,1.086-20.44,1.514-29.66.205-4.428.4-8.424.613-11.584.109-1.655.22-3.08.338-4.218a26.974,26.974,0,0,1,1.267-5.578c.22-.671.463-1.349.724-2.029a77.1,77.1,0,0,1,5.464-11.031c1.675-2.853,3.3-5.321,4.468-7.031,1.078-1.576,1.775-2.509,1.775-2.509l6.193.537,1.052.091,5.329.461,1.346.118h0l.125.01,7.419.643,3.108.269,1.181.1,3.28.283s.187.782.471,2.087c.02.094.04.189.062.287q.095.448.2.963C741.242,1187.7,743.649,1201.228,741.186,1205.388Z" transform="translate(-678.934 -1068.734)"/><path class="v" d="M1010.266,586.821s.289,1.227,3.342,1.038c0,0,2.563-.158,2.485-1.507A8.248,8.248,0,0,0,1010.266,586.821Z" transform="translate(-955.174 -553.879)"/><path class="ad" d="M845.528,1150.352s-3.3,2.608-9.848,2.74c-7.825.158-27.214-1.995-27.214-1.995a16.036,16.036,0,0,0-.826,4.949s23.681,5.973,37.4.872A8.672,8.672,0,0,0,845.528,1150.352Z" transform="translate(-778.196 -1046.76)"/><g transform="translate(55.79 104.993)"><path class="v" d="M1016.35,1163.966h.967a3.1,3.1,0,0,1,.215-.353Zm0,0h.967a3.1,3.1,0,0,1,.215-.353Zm0,0h.967a3.1,3.1,0,0,1,.215-.353Zm0,0h.967a3.1,3.1,0,0,1,.215-.353Zm6.318,0a4.083,4.083,0,0,0-1.009-1.586c-.023-.021-.046-.044-.07-.065a3.31,3.31,0,0,0-2.238-.895,3.4,3.4,0,0,0-2.658,1.347,4.1,4.1,0,0,0-.658,1.2c-.014.034-.025.07-.037.1a4.477,4.477,0,0,0-.215,1.262c0,.043,0,.086,0,.129a4.277,4.277,0,0,0,1.224,3.043,3.335,3.335,0,0,0,2.347,1,3.219,3.219,0,0,0,1.629-.446,3.757,3.757,0,0,0,1.253-1.214,4.376,4.376,0,0,0,.689-2.381A4.47,4.47,0,0,0,1022.667,1163.966Zm-2.638,4.236a2,2,0,0,1-.678.118c-.066,0-.13,0-.195-.01h0a2.706,2.706,0,0,1-2.19-2.847v-.027a3.263,3.263,0,0,1,.353-1.469,3.1,3.1,0,0,1,.215-.353,2.386,2.386,0,0,1,1.2-.91,2.006,2.006,0,0,1,.622-.1,2.058,2.058,0,0,1,.264.018h0a1.993,1.993,0,0,1,.614.185,2.569,2.569,0,0,1,1.153,1.16,3.273,3.273,0,0,1,.353,1.5,3.052,3.052,0,0,1-1.024,2.344,2.241,2.241,0,0,1-.682.394Zm-3.68-4.236h.967a3.1,3.1,0,0,1,.215-.353Zm0,0h.967a3.1,3.1,0,0,1,.215-.353Zm0,0h.967a3.1,3.1,0,0,1,.215-.353Z" transform="translate(-1015.78 -1161.42)"/></g><rect class="w" width="38.122" height="21.367" transform="matrix(-0.978, -0.211, 0.211, -0.978, 37.265, 155.217)"/><path class="ae" d="M647.892,1337.741s-10.418,8.727-22,5.691-15.269-13.726-15.269-13.726Z" transform="translate(-606.124 -1203.411)"/><g transform="translate(34.486 130.894)"><path class="ae" d="M850.253,1366.153a2.053,2.053,0,0,0-.7-.123,1.955,1.955,0,0,0-.348.03,2.074,2.074,0,0,0-1.714,1.838c-.005.066-.009.133-.009.2a2.07,2.07,0,0,0,4.031.666,2.038,2.038,0,0,0,.11-.666A2.073,2.073,0,0,0,850.253,1366.153Zm-.7,3.329a1.384,1.384,0,0,1-1.382-1.382c0-.018,0-.037,0-.055a1.382,1.382,0,0,1,2.763.055,1.367,1.367,0,0,1-.1.52A1.385,1.385,0,0,1,849.551,1369.482Z" transform="translate(-847.48 -1366.03)"/></g><g transform="translate(31.792 50.178)"><path class="af" d="M831.649,809.572c.022-.341,2.173-34.338,1.762-53.453a79.7,79.7,0,0,0-3.029-21.271,15.742,15.742,0,0,0-3.375-6.458l-.8.158c.052.084,5.744,8.686,6.151,27.594.41,19.07-1.738,53.022-1.76,53.363Z" transform="translate(-826.204 -728.39)"/></g><path class="x" d="M757.646,1333.319a2.707,2.707,0,0,1,.582.412,14.742,14.742,0,0,0,2.719,1.09c1.266.1.827.966-.284,1.105-.241.03-.833-.113-1.091-.115a19.584,19.584,0,0,1,1.156,6.763s.184,2.5-1.871.81c-1.373-1.133-1.348-2.068-3.258-3.7a6.023,6.023,0,0,1-2.1-5.99l-1.078-2.105,3.561-1.426,1.046,2.553A1.481,1.481,0,0,0,757.646,1333.319Z" transform="translate(-729.968 -1203.814)"/><path class="r" d="M653.429,729.761s-8.684,1.265-10.88,4.04-16.222,41.179-13.88,47.943,3.529,15.823,9.155,22.152c1.822,2.05,4.478,3.871,6.152,4.033,1.5.145,3.49-1.079,4.041-1.44a.272.272,0,0,0,.12-.27c-.364-2.365-4.334-28.413-3.055-30.733,1.34-2.43,11.024-12.737,11.743-18.2S653.429,729.761,653.429,729.761Z" transform="translate(-621.651 -679.41)"/><g transform="translate(109.807 82.471)"><g transform="translate(8.925 3.026)"><path class="w" d="M1520.69,1010.035l-.018-.019a3.566,3.566,0,0,0-1.161-1.711,3.987,3.987,0,0,0-3.406-.805c-.076.036-.207.051-.282.086a4.026,4.026,0,0,0-.586.232,4.215,4.215,0,0,0-1.3,1.018.715.715,0,0,0-.175.277c-.039.038-.058.056-.059.093a3.6,3.6,0,0,0-.674,1.706c.017.095-.024.205-.007.3l-.019.019a1.007,1.007,0,0,0,.013.28,1.948,1.948,0,0,0,.063.527,3.721,3.721,0,0,0,1.37,2.351,3.873,3.873,0,0,0,4.423.42l0,0a3.428,3.428,0,0,0,1.144-.948,4,4,0,0,0,.7-1.257s0,0,0,0h0A3.762,3.762,0,0,0,1520.69,1010.035Zm-4.894.358a.756.756,0,0,1-1.033.184.291.291,0,0,1-.111-.078.528.528,0,0,1-.108-.151.376.376,0,0,1-.165-.248l.019-.019a.741.741,0,0,1,.148-.725.616.616,0,0,1,.492-.252l.038-.036c.038,0,.057-.018.075,0a.669.669,0,0,1,.466.141.1.1,0,0,1,.073.039.611.611,0,0,1,.254.381A.812.812,0,0,1,1515.8,1010.394Z" transform="translate(-1513.006 -1007.404)"/><path class="w" d="M1558.153,1048.482l1.056.871.245,1.244.9.743.917-1.112.476.393-.917,1.112.373.308.232-.281.7.581.406-.492.435.359-.637.773.637.526.879,0,.408-.495.646.533,1.073-1.3-7.954-6.563-1.836,2.224,1.447,1.194Z" transform="translate(-1550.728 -1040.838)"/></g><g transform="translate(0 3.678)"><path class="w" d="M1454.175,1016.112a5.322,5.322,0,0,0-.1-.563,3.868,3.868,0,0,0-1.756-2.425,0,0,0,0,1,0,0,3.931,3.931,0,0,0-1.061-.443,1.009,1.009,0,0,0-.354-.066,2.163,2.163,0,0,0-.6-.051,3.853,3.853,0,0,0-2.381.735,3.937,3.937,0,0,0-.024,6.4l0,.005.015.014a4.059,4.059,0,0,0,2.772.718h0a3.949,3.949,0,0,0,3.357-2.919A4.447,4.447,0,0,0,1454.175,1016.112Zm-3.532-1.089a.8.8,0,0,1-.6-1.006.612.612,0,0,1,.44-.458.573.573,0,0,1,.152-.082l.019-.008a.231.231,0,0,1,.152-.033c.075-.037.148,0,.224,0a.843.843,0,0,1,.595,1.006.567.567,0,0,1-.4.458A.6.6,0,0,1,1450.643,1015.023Z" transform="translate(-1445.799 -1012.558)"/><path class="w" d="M1445.047,1066.751l-.35,1.324-1.027.743-.3,1.128,1.393.368-.157.6-1.394-.368-.123.467.352.093-.233.882.617.163-.144.545-.969-.256-.211.8.365.8.62.164-.214.809,1.63.43,2.632-9.97-2.789-.736-.479,1.813Z" transform="translate(-1442.504 -1058.128)"/></g><path class="ag" d="M1483.422,983.954l-.018-.02a1.162,1.162,0,0,0-.465-.179,2.12,2.12,0,0,0-.725-.186.756.756,0,0,0-.278-.061,3.452,3.452,0,0,0-2.325.691s0,0,0,0a.236.236,0,0,0-.029.022l-.038.037a3.4,3.4,0,0,0-1.444,2.663l-.008.261a2.165,2.165,0,0,1,.6.051c0-.073,0-.186.006-.261a3.051,3.051,0,0,1,1.809-2.611h0a3.087,3.087,0,0,1,1.38-.256,1.467,1.467,0,0,1,.485.086l.037,0a.711.711,0,0,1,.3.08,2.876,2.876,0,0,1,.693.329l.053,0,.168.006.085,0,.168.008.168.009.166.01.141.009A3.69,3.69,0,0,0,1483.422,983.954Zm1.905,2.755a3.562,3.562,0,0,0-.211-.854h0c-.019.013-.039.024-.061.037l-.063.037c-.085.049-.175.1-.27.149-.047.026-.095.052-.144.077a2.518,2.518,0,0,1,.163.787,1.025,1.025,0,0,1-.008.335.381.381,0,0,1-.023.205,4.783,4.783,0,0,1-.129.71l-.038.035a2.837,2.837,0,0,1-.641.977l-.019.019a.377.377,0,0,0,.165.248.534.534,0,0,0,.108.151.292.292,0,0,0,.111.078,3.386,3.386,0,0,0,.443-.571l.019-.018a2.542,2.542,0,0,0,.393-.779l.019-.018a.4.4,0,0,0,.042-.224,2.209,2.209,0,0,0,.13-.784c0-.111.006-.261.007-.375A.446.446,0,0,0,1485.327,986.708Zm-2.789,3.325c-.208.052-.452.1-.677.135l-.3-.006a2.952,2.952,0,0,1-2.147-1.1,2.855,2.855,0,0,1-.595-1.006c-.076,0-.149-.04-.224,0a.231.231,0,0,0-.152.033l-.019.008c-.068.023-.135-.009-.186.008.018.019,0,.037.034.075a3.787,3.787,0,0,0,.738,1.346l.037.038a3.464,3.464,0,0,0,2.463,1.161,3.629,3.629,0,0,0,.449.009,1.718,1.718,0,0,0,.281-.013l.019-.018a.679.679,0,0,0,.263-.07,1.627,1.627,0,0,1,.006-.3C1482.514,990.239,1482.554,990.129,1482.538,990.034Z" transform="translate(-1473.585 -983.501)"/></g></g><path class="g" d="M1231.727,1743.238q-1.931-.084-3.86-.182c1.987-3.922,7.139-13.41,9.895-12.251C1240.378,1731.907,1234.674,1739.56,1231.727,1743.238Z" transform="translate(-736.126 -1376.646)"/><path class="g" d="M1280.747,1793.286q-1.589-.055-3.178-.12c1.31-1.915,4.252-5.765,6.52-5.385C1286.1,1788.118,1283.012,1791.251,1280.747,1793.286Z" transform="translate(-779.537 -1426.47)"/><path class="g" d="M1176.052,1749.572c-.812-.048-1.622-.1-2.432-.147.033-2.314.328-10.328,2.82-10.951C1178.871,1737.866,1176.8,1746.638,1176.052,1749.572Z" transform="translate(-688.746 -1383.401)"/></g></svg>