<svg id="_2950657" data-name="2950657" xmlns="http://www.w3.org/2000/svg" width="21.913" height="20.941" viewBox="0 0 21.913 20.941">
  <g id="Grupo_24" data-name="Grupo 24" transform="translate(0 0)">
    <path id="Trazado_45" data-name="Trazado 45" d="M213.482,191.141H199.5a.441.441,0,0,0,0,.881h13.986a.441.441,0,0,0,0-.881Z" transform="translate(-195.532 -187.286)" fill="#fe3151"/>
    <path id="Trazado_48" data-name="Trazado 48" d="M158.46,125.549H141.673a2.566,2.566,0,0,0-2.563,2.564v10.555a2.566,2.566,0,0,0,2.563,2.564h11.766a.406.406,0,0,1,.321.155l3.8,4.81a.757.757,0,0,0,.6.293.78.78,0,0,0,.256-.044.758.758,0,0,0,.515-.724v-4.534a2.575,2.575,0,0,0,2.1-2.52V128.112a2.566,2.566,0,0,0-2.563-2.563Zm1.682,13.119a1.688,1.688,0,0,1-1.66,1.681.441.441,0,0,0-.435.441v4.6l-3.595-4.551a1.283,1.283,0,0,0-1.012-.491H141.673a1.684,1.684,0,0,1-1.682-1.682V128.112a1.684,1.684,0,0,1,1.682-1.682H158.46a1.684,1.684,0,0,1,1.682,1.682Z" transform="translate(-139.11 -125.549)" fill="#fe3151"/>
  </g>
</svg>
