<svg xmlns="http://www.w3.org/2000/svg" width="22.395" height="21.401" viewBox="0 0 22.395 21.401">
  <g id="_2950657" data-name="2950657" transform="translate(-8.355 -35.842)">
    <g id="Grupo_24" data-name="Grupo 24" transform="translate(0 30.11)">
      <path id="Trazado_45" data-name="Trazado 45" d="M213.8,191.141H199.505a.45.45,0,0,0,0,.9H213.8a.45.45,0,1,0,0-.9Z" transform="translate(-187.1 -181.47)" fill="#393a34"/>
      <path id="Trazado_48" data-name="Trazado 48" d="M158.885,125.549H141.73a2.623,2.623,0,0,0-2.62,2.62v10.788a2.623,2.623,0,0,0,2.62,2.62h12.024a.415.415,0,0,1,.328.159l3.883,4.916a.774.774,0,0,0,.61.3.8.8,0,0,0,.262-.045.775.775,0,0,0,.527-.74v-4.634a2.632,2.632,0,0,0,2.141-2.575V128.169a2.623,2.623,0,0,0-2.62-2.62Zm1.719,13.407a1.725,1.725,0,0,1-1.7,1.718.45.45,0,0,0-.445.45v4.7l-3.674-4.651a1.311,1.311,0,0,0-1.035-.5H141.73a1.721,1.721,0,0,1-1.719-1.719V128.169a1.721,1.721,0,0,1,1.719-1.719h17.156a1.721,1.721,0,0,1,1.719,1.719Z" transform="translate(-130.755 -119.817)" fill="#393a34"/>
    </g>
  </g>
</svg>
