<svg xmlns="http://www.w3.org/2000/svg" width="31.348" height="20.55" viewBox="0 0 31.348 20.55">
  <g id="Grupo_4518" data-name="Grupo 4518" transform="translate(-152 -89.247)" opacity="0.78">
    <path id="Trazado_1" data-name="Trazado 1" d="M271.217,556.484c-2.11-3.784-4.264-7.543-6.5-11.25a4.645,4.645,0,0,0-7.414-.67c-.412.436-.746.947-1.141,1.457a3.775,3.775,0,0,1-.25-.291c-1.671-2.664-4.316-3.468-6.758-2.05-2.3,1.339-2.889,4.193-1.391,6.83.809,1.427,1.655,2.837,2.464,4.267.217.381.535.774.241,1.265a36.516,36.516,0,0,1-2.953,4.912,3.153,3.153,0,0,1-5.263-3.279c.266-.672.615-1.314.927-1.97.1-.669-.143-1.095-.851-1.185-.384.617-.8,1.216-1.15,1.852a4.713,4.713,0,1,0,8.213,4.621,23.89,23.89,0,0,1,2.3-3.655c.7,1.2,1.331,2.294,1.97,3.383,1.567,2.678,4.33,3.548,6.728,2.127s2.969-4.256,1.408-6.934c-1.262-2.168-2.535-4.327-3.773-6.509a3.145,3.145,0,0,1,1.1-4.407,3.212,3.212,0,0,1,4.412,1.18q3.149,5.363,6.212,10.781a3.217,3.217,0,0,1-4.338,4.563c-.5-.233-1.035-.653-1.421.033-.434.771.3,1.037.782,1.323a4.7,4.7,0,0,0,6.446-6.393Zm-19.606-2.363c-.982-1.688-1.858-3.117-2.664-4.591a3.225,3.225,0,0,1,.661-4.3,3.291,3.291,0,0,1,4.042.033,3.2,3.2,0,0,1,.6,4.294C253.425,551.016,252.577,552.453,251.611,554.122Zm9.033,2.9a3.2,3.2,0,0,1-1.032,4.536,3.3,3.3,0,0,1-4.492-1.312c-.025-.038-.047-.08-.069-.118-.823-1.471-2.187-2.9-2.316-4.426-.121-1.482,1.435-2.848,2.2-4.294.362-.681.774-1.334,1.232-2.116C257.725,551.97,259.2,554.487,260.645,557.019Z" transform="translate(-88.517 -453.742)" fill="#393a34"/>
    <path id="Trazado_2" data-name="Trazado 2" d="M247.969,575.11l-.851-1.185c.649-1.193,1.291-2.39,1.949-3.578.268-.483.659-.811,1.222-.479.508.3.4.737.141,1.178A36.7,36.7,0,0,1,247.969,575.11Z" transform="translate(-93.306 -473.148)" fill="#393a34"/>
  </g>
</svg>
